<svg xmlns="http://www.w3.org/2000/svg" width="70" height="70" viewBox="0 0 70 70">
  <g id="Grupo_1101726" data-name="Grupo 1101726" transform="translate(-202.135 -9148)">
    <rect id="Rectángulo_403171" data-name="Rectángulo 403171" width="70" height="70" transform="translate(202.135 9148)" fill="#fbd8d1"/>
    <g id="Grupo_1102323" data-name="Grupo 1102323" transform="translate(214.135 9160)">
      <g id="Grupo_1102321" data-name="Grupo 1102321" transform="translate(0.788 0.788)">
        <path id="Trazado_879378" data-name="Trazado 879378" d="M53.211,10.683v31.5H7.533v-31.5a3.149,3.149,0,0,1,3.15-3.15H50.061a3.149,3.149,0,0,1,3.15,3.15Z" transform="translate(-7.533 -7.533)" fill="#607d8b"/>
        <path id="Trazado_879379" data-name="Trazado 879379" d="M50.848,10.683v31.5H7.533v-31.5a3.149,3.149,0,0,1,3.15-3.15H47.7a3.149,3.149,0,0,1,3.15,3.15Z" transform="translate(-7.533 -7.533)" fill="#cfd8dc"/>
        <path id="Trazado_879380" data-name="Trazado 879380" d="M30.373,7.533V18.007a15.092,15.092,0,0,0-10.427,5.158c-.937-.748-1.764-1.654-2.749-2.347-2.851-2-6.285-2.252-9.663-2.048V10.683a3.149,3.149,0,0,1,3.15-3.15Z" transform="translate(-7.534 -7.533)" fill="#00bcd4"/>
        <path id="Trazado_879381" data-name="Trazado 879381" d="M479.23,191.171V194.7h-2.363v-3.237c.386-.024.764-.063,1.15-.11a2.428,2.428,0,0,0,.252-.031c.126-.016.252-.031.378-.055C478.836,191.242,479.033,191.2,479.23,191.171Z" transform="translate(-433.552 -174.223)" fill="#2e7d32"/>
        <path id="Trazado_879382" data-name="Trazado 879382" d="M275.476,134.729v3.237H255v-9.238c3.379-.2,6.812.047,9.663,2.048.984.693,1.811,1.6,2.749,2.347a6.721,6.721,0,0,0,1.654,1.016,12.593,12.593,0,0,0,5.19.662c.252-.008.5-.024.756-.039C275.169,134.752,275.319,134.744,275.476,134.729Z" transform="translate(-232.161 -117.489)" fill="#4caf50"/>
        <path id="Trazado_879383" data-name="Trazado 879383" d="M479.229,121.027V127.5c-.2.031-.394.071-.583.095-.126.024-.252.039-.378.055a2.436,2.436,0,0,1-.252.031c-.386.047-.764.087-1.15.11v-6.411A16.181,16.181,0,0,1,479.229,121.027Z" transform="translate(-433.551 -110.553)" fill="#2e7d32"/>
        <path id="Trazado_879384" data-name="Trazado 879384" d="M397.55,124.867v6.411c-.158.016-.307.024-.465.031-.252.016-.5.031-.756.039a12.593,12.593,0,0,1-5.19-.662,6.722,6.722,0,0,1-1.654-1.016A14.917,14.917,0,0,1,397.55,124.867Z" transform="translate(-354.234 -114.038)" fill="#4caf50"/>
        <path id="Trazado_879385" data-name="Trazado 879385" d="M448.246,10.683v7.324a16.19,16.19,0,0,0-2.363.354V10.683a3.149,3.149,0,0,0-3.15-3.15H445.1a3.149,3.149,0,0,1,3.15,3.15Z" transform="translate(-402.568 -7.533)" fill="#0377bc"/>
        <path id="Trazado_879386" data-name="Trazado 879386" d="M275.477,10.683v7.679a14.917,14.917,0,0,0-8.064,4.8c-.937-.748-1.764-1.654-2.749-2.347-2.851-2-6.285-2.252-9.663-2.048V7.533h17.326a3.149,3.149,0,0,1,3.15,3.15Z" transform="translate(-232.162 -7.533)" fill="#02a9f4"/>
        <g id="Grupo_1102318" data-name="Grupo 1102318" transform="translate(0 10.474)">
          <path id="Trazado_879387" data-name="Trazado 879387" d="M30.372,134.437v3.528H7.533v-9.238c3.379-.2,6.812.047,9.663,2.048.984.693,1.811,1.6,2.749,2.347a6.722,6.722,0,0,0,1.654,1.016,12.593,12.593,0,0,0,5.19.662c.252-.008.5-.024.756-.039A21.28,21.28,0,0,0,30.372,134.437Z" transform="translate(-7.533 -127.964)" fill="#cddc39"/>
          <path id="Trazado_879388" data-name="Trazado 879388" d="M152.445,121.027V127.5a21.28,21.28,0,0,1-2.827.323c-.252.016-.5.031-.756.039a12.593,12.593,0,0,1-5.19-.662,6.721,6.721,0,0,1-1.654-1.016A15.092,15.092,0,0,1,152.445,121.027Z" transform="translate(-129.606 -121.027)" fill="#cddc39"/>
        </g>
        <circle id="Elipse_11622" data-name="Elipse 11622" cx="2.363" cy="2.363" r="2.363" transform="translate(3.15 3.15)" fill="#ff5722"/>
        <circle id="Elipse_11623" data-name="Elipse 11623" cx="2.363" cy="2.363" r="2.363" transform="translate(25.989 3.15)" fill="#ffeb3a"/>
        <g id="Grupo_1102319" data-name="Grupo 1102319" transform="translate(0 33.077)">
          <rect id="Rectángulo_403508" data-name="Rectángulo 403508" width="12.601" height="7.875" transform="translate(16.539 3.15)" fill="#283593"/>
          <path id="Trazado_879389" data-name="Trazado 879389" d="M53.211,365.933v3.15a3.149,3.149,0,0,1-3.15,3.15H10.683a3.149,3.149,0,0,1-3.15-3.15v-3.15Z" transform="translate(-7.533 -365.933)" fill="#283593"/>
          <path id="Trazado_879390" data-name="Trazado 879390" d="M143.669,469.908v1.575h-25.2v-1.575a1.58,1.58,0,0,1,1.575-1.575h22.051A1.58,1.58,0,0,1,143.669,469.908Z" transform="translate(-108.229 -458.882)" fill="#283593"/>
        </g>
        <g id="Grupo_1102320" data-name="Grupo 1102320" transform="translate(0 33.077)">
          <rect id="Rectángulo_403509" data-name="Rectángulo 403509" width="10.238" height="7.875" transform="translate(16.539 3.15)" fill="#3f51b5"/>
          <path id="Trazado_879391" data-name="Trazado 879391" d="M50.848,365.933v3.15a3.149,3.149,0,0,1-3.15,3.15H10.683a3.149,3.149,0,0,1-3.15-3.15v-3.15Z" transform="translate(-7.533 -365.933)" fill="#3f51b5"/>
          <path id="Trazado_879392" data-name="Trazado 879392" d="M141.306,469.908v1.575H118.467v-1.575a1.58,1.58,0,0,1,1.575-1.575h19.689A1.58,1.58,0,0,1,141.306,469.908Z" transform="translate(-108.229 -458.882)" fill="#3f51b5"/>
        </g>
      </g>
      <g id="Grupo_1102322" data-name="Grupo 1102322">
        <path id="Trazado_879393" data-name="Trazado 879393" d="M43.315,0H3.938A3.942,3.942,0,0,0,0,3.938V37.015a3.942,3.942,0,0,0,3.938,3.938h12.6v1.575H12.6a2.365,2.365,0,0,0-2.363,2.363v1.575a.788.788,0,0,0,.788.788h25.2a.787.787,0,0,0,.788-.788V44.89a2.365,2.365,0,0,0-2.363-2.363H30.714V40.953h12.6a3.942,3.942,0,0,0,3.938-3.938V3.938A3.942,3.942,0,0,0,43.315,0Zm2.363,3.938v6.618a15.9,15.9,0,0,0-9.714,4.772c-.176-.157-.352-.316-.53-.479a17.072,17.072,0,0,0-1.7-1.421c-2.961-2.077-6.443-2.336-9.324-2.23V1.575h18.9A2.365,2.365,0,0,1,45.678,3.938Zm-33,13.071c.006.006.009.013.015.019s.018.009.026.015a7.466,7.466,0,0,0,1.834,1.124,11.745,11.745,0,0,0,4.491.735c.344,0,.685-.007,1.023-.018q.389-.013.778-.035c.717-.04,1.373-.1,1.992-.191v1.819H1.575v-7.7c2.639-.1,5.814.116,8.42,1.944a15.6,15.6,0,0,1,1.536,1.293C11.9,16.349,12.282,16.687,12.68,17.008Zm22.839,0c.006.006.009.013.015.019s.018.009.026.015a7.467,7.467,0,0,0,1.834,1.124,11.745,11.745,0,0,0,4.491.735c.344,0,.685-.007,1.023-.018q.389-.013.778-.035c.717-.04,1.373-.1,1.992-.191v1.819H24.414v-7.7c2.638-.1,5.814.116,8.42,1.944A15.6,15.6,0,0,1,34.37,16.01C34.74,16.349,35.121,16.687,35.519,17.008Zm-12.68.06c-.636.1-1.322.165-2.08.207-.247.014-.493.026-.741.033a11.877,11.877,0,0,1-4.867-.6,4.963,4.963,0,0,1-.774-.41,14.294,14.294,0,0,1,8.462-4.158v4.929ZM1.575,22.051h44.1V33.077H1.575Zm44.1-4.983c-.636.1-1.322.165-2.08.207-.247.014-.493.026-.741.033a11.875,11.875,0,0,1-4.867-.6,4.963,4.963,0,0,1-.774-.41,14.294,14.294,0,0,1,8.462-4.158v4.929ZM3.938,1.575h18.9v8.981a15.9,15.9,0,0,0-9.714,4.772c-.176-.157-.352-.316-.53-.479a17.073,17.073,0,0,0-1.7-1.421C7.938,11.35,4.457,11.091,1.575,11.2V3.938A2.365,2.365,0,0,1,3.938,1.575ZM35.44,44.89v.788H11.813V44.89A.789.789,0,0,1,12.6,44.1H34.652A.789.789,0,0,1,35.44,44.89Zm-6.3-2.363H18.114V40.953H29.139v1.575Zm14.176-3.15H3.938a2.365,2.365,0,0,1-2.363-2.363V34.652h44.1v2.363A2.365,2.365,0,0,1,43.315,39.377Z"/>
        <path id="Trazado_879394" data-name="Trazado 879394" d="M37.283,40.433a3.15,3.15,0,1,0-3.15-3.15A3.15,3.15,0,0,0,37.283,40.433Zm0-4.725a1.575,1.575,0,1,1-1.575,1.575A1.575,1.575,0,0,1,37.283,35.708Z" transform="translate(-30.983 -30.983)"/>
        <path id="Trazado_879395" data-name="Trazado 879395" d="M284.75,40.434a3.15,3.15,0,1,0-3.15-3.15A3.15,3.15,0,0,0,284.75,40.434Zm0-4.725a1.575,1.575,0,1,1-1.575,1.575A1.575,1.575,0,0,1,284.75,35.709Z" transform="translate(-255.611 -30.984)"/>
        <path id="Trazado_879396" data-name="Trazado 879396" d="M71.551,262.3v-4.725a.788.788,0,0,0-1.575,0V262.3h-.788v-3.15a.788.788,0,0,0-1.575,0v3.15h-.788v-.788a.788.788,0,0,0-1.575,0v.788h-.788v-5.513a.788.788,0,1,0-1.575,0V262.3H62.1v-1.575a.788.788,0,0,0-1.575,0V262.3a.788.788,0,1,0,0,1.575H71.551a.788.788,0,1,0,0-1.575Z" transform="translate(-54.225 -232.374)"/>
        <path id="Trazado_879397" data-name="Trazado 879397" d="M266.109,256h-.788a.788.788,0,0,0,0,1.575h.788a.788.788,0,1,0,0-1.575Z" transform="translate(-240.12 -232.374)"/>
        <path id="Trazado_879398" data-name="Trazado 879398" d="M266.109,290.133h-.788a.788.788,0,1,0,0,1.575h.788a.788.788,0,1,0,0-1.575Z" transform="translate(-240.12 -263.356)"/>
        <path id="Trazado_879399" data-name="Trazado 879399" d="M266.109,324.267h-.788a.788.788,0,1,0,0,1.575h.788a.788.788,0,1,0,0-1.575Z" transform="translate(-240.12 -294.34)"/>
        <path id="Trazado_879400" data-name="Trazado 879400" d="M299.455,249.83h8.663a.788.788,0,1,0,1.575,0h3.938a.788.788,0,0,0,0-1.575h-3.938a.788.788,0,1,0-1.575,0h-8.663a.788.788,0,0,0,0,1.575Z" transform="translate(-271.103 -224.628)"/>
        <path id="Trazado_879401" data-name="Trazado 879401" d="M313.63,282.388H301.817a.788.788,0,0,0-1.575,0h-.788a.788.788,0,0,0,0,1.575h.788a.788.788,0,0,0,1.575,0H313.63a.788.788,0,0,0,0-1.575Z" transform="translate(-271.103 -255.611)"/>
        <path id="Trazado_879402" data-name="Trazado 879402" d="M313.63,316.522h-3.938a.788.788,0,0,0-1.575,0h-8.663a.788.788,0,0,0,0,1.575h8.663a.788.788,0,1,0,1.575,0h3.938a.788.788,0,1,0,0-1.575Z" transform="translate(-271.103 -286.595)"/>
      </g>
    </g>
  </g>
</svg>
