<svg xmlns="http://www.w3.org/2000/svg" width="295" height="251.48" viewBox="0 0 295 251.48">
  <g id="_5566770_2896299" data-name="5566770_2896299" transform="translate(-19.147 -44.842)">
    <g id="BACKGROUND" transform="translate(19.147 44.842)">
      <g id="Grupo_1102564" data-name="Grupo 1102564" transform="translate(0.615 18.88)" opacity="0.35">
        <g id="Grupo_1102563" data-name="Grupo 1102563">
          <g id="Grupo_1102557" data-name="Grupo 1102557" transform="translate(229.852 93.071)" opacity="0.41">
            <path id="Trazado_879780" data-name="Trazado 879780" d="M432.754,260.95a60.736,60.736,0,0,1-28.426,66.138,64.594,64.594,0,0,1-15.135,6.248c-.865,1.378-1.8,2.712-2.8,4h45.249A85.5,85.5,0,0,0,450.4,273.71a92.957,92.957,0,0,0-22.771-50.473c-.183.99-.34,1.982-.454,2.98C425.82,238.082,430.174,249.562,432.754,260.95Z" transform="translate(-386.398 -223.237)" fill="#53d0f7"/>
          </g>
          <g id="Grupo_1102558" data-name="Grupo 1102558" transform="translate(9.911 168.673)" opacity="0.41">
            <path id="Trazado_879781" data-name="Trazado 879781" d="M162.121,379.449c-2.654-3.669-4.731-8.344-7.547-12.089-6.03,1.226-11.985,3.015-18.007,4.558-12.325,3.158-25.021,5.507-37.741,5.681-14.132.194-28.542-2.53-40.834-9.792-9.373-5.537-17.616-14-22.074-24.1a73.779,73.779,0,0,0,14.808,38.5H164.261Q163.15,380.867,162.121,379.449Z" transform="translate(-35.919 -343.71)" fill="#53d0f7"/>
          </g>
          <g id="Grupo_1102559" data-name="Grupo 1102559" transform="translate(130.438 0.191)" opacity="0.41">
            <path id="Trazado_879782" data-name="Trazado 879782" d="M251.558,88.327c3.433-.117,7.126-.323,11.155-.628,18.8-1.423,37.421,2.86,55.476,8.775q2.613.856,5.195,1.84a69.873,69.873,0,0,0-28.6-18.988C273.188,71.844,247,74.818,227.98,86.6A171.421,171.421,0,0,1,251.558,88.327Z" transform="translate(-227.98 -75.232)" fill="#53d0f7"/>
          </g>
          <g id="Grupo_1102560" data-name="Grupo 1102560" opacity="0.35">
            <path id="Trazado_879783" data-name="Trazado 879783" d="M52.111,267.7c12.292,7.261,26.7,9.985,40.834,9.792,12.719-.174,25.416-2.523,37.741-5.681,6.023-1.543,11.977-3.332,18.007-4.558-2.481-3.3-5.536-5.879-10.064-6.41-17.518-2.057-35.9,5.486-53.326,6.841-11.707.911-24.155-.664-33.655-7.842-6.162-4.656-10.676-11.39-13.765-18.635A67.231,67.231,0,0,1,36.5,193.457c3.572-10.44,12.334-18.406,15.362-29.04,2.528-8.882-.5-18.125.3-27.094a25.968,25.968,0,0,1,1.044-5.448c2.968-9.546,17.38-23.389,26.231-28.035a149.917,149.917,0,0,1,66.01-17.278c-12.876-2.155-25.072-6.086-46.661-10.7-25.643-5.485-54.328,14.067-69.334,36.716a54.121,54.121,0,0,0-4.031,7.244,59.13,59.13,0,0,0-4.1,36.286c2.918,14.231,11.778,25.165,8.7,40.347-1.873,9.247-2.341,17.814-3.291,26.964A39.532,39.532,0,0,0,30.039,243.6C34.495,253.7,42.738,262.163,52.111,267.7Z" transform="translate(-20.126 -74.927)" fill="#53d0f7"/>
          </g>
          <g id="Grupo_1102561" data-name="Grupo 1102561" transform="translate(154.016 12.384)" opacity="0.47">
            <path id="Trazado_879784" data-name="Trazado 879784" d="M276.707,94.936c-4.029.3-7.721.511-11.155.628a203.763,203.763,0,0,1,35.125,8.3l43.842,14.418A47.894,47.894,0,0,1,377.5,166.46c-.008.142-.018.285-.026.427a72.072,72.072,0,0,1-11.919,35.169c-6.26,9.341-14.9,19.788-17.06,31.253-1.723,9.135,2,18.369,2.452,27.667a42.118,42.118,0,0,1-6.757,24.471A64.569,64.569,0,0,0,359.32,279.2a60.736,60.736,0,0,0,28.426-66.138c-2.58-11.387-6.934-22.867-5.582-34.733.114-1,.27-1.99.454-2.98,1.337-7.218,4.188-14.269,3.578-21.562-.461-5.51-2.887-10.68-5.854-15.346-9.849-15.49-25.738-26.325-42.963-32.889q-2.58-.983-5.195-1.84C314.127,97.8,295.505,93.513,276.707,94.936Z" transform="translate(-265.552 -94.661)" fill="#53d0f7"/>
          </g>
          <g id="Grupo_1102562" data-name="Grupo 1102562" transform="translate(12.659 11.56)" opacity="0.85">
            <path id="Trazado_879785" data-name="Trazado 879785" d="M60.718,138.736a26.016,26.016,0,0,0-1.044,5.448c-.8,8.969,2.228,18.211-.3,27.094-3.027,10.634-11.79,18.6-15.362,29.04A67.231,67.231,0,0,0,45.4,248.065C48.485,255.31,53,262.043,59.16,266.7c9.5,7.178,21.948,8.753,33.655,7.842,17.423-1.355,35.808-8.9,53.326-6.841,4.528.532,7.583,3.11,10.064,6.41,2.816,3.745,4.893,8.42,7.547,12.089q1.025,1.418,2.14,2.759h91.6c.995-1.29,1.931-2.624,2.8-4a42.122,42.122,0,0,0,6.757-24.471c-.452-9.3-4.174-18.531-2.452-27.667,2.163-11.465,10.8-21.912,17.06-31.253A72.072,72.072,0,0,0,293.572,166.4c.009-.142.018-.284.026-.427a47.893,47.893,0,0,0-32.978-48.176l-43.842-14.418a203.7,203.7,0,0,0-35.125-8.3,171.619,171.619,0,0,0-23.578-1.726c-1.709,0-3.414.024-5.118.074A149.9,149.9,0,0,0,86.947,110.7C78.1,115.347,63.686,129.19,60.718,138.736Z" transform="translate(-40.299 -93.348)" fill="#53d0f7"/>
          </g>
        </g>
      </g>
      <circle id="Elipse_11631" data-name="Elipse 11631" cx="2.824" cy="2.824" r="2.824" transform="translate(119.833 13.846)" fill="#3d85fd" opacity="0.58"/>
      <circle id="Elipse_11632" data-name="Elipse 11632" cx="2.824" cy="2.824" r="2.824" transform="translate(51.376 245.832)" fill="#2f4770" opacity="0.58"/>
      <circle id="Elipse_11633" data-name="Elipse 11633" cx="2.196" cy="2.196" r="2.196" transform="translate(225.032 247.039)" fill="#ffb44f" opacity="0.58"/>
      <circle id="Elipse_11634" data-name="Elipse 11634" cx="0.941" cy="0.941" r="0.941" transform="translate(70.249 32.782)" fill="#3d85fd" opacity="0.58"/>
      <path id="Trazado_879786" data-name="Trazado 879786" d="M401.808,100.6a3.391,3.391,0,1,1-2.608-4.024A3.391,3.391,0,0,1,401.808,100.6Z" transform="translate(-159.173 -64.083)" fill="#ffb44f" opacity="0.58"/>
      <path id="Trazado_879787" data-name="Trazado 879787" d="M48.23,85.477a6.622,6.622,0,1,1-5.094-7.859A6.622,6.622,0,0,1,48.23,85.477Z" transform="translate(-25.1 -56.994)" fill="#ffb44f" opacity="0.58"/>
      <path id="Trazado_879788" data-name="Trazado 879788" d="M106.511,54.97a1.33,1.33,0,1,1-1.023-1.578A1.33,1.33,0,0,1,106.511,54.97Z" transform="translate(-50.706 -48.015)" fill="#ffb44f" opacity="0.58"/>
      <path id="Trazado_879789" data-name="Trazado 879789" d="M366.2,49.238a1.33,1.33,0,1,1-1.023-1.578A1.33,1.33,0,0,1,366.2,49.238Z" transform="translate(-147.428 -45.88)" fill="#ffb44f" opacity="0.58"/>
      <path id="Trazado_879790" data-name="Trazado 879790" d="M444.5,46.209a1.13,1.13,0,1,1-.869-1.342A1.13,1.13,0,0,1,444.5,46.209Z" transform="translate(-176.74 -44.842)" fill="#2f4770" opacity="0.58"/>
      <circle id="Elipse_11635" data-name="Elipse 11635" cx="4.658" cy="4.658" r="4.658" transform="translate(268.185 39.29) rotate(-76.714)" fill="#53d0f7" opacity="0.35"/>
      <circle id="Elipse_11636" data-name="Elipse 11636" cx="4.209" cy="4.209" r="4.209" transform="translate(281.527 106.475)" fill="#bfdde8" opacity="0.47"/>
      <path id="Trazado_879791" data-name="Trazado 879791" d="M26.032,258.5a3.443,3.443,0,1,1-3.443-3.443A3.443,3.443,0,0,1,26.032,258.5Z" transform="translate(-19.147 -123.139)" fill="#bfdde8" opacity="0.47"/>
      <path id="Trazado_879792" data-name="Trazado 879792" d="M307.068,405.543H24.144a.732.732,0,0,1-.732-.732h0a.732.732,0,0,1,.732-.732H307.068a.732.732,0,0,1,.732.732h0A.732.732,0,0,1,307.068,405.543Z" transform="translate(-20.736 -178.642)" fill="#233863" stroke="#233863" stroke-miterlimit="10" stroke-width="3"/>
    </g>
    <g id="OBJECTS" transform="translate(31.823 55.239)">
      <g id="Grupo_1102572" data-name="Grupo 1102572" transform="translate(13.834 42.017)">
        <g id="Grupo_1102565" data-name="Grupo 1102565" transform="translate(147.506 58.916)">
          <path id="Trazado_879793" data-name="Trazado 879793" d="M334.152,226.832v9.5a31.85,31.85,0,0,0-9.167,3.8l-6.722-6.722a3.085,3.085,0,0,0-4.363,0l-6.29,6.29a3.085,3.085,0,0,0,0,4.363l6.722,6.722a31.85,31.85,0,0,0-3.8,9.167h-9.5a3.085,3.085,0,0,0-3.085,3.085v8.895a3.085,3.085,0,0,0,3.085,3.085h9.5a31.849,31.849,0,0,0,3.8,9.167l-6.722,6.722a3.085,3.085,0,0,0,0,4.363l6.29,6.29a3.085,3.085,0,0,0,4.363,0l6.722-6.722a31.85,31.85,0,0,0,9.167,3.8v9.5a3.085,3.085,0,0,0,3.085,3.085h8.895a3.085,3.085,0,0,0,3.085-3.085v-9.5a31.849,31.849,0,0,0,9.167-3.8l6.722,6.722a3.085,3.085,0,0,0,4.363,0l6.29-6.29a3.085,3.085,0,0,0,0-4.363l-6.722-6.722a31.85,31.85,0,0,0,3.8-9.167h9.5a3.085,3.085,0,0,0,3.085-3.085v-8.895a3.085,3.085,0,0,0-3.085-3.085h-9.5a31.848,31.848,0,0,0-3.8-9.167l6.722-6.722a3.085,3.085,0,0,0,0-4.363l-6.29-6.29a3.085,3.085,0,0,0-4.363,0l-6.722,6.722a31.85,31.85,0,0,0-9.167-3.8v-9.5a3.085,3.085,0,0,0-3.085-3.085h-8.895A3.084,3.084,0,0,0,334.152,226.832Zm31.239,40.655a23.706,23.706,0,1,1-23.706-23.706A23.706,23.706,0,0,1,365.391,267.487Z" transform="translate(-297.003 -222.806)" fill="#53d0f7"/>
          <path id="Trazado_879794" data-name="Trazado 879794" d="M345.573,311.609h-8.895a4.031,4.031,0,0,1-4.026-4.026v-8.771a32.751,32.751,0,0,1-8.078-3.348l-6.2,6.2a4.03,4.03,0,0,1-5.694,0l-6.289-6.289a4.03,4.03,0,0,1,0-5.694l6.2-6.2a32.723,32.723,0,0,1-3.347-8.078H300.47a4.031,4.031,0,0,1-4.026-4.026v-8.895a4.031,4.031,0,0,1,4.026-4.026h8.771a32.761,32.761,0,0,1,3.347-8.078l-6.2-6.2a4.027,4.027,0,0,1,0-5.694l6.289-6.289a4.031,4.031,0,0,1,5.694,0l6.2,6.2a32.767,32.767,0,0,1,8.078-3.348v-8.771a4.031,4.031,0,0,1,4.026-4.026h8.895a4.031,4.031,0,0,1,4.026,4.026v8.771a32.753,32.753,0,0,1,8.079,3.348l6.2-6.2a4.031,4.031,0,0,1,5.694,0l6.29,6.289a4.027,4.027,0,0,1,0,5.694l-6.2,6.2a32.763,32.763,0,0,1,3.347,8.078h8.772a4.031,4.031,0,0,1,4.026,4.026v8.895a4.031,4.031,0,0,1-4.026,4.026h-8.772a32.721,32.721,0,0,1-3.347,8.078l6.2,6.2a4.03,4.03,0,0,1,0,5.694l-6.29,6.289a4.03,4.03,0,0,1-5.694,0l-6.2-6.2a32.763,32.763,0,0,1-8.079,3.348v8.771A4.029,4.029,0,0,1,345.573,311.609Zm-21.146-18.27a.934.934,0,0,1,.491.139,30.91,30.91,0,0,0,8.9,3.687.94.94,0,0,1,.72.915v9.5a2.146,2.146,0,0,0,2.144,2.144h8.895a2.146,2.146,0,0,0,2.144-2.144v-9.5a.941.941,0,0,1,.72-.915,30.9,30.9,0,0,0,8.9-3.687.941.941,0,0,1,1.157.137l6.722,6.722a2.147,2.147,0,0,0,3.032,0l6.289-6.289a2.146,2.146,0,0,0,0-3.032l-6.722-6.722a.941.941,0,0,1-.137-1.157,30.9,30.9,0,0,0,3.686-8.9.941.941,0,0,1,.915-.72h9.5a2.146,2.146,0,0,0,2.144-2.144v-8.9a2.146,2.146,0,0,0-2.144-2.144h-9.5a.941.941,0,0,1-.915-.72,30.913,30.913,0,0,0-3.686-8.9.941.941,0,0,1,.137-1.157l6.722-6.722a2.144,2.144,0,0,0,0-3.032l-6.289-6.29a2.2,2.2,0,0,0-3.032,0l-6.722,6.722a.939.939,0,0,1-1.157.137,30.845,30.845,0,0,0-8.9-3.686.942.942,0,0,1-.72-.916v-9.5a2.146,2.146,0,0,0-2.144-2.144h-8.895a2.146,2.146,0,0,0-2.144,2.144v9.5a.942.942,0,0,1-.72.916,30.862,30.862,0,0,0-8.9,3.686.943.943,0,0,1-1.157-.137l-6.722-6.722a2.2,2.2,0,0,0-3.032,0l-6.289,6.29a2.145,2.145,0,0,0,0,3.032l6.722,6.722a.942.942,0,0,1,.137,1.157,30.9,30.9,0,0,0-3.686,8.9.94.94,0,0,1-.915.72h-9.5a2.146,2.146,0,0,0-2.144,2.144v8.895a2.146,2.146,0,0,0,2.144,2.144h9.5a.941.941,0,0,1,.915.72,30.905,30.905,0,0,0,3.686,8.9.94.94,0,0,1-.137,1.157l-6.722,6.722a2.146,2.146,0,0,0,0,3.032l6.289,6.289a2.146,2.146,0,0,0,3.032,0l6.722-6.722A.948.948,0,0,1,324.427,293.339Zm9.167-57.561h0Zm7.532,55.8a24.647,24.647,0,1,1,24.647-24.647A24.675,24.675,0,0,1,341.126,291.576Zm0-47.412a22.765,22.765,0,1,0,22.765,22.764A22.79,22.79,0,0,0,341.126,244.164Z" transform="translate(-296.444 -222.247)" fill="#233863"/>
        </g>
        <g id="Grupo_1102571" data-name="Grupo 1102571" transform="translate(102.844)">
          <path id="Trazado_879795" data-name="Trazado 879795" d="M287.588,224.017l-59.947-26.7a3.99,3.99,0,0,1-2.021-5.268l26.408-59.287a3.989,3.989,0,0,1,5.268-2.021l59.947,26.7a3.99,3.99,0,0,1,2.021,5.268L292.856,222A3.989,3.989,0,0,1,287.588,224.017Z" transform="translate(-225.274 -129.119)" fill="#233863" opacity="0.46"/>
          <g id="Grupo_1102566" data-name="Grupo 1102566" transform="translate(0.764)">
            <path id="Trazado_879796" data-name="Trazado 879796" d="M286.145,218.132l-55.783-24.848a3.99,3.99,0,0,1-2.021-5.268l24.848-55.783a3.989,3.989,0,0,1,5.268-2.021l55.783,24.848a3.99,3.99,0,0,1,2.021,5.268l-24.848,55.783A3.989,3.989,0,0,1,286.145,218.132Z" transform="translate(-227.052 -128.924)" fill="#fff"/>
            <path id="Trazado_879797" data-name="Trazado 879797" d="M287.2,218.859a4.9,4.9,0,0,1-2-.427h0l-55.783-24.848a4.93,4.93,0,0,1-2.5-6.511l24.848-55.783a4.929,4.929,0,0,1,6.51-2.5l55.783,24.848a4.93,4.93,0,0,1,2.5,6.51l-24.848,55.783A4.939,4.939,0,0,1,287.2,218.859Zm-1.232-2.146a3.052,3.052,0,0,0,4.024-1.544l24.848-55.783a3.048,3.048,0,0,0-1.544-4.024l-55.783-24.848a3.048,3.048,0,0,0-4.024,1.544l-24.848,55.783a3.048,3.048,0,0,0,1.544,4.024Z" transform="translate(-226.492 -128.364)" fill="#233863"/>
          </g>
          <g id="Grupo_1102570" data-name="Grupo 1102570" transform="translate(11.215 10.498)">
            <g id="Grupo_1102567" data-name="Grupo 1102567" transform="translate(0.047)">
              <rect id="Rectángulo_403707" data-name="Rectángulo 403707" width="51.213" height="51.213" transform="translate(21.782 0.945) rotate(24.01)" fill="#ffb44f"/>
              <path id="Trazado_879798" data-name="Trazado 879798" d="M290.943,214.6a.929.929,0,0,1-.382-.082l-46.782-20.838a.941.941,0,0,1-.477-1.243l20.838-46.782a.942.942,0,0,1,1.243-.477l46.782,20.838a.942.942,0,0,1,.477,1.243L291.8,214.037A.941.941,0,0,1,290.943,214.6ZM245.4,192.339l45.063,20.072,20.072-45.062-45.063-20.072Z" transform="translate(-243.22 -145.092)" fill="#233863"/>
            </g>
            <g id="Grupo_1102568" data-name="Grupo 1102568" transform="translate(0 27.856)">
              <path id="Trazado_879799" data-name="Trazado 879799" d="M249.032,200.339l10.4-8.242a5.127,5.127,0,0,1,8.037,2.363l2.2,6.444a4.058,4.058,0,0,0,6.124,2.045l11.5-7.827a7.093,7.093,0,0,1,11.057,5.249l1.1,12.648-8.021,18.007-46.782-20.838Z" transform="translate(-243.703 -190.041)" fill="#fff"/>
              <path id="Trazado_879800" data-name="Trazado 879800" d="M290.868,231.406a.928.928,0,0,1-.382-.082L243.7,210.487a.941.941,0,0,1-.477-1.243l4.387-9.849a.946.946,0,0,1,.275-.355l10.4-8.241a6.067,6.067,0,0,1,9.512,2.8l2.2,6.443a3.116,3.116,0,0,0,4.7,1.571l11.5-7.827a8.035,8.035,0,0,1,12.525,5.946l1.1,12.648a.944.944,0,0,1-.078.464l-8.019,18.007A.941.941,0,0,1,290.868,231.406ZM245.33,209.151l45.063,20.072,7.539-16.925-1.079-12.405a6.153,6.153,0,0,0-9.591-4.552l-11.5,7.827a5,5,0,0,1-7.544-2.52l-2.2-6.443a4.185,4.185,0,0,0-6.561-1.93l-10.215,8.1Z" transform="translate(-243.145 -189.481)" fill="#233863"/>
            </g>
            <g id="Grupo_1102569" data-name="Grupo 1102569" transform="translate(27.517 19.03)">
              <path id="Trazado_879801" data-name="Trazado 879801" d="M299.426,184.954a5.71,5.71,0,1,1-2.892-7.539A5.71,5.71,0,0,1,299.426,184.954Z" transform="translate(-287.555 -175.977)" fill="#fff"/>
              <path id="Trazado_879802" data-name="Trazado 879802" d="M293.647,188.727a6.655,6.655,0,1,1,6.078-3.948h0a6.666,6.666,0,0,1-6.078,3.948Zm0-11.426a4.77,4.77,0,1,0,4.355,6.712h0a4.775,4.775,0,0,0-4.355-6.712Zm5.214,7.1h0Z" transform="translate(-286.994 -175.417)" fill="#233863"/>
            </g>
          </g>
        </g>
        <path id="Trazado_879803" data-name="Trazado 879803" d="M110.52,306.163h-8.895a4.031,4.031,0,0,1-4.026-4.026v-8.772a32.73,32.73,0,0,1-8.079-3.348l-6.2,6.2a4.032,4.032,0,0,1-5.694,0l-6.289-6.29a4.03,4.03,0,0,1,0-5.694l6.2-6.2a32.761,32.761,0,0,1-3.348-8.078H65.417a4.031,4.031,0,0,1-4.026-4.026v-8.9a4.031,4.031,0,0,1,4.026-4.026h8.771a32.751,32.751,0,0,1,3.348-8.078l-6.2-6.2a4.027,4.027,0,0,1,0-5.694l6.289-6.289a4.03,4.03,0,0,1,5.694,0l6.2,6.2A32.778,32.778,0,0,1,97.6,229.6v-8.772a4.031,4.031,0,0,1,4.026-4.026h8.895a4.031,4.031,0,0,1,4.026,4.026V229.6a32.729,32.729,0,0,1,8.078,3.348l6.2-6.2a4.031,4.031,0,0,1,5.694,0l6.289,6.29a4.027,4.027,0,0,1,0,5.694l-6.2,6.2a32.761,32.761,0,0,1,3.347,8.078h8.771a4.031,4.031,0,0,1,4.026,4.026v8.9a4.031,4.031,0,0,1-4.026,4.026h-8.771a32.761,32.761,0,0,1-3.347,8.078l6.2,6.2a4.03,4.03,0,0,1,0,5.694l-6.289,6.29a4.032,4.032,0,0,1-5.694,0l-6.2-6.2a32.719,32.719,0,0,1-8.078,3.348v8.772A4.031,4.031,0,0,1,110.52,306.163ZM89.373,287.892a.934.934,0,0,1,.491.139,30.9,30.9,0,0,0,8.9,3.687.94.94,0,0,1,.72.915v9.5a2.146,2.146,0,0,0,2.144,2.144h8.895a2.146,2.146,0,0,0,2.144-2.144v-9.5a.941.941,0,0,1,.72-.915,30.88,30.88,0,0,0,8.9-3.687.941.941,0,0,1,1.157.137l6.722,6.722a2.149,2.149,0,0,0,3.032,0l6.289-6.29a2.146,2.146,0,0,0,0-3.032l-6.722-6.722a.942.942,0,0,1-.137-1.157,30.905,30.905,0,0,0,3.686-8.9.941.941,0,0,1,.915-.72h9.5a2.146,2.146,0,0,0,2.144-2.144v-8.9a2.146,2.146,0,0,0-2.144-2.144h-9.5a.941.941,0,0,1-.915-.72,30.912,30.912,0,0,0-3.686-8.9.942.942,0,0,1,.137-1.157l6.722-6.722a2.145,2.145,0,0,0,0-3.032l-6.289-6.29a2.147,2.147,0,0,0-3.032,0l-6.722,6.722a.939.939,0,0,1-1.157.137,30.879,30.879,0,0,0-8.9-3.686.942.942,0,0,1-.72-.915v-9.5a2.146,2.146,0,0,0-2.144-2.144h-8.895a2.146,2.146,0,0,0-2.144,2.144v9.5a.941.941,0,0,1-.72.915,30.888,30.888,0,0,0-8.9,3.686.941.941,0,0,1-1.157-.137l-6.722-6.722a2.146,2.146,0,0,0-3.032,0l-6.29,6.29a2.145,2.145,0,0,0,0,3.032l6.722,6.722a.942.942,0,0,1,.137,1.157,30.908,30.908,0,0,0-3.687,8.9.94.94,0,0,1-.915.72h-9.5a2.146,2.146,0,0,0-2.144,2.144v8.9a2.146,2.146,0,0,0,2.144,2.144h9.5a.941.941,0,0,1,.915.72,30.908,30.908,0,0,0,3.687,8.9.942.942,0,0,1-.137,1.157l-6.722,6.722a2.146,2.146,0,0,0,0,3.032l6.29,6.29a2.148,2.148,0,0,0,3.032,0l6.722-6.722A.936.936,0,0,1,89.373,287.892Zm9.167-57.561h0Zm7.532,55.8a24.647,24.647,0,1,1,24.647-24.647A24.675,24.675,0,0,1,106.072,286.128Zm0-47.412a22.765,22.765,0,1,0,22.764,22.765A22.79,22.79,0,0,0,106.072,238.717Z" transform="translate(-61.391 -161.302)" fill="#53d0f7"/>
      </g>
      <g id="Grupo_1102575" data-name="Grupo 1102575" transform="translate(0 58.602)">
        <g id="Grupo_1102573" data-name="Grupo 1102573" transform="translate(0 1.901)">
          <path id="Trazado_879804" data-name="Trazado 879804" d="M78.288,170.754H74.223a11.676,11.676,0,0,0-23.347,0H46.81a5.982,5.982,0,0,0-5.964,5.964h0a5.982,5.982,0,0,0,5.964,5.964H78.288a5.982,5.982,0,0,0,5.964-5.964h0A5.981,5.981,0,0,0,78.288,170.754Z" transform="translate(-39.905 -158.382)" fill="#fff"/>
          <path id="Trazado_879805" data-name="Trazado 879805" d="M77.73,183.065H46.253a6.906,6.906,0,1,1,0-13.811H49.43a12.618,12.618,0,0,1,25.124,0h3.177a6.906,6.906,0,1,1,0,13.811ZM46.253,171.137a5.023,5.023,0,1,0,0,10.046H77.73a5.023,5.023,0,1,0,0-10.046H73.664a.942.942,0,0,1-.941-.922,10.735,10.735,0,0,0-21.465,0,.942.942,0,0,1-.941.922Z" transform="translate(-39.347 -157.823)" fill="#233863"/>
        </g>
        <g id="Grupo_1102574" data-name="Grupo 1102574" transform="translate(212.309)">
          <path id="Trazado_879806" data-name="Trazado 879806" d="M419.009,168.458h-4.326a12.426,12.426,0,0,0-24.846,0h-4.326a6.365,6.365,0,0,0-6.347,6.347h0a6.365,6.365,0,0,0,6.347,6.347h33.5a6.365,6.365,0,0,0,6.347-6.347h0A6.365,6.365,0,0,0,419.009,168.458Z" transform="translate(-378.223 -155.352)" fill="#fff"/>
          <path id="Trazado_879807" data-name="Trazado 879807" d="M418.451,181.535h-33.5a7.288,7.288,0,0,1,0-14.577h3.436a13.367,13.367,0,0,1,26.626,0h3.436a7.288,7.288,0,1,1,0,14.577Zm-33.5-12.694a5.406,5.406,0,1,0,0,10.811h33.5a5.406,5.406,0,1,0,0-10.811h-4.326a.942.942,0,0,1-.941-.922,11.484,11.484,0,0,0-22.964,0,.942.942,0,0,1-.941.922h-4.326Z" transform="translate(-377.664 -154.793)" fill="#233863"/>
        </g>
      </g>
      <g id="Grupo_1102626" data-name="Grupo 1102626" transform="translate(25.143 89.116)">
        <g id="Grupo_1102606" data-name="Grupo 1102606" transform="translate(8.856)">
          <g id="Grupo_1102583" data-name="Grupo 1102583">
            <g id="Grupo_1102577" data-name="Grupo 1102577" transform="translate(20.624)">
              <path id="Trazado_879808" data-name="Trazado 879808" d="M281.376,310.678H127.255V207.411a3.128,3.128,0,0,1,3.128-3.128H278.248a3.128,3.128,0,0,1,3.128,3.128Z" transform="translate(-126.712 -203.74)" fill="#ecf1f7"/>
              <g id="Grupo_1102576" data-name="Grupo 1102576">
                <path id="Trazado_879809" data-name="Trazado 879809" d="M127.89,310.516H281.214V207.647a2.733,2.733,0,0,0-2.73-2.73H130.619a2.733,2.733,0,0,0-2.729,2.73Z" transform="translate(-126.949 -203.976)" fill="#2f4770"/>
                <path id="Trazado_879810" data-name="Trazado 879810" d="M280.656,310.9H127.331a.942.942,0,0,1-.941-.941V207.089a3.676,3.676,0,0,1,3.671-3.672H277.926a3.676,3.676,0,0,1,3.672,3.672V309.957A.942.942,0,0,1,280.656,310.9Zm-152.383-1.883H279.714V207.089a1.791,1.791,0,0,0-1.789-1.789H130.061a1.791,1.791,0,0,0-1.789,1.789V309.016Z" transform="translate(-126.39 -203.417)" fill="#233863"/>
              </g>
            </g>
            <g id="Grupo_1102578" data-name="Grupo 1102578" transform="translate(87.936 101.915)">
              <path id="Trazado_879811" data-name="Trazado 879811" d="M254.235,368.2H233.652v-2.38h20.583Z" transform="translate(-233.652 -365.819)" fill="#243762"/>
            </g>
            <g id="Grupo_1102579" data-name="Grupo 1102579" transform="translate(96.467 2.803)">
              <path id="Trazado_879812" data-name="Trazado 879812" d="M250.7,209.523a1.73,1.73,0,1,1-1.728-1.64A1.686,1.686,0,0,1,250.7,209.523Z" transform="translate(-247.247 -207.883)" fill="#ecf1f7"/>
            </g>
            <g id="Grupo_1102582" data-name="Grupo 1102582" transform="translate(0 117.666)">
              <g id="Grupo_1102581" data-name="Grupo 1102581">
                <g id="Grupo_1102580" data-name="Grupo 1102580">
                  <path id="Trazado_879813" data-name="Trazado 879813" d="M285.7,399.432H98.7c-2.029,0-3.674-1.1-3.674-2.454v-3.868c0-.382.464-.692,1.035-.692H288.5c.572,0,1.035.309,1.035.692v3.76C289.533,398.285,287.816,399.432,285.7,399.432Z" transform="translate(-94.084 -391.478)" fill="#2f4770"/>
                  <path id="Trazado_879814" data-name="Trazado 879814" d="M285.14,399.815h-187c-2.589,0-4.616-1.492-4.616-3.4v-3.867a1.81,1.81,0,0,1,1.977-1.633H287.938a1.81,1.81,0,0,1,1.977,1.633v3.76C289.916,398.277,287.818,399.815,285.14,399.815ZM95.407,392.809v3.61c0,.714,1.168,1.513,2.733,1.513h187c1.705,0,2.893-.853,2.893-1.62v-3.5a.593.593,0,0,0-.094-.008H95.5A.6.6,0,0,0,95.407,392.809Z" transform="translate(-93.525 -390.919)" fill="#233863"/>
                </g>
              </g>
            </g>
          </g>
          <g id="Grupo_1102588" data-name="Grupo 1102588" transform="translate(27.037 8.049)">
            <g id="Grupo_1102587" data-name="Grupo 1102587">
              <g id="Grupo_1102584" data-name="Grupo 1102584">
                <path id="Trazado_879815" data-name="Trazado 879815" d="M141.534,307.7H275.183a3.424,3.424,0,0,0,3.425-3.425V221.166a3.424,3.424,0,0,0-3.425-3.424H141.534a3.424,3.424,0,0,0-3.424,3.424v83.112A3.424,3.424,0,0,0,141.534,307.7Z" transform="translate(-137.168 -216.801)" fill="#fff"/>
                <path id="Trazado_879816" data-name="Trazado 879816" d="M274.624,308.085H140.975a4.37,4.37,0,0,1-4.366-4.365V220.608a4.37,4.37,0,0,1,4.366-4.365H274.624a4.371,4.371,0,0,1,4.366,4.365V303.72A4.37,4.37,0,0,1,274.624,308.085Zm-133.649-89.96a2.486,2.486,0,0,0-2.483,2.483V303.72a2.485,2.485,0,0,0,2.483,2.483H274.624a2.485,2.485,0,0,0,2.483-2.483V220.608a2.485,2.485,0,0,0-2.483-2.483Z" transform="translate(-136.609 -216.243)" fill="#233863"/>
              </g>
              <path id="Trazado_879817" data-name="Trazado 879817" d="M141.534,307.7H275.183a3.424,3.424,0,0,0,3.425-3.425V221.166a3.424,3.424,0,0,0-3.425-3.424H141.534a3.424,3.424,0,0,0-3.424,3.424v83.112A3.424,3.424,0,0,0,141.534,307.7Z" transform="translate(-137.168 -216.801)" fill="#233863" opacity="0.11"/>
              <g id="Grupo_1102586" data-name="Grupo 1102586" transform="translate(0.771 0.83)">
                <g id="Grupo_1102585" data-name="Grupo 1102585">
                  <path id="Trazado_879818" data-name="Trazado 879818" d="M278.258,226.122v-3.26c0-2.373-1.521-4.3-3.4-4.3H142.236c-1.876,0-3.4,1.923-3.4,4.3v3.273Z" transform="translate(-138.21 -217.938)" fill="#31a8ff"/>
                  <path id="Trazado_879819" data-name="Trazado 879819" d="M138.466,226.389a.628.628,0,0,1-.628-.628v-3.273c0-2.715,1.806-4.924,4.026-4.924H274.487c2.22,0,4.026,2.209,4.026,4.924v3.26a.627.627,0,0,1-.628.628Zm139.42-.64h0ZM141.864,218.82c-1.527,0-2.771,1.646-2.771,3.669v2.645l138.165-.013v-2.633c0-2.023-1.243-3.669-2.771-3.669H141.864Z" transform="translate(-137.838 -217.565)" fill="#233863"/>
                </g>
                <circle id="Elipse_11637" data-name="Elipse 11637" cx="0.791" cy="0.791" r="0.791" transform="translate(126.686 3.523)" fill="#fff"/>
                <circle id="Elipse_11638" data-name="Elipse 11638" cx="0.791" cy="0.791" r="0.791" transform="translate(129.851 3.523)" fill="#fff"/>
                <path id="Trazado_879820" data-name="Trazado 879820" d="M351.385,223.97a.791.791,0,1,1-.791-.791A.791.791,0,0,1,351.385,223.97Z" transform="translate(-216.785 -219.656)" fill="#fff"/>
              </g>
            </g>
          </g>
          <g id="Grupo_1102591" data-name="Grupo 1102591" transform="translate(2.063 105.694)">
            <g id="Grupo_1102589" data-name="Grupo 1102589" transform="translate(0 0.399)">
              <path id="Trazado_879821" data-name="Trazado 879821" d="M117.178,373.977,98.313,385.063l190.031-.083L270.98,374.027Z" transform="translate(-97.371 -373.036)" fill="#2f4770"/>
              <path id="Trazado_879822" data-name="Trazado 879822" d="M97.754,385.447a.941.941,0,0,1-.477-1.753l18.865-11.086a.936.936,0,0,1,.477-.13h0l153.8.05a.94.94,0,0,1,.5.145l17.364,10.953a.941.941,0,0,1-.5,1.738Zm19.121-11.086-15.658,9.2,183.315-.081-14.382-9.072Z" transform="translate(-96.812 -372.478)" fill="#233863"/>
            </g>
            <g id="Grupo_1102590" data-name="Grupo 1102590" transform="translate(0.499)" opacity="0.23">
              <path id="Trazado_879823" data-name="Trazado 879823" d="M117.232,373.342a1.11,1.11,0,0,0-.562.152s-17.885,11.731-18.73,11.731l187.813-.083a1.108,1.108,0,0,0,.591-2.045l-15.118-9.536a1.106,1.106,0,0,0-.591-.171Z" transform="translate(-97.731 -372.401)" fill="#ecf1f7"/>
              <path id="Trazado_879824" data-name="Trazado 879824" d="M97.817,385.609v-1.883a.682.682,0,0,0-.209.029c1.13-.393,11.9-7.328,18.423-11.606a2.078,2.078,0,0,1,1.078-.307h0l153.4.05a2.049,2.049,0,0,1,1.092.316l15.118,9.536a2.049,2.049,0,0,1-1.091,3.782l-187.813.083Zm19.291-11.884a.164.164,0,0,0-.084.023c-8.289,5.438-12.944,8.383-15.588,9.977l184.193-.082a.166.166,0,0,0,.089-.307L270.6,373.8a.173.173,0,0,0-.089-.026l-153.4-.05Z" transform="translate(-97.607 -371.842)" fill="#233863"/>
            </g>
          </g>
          <g id="Grupo_1102605" data-name="Grupo 1102605" transform="translate(32.921 105.694)">
            <g id="Grupo_1102594" data-name="Grupo 1102594">
              <g id="Grupo_1102593" data-name="Grupo 1102593">
                <g id="Grupo_1102592" data-name="Grupo 1102592">
                  <path id="Trazado_879825" data-name="Trazado 879825" d="M160.929,373.342l-13.444,7.9h0l128.226-.056-12.383-7.811Z" transform="translate(-146.543 -372.401)" fill="#fff"/>
                  <path id="Trazado_879826" data-name="Trazado 879826" d="M146.926,381.626a.941.941,0,0,1-.476-1.753l13.445-7.9a.936.936,0,0,1,.477-.13h0l102.4.034a.935.935,0,0,1,.5.146l12.383,7.811a.941.941,0,0,1-.5,1.738l-128.228.056Zm13.7-7.9-10.238,6.018,121.51-.054-9.4-5.93Z" transform="translate(-145.985 -371.842)" fill="#233863"/>
                </g>
              </g>
            </g>
            <g id="Grupo_1102595" data-name="Grupo 1102595" transform="translate(11.84 0.002)">
              <line id="Línea_787" data-name="Línea 787" x1="11.241" y2="7.893" transform="translate(0.941 0.942)" fill="#fff"/>
              <path id="Trazado_879827" data-name="Trazado 879827" d="M165.8,381.622a.942.942,0,0,1-.542-1.712l11.24-7.893a.941.941,0,1,1,1.083,1.541l-11.24,7.893A.936.936,0,0,1,165.8,381.622Z" transform="translate(-164.853 -371.845)" fill="#233863"/>
            </g>
            <g id="Grupo_1102596" data-name="Grupo 1102596" transform="translate(23.988 0.003)">
              <line id="Línea_788" data-name="Línea 788" x1="8.73" y2="7.893" transform="translate(0.941 0.941)" fill="#fff"/>
              <path id="Trazado_879828" data-name="Trazado 879828" d="M185.151,381.622a.941.941,0,0,1-.631-1.639l8.73-7.893a.941.941,0,0,1,1.263,1.4l-8.73,7.893A.937.937,0,0,1,185.151,381.622Z" transform="translate(-184.21 -371.847)" fill="#233863"/>
            </g>
            <g id="Grupo_1102597" data-name="Grupo 1102597" transform="translate(37.24 0.416)">
              <line id="Línea_789" data-name="Línea 789" x1="4.879" y2="6.937" transform="translate(0.942 0.941)" fill="#fff"/>
              <path id="Trazado_879829" data-name="Trazado 879829" d="M206.269,381.325a.941.941,0,0,1-.769-1.483l4.879-6.937a.941.941,0,1,1,1.539,1.084l-4.879,6.937A.941.941,0,0,1,206.269,381.325Z" transform="translate(-205.328 -372.505)" fill="#233863"/>
            </g>
            <g id="Grupo_1102598" data-name="Grupo 1102598" transform="translate(104.699 0.003)">
              <line id="Línea_790" data-name="Línea 790" x2="11.24" y2="7.893" transform="translate(0.941 0.941)" fill="#fff"/>
              <path id="Trazado_879830" data-name="Trazado 879830" d="M325,381.622a.937.937,0,0,1-.54-.171l-11.24-7.893a.941.941,0,1,1,1.083-1.541l11.24,7.893a.941.941,0,0,1-.542,1.711Z" transform="translate(-312.824 -371.847)" fill="#233863"/>
            </g>
            <g id="Grupo_1102599" data-name="Grupo 1102599" transform="translate(95.062 0.004)">
              <line id="Línea_791" data-name="Línea 791" x2="8.73" y2="7.893" transform="translate(0.941 0.941)" fill="#fff"/>
              <path id="Trazado_879831" data-name="Trazado 879831" d="M307.139,381.623a.937.937,0,0,1-.631-.243l-8.73-7.893a.941.941,0,0,1,1.263-1.4l8.73,7.893a.941.941,0,0,1-.631,1.639Z" transform="translate(-297.467 -371.848)" fill="#233863"/>
            </g>
            <g id="Grupo_1102600" data-name="Grupo 1102600" transform="translate(85.66 0.416)">
              <line id="Línea_792" data-name="Línea 792" x2="4.879" y2="6.937" transform="translate(0.942 0.942)" fill="#fff"/>
              <path id="Trazado_879832" data-name="Trazado 879832" d="M288.306,381.324a.94.94,0,0,1-.771-.4l-4.879-6.937A.941.941,0,0,1,284.2,372.9l4.879,6.937a.942.942,0,0,1-.769,1.484Z" transform="translate(-282.485 -372.504)" fill="#233863"/>
            </g>
            <g id="Grupo_1102601" data-name="Grupo 1102601" transform="translate(7.935 3.238)">
              <line id="Línea_793" data-name="Línea 793" x2="111.769" transform="translate(0.941 0.941)" fill="#fff"/>
              <path id="Trazado_879833" data-name="Trazado 879833" d="M271.34,378.885H159.57a.941.941,0,1,1,0-1.883H271.34a.941.941,0,1,1,0,1.883Z" transform="translate(-158.629 -377.002)" fill="#233863"/>
            </g>
            <g id="Grupo_1102602" data-name="Grupo 1102602" transform="translate(64.365 0.424)">
              <line id="Línea_794" data-name="Línea 794" y2="7.449" transform="translate(0.941 0.941)" fill="#fff"/>
              <path id="Trazado_879834" data-name="Trazado 879834" d="M249.493,381.849a.942.942,0,0,1-.941-.941v-7.45a.941.941,0,0,1,1.883,0v7.45A.942.942,0,0,1,249.493,381.849Z" transform="translate(-248.552 -372.517)" fill="#233863"/>
            </g>
            <g id="Grupo_1102603" data-name="Grupo 1102603" transform="translate(50.527 0.655)">
              <line id="Línea_795" data-name="Línea 795" x1="2.953" y2="7.473" transform="translate(0.941 0.941)" fill="#fff"/>
              <path id="Trazado_879835" data-name="Trazado 879835" d="M227.441,382.241a.941.941,0,0,1-.875-1.287l2.953-7.473a.941.941,0,0,1,1.75.692l-2.953,7.473A.94.94,0,0,1,227.441,382.241Z" transform="translate(-226.5 -372.885)" fill="#233863"/>
            </g>
            <g id="Grupo_1102604" data-name="Grupo 1102604" transform="translate(74.617 0.655)">
              <line id="Línea_796" data-name="Línea 796" x2="2.953" y2="7.473" transform="translate(0.942 0.941)" fill="#fff"/>
              <path id="Trazado_879836" data-name="Trazado 879836" d="M268.783,382.241a.941.941,0,0,1-.875-.595l-2.953-7.473a.941.941,0,1,1,1.75-.692l2.953,7.473a.941.941,0,0,1-.875,1.287Z" transform="translate(-264.888 -372.886)" fill="#233863"/>
            </g>
          </g>
        </g>
        <g id="Grupo_1102611" data-name="Grupo 1102611" transform="translate(79.007 24.947)">
          <g id="Grupo_1102607" data-name="Grupo 1102607" transform="translate(0 6.358)">
            <path id="Trazado_879837" data-name="Trazado 879837" d="M212.706,290.288l42.332.089c3.249.007,5.911-2.383,5.918-5.31l.052-24.839c.006-2.927-2.647-5.328-5.9-5.335l-42.331-.089c-3.249-.007-5.911,2.383-5.918,5.31l-.052,24.839C206.8,287.881,209.457,290.281,212.706,290.288Z" transform="translate(-205.87 -253.861)" fill="#ffa539"/>
            <path id="Trazado_879838" data-name="Trazado 879838" d="M254.493,290.76h-.016l-42.331-.09a7.144,7.144,0,0,1-4.8-1.815,5.964,5.964,0,0,1-2.037-4.462l.052-24.839c.008-3.45,3.076-6.25,6.845-6.25h.016l42.331.089a7.141,7.141,0,0,1,4.8,1.816,5.964,5.964,0,0,1,2.037,4.462l-.052,24.839C261.331,287.959,258.262,290.76,254.493,290.76Zm-42.285-35.574a4.7,4.7,0,0,0-4.963,4.371l-.052,24.839a4.107,4.107,0,0,0,1.418,3.063,5.27,5.27,0,0,0,3.539,1.328h0l42.331.09h.013a4.7,4.7,0,0,0,4.963-4.371l.052-24.839a4.107,4.107,0,0,0-1.418-3.063,5.268,5.268,0,0,0-3.539-1.329l-42.331-.089Z" transform="translate(-205.311 -253.302)" fill="#233863"/>
          </g>
          <g id="Grupo_1102608" data-name="Grupo 1102608" transform="translate(0.006)">
            <path id="Trazado_879839" data-name="Trazado 879839" d="M210.775,244.671l11.466.024a3.877,3.877,0,0,1,3.858,3.874l-.011,5.487,29.041.061a5.924,5.924,0,0,1,5.895,5.919l-.058,27.564a5.924,5.924,0,0,1-5.919,5.895l-42.331-.089a5.924,5.924,0,0,1-5.895-5.919l.056-27v-.565l.024-11.394A3.877,3.877,0,0,1,210.775,244.671Z" transform="translate(-205.879 -243.73)" fill="#ffb44f"/>
            <path id="Trazado_879840" data-name="Trazado 879840" d="M254.5,293.877h-.014l-42.332-.089a6.865,6.865,0,0,1-6.833-6.862l.082-38.959a4.818,4.818,0,0,1,4.806-4.8h.011l11.466.024a4.812,4.812,0,0,1,4.8,4.816l-.01,4.545,28.1.06a6.866,6.866,0,0,1,6.835,6.862l-.058,27.565a6.866,6.866,0,0,1-6.848,6.834Zm-44.292-48.824a2.935,2.935,0,0,0-2.923,2.918L207.2,286.93a4.982,4.982,0,0,0,4.954,4.976l42.332.089h.011a4.983,4.983,0,0,0,4.965-4.955l.058-27.565a4.983,4.983,0,0,0-4.956-4.976l-29.041-.061a.942.942,0,0,1-.94-.943l.011-5.487a2.927,2.927,0,0,0-2.917-2.93l-11.466-.024h-.006Z" transform="translate(-205.321 -243.171)" fill="#233863"/>
          </g>
          <path id="Trazado_879841" data-name="Trazado 879841" d="M211.657,251.677l10.259.021a3.469,3.469,0,0,1,3.451,3.467l-.01,4.911,25.985.055a5.3,5.3,0,0,1,5.274,5.3l-.052,24.668a5.3,5.3,0,0,1-5.3,5.275l-37.876-.08a5.3,5.3,0,0,1-5.274-5.3l.051-24.163v-.505l.021-10.2A3.469,3.469,0,0,1,211.657,251.677Z" transform="translate(-206.356 -246.339)" fill="#fff" opacity="0.12"/>
          <path id="Trazado_879842" data-name="Trazado 879842" d="M282.324,312.127a1.93,1.93,0,1,0,1.93-1.93A1.93,1.93,0,0,0,282.324,312.127Z" transform="translate(-233.995 -268.135)" fill="#fff"/>
          <path id="Trazado_879843" data-name="Trazado 879843" d="M211.321,256.051a.627.627,0,0,1-.628-.628v-4.13A2.256,2.256,0,0,1,213,249.1h3.009a.628.628,0,0,1,0,1.255H213a1,1,0,0,0-1.053.939v4.13A.627.627,0,0,1,211.321,256.051Z" transform="translate(-207.316 -245.379)" fill="#fff"/>
          <g id="Grupo_1102610" data-name="Grupo 1102610" transform="translate(18.469 22.262)">
            <g id="Grupo_1102609" data-name="Grupo 1102609" transform="translate(4.334)">
              <path id="Trazado_879844" data-name="Trazado 879844" d="M249.937,284.172a.939.939,0,0,1-.66-.27l-3.04-2.988-2.982,2.983a.941.941,0,0,1-1.331-1.331l3.642-3.643a.942.942,0,0,1,1.325-.006l3.706,3.643a.942.942,0,0,1-.66,1.613Z" transform="translate(-241.648 -278.646)" fill="#fff"/>
              <path id="Trazado_879845" data-name="Trazado 879845" d="M248.444,289.92a.942.942,0,0,1-.941-.941v-9.391a.941.941,0,1,1,1.883,0v9.391A.941.941,0,0,1,248.444,289.92Z" transform="translate(-243.828 -278.646)" fill="#fff"/>
            </g>
            <path id="Trazado_879846" data-name="Trazado 879846" d="M250.631,299H236.859a2.12,2.12,0,0,1-2.117-2.117v-4.9a.941.941,0,0,1,1.883,0v4.9a.235.235,0,0,0,.235.234h13.771a.126.126,0,0,0,.126-.126v-5a.941.941,0,0,1,1.883,0v5A2.011,2.011,0,0,1,250.631,299Z" transform="translate(-234.742 -283.264)" fill="#fff"/>
          </g>
        </g>
        <g id="Grupo_1102619" data-name="Grupo 1102619" transform="translate(88.587 82.685)">
          <g id="Grupo_1102612" data-name="Grupo 1102612">
            <path id="Trazado_879847" data-name="Trazado 879847" d="M253.452,344.929H225.377a3.8,3.8,0,0,1-3.8-3.8v-1.155a3.8,3.8,0,0,1,3.8-3.8h28.075a3.8,3.8,0,0,1,3.8,3.8v1.155A3.8,3.8,0,0,1,253.452,344.929Z" transform="translate(-220.95 -335.549)" fill="#3d85fd"/>
            <path id="Trazado_879848" data-name="Trazado 879848" d="M253.079,345.184H225a4.431,4.431,0,0,1-4.427-4.427V339.6A4.431,4.431,0,0,1,225,335.176h28.075a4.431,4.431,0,0,1,4.427,4.426v1.155A4.431,4.431,0,0,1,253.079,345.184ZM225,336.432a3.175,3.175,0,0,0-3.172,3.171v1.155A3.175,3.175,0,0,0,225,343.93h28.075a3.175,3.175,0,0,0,3.172-3.172V339.6a3.175,3.175,0,0,0-3.172-3.171Z" transform="translate(-220.577 -335.176)" fill="#233863"/>
          </g>
          <g id="Grupo_1102613" data-name="Grupo 1102613" transform="translate(11.767)">
            <path id="Trazado_879849" data-name="Trazado 879849" d="M260.435,344.929H244.127a3.8,3.8,0,0,1-3.8-3.8v-1.155a3.8,3.8,0,0,1,3.8-3.8h16.309a3.8,3.8,0,0,1,3.8,3.8v1.155A3.8,3.8,0,0,1,260.435,344.929Z" transform="translate(-239.7 -335.549)" fill="#fff"/>
            <path id="Trazado_879850" data-name="Trazado 879850" d="M260.063,345.184H243.754a4.431,4.431,0,0,1-4.426-4.427V339.6a4.431,4.431,0,0,1,4.426-4.426h16.309a4.431,4.431,0,0,1,4.427,4.426v1.155A4.431,4.431,0,0,1,260.063,345.184Zm-16.309-8.752a3.175,3.175,0,0,0-3.171,3.171v1.155a3.175,3.175,0,0,0,3.171,3.172h16.309a3.175,3.175,0,0,0,3.172-3.172V339.6a3.175,3.175,0,0,0-3.172-3.171Z" transform="translate(-239.328 -335.176)" fill="#233863"/>
          </g>
          <g id="Grupo_1102614" data-name="Grupo 1102614" transform="translate(5.462 0.001)">
            <rect id="Rectángulo_403708" data-name="Rectángulo 403708" width="4.911" height="8.752" transform="translate(0.628 0.628)" fill="#3d85fd"/>
            <path id="Trazado_879851" data-name="Trazado 879851" d="M234.818,345.184h-4.91a.627.627,0,0,1-.628-.628V335.8a.627.627,0,0,1,.628-.628h4.91a.627.627,0,0,1,.628.628v8.752A.627.627,0,0,1,234.818,345.184Zm-4.282-1.255h3.655v-7.5h-3.655Z" transform="translate(-229.281 -335.177)" fill="#233863"/>
          </g>
          <g id="Grupo_1102615" data-name="Grupo 1102615" transform="translate(10.32 0.001)">
            <rect id="Rectángulo_403709" data-name="Rectángulo 403709" width="4.911" height="8.752" transform="translate(0.628 0.628)" fill="#3d85fd"/>
            <path id="Trazado_879852" data-name="Trazado 879852" d="M242.559,345.184h-4.91a.627.627,0,0,1-.628-.628V335.8a.627.627,0,0,1,.628-.628h4.91a.627.627,0,0,1,.628.628v8.752A.627.627,0,0,1,242.559,345.184Zm-4.283-1.255h3.655v-7.5h-3.655Z" transform="translate(-237.022 -335.177)" fill="#233863"/>
          </g>
          <g id="Grupo_1102616" data-name="Grupo 1102616" transform="translate(15.267 0.001)">
            <rect id="Rectángulo_403710" data-name="Rectángulo 403710" width="4.911" height="8.752" transform="translate(0.627 0.628)" fill="#3d85fd"/>
            <path id="Trazado_879853" data-name="Trazado 879853" d="M250.442,345.184h-4.91a.627.627,0,0,1-.628-.628V335.8a.627.627,0,0,1,.628-.628h4.91a.627.627,0,0,1,.628.628v8.752A.627.627,0,0,1,250.442,345.184Zm-4.283-1.255h3.655v-7.5h-3.655Z" transform="translate(-244.905 -335.177)" fill="#233863"/>
          </g>
          <g id="Grupo_1102617" data-name="Grupo 1102617" transform="translate(20.124 0.001)">
            <rect id="Rectángulo_403711" data-name="Rectángulo 403711" width="4.911" height="8.752" transform="translate(0.628 0.628)" fill="#3d85fd"/>
            <path id="Trazado_879854" data-name="Trazado 879854" d="M258.183,345.184h-4.911a.627.627,0,0,1-.628-.628V335.8a.627.627,0,0,1,.628-.628h4.911a.627.627,0,0,1,.628.628v8.752A.627.627,0,0,1,258.183,345.184Zm-4.283-1.255h3.655v-7.5H253.9Z" transform="translate(-252.645 -335.177)" fill="#233863"/>
          </g>
          <g id="Grupo_1102618" data-name="Grupo 1102618" transform="translate(25.035 0.001)">
            <rect id="Rectángulo_403712" data-name="Rectángulo 403712" width="4.911" height="8.752" transform="translate(0.627 0.628)" fill="#fff"/>
            <path id="Trazado_879855" data-name="Trazado 879855" d="M266.007,345.184H261.1a.627.627,0,0,1-.628-.628V335.8a.627.627,0,0,1,.628-.628h4.91a.627.627,0,0,1,.628.628v8.752A.627.627,0,0,1,266.007,345.184Zm-4.282-1.255h3.655v-7.5h-3.655Z" transform="translate(-260.47 -335.177)" fill="#233863"/>
          </g>
        </g>
        <g id="Grupo_1102625" data-name="Grupo 1102625" transform="translate(0 39.488)">
          <path id="Trazado_879856" data-name="Trazado 879856" d="M138.171,313.127l-39.12,12.925a3.99,3.99,0,0,1-5.04-2.537L81.238,284.854a3.99,3.99,0,0,1,2.537-5.04l39.12-12.925a3.989,3.989,0,0,1,5.04,2.536l12.774,38.661A3.99,3.99,0,0,1,138.171,313.127Z" transform="translate(-80.017 -266.47)" fill="#233863" opacity="0.46"/>
          <g id="Grupo_1102620" data-name="Grupo 1102620">
            <path id="Trazado_879857" data-name="Trazado 879857" d="M134.354,311.852,98.126,323.821a3.989,3.989,0,0,1-5.04-2.537l-11.97-36.228a3.989,3.989,0,0,1,2.537-5.04l36.228-11.969a3.989,3.989,0,0,1,5.04,2.537l11.969,36.228A3.989,3.989,0,0,1,134.354,311.852Z" transform="translate(-79.972 -266.901)" fill="#fff"/>
            <path id="Trazado_879858" data-name="Trazado 879858" d="M96.311,324.406a4.939,4.939,0,0,1-4.677-3.387L79.665,284.792a4.929,4.929,0,0,1,3.135-6.229l36.228-11.969a4.929,4.929,0,0,1,6.228,3.135l11.97,36.228a4.937,4.937,0,0,1-3.135,6.228h0L97.863,324.154A4.924,4.924,0,0,1,96.311,324.406Zm24.266-56.18a3.059,3.059,0,0,0-.959.155L83.39,280.35a3.053,3.053,0,0,0-1.938,3.851L93.42,320.429a3.054,3.054,0,0,0,3.851,1.938L133.5,310.4a3.052,3.052,0,0,0,1.938-3.851L123.468,270.32a3.056,3.056,0,0,0-2.892-2.094Zm13.218,43.065h0Z" transform="translate(-79.413 -266.341)" fill="#233863"/>
          </g>
          <g id="Grupo_1102624" data-name="Grupo 1102624" transform="translate(6.477 6.479)">
            <g id="Grupo_1102621" data-name="Grupo 1102621">
              <rect id="Rectángulo_403713" data-name="Rectángulo 403713" width="34.218" height="34.218" transform="translate(0.938 11.674) rotate(-18.283)" fill="#31a8ff"/>
              <path id="Trazado_879859" data-name="Trazado 879859" d="M101.411,321.774a.94.94,0,0,1-.894-.646L89.782,288.638a.941.941,0,0,1,.6-1.189l32.491-10.734a.94.94,0,0,1,1.189.6L134.8,309.8a.94.94,0,0,1-.6,1.189l-32.491,10.735A.923.923,0,0,1,101.411,321.774Zm-9.546-32.833,10.144,30.7,30.7-10.145-10.145-30.7Z" transform="translate(-89.734 -276.666)" fill="#233863"/>
            </g>
            <g id="Grupo_1102622" data-name="Grupo 1102622" transform="translate(8.577 13.123)">
              <path id="Trazado_879860" data-name="Trazado 879860" d="M104.9,322.5l1.433-8.747a3.425,3.425,0,0,1,5.035-2.446l3.983,2.2a2.711,2.711,0,0,0,3.946-1.743l2.166-9.04a4.74,4.74,0,0,1,7.825-2.377l6.23,5.756,4.132,12.506-32.49,10.735Z" transform="translate(-103.961 -298.137)" fill="#fff"/>
              <path id="Trazado_879861" data-name="Trazado 879861" d="M106.6,329.721a.94.94,0,0,1-.894-.646l-2.26-6.84a.942.942,0,0,1-.036-.447l1.433-8.748a4.367,4.367,0,0,1,6.419-3.118l3.983,2.2a1.77,1.77,0,0,0,2.575-1.138l2.166-9.04a5.68,5.68,0,0,1,9.379-2.849l6.231,5.756a.928.928,0,0,1,.255.4l4.132,12.506a.941.941,0,0,1-.6,1.189L106.9,329.673A.943.943,0,0,1,106.6,329.721Zm-1.293-7.858,1.892,5.728,30.7-10.145-3.76-11.381-6.052-5.591a3.8,3.8,0,0,0-6.271,1.905l-2.166,9.04a3.653,3.653,0,0,1-5.316,2.348l-3.983-2.2a2.484,2.484,0,0,0-3.652,1.773Z" transform="translate(-103.403 -297.577)" fill="#233863"/>
            </g>
            <g id="Grupo_1102623" data-name="Grupo 1102623" transform="translate(13.41 13.594)">
              <path id="Trazado_879862" data-name="Trazado 879862" d="M120.044,302.451a3.815,3.815,0,1,1-4.82-2.425A3.816,3.816,0,0,1,120.044,302.451Z" transform="translate(-111.663 -298.888)" fill="#fff"/>
              <path id="Trazado_879863" data-name="Trazado 879863" d="M115.858,307.847a4.769,4.769,0,1,1,1.5-.242A4.778,4.778,0,0,1,115.858,307.847Zm.008-7.634a2.879,2.879,0,1,0,1.289.308A2.88,2.88,0,0,0,115.865,300.213Z" transform="translate(-111.104 -298.328)" fill="#233863"/>
            </g>
          </g>
        </g>
      </g>
      <g id="Grupo_1102639" data-name="Grupo 1102639" transform="translate(51.482)">
        <g id="Grupo_1102632" data-name="Grupo 1102632" transform="translate(0 29.084)">
          <path id="Trazado_879864" data-name="Trazado 879864" d="M210.983,177.16,148.67,197.748a3.989,3.989,0,0,1-5.04-2.537l-20.361-61.626a3.99,3.99,0,0,1,2.537-5.04l62.313-20.588a3.989,3.989,0,0,1,5.04,2.537l20.361,61.626A3.989,3.989,0,0,1,210.983,177.16Z" transform="translate(-122.011 -107.755)" fill="#233863" opacity="0.46"/>
          <g id="Grupo_1102627" data-name="Grupo 1102627" transform="translate(0 0.147)">
            <path id="Trazado_879865" data-name="Trazado 879865" d="M205.271,175.251l-57.984,19.158a3.989,3.989,0,0,1-5.04-2.537L123.09,133.888a3.989,3.989,0,0,1,2.537-5.04l57.984-19.158a3.989,3.989,0,0,1,5.04,2.537l19.158,57.984A3.991,3.991,0,0,1,205.271,175.251Z" transform="translate(-121.944 -108.548)" fill="#fff"/>
            <path id="Trazado_879866" data-name="Trazado 879866" d="M145.479,194.993a4.94,4.94,0,0,1-4.685-3.384l-19.157-57.984a4.929,4.929,0,0,1,3.135-6.228l57.983-19.158a4.936,4.936,0,0,1,6.228,3.135l19.158,57.984a4.929,4.929,0,0,1-3.135,6.228h0l-57.983,19.158A4.919,4.919,0,0,1,145.479,194.993ZM184.3,109.873a3.027,3.027,0,0,0-.954.154l-57.983,19.158a3.047,3.047,0,0,0-1.938,3.85l19.157,57.984a3.051,3.051,0,0,0,3.851,1.938L204.416,173.8a3.052,3.052,0,0,0,1.938-3.851L187.2,111.964A3.056,3.056,0,0,0,184.3,109.873Zm20.412,64.82h0Z" transform="translate(-121.385 -107.99)" fill="#233863"/>
          </g>
          <g id="Grupo_1102631" data-name="Grupo 1102631" transform="translate(10.216 10.36)">
            <g id="Grupo_1102628" data-name="Grupo 1102628">
              <rect id="Rectángulo_403714" data-name="Rectángulo 403714" width="51.213" height="51.213" transform="translate(0.938 17.009) rotate(-18.283)" fill="#14d6f0"/>
              <path id="Trazado_879867" data-name="Trazado 879867" d="M154.672,190.841a.941.941,0,0,1-.894-.646l-16.066-48.628a.941.941,0,0,1,.6-1.189l48.628-16.066a.941.941,0,0,1,1.189.6l16.066,48.628a.941.941,0,0,1-.6,1.189l-48.627,16.066A.946.946,0,0,1,154.672,190.841Zm-14.878-48.97,15.477,46.84,46.84-15.476L186.634,126.4Z" transform="translate(-137.664 -124.264)" fill="#233863"/>
            </g>
            <g id="Grupo_1102629" data-name="Grupo 1102629" transform="translate(12.836 19.643)">
              <path id="Trazado_879868" data-name="Trazado 879868" d="M159.62,192.119l2.145-13.092a5.127,5.127,0,0,1,7.536-3.66l5.961,3.288a4.058,4.058,0,0,0,5.906-2.608l3.241-13.53a7.093,7.093,0,0,1,11.712-3.558l9.325,8.615,6.184,18.717L163,202.356Z" transform="translate(-158.678 -156.125)" fill="#fff"/>
              <path id="Trazado_879869" data-name="Trazado 879869" d="M162.443,202.738a.941.941,0,0,1-.894-.646l-3.383-10.237a.942.942,0,0,1-.036-.447l2.145-13.092a6.069,6.069,0,0,1,8.919-4.333l5.962,3.288a3.115,3.115,0,0,0,4.535-2l3.242-13.531a8.035,8.035,0,0,1,13.266-4.03l9.325,8.616a.928.928,0,0,1,.255.4l6.184,18.717a.941.941,0,0,1-.6,1.189L162.738,202.69A.95.95,0,0,1,162.443,202.738Zm-2.417-11.255,3.015,9.124,46.84-15.476-5.813-17.593-9.146-8.451a6.153,6.153,0,0,0-10.158,3.086L181.523,175.7a5,5,0,0,1-7.275,3.212l-5.962-3.288a4.186,4.186,0,0,0-6.152,2.988Z" transform="translate(-158.119 -155.565)" fill="#233863"/>
            </g>
            <g id="Grupo_1102630" data-name="Grupo 1102630" transform="translate(20.069 20.349)">
              <path id="Trazado_879870" data-name="Trazado 879870" d="M182.281,162.112a5.71,5.71,0,1,1-7.213-3.63A5.71,5.71,0,0,1,182.281,162.112Z" transform="translate(-170.204 -157.249)" fill="#fff"/>
              <path id="Trazado_879871" data-name="Trazado 879871" d="M176.292,170a6.669,6.669,0,1,1,2.093-.339A6.628,6.628,0,0,1,176.292,170Zm.012-11.426a4.78,4.78,0,1,0,2.139.512A4.76,4.76,0,0,0,176.3,158.573Z" transform="translate(-169.644 -156.689)" fill="#233863"/>
            </g>
          </g>
        </g>
        <g id="Grupo_1102638" data-name="Grupo 1102638" transform="translate(59.089)">
          <path id="Trazado_879872" data-name="Trazado 879872" d="M275,149.544l-56.908-22.15a3.989,3.989,0,0,1-2.27-5.165l21.9-56.276a3.989,3.989,0,0,1,5.165-2.27l56.908,22.15A3.989,3.989,0,0,1,302.064,91l-21.9,56.276A3.99,3.99,0,0,1,275,149.544Z" transform="translate(-215.544 -62.155)" fill="#233863" opacity="0.48"/>
          <g id="Grupo_1102633" data-name="Grupo 1102633" transform="translate(0.487)">
            <path id="Trazado_879873" data-name="Trazado 879873" d="M273.285,144.137l-52.922-20.6a3.989,3.989,0,0,1-2.27-5.165l20.6-52.922a3.989,3.989,0,0,1,5.165-2.27l52.922,20.6a3.989,3.989,0,0,1,2.27,5.165l-20.6,52.922A3.99,3.99,0,0,1,273.285,144.137Z" transform="translate(-216.879 -61.968)" fill="#fff"/>
            <path id="Trazado_879874" data-name="Trazado 879874" d="M274.168,144.792a4.912,4.912,0,0,1-1.783-.336h0l-52.922-20.6a4.937,4.937,0,0,1-2.806-6.383l20.6-52.922a4.937,4.937,0,0,1,6.383-2.807l52.922,20.6a4.936,4.936,0,0,1,2.806,6.383l-20.6,52.922A4.939,4.939,0,0,1,274.168,144.792Zm-1.1-2.09a3.052,3.052,0,0,0,3.947-1.735l20.6-52.922a3.053,3.053,0,0,0-1.735-3.947L242.957,63.5a3.05,3.05,0,0,0-3.947,1.735l-20.6,52.922a3.052,3.052,0,0,0,1.735,3.946Z" transform="translate(-216.321 -61.409)" fill="#233863"/>
          </g>
          <g id="Grupo_1102637" data-name="Grupo 1102637" transform="translate(10.109 9.653)">
            <g id="Grupo_1102634" data-name="Grupo 1102634" transform="translate(0.031)">
              <rect id="Rectángulo_403715" data-name="Rectángulo 403715" width="48.041" height="48.041" transform="translate(18.369 0.937) rotate(21.266)" fill="#31a8ff"/>
              <path id="Trazado_879875" data-name="Trazado 879875" d="M277.413,140.868a.941.941,0,0,1-.341-.064L232.3,123.379a.942.942,0,0,1-.536-1.219l17.426-44.769a.941.941,0,0,1,1.218-.536L295.18,94.281a.941.941,0,0,1,.536,1.219L278.29,140.269a.938.938,0,0,1-.5.52A.953.953,0,0,1,277.413,140.868Zm-43.55-18.9,43.014,16.743L293.62,95.694,250.605,78.951Z" transform="translate(-231.703 -76.791)" fill="#233863"/>
            </g>
            <g id="Grupo_1102635" data-name="Grupo 1102635" transform="translate(0 26.226)">
              <path id="Trazado_879876" data-name="Trazado 879876" d="M236.822,129.465l9.372-8.188a4.81,4.81,0,0,1,7.637,1.853l2.348,5.939a3.806,3.806,0,0,0,5.829,1.641l10.427-7.851a6.654,6.654,0,0,1,10.6,4.422l1.6,11.8-6.707,17.232L233.153,138.89Z" transform="translate(-232.211 -119.144)" fill="#fff"/>
              <path id="Trazado_879877" data-name="Trazado 879877" d="M277.363,156.7a.933.933,0,0,1-.341-.065l-44.769-17.426a.941.941,0,0,1-.536-1.219l3.669-9.425a.939.939,0,0,1,.257-.367l9.372-8.188a5.751,5.751,0,0,1,9.131,2.216l2.348,5.939a2.866,2.866,0,0,0,4.388,1.236l10.427-7.851a7.6,7.6,0,0,1,12.1,5.048l1.6,11.8a.936.936,0,0,1-.056.468L278.239,156.1A.938.938,0,0,1,277.363,156.7Zm-43.55-18.9,43.014,16.743,6.278-16.128-1.566-11.561a5.713,5.713,0,0,0-9.1-3.8L262.015,130.9a4.747,4.747,0,0,1-7.271-2.048l-2.348-5.938a3.868,3.868,0,0,0-6.142-1.49l-9.2,8.036Z" transform="translate(-231.653 -118.583)" fill="#233863"/>
            </g>
            <g id="Grupo_1102636" data-name="Grupo 1102636" transform="translate(24.779 17.274)">
              <path id="Trazado_879878" data-name="Trazado 879878" d="M282.986,113.115a5.356,5.356,0,1,1-3.049-6.934A5.356,5.356,0,0,1,282.986,113.115Z" transform="translate(-271.696 -104.875)" fill="#ffb44f"/>
              <path id="Trazado_879879" data-name="Trazado 879879" d="M277.438,116.916A6.3,6.3,0,1,1,283.3,112.9h0a6.314,6.314,0,0,1-5.866,4.017Zm0-10.717a4.415,4.415,0,1,0,4.11,6.016h0a4.415,4.415,0,0,0-4.11-6.016Z" transform="translate(-271.138 -104.317)" fill="#233863"/>
            </g>
          </g>
        </g>
      </g>
    </g>
  </g>
</svg>
