<svg xmlns="http://www.w3.org/2000/svg" width="85" height="85" viewBox="0 0 85 85">
  <g id="Grupo_1102371" data-name="Grupo 1102371" transform="translate(-180.051 -1988)">
    <rect id="Rectángulo_403537" data-name="Rectángulo 403537" width="85" height="85" transform="translate(180.051 1988)" fill="#d5edff"/>
    <g id="Grupo_1102370" data-name="Grupo 1102370" transform="translate(192.311 2000.26)">
      <path id="Trazado_879550" data-name="Trazado 879550" d="M256,465.612a29.219,29.219,0,0,0,14.679-3.929V460.4Z" transform="translate(-225.759 -406.017)" fill="#622876"/>
      <path id="Trazado_879551" data-name="Trazado 879551" d="M204.638,256l-6.88,17.315,6.88,12.04a23.605,23.605,0,0,0,14.679-5.209V256Z" transform="translate(-174.397 -225.759)" fill="#962b7c"/>
      <path id="Trazado_879552" data-name="Trazado 879552" d="M375.933,318.426l.512.887a29.5,29.5,0,0,0,10.746-10.746v-9.6Z" transform="translate(-331.525 -263.646)" fill="#2d2570"/>
      <path id="Trazado_879553" data-name="Trazado 879553" d="M281.426,261.075V256H256l14.167,24.539A29.865,29.865,0,0,0,281.426,261.075Z" transform="translate(-225.759 -225.759)" fill="#622876"/>
      <path id="Trazado_879554" data-name="Trazado 879554" d="M453.6,238.546,450.869,253.9l2.406,1.389a29.22,29.22,0,0,0,3.929-14.679Z" transform="translate(-397.609 -210.367)" fill="#0556b2"/>
      <path id="Trazado_879555" data-name="Trazado 879555" d="M281.747,202.576l-8.432-4.818L256,204.638l23.019,13.29a32.531,32.531,0,0,0,2.792-13.29C281.811,203.945,281.788,203.257,281.747,202.576Z" transform="translate(-225.759 -174.397)" fill="#077ccc"/>
      <path id="Trazado_879556" data-name="Trazado 879556" d="M448.322,131.733h-3.069l3.455,14.679h3.544A29.219,29.219,0,0,0,448.322,131.733Z" transform="translate(-392.656 -116.172)" fill="#077ccc"/>
      <path id="Trazado_879557" data-name="Trazado 879557" d="M259.44,131.733,256,146.412h25.811a32.355,32.355,0,0,0-3.455-14.679Z" transform="translate(-225.759 -116.172)" fill="#09a1e5"/>
      <path id="Trazado_879558" data-name="Trazado 879558" d="M367.037,40.763h-1.772L375.377,52.9l2.406-1.389A29.5,29.5,0,0,0,367.037,40.763Z" transform="translate(-322.117 -35.948)" fill="#2897b1"/>
      <path id="Trazado_879559" data-name="Trazado 879559" d="M268.907,40.763H259.44L256,66.188,279.019,52.9A28.256,28.256,0,0,0,268.907,40.763Z" transform="translate(-225.759 -35.948)" fill="#49b296"/>
      <path id="Trazado_879560" data-name="Trazado 879560" d="M256,7.5l14.167,4.816.512-.887A29.219,29.219,0,0,0,256,7.5Z" transform="translate(-225.759 -6.614)" fill="#49b296"/>
      <path id="Trazado_879561" data-name="Trazado 879561" d="M197.758,19.54l6.88,17.315,14.167-24.539A23.528,23.528,0,0,0,204.638,7.5Z" transform="translate(-174.397 -6.614)" fill="#89c247"/>
      <path id="Trazado_879562" data-name="Trazado 879562" d="M131.733,281.426a29.219,29.219,0,0,0,14.679,3.929V256H131.733Z" transform="translate(-116.172 -225.759)" fill="#cb2e81"/>
      <path id="Trazado_879563" data-name="Trazado 879563" d="M40.763,270.679a29.5,29.5,0,0,0,10.746,10.746L66.188,256H40.763Z" transform="translate(-35.948 -225.759)" fill="#ff3187"/>
      <path id="Trazado_879564" data-name="Trazado 879564" d="M7.5,204.638a29.219,29.219,0,0,0,3.929,14.679l25.425-14.679-17.315-6.88Z" transform="translate(-6.614 -174.397)" fill="#ff5178"/>
      <path id="Trazado_879565" data-name="Trazado 879565" d="M11.429,131.733A29.219,29.219,0,0,0,7.5,146.412H36.855l-3.44-14.679Z" transform="translate(-6.614 -116.172)" fill="#ff9259"/>
      <path id="Trazado_879566" data-name="Trazado 879566" d="M51.509,40.763A29.5,29.5,0,0,0,40.763,51.509L66.188,66.188l-3.44-25.425Z" transform="translate(-35.948 -35.948)" fill="#ffb24a"/>
      <path id="Trazado_879567" data-name="Trazado 879567" d="M146.412,7.5a29.219,29.219,0,0,0-14.679,3.929l14.679,25.425Z" transform="translate(-116.172 -6.614)" fill="#ffd23b"/>
      <path id="Trazado_879568" data-name="Trazado 879568" d="M256,116v33.076A16.538,16.538,0,0,0,256,116Z" transform="translate(-225.759 -102.297)" fill="#fff0be"/>
      <path id="Trazado_879569" data-name="Trazado 879569" d="M145.532,132.538c0-9.134-5.818-16.538-12.994-16.538a16.538,16.538,0,1,0,0,33.076C139.714,149.076,145.532,141.672,145.532,132.538Z" transform="translate(-102.297 -102.297)" fill="#fff"/>
      <path id="Trazado_879570" data-name="Trazado 879570" d="M30.241,60.481A30.241,30.241,0,0,1,8.857,8.857,30.241,30.241,0,0,1,51.624,51.624a30.043,30.043,0,0,1-21.384,8.857Zm0-58.71A28.469,28.469,0,1,0,58.71,30.241,28.5,28.5,0,0,0,30.241,1.772Z" transform="translate(0)"/>
      <path id="Trazado_879571" data-name="Trazado 879571" d="M125.924,143.348a17.424,17.424,0,1,1,17.424-17.424A17.444,17.444,0,0,1,125.924,143.348Zm0-33.076a15.652,15.652,0,1,0,15.652,15.652A15.67,15.67,0,0,0,125.924,110.272Z" transform="translate(-95.683 -95.683)"/>
      <path id="Trazado_879572" data-name="Trazado 879572" d="M249.386,403.089a.886.886,0,0,1-.886-.886V389.386a.886.886,0,1,1,1.772,0V402.2A.886.886,0,0,1,249.386,403.089Z" transform="translate(-219.145 -342.607)"/>
      <path id="Trazado_879573" data-name="Trazado 879573" d="M325.794,382.615a.886.886,0,0,1-.768-.443l-6.408-11.1a.886.886,0,0,1,1.535-.886l6.408,11.1a.886.886,0,0,1-.766,1.329Z" transform="translate(-280.875 -326.067)"/>
      <path id="Trazado_879574" data-name="Trazado 879574" d="M381.728,326.679a.882.882,0,0,1-.442-.119l-11.1-6.408a.886.886,0,1,1,.886-1.534l11.1,6.408a.886.886,0,0,1-.444,1.653Z" transform="translate(-326.066 -280.875)"/>
      <path id="Trazado_879575" data-name="Trazado 879575" d="M402.2,250.272H389.386a.886.886,0,1,1,0-1.772H402.2a.886.886,0,1,1,0,1.772Z" transform="translate(-342.607 -219.145)"/>
      <path id="Trazado_879576" data-name="Trazado 879576" d="M370.63,132.43a.886.886,0,0,1-.444-1.653l11.1-6.408a.886.886,0,1,1,.886,1.534l-11.1,6.408A.882.882,0,0,1,370.63,132.43Z" transform="translate(-326.066 -109.572)"/>
      <path id="Trazado_879577" data-name="Trazado 879577" d="M319.384,46.163a.886.886,0,0,1-.766-1.329l6.408-11.1a.886.886,0,0,1,1.534.886l-6.408,11.1A.886.886,0,0,1,319.384,46.163Z" transform="translate(-280.875 -29.359)"/>
      <path id="Trazado_879578" data-name="Trazado 879578" d="M249.386,14.589a.886.886,0,0,1-.886-.886V.886a.886.886,0,1,1,1.772,0V13.7A.886.886,0,0,1,249.386,14.589Z" transform="translate(-219.145 0)"/>
      <path id="Trazado_879579" data-name="Trazado 879579" d="M131.544,46.164a.886.886,0,0,1-.768-.443l-6.408-11.1a.886.886,0,1,1,1.534-.886l6.408,11.1a.886.886,0,0,1-.766,1.329Z" transform="translate(-109.572 -29.359)"/>
      <path id="Trazado_879580" data-name="Trazado 879580" d="M45.277,132.429a.882.882,0,0,1-.442-.119l-11.1-6.408a.886.886,0,1,1,.886-1.534l11.1,6.408a.886.886,0,0,1-.444,1.653Z" transform="translate(-29.359 -109.571)"/>
      <path id="Trazado_879581" data-name="Trazado 879581" d="M13.7,250.272H.886a.886.886,0,1,1,0-1.772H13.7a.886.886,0,1,1,0,1.772Z" transform="translate(0 -219.145)"/>
      <path id="Trazado_879582" data-name="Trazado 879582" d="M34.179,326.68a.886.886,0,0,1-.444-1.653l11.1-6.408a.886.886,0,0,1,.886,1.534l-11.1,6.408A.882.882,0,0,1,34.179,326.68Z" transform="translate(-29.359 -280.876)"/>
      <path id="Trazado_879583" data-name="Trazado 879583" d="M125.134,382.615a.886.886,0,0,1-.766-1.329l6.408-11.1a.886.886,0,1,1,1.534.886l-6.408,11.1A.886.886,0,0,1,125.134,382.615Z" transform="translate(-109.572 -326.066)"/>
      <path id="Trazado_879584" data-name="Trazado 879584" d="M261.394,182.332,256,176v18.015a7.086,7.086,0,0,0,5.394-11.683Z" transform="translate(-225.759 -155.21)" fill="#ff3187"/>
      <path id="Trazado_879585" data-name="Trazado 879585" d="M206.632,186.927a11.947,11.947,0,0,0-.847-4.6l-2.7-6.332-5.394,6.332a7.086,7.086,0,0,0,5.394,11.683C205.045,194.015,206.632,190.841,206.632,186.927Z" transform="translate(-172.847 -155.21)" fill="#ff5178"/>
      <path id="Trazado_879586" data-name="Trazado 879586" d="M196.474,188.286a7.972,7.972,0,0,1-6.068-13.143.886.886,0,1,1,1.348,1.15,6.2,6.2,0,1,0,9.44,0l-4.72-5.54-2.422,2.842a.886.886,0,1,1-1.349-1.149l3.1-3.634a.886.886,0,0,1,1.349,0l5.394,6.332a7.972,7.972,0,0,1-6.069,13.143Z" transform="translate(-166.233 -148.595)"/>
    </g>
  </g>
</svg>
