<svg xmlns="http://www.w3.org/2000/svg" width="70" height="70" viewBox="0 0 70 70">
  <g id="Grupo_1102549" data-name="Grupo 1102549" transform="translate(-200.051 -2523)">
    <rect id="Rectángulo_402785" data-name="Rectángulo 402785" width="70" height="70" transform="translate(200.051 2523)" fill="#5b2ccf"/>
    <g id="XMLID_6_" transform="translate(212.051 2535)">
      <path id="XMLID_3925_" d="M143.171,323.807l.9,3.829-.9,3.478c-2.094,0-4.632.488-6.457-.259-1.936-.793-3.137-2.862-4.592-4.318l1.8-3.6,3.368-1.567A8.289,8.289,0,0,0,143.171,323.807Z" transform="translate(-120.232 -292.45)" fill="#ee61eb"/>
      <path id="XMLID_3912_" d="M89.647,252.783h0l-5.168,5.167c-1.414-1.414-3.458-3.007-4.249-4.877s-.328-4.015-.328-6.173l3.876-.9,3.432.9A8.294,8.294,0,0,0,89.647,252.783Z" transform="translate(-72.589 -223.863)" fill="#0065a3"/>
      <path id="XMLID_3922_" d="M88.2,138.384a8.293,8.293,0,0,0-2.437,5.882H78.454c0-1.945-.634-4.437.015-6.155.791-2.093,3.009-3.342,4.562-4.895l3.829,2.029Z" transform="translate(-71.141 -121.228)" fill="#9ef"/>
      <path id="XMLID_3920_" d="M143.171,81l.9,3.657-.9,3.649a8.289,8.289,0,0,0-5.882,2.438l-5.168-5.168c1.414-1.414,2.2-3.458,4.067-4.249S141.013,81,143.171,81Z" transform="translate(-120.231 -73.585)" fill="#93e300"/>
      <path id="XMLID_3917_" d="M265.955,85.3l-1.809,3.609-3.357,1.557a8.294,8.294,0,0,0-5.883-2.437V80.727c2.081,0,4.967-.493,6.783.246C263.638,81.765,264.491,83.84,265.955,85.3Z" transform="translate(-231.967 -73.315)" fill="#fff375"/>
      <path id="XMLID_3905_" d="M330.021,144.265l-3.68.9-3.628-.9a8.293,8.293,0,0,0-2.437-5.883l5.167-5.167h0c1.464,1.464,3.539,2.317,4.331,4.266C330.514,139.3,330.021,142.184,330.021,144.265Z" transform="translate(-291.454 -121.228)" fill="#ffc34d"/>
      <path id="XMLID_3909_" d="M330.021,256c0,2.081,1.123,4.7.385,6.513-.793,1.95-3.5,3.073-4.963,4.536l-3.411-1.611-1.756-3.556A8.294,8.294,0,0,0,322.713,256h7.308Z" transform="translate(-291.454 -232.962)" fill="#f37"/>
      <path id="XMLID_3902_" d="M265.954,326.536c-1.414,1.414-2.828,3.458-4.7,4.249s-4.195.328-6.352.328v-7.307a8.293,8.293,0,0,0,5.883-2.437Z" transform="translate(-231.966 -292.449)" fill="#ff5ca8"/>
      <path id="XMLID_3924_" d="M176.67,165.99a8.319,8.319,0,1,0-11.764,11.764h0A8.319,8.319,0,0,0,176.67,165.99Z" transform="translate(-147.848 -148.835)" fill="none"/>
      <path id="XMLID_3921_" d="M90.682,383.36l.9,3.841-.9,3.569a22.955,22.955,0,0,1-16.24-6.8l1.681-3.481,3.51-1.71A15.578,15.578,0,0,0,90.682,383.36Z" transform="translate(-67.743 -344.696)" fill="#c331c8"/>
      <path id="XMLID_3899_" d="M271.245,384.073a22.963,22.963,0,0,1-16.24,6.7h-.1v-7.41a15.579,15.579,0,0,0,11.049-4.577l3.818,2.018Z" transform="translate(-231.967 -344.697)" fill="#f37"/>
      <path id="XMLID_3910_" d="M389.777,246.9a22.962,22.962,0,0,1-6.8,16.339l-5.289-5.289a15.571,15.571,0,0,0,4.578-11.049l3.819-.9Z" transform="translate(-343.701 -223.862)" fill="#e50048"/>
      <path id="XMLID_3915_" d="M389.787,90.781h-7.509A15.578,15.578,0,0,0,377.7,79.731l1.778-3.578,3.51-1.711A22.962,22.962,0,0,1,389.787,90.781Z" transform="translate(-343.711 -67.743)" fill="#f93"/>
      <path id="XMLID_3913_" d="M262.144,6.7l-5.288,5.289h0a15.58,15.58,0,0,0-11.049-4.577l-.9-3.362.9-4.049h.1A22.963,22.963,0,0,1,262.144,6.7Z" transform="translate(-222.867)" fill="#ffde46"/>
      <path id="XMLID_3914_" d="M90.682.011v7.41A15.578,15.578,0,0,0,79.633,12l-3.45-1.65L74.442,6.808a22.954,22.954,0,0,1,16.24-6.8Z" transform="translate(-67.743 -0.01)" fill="#00da26"/>
      <path id="XMLID_3918_" d="M11.89,80.727A15.578,15.578,0,0,0,7.313,91.776l-3.923.9L0,91.776a22.963,22.963,0,0,1,6.7-16.24Z" transform="translate(0 -68.738)" fill="#3df"/>
      <path id="XMLID_3900_" d="M11.89,267.049,6.7,272.24A22.963,22.963,0,0,1,0,256H7.313A15.578,15.578,0,0,0,11.89,267.049Z" transform="translate(0 -232.962)" fill="#194d80"/>
      <path id="XMLID_3916_" d="M179.107,171.871a8.319,8.319,0,0,1-14.2,5.883h0a8.319,8.319,0,1,1,14.2-5.882Z" transform="translate(-147.848 -148.834)" fill="none"/>
    </g>
  </g>
</svg>
