<svg xmlns="http://www.w3.org/2000/svg" xmlns:xlink="http://www.w3.org/1999/xlink" width="127" height="127" viewBox="0 0 127 127">
  <defs>
    <filter id="Rect치ngulo_403942" x="0" y="0" width="127" height="127" filterUnits="userSpaceOnUse">
      <feOffset input="SourceAlpha"/>
      <feGaussianBlur stdDeviation="4.5" result="blur"/>
      <feFlood flood-opacity="0.161"/>
      <feComposite operator="in" in2="blur"/>
      <feComposite in="SourceGraphic"/>
    </filter>
  </defs>
  <g id="Grupo_1103149" data-name="Grupo 1103149" transform="translate(-166.5 -7065.5)">
    <g transform="matrix(1, 0, 0, 1, 166.5, 7065.5)" filter="url(#Rect치ngulo_403942)">
      <rect id="Rect치ngulo_403942-2" data-name="Rect치ngulo 403942" width="100" height="100" transform="translate(13.5 13.5)" fill="#fbd8d1"/>
    </g>
    <g id="Grupo_1103136" data-name="Grupo 1103136" transform="translate(198 7097)">
      <g id="Grupo_1103148" data-name="Grupo 1103148">
        <g id="Grupo_1103136-2" data-name="Grupo 1103136">
          <path id="Trazado_880843" data-name="Trazado 880843" d="M28.5,24H1a1,1,0,0,1-1-1V16.6a5.228,5.228,0,0,1,5.2-5.2H31.9a1,1,0,0,1,1,1,1.075,1.075,0,0,1-1,1H5.1A3.116,3.116,0,0,0,2,16.5v5.4H28.5a1,1,0,0,1,1,1,1.09,1.09,0,0,1-1,1.1Z" fill="#5b2ccf"/>
        </g>
        <g id="Grupo_1103137" data-name="Grupo 1103137">
          <path id="Trazado_880844" data-name="Trazado 880844" d="M5.1,61a4.754,4.754,0,0,1-3.6-1.5A5.135,5.135,0,0,1,0,55.8V22.9a1,1,0,0,1,1-1H28.5a1,1,0,0,1,1,1,1.075,1.075,0,0,1-1,1H2V55.7a3.073,3.073,0,0,0,3.1,3.1H52a3.116,3.116,0,0,0,3.1-3.1v-20a1,1,0,0,1,1-1,1.075,1.075,0,0,1,1,1v20a5.228,5.228,0,0,1-5.2,5.2H5.1Z" fill="#5b2ccf"/>
        </g>
        <g id="Grupo_1103138" data-name="Grupo 1103138">
          <path id="Trazado_880845" data-name="Trazado 880845" d="M9,18.7H6.8a1,1,0,0,1-1-1,1.075,1.075,0,0,1,1-1H9a1,1,0,0,1,0,2Z" fill="#5b2ccf"/>
        </g>
        <g id="Grupo_1103139" data-name="Grupo 1103139">
          <path id="Trazado_880846" data-name="Trazado 880846" d="M13.9,18.7H11.7a1,1,0,0,1-1-1,1.075,1.075,0,0,1,1-1h2.2a1,1,0,0,1,0,2Z" fill="#5b2ccf"/>
        </g>
        <g id="Grupo_1103140" data-name="Grupo 1103140">
          <path id="Trazado_880847" data-name="Trazado 880847" d="M18.8,18.7H16.6a1,1,0,0,1-1-1,1.075,1.075,0,0,1,1-1h2.2a1,1,0,0,1,0,2Z" fill="#5b2ccf"/>
        </g>
        <g id="Grupo_1103141" data-name="Grupo 1103141">
          <path id="Trazado_880848" data-name="Trazado 880848" d="M24.6,42.1H10A3.116,3.116,0,0,1,6.9,39V30.3A3.116,3.116,0,0,1,10,27.2H24.6a3.116,3.116,0,0,1,3.1,3.1V39A3.116,3.116,0,0,1,24.6,42.1Zm0-12.9H10a1,1,0,0,0-1,1V39a1,1,0,0,0,1,1H24.6a1,1,0,0,0,1-1V30.3A1.1,1.1,0,0,0,24.6,29.2Z" fill="#5b2ccf"/>
        </g>
        <g id="Grupo_1103142" data-name="Grupo 1103142">
          <path id="Trazado_880849" data-name="Trazado 880849" d="M35.1,35.9H34a1,1,0,0,1-1-1,1.075,1.075,0,0,1,1-1h1.1a1,1,0,0,1,1,1A1.075,1.075,0,0,1,35.1,35.9Z" fill="#5b2ccf"/>
        </g>
        <g id="Grupo_1103143" data-name="Grupo 1103143">
          <path id="Trazado_880850" data-name="Trazado 880850" d="M49.8,42.5H34a1,1,0,0,1-1-1,1.075,1.075,0,0,1,1-1H49.8a1,1,0,0,1,1,1A1.075,1.075,0,0,1,49.8,42.5Z" fill="#5b2ccf"/>
        </g>
        <g id="Grupo_1103144" data-name="Grupo 1103144">
          <path id="Trazado_880851" data-name="Trazado 880851" d="M49.8,49.1H7.4a1,1,0,0,1-1-1,1.075,1.075,0,0,1,1-1H49.8a1,1,0,0,1,1,1A1.075,1.075,0,0,1,49.8,49.1Z" fill="#5b2ccf"/>
        </g>
        <g id="Grupo_1103145" data-name="Grupo 1103145">
          <path id="Trazado_880852" data-name="Trazado 880852" d="M49.8,55.7H7.4a1,1,0,0,1-1-1,1.075,1.075,0,0,1,1-1H49.8a1,1,0,0,1,1,1A1.075,1.075,0,0,1,49.8,55.7Z" fill="#5b2ccf"/>
        </g>
        <g id="Grupo_1103146" data-name="Grupo 1103146">
          <path id="Trazado_880853" data-name="Trazado 880853" d="M48.4,36.3H46.8a2.682,2.682,0,0,1-2.6-2.2l-.4-2.5c0-.2-.2-.3-.3-.4-.4-.1-.7-.3-1.1-.4a.454.454,0,0,0-.5,0l-2,1.5a2.723,2.723,0,0,1-3.4-.3l-1.2-1.2a2.712,2.712,0,0,1-.3-3.4l1.5-2a.446.446,0,0,0,0-.5,11.731,11.731,0,0,1-.5-1.1c-.1-.2-.2-.3-.4-.3l-2.4-.4A2.59,2.59,0,0,1,31,20.5V18.8a2.59,2.59,0,0,1,2.2-2.6l2.4-.4c.2,0,.3-.2.4-.3a5.359,5.359,0,0,1,.5-1.1.446.446,0,0,0,0-.5l-1.5-2a2.72,2.72,0,0,1,.2-3.4l1.2-1.2a2.59,2.59,0,0,1,3.4-.2l1.9,1.5a.33.33,0,0,0,.5,0c.4-.2.7-.3,1.1-.5a.781.781,0,0,0,.4-.4l.4-2.5A2.881,2.881,0,0,1,46.8,3h1.6A2.682,2.682,0,0,1,51,5.2l.4,2.5c0,.2.2.3.3.4.4.1.7.3,1.1.4a.454.454,0,0,0,.5,0l2-1.5a2.6,2.6,0,0,1,3.4.3l1.2,1.2a2.712,2.712,0,0,1,.3,3.4l-1.5,2a.446.446,0,0,0,0,.5,11.731,11.731,0,0,1,.5,1.1c.1.2.2.3.4.3l2.4.4a2.59,2.59,0,0,1,2.2,2.6v1.7A2.59,2.59,0,0,1,62,23.1l-2.4.4c-.2,0-.3.2-.4.3-.1.4-.3.7-.4,1.1a.638.638,0,0,0,0,.6l1.5,2a2.862,2.862,0,0,1-.2,3.4L58.6,32a2.59,2.59,0,0,1-3.4.2l-1.9-1.5a.33.33,0,0,0-.5,0c-.4.2-.7.3-1.1.5-.2.1-.3.2-.3.4L51,34.1a2.682,2.682,0,0,1-2.6,2.2Zm-6.3-7.7a2.016,2.016,0,0,1,1.1.3c.3.1.6.3.9.4a2.664,2.664,0,0,1,1.7,2l.4,2.5a.536.536,0,0,0,.5.5h1.6a.458.458,0,0,0,.5-.4l.4-2.5a2.487,2.487,0,0,1,1.7-2,3.552,3.552,0,0,0,.9-.4,2.66,2.66,0,0,1,2.7.3l2,1.5a.483.483,0,0,0,.7-.1l1.2-1.2a.483.483,0,0,0,0-.7l-1.5-2a2.483,2.483,0,0,1-.3-2.6c.1-.3.3-.6.4-.9a2.488,2.488,0,0,1,2-1.7l2.4-.4c.3,0,.4-.3.4-.5V19a.458.458,0,0,0-.4-.5L59,18.1a2.487,2.487,0,0,1-2-1.7,3.552,3.552,0,0,0-.4-.9,2.869,2.869,0,0,1,.2-2.7l1.5-2c.2-.2.1-.5,0-.7L57.1,8.9a.758.758,0,0,0-.4-.2.367.367,0,0,0-.3.1l-1.9,1.5a2.611,2.611,0,0,1-2.7.3c-.3-.1-.6-.3-.9-.4a2.664,2.664,0,0,1-1.7-2l-.4-2.5a.536.536,0,0,0-.5-.5H46.7a.458.458,0,0,0-.5.4L45.9,8a2.488,2.488,0,0,1-1.7,2,3.552,3.552,0,0,0-.9.4,2.66,2.66,0,0,1-2.7-.3l-2-1.5c-.3-.3-.5-.1-.7.1L36.7,9.9a.483.483,0,0,0,0,.7l1.5,2a2.693,2.693,0,0,1,.2,2.6c-.1.3-.3.6-.4.9a2.488,2.488,0,0,1-2,1.7l-2.4.4c-.3,0-.4.3-.4.5v1.7a.458.458,0,0,0,.4.5l2.4.4A2.487,2.487,0,0,1,38,23a3.552,3.552,0,0,0,.4.9,2.636,2.636,0,0,1-.3,2.7l-1.5,2c-.2.2-.1.5,0,.7l1.2,1.2a.483.483,0,0,0,.7.1l2-1.5a3.32,3.32,0,0,1,1.6-.5Z" fill="#5b2ccf"/>
        </g>
        <g id="Grupo_1103147" data-name="Grupo 1103147">
          <path id="Trazado_880854" data-name="Trazado 880854" d="M47.6,26.3a6.7,6.7,0,1,1,6.7-6.7A6.7,6.7,0,0,1,47.6,26.3Zm0-11.3a4.6,4.6,0,0,0,0,9.2,4.6,4.6,0,0,0,0-9.2Z" fill="#5b2ccf"/>
        </g>
      </g>
    </g>
  </g>
</svg>
