<svg xmlns="http://www.w3.org/2000/svg" width="85" height="82.875" viewBox="0 0 85 82.875">
  <g id="Grupo_1101107" data-name="Grupo 1101107" transform="translate(0 -6.4)">
    <path id="Trazado_874954" data-name="Trazado 874954" d="M15.052,6.4h54.9A15.039,15.039,0,0,1,85,21.452V74.223A15.04,15.04,0,0,1,69.948,89.275h-54.9A15.04,15.04,0,0,1,0,74.223V21.452A15.039,15.039,0,0,1,15.052,6.4Z" transform="translate(0 0)" fill="#001834"/>
    <g id="Grupo_1100379" data-name="Grupo 1100379" transform="translate(19.125 27.473)">
      <path id="Trazado_874955" data-name="Trazado 874955" d="M115.2,170.379V133.935c0-.248.106-.39.354-.39.6,0,1.169,0,1.983-.035.85-.035,1.735-.035,2.692-.071s1.983-.035,3.081-.071,2.16-.035,3.223-.035a20.825,20.825,0,0,1,7.3,1.1,12.649,12.649,0,0,1,4.746,2.9,11.276,11.276,0,0,1,2.585,4.038,13.555,13.555,0,0,1,.815,4.6,12.662,12.662,0,0,1-2.125,7.544,12.133,12.133,0,0,1-5.7,4.321,22.955,22.955,0,0,1-7.969,1.2c-.85,0-1.417,0-1.771-.035s-.85-.035-1.523-.035v11.369a.441.441,0,0,1-.39.5h-6.871C115.342,170.839,115.2,170.7,115.2,170.379Zm7.721-30v11.9c.5.035.956.071,1.381.071h1.877c2.446,0,5.27-.575,6.977-2.514,1.469-1.669,1.473-4.98.283-6.8-1.412-2.16-4.237-2.786-6.658-2.727-.921,0-1.735,0-2.408.035A8.086,8.086,0,0,0,122.921,140.381Z" transform="translate(-115.2 -133.333)" fill="#00a9ff"/>
      <path id="Trazado_874956" data-name="Trazado 874956" d="M317.595,194.244a12.535,12.535,0,0,0-3.4-1.2,18.665,18.665,0,0,0-3.967-.46,7.136,7.136,0,0,0-2.125.248,1.818,1.818,0,0,0-1.1.708,1.877,1.877,0,0,0-.283.956,1.576,1.576,0,0,0,.354.921,4,4,0,0,0,1.2.956c.815.425,1.665.815,2.515,1.169a25.652,25.652,0,0,1,5.454,2.585,8.24,8.24,0,0,1,2.8,2.94,7.647,7.647,0,0,1,.815,3.648,8.24,8.24,0,0,1-1.381,4.71,8.875,8.875,0,0,1-3.967,3.152,16.227,16.227,0,0,1-6.41,1.133,24.4,24.4,0,0,1-4.817-.46,14.286,14.286,0,0,1-3.613-1.133.7.7,0,0,1-.39-.673v-6.162a.385.385,0,0,1,.142-.319.27.27,0,0,1,.319.035,15.158,15.158,0,0,0,4.392,1.735,16.492,16.492,0,0,0,4.179.531,6.76,6.76,0,0,0,2.94-.5,1.645,1.645,0,0,0,.956-1.488,1.876,1.876,0,0,0-.85-1.417,15.024,15.024,0,0,0-3.471-1.665,21.666,21.666,0,0,1-5.029-2.55,9.17,9.17,0,0,1-2.692-3.01,7.6,7.6,0,0,1-.815-3.613,8.33,8.33,0,0,1,1.2-4.285,8.731,8.731,0,0,1,3.719-3.258,13.734,13.734,0,0,1,6.269-1.24,30.529,30.529,0,0,1,4.392.319,12.456,12.456,0,0,1,3.046.815.622.622,0,0,1,.354.319,1.782,1.782,0,0,1,.071.425v5.773a.436.436,0,0,1-.177.354A.942.942,0,0,1,317.595,194.244Z" transform="translate(-268.72 -177.457)" fill="#00a9ff"/>
    </g>
  </g>
</svg>
