<svg xmlns="http://www.w3.org/2000/svg" xmlns:xlink="http://www.w3.org/1999/xlink" width="295" height="420" viewBox="0 0 295 420">
  <defs>
    <clipPath id="clip-path">
      <rect id="Rectángulo_404156" data-name="Rectángulo 404156" width="224.05" height="222.092" fill="none"/>
    </clipPath>
  </defs>
  <g id="Grupo_1103631" data-name="Grupo 1103631" transform="translate(-181 -1202.535)">
    <g id="Grupo_1100318" data-name="Grupo 1100318" transform="translate(14378 10148.989)">
      <rect id="Rectángulo_401793" data-name="Rectángulo 401793" width="295" height="75.777" transform="translate(-14197 -8602.231)" fill="#14d6f0"/>
      <rect id="Rectángulo_402091" data-name="Rectángulo 402091" width="249" height="287.223" transform="translate(-14174 -8931.034)" fill="#a0eef9"/>
      <g id="Grupo_1099708" data-name="Grupo 1099708" transform="translate(-14041.765 -8946.454)">
        <path id="Trazado_874185" data-name="Trazado 874185" d="M59.931,65.431a1.944,1.944,0,1,1,1.945,1.945,1.945,1.945,0,0,1-1.945-1.945" transform="translate(61.91 72.609)" fill="#5b2ccf"/>
        <path id="Trazado_874186" data-name="Trazado 874186" d="M46.622,65.431a1.944,1.944,0,1,1,1.945,1.945,1.945,1.945,0,0,1-1.945-1.945" transform="translate(44.759 72.609)" fill="#5b2ccf"/>
        <path id="Trazado_874187" data-name="Trazado 874187" d="M33.313,65.431a1.944,1.944,0,1,1,1.943,1.945,1.945,1.945,0,0,1-1.943-1.945" transform="translate(27.609 72.609)" fill="#5b2ccf"/>
        <path id="Trazado_874188" data-name="Trazado 874188" d="M20,65.431a1.944,1.944,0,1,1,1.945,1.945A1.945,1.945,0,0,1,20,65.431" transform="translate(10.456 72.609)" fill="#5b2ccf"/>
        <path id="Trazado_874189" data-name="Trazado 874189" d="M6.694,65.431a1.944,1.944,0,1,1,1.945,1.945,1.945,1.945,0,0,1-1.945-1.945" transform="translate(-6.694 72.609)" fill="#5b2ccf"/>
        <path id="Trazado_874190" data-name="Trazado 874190" d="M59.931,53.538a1.944,1.944,0,1,1,1.945,1.945,1.945,1.945,0,0,1-1.945-1.945" transform="translate(61.91 57.283)" fill="#5b2ccf"/>
        <path id="Trazado_874191" data-name="Trazado 874191" d="M46.622,53.538a1.944,1.944,0,1,1,1.945,1.945,1.945,1.945,0,0,1-1.945-1.945" transform="translate(44.759 57.283)" fill="#5b2ccf"/>
        <path id="Trazado_874192" data-name="Trazado 874192" d="M33.313,53.538a1.944,1.944,0,1,1,1.943,1.945,1.945,1.945,0,0,1-1.943-1.945" transform="translate(27.609 57.283)" fill="#5b2ccf"/>
        <path id="Trazado_874193" data-name="Trazado 874193" d="M20,53.538a1.944,1.944,0,1,1,1.945,1.945A1.945,1.945,0,0,1,20,53.538" transform="translate(10.456 57.283)" fill="#5b2ccf"/>
        <path id="Trazado_874194" data-name="Trazado 874194" d="M6.694,53.538a1.944,1.944,0,1,1,1.945,1.945,1.945,1.945,0,0,1-1.945-1.945" transform="translate(-6.694 57.283)" fill="#5b2ccf"/>
        <path id="Trazado_874195" data-name="Trazado 874195" d="M59.931,41.644a1.944,1.944,0,1,1,1.945,1.945,1.943,1.943,0,0,1-1.945-1.945" transform="translate(61.91 41.958)" fill="#5b2ccf"/>
        <path id="Trazado_874196" data-name="Trazado 874196" d="M46.622,41.644a1.944,1.944,0,1,1,1.945,1.945,1.943,1.943,0,0,1-1.945-1.945" transform="translate(44.759 41.958)" fill="#5b2ccf"/>
        <path id="Trazado_874197" data-name="Trazado 874197" d="M33.313,41.644a1.944,1.944,0,1,1,1.943,1.945,1.943,1.943,0,0,1-1.943-1.945" transform="translate(27.609 41.958)" fill="#5b2ccf"/>
        <path id="Trazado_874198" data-name="Trazado 874198" d="M20,41.644a1.944,1.944,0,1,1,1.945,1.945A1.943,1.943,0,0,1,20,41.644" transform="translate(10.456 41.958)" fill="#5b2ccf"/>
        <path id="Trazado_874199" data-name="Trazado 874199" d="M6.694,41.644a1.944,1.944,0,1,1,1.945,1.945,1.943,1.943,0,0,1-1.945-1.945" transform="translate(-6.694 41.958)" fill="#5b2ccf"/>
        <path id="Trazado_874200" data-name="Trazado 874200" d="M59.931,29.751A1.944,1.944,0,1,1,61.876,31.7a1.945,1.945,0,0,1-1.945-1.945" transform="translate(61.91 26.629)" fill="#5b2ccf"/>
        <path id="Trazado_874201" data-name="Trazado 874201" d="M46.622,29.751A1.944,1.944,0,1,1,48.567,31.7a1.945,1.945,0,0,1-1.945-1.945" transform="translate(44.759 26.629)" fill="#5b2ccf"/>
        <path id="Trazado_874202" data-name="Trazado 874202" d="M33.313,29.751A1.944,1.944,0,1,1,35.256,31.7a1.945,1.945,0,0,1-1.943-1.945" transform="translate(27.609 26.629)" fill="#5b2ccf"/>
        <path id="Trazado_874203" data-name="Trazado 874203" d="M20,29.751A1.944,1.944,0,1,1,21.948,31.7,1.945,1.945,0,0,1,20,29.751" transform="translate(10.456 26.629)" fill="#5b2ccf"/>
        <path id="Trazado_874204" data-name="Trazado 874204" d="M6.694,29.751A1.944,1.944,0,1,1,8.639,31.7a1.945,1.945,0,0,1-1.945-1.945" transform="translate(-6.694 26.629)" fill="#5b2ccf"/>
        <path id="Trazado_874205" data-name="Trazado 874205" d="M59.931,17.858A1.944,1.944,0,1,1,61.876,19.8a1.945,1.945,0,0,1-1.945-1.945" transform="translate(61.91 11.303)" fill="#5b2ccf"/>
        <path id="Trazado_874206" data-name="Trazado 874206" d="M46.622,17.858A1.944,1.944,0,1,1,48.567,19.8a1.945,1.945,0,0,1-1.945-1.945" transform="translate(44.759 11.303)" fill="#5b2ccf"/>
        <path id="Trazado_874207" data-name="Trazado 874207" d="M33.313,17.858A1.944,1.944,0,1,1,35.256,19.8a1.945,1.945,0,0,1-1.943-1.945" transform="translate(27.609 11.303)" fill="#5b2ccf"/>
        <path id="Trazado_874208" data-name="Trazado 874208" d="M20,17.858A1.944,1.944,0,1,1,21.948,19.8,1.945,1.945,0,0,1,20,17.858" transform="translate(10.456 11.303)" fill="#5b2ccf"/>
        <path id="Trazado_874209" data-name="Trazado 874209" d="M6.694,17.858A1.944,1.944,0,1,1,8.639,19.8a1.945,1.945,0,0,1-1.945-1.945" transform="translate(-6.694 11.303)" fill="#5b2ccf"/>
        <path id="Trazado_874210" data-name="Trazado 874210" d="M59.931,5.964a1.944,1.944,0,1,1,1.945,1.945,1.943,1.943,0,0,1-1.945-1.945" transform="translate(61.91 -4.021)" fill="#5b2ccf"/>
        <path id="Trazado_874211" data-name="Trazado 874211" d="M46.622,5.964a1.944,1.944,0,1,1,1.945,1.945,1.943,1.943,0,0,1-1.945-1.945" transform="translate(44.759 -4.021)" fill="#5b2ccf"/>
        <path id="Trazado_874212" data-name="Trazado 874212" d="M33.313,5.964a1.944,1.944,0,1,1,1.943,1.945,1.943,1.943,0,0,1-1.943-1.945" transform="translate(27.609 -4.021)" fill="#5b2ccf"/>
        <path id="Trazado_874213" data-name="Trazado 874213" d="M20,5.964a1.944,1.944,0,1,1,1.945,1.945A1.943,1.943,0,0,1,20,5.964" transform="translate(10.456 -4.021)" fill="#5b2ccf"/>
        <path id="Trazado_874214" data-name="Trazado 874214" d="M6.694,5.964A1.944,1.944,0,1,1,8.639,7.909,1.943,1.943,0,0,1,6.694,5.964" transform="translate(-6.694 -4.021)" fill="#5b2ccf"/>
      </g>
      <g id="Grupo_1103604" data-name="Grupo 1103604" transform="translate(-14161.525 -8865.903)">
        <g id="Grupo_1103603" data-name="Grupo 1103603" clip-path="url(#clip-path)">
          <path id="Trazado_881466" data-name="Trazado 881466" d="M40.446,83.528l-.01-.009a3.077,3.077,0,1,1,.01.009m3.3-4.283A2.247,2.247,0,0,0,41,82.8L41,82.8a2.255,2.255,0,0,0,3.146-.4,2.25,2.25,0,0,0-.4-3.154" transform="translate(-2.064 -4.097)" fill="#261d2a"/>
          <path id="Trazado_881467" data-name="Trazado 881467" d="M224.038,105.606l-.01-.009a3.077,3.077,0,1,1,.01.009m3.3-4.283a2.247,2.247,0,0,0-2.755,3.552l.008.007a2.254,2.254,0,0,0,3.146-.4,2.25,2.25,0,0,0-.4-3.154" transform="translate(-11.725 -5.259)" fill="#261d2a"/>
          <path id="Trazado_881468" data-name="Trazado 881468" d="M131.3,44c-.35,0-.682,0-1.606-3.675-3.114-.6-3.387-.966-3.478-1.089a.617.617,0,0,1-.086-.477c.056-.2.187-.661,3.746-2.1,1.278-3.333,1.711-3.333,2-3.333a.651.651,0,0,1,.445.227,9.155,9.155,0,0,1,.749,2.382c.1.4.217.883.286,1.1.187.083.6.231.942.354,1.829.656,2.3.879,2.386,1.316a.628.628,0,0,1-.174.514,16.56,16.56,0,0,1-3.07,1.321c-1.506,3.429-1.828,3.446-2.114,3.461H131.3m-3.879-5.172c.622.179,1.757.437,2.747.621a.475.475,0,0,1,.373.352c.253,1.026.585,2.2.822,2.862.345-.621.868-1.72,1.292-2.692a.475.475,0,0,1,.277-.258c.847-.3,1.8-.663,2.4-.924-.418-.175-.984-.379-1.352-.511-1.046-.375-1.243-.456-1.377-.637a5.147,5.147,0,0,1-.451-1.478c-.1-.4-.248-1.007-.381-1.463a26.222,26.222,0,0,0-1.082,2.491.475.475,0,0,1-.267.272,30.455,30.455,0,0,0-3,1.363" transform="translate(-6.637 -1.754)" fill="#261d2a"/>
          <path id="Trazado_881469" data-name="Trazado 881469" d="M8.279,173.328c-.35,0-.682,0-1.606-3.675-3.114-.6-3.387-.966-3.478-1.089a.616.616,0,0,1-.086-.477c.056-.2.187-.661,3.746-2.1,1.278-3.333,1.711-3.333,2-3.333a.648.648,0,0,1,.445.227,9.155,9.155,0,0,1,.749,2.382c.1.4.217.883.286,1.1.187.083.6.231.943.354,1.828.656,2.3.879,2.386,1.316a.634.634,0,0,1-.174.514,16.6,16.6,0,0,1-3.07,1.321c-1.506,3.429-1.827,3.446-2.114,3.461H8.279M4.4,168.157c.622.179,1.757.437,2.747.621a.475.475,0,0,1,.373.352c.253,1.026.585,2.2.822,2.862.345-.621.868-1.72,1.292-2.692a.475.475,0,0,1,.277-.258c.847-.3,1.8-.663,2.4-.924-.418-.175-.985-.379-1.352-.511-1.046-.375-1.243-.456-1.377-.637a5.146,5.146,0,0,1-.451-1.478c-.1-.4-.248-1.007-.381-1.463a26.224,26.224,0,0,0-1.082,2.491.475.475,0,0,1-.267.272,30.454,30.454,0,0,0-3,1.363" transform="translate(-0.163 -8.56)" fill="#261d2a"/>
          <path id="Trazado_881470" data-name="Trazado 881470" d="M16.822,25.526h0l-1.832-.007L16.929,24.2a.474.474,0,0,0-.531-.784l-2.619,1.775.058-3.059a.473.473,0,0,0-.464-.483h0a.475.475,0,0,0-.48.465l-.051,2.7-1.6-1.737a.474.474,0,1,0-.7.642l1.648,1.788L9.152,25.5a.473.473,0,0,0-.008.946h0l2.768.009L9.754,27.923a.473.473,0,1,0,.531.783L12.8,27l-.058,3.083a.473.473,0,0,0,.464.483h0a.475.475,0,0,0,.48-.465l.055-2.911,1.707,1.852a.474.474,0,0,0,.7-.642l-1.789-1.939,2.461.009a.474.474,0,0,0,.006-.947" transform="translate(-0.457 -1.139)" fill="#261d2a"/>
          <path id="Trazado_881471" data-name="Trazado 881471" d="M228,126.114h0l-1.832-.007,1.941-1.316a.474.474,0,0,0-.532-.784l-2.619,1.775.058-3.059a.473.473,0,0,0-.464-.483h0a.475.475,0,0,0-.48.465l-.051,2.7-1.6-1.737a.474.474,0,1,0-.7.642l1.648,1.788-3.035-.011a.474.474,0,0,0-.008.947h0l2.768.01-2.163,1.467a.473.473,0,1,0,.531.783l2.51-1.7-.058,3.083a.473.473,0,0,0,.464.483h0a.475.475,0,0,0,.48-.465l.055-2.911,1.707,1.852a.474.474,0,1,0,.7-.642l-1.789-1.939,2.461.009a.474.474,0,0,0,.006-.947" transform="translate(-11.57 -6.433)" fill="#261d2a"/>
          <path id="Trazado_881472" data-name="Trazado 881472" d="M213.257,64.413c.765,3.107,1.8,6.814,2.493,7.228a.748.748,0,0,0,.587.076,1.222,1.222,0,0,0,.372-.179,7.954,7.954,0,0,0,1.734-2.039c2.056,4.5,2.827,4.354,3.111,4.294a.778.778,0,0,0,.216-.092c1.439-.97,6.969-18.962,7.1-21.22a.821.821,0,0,0-.213-.711.442.442,0,0,0-.094-.063.532.532,0,0,0-.13-.052.245.245,0,0,0-.038-.008.406.406,0,0,0-.095-.009.493.493,0,0,0-.063.006c-2.162.145-15.51,6.489-19.207,8.981-.867.585-1.682,1.207-1.308,1.826.741,1.226,4.291,1.8,5.538,1.962m12.192-10.878c-3.894,3.05-10.807,8.94-11.988,9.949-1.734-.224-4.134-.762-4.8-1.375a5.806,5.806,0,0,1,.9-.7c3.189-2.151,11.476-6.072,15.892-7.876M219,68.391a.452.452,0,0,0-.11-.247c-.312-.708-.62-1.44-.907-2.157,5.572-6.61,8.308-10.039,9.633-11.856-1.156,4.769-5.161,16.882-6.267,18.633A20.883,20.883,0,0,1,219,68.391m-2.811,2.369a43.33,43.33,0,0,1-2.024-6.63c1.46-1.245,9.037-7.691,12.59-10.407-2.1,2.766-6.608,8.228-9.679,11.87a.474.474,0,0,0-.079.479c.356.9.681,1.68.985,2.383a8.567,8.567,0,0,1-1.793,2.3" transform="translate(-10.926 -2.717)" fill="#261d2a"/>
          <path id="Trazado_881473" data-name="Trazado 881473" d="M21.151,48.312c.373-.619-.441-1.241-1.307-1.826C16.146,43.994,2.8,37.651.636,37.506A.493.493,0,0,0,.572,37.5a.448.448,0,0,0-.094.008.4.4,0,0,0-.039.009.548.548,0,0,0-.13.052.442.442,0,0,0-.094.063A.818.818,0,0,0,0,38.342C.131,40.6,5.661,58.591,7.1,59.562a.76.76,0,0,0,.215.092c.285.059,1.055.2,3.111-4.294A7.954,7.954,0,0,0,12.16,57.4a1.222,1.222,0,0,0,.372.179.752.752,0,0,0,.587-.076c.689-.413,1.727-4.12,2.493-7.228,1.248-.166,4.8-.736,5.538-1.962m-1.837-1.04a5.872,5.872,0,0,1,.9.7c-.67.613-3.07,1.15-4.8,1.375-1.181-1.009-8.094-6.9-11.988-9.949,4.417,1.8,12.7,5.726,15.893,7.876M7.523,58.625c-1.1-1.752-5.111-13.864-6.267-18.633,1.324,1.817,4.061,5.247,9.634,11.856-.288.717-.6,1.449-.908,2.157a.459.459,0,0,0-.11.247,20.884,20.884,0,0,1-2.349,4.372m3.367-4.308c.3-.7.629-1.485.985-2.383a.476.476,0,0,0-.079-.48c-3.071-3.641-7.584-9.1-9.679-11.869,3.553,2.716,11.13,9.162,12.59,10.407a43.366,43.366,0,0,1-2.024,6.63,8.586,8.586,0,0,1-1.793-2.3" transform="translate(0 -1.973)" fill="#261d2a"/>
          <path id="Trazado_881474" data-name="Trazado 881474" d="M10.686,192.8s2.586-8.8,3.292-7.724A74.167,74.167,0,0,1,16.8,192.05s7.444,2.51,7.248,3.012-6.679,3.137-6.679,3.137-2.1,7.653-3.273,6.9-3.213-6.858-3.213-6.858-6.664-.643-5.841-2.162,5.644-3.275,5.644-3.275" transform="translate(-0.262 -9.735)" fill="#e8c01b"/>
          <path id="Trazado_881475" data-name="Trazado 881475" d="M202.792,11.646s2.586-8.8,3.292-7.724a74.169,74.169,0,0,1,2.821,6.971s7.444,2.51,7.249,3.012-6.68,3.137-6.68,3.137-2.1,7.653-3.273,6.9-3.213-6.858-3.213-6.858-6.664-.643-5.841-2.162,5.644-3.275,5.644-3.275" transform="translate(-10.371 -0.202)" fill="#e8c01b"/>
          <path id="Trazado_881476" data-name="Trazado 881476" d="M216.138,35.823s1.6-5.454,2.041-4.788a45.768,45.768,0,0,1,1.749,4.321s4.615,1.556,4.493,1.867-4.14,1.944-4.14,1.944-1.3,4.744-2.029,4.277-1.991-4.251-1.991-4.251-4.131-.4-3.62-1.341,3.5-2.03,3.5-2.03" transform="translate(-11.188 -1.63)" fill="#e8c01b"/>
          <path id="Trazado_881477" data-name="Trazado 881477" d="M182.692,152.383c-2.116-5.029-6.7-13.421-17.957-13.421-3.327,0-5.359-21.919-5.828-27.589,7.327-15.388-.654-23.164-17.932-30.755,0,0-10.612-8.949-22.891,7.5s-12.131,20.73-9.241,24.638,6.526-1.861,8.041,2.563-.243,9.93,2.67,15.474c3.919,7.462,13.517,7.06,22.88.573l1.41,10.507s-2,1.239-12.778,4.746c-8.155,2.655-2.553,38.007,25.629,30.084s28.113-19.294,26-24.323" transform="translate(-5.643 -4.115)" fill="#9f543d"/>
          <path id="Trazado_881478" data-name="Trazado 881478" d="M229.17,184.566c-7.527-43.762-60.536-42.425-61.4-42.425-1.872,0-1.234,17.184-23.705,19.506-6.9.713-6.436-14.887-6.436-14.887a61.928,61.928,0,0,0-16,5.06c-10.863,2.339-27.339,6.288-23.639,8.011,2.41,1.123,5.259,41.416,8.718,41.6,7.885.425,13.451-.334,17.363-1.732-.013,11.547-2.556,20.178,2.461,17.963,8.7-3.84,63.789,3.191,75.022-1.462,5.2-2.156,7.941-14.7,8.766-28.391,9.792-.169,19.2-1.194,18.846-3.247" transform="translate(-5.129 -7.48)" fill="#e8c01b"/>
          <path id="Trazado_881479" data-name="Trazado 881479" d="M108.935,161.942s-13.677,1.481-21.768-4.209-1.237-49.387-8.761-61.177c0,0-2.735-13.432-11.618-18.9-13.079-8.047.88,11.109.88,11.109S49.027,96.931,48.932,101.9c-.238,12.437,8.7,10.792,10.893,17.129s-15.64,44.155,7.843,68.018c8.333,8.469,39.85,8.7,41.267,5.67s0-30.775,0-30.775" transform="translate(-2.575 -3.983)" fill="#9f543d"/>
          <path id="Trazado_881480" data-name="Trazado 881480" d="M122.63,106.614a1.547,1.547,0,0,1-.926-.31c-2.114-1.543-1.935-9.058-1.907-9.909a.509.509,0,0,1,.489-.459.473.473,0,0,1,.458.489c-.1,3.024.23,8.173,1.52,9.114a.643.643,0,0,0,.648.074c2.314-.821,2.666-6.844,2.605-9.095a.475.475,0,0,1,.461-.487.489.489,0,0,1,.486.46c.024.9.136,8.818-3.235,10.015a1.791,1.791,0,0,1-.6.108" transform="translate(-6.304 -5.049)" fill="#261d2a"/>
          <path id="Trazado_881481" data-name="Trazado 881481" d="M135.08,107.445a1.547,1.547,0,0,1-.926-.31c-2.114-1.543-1.935-9.057-1.907-9.908a.5.5,0,0,1,.489-.459.473.473,0,0,1,.458.489c-.1,3.024.23,8.172,1.52,9.113a.647.647,0,0,0,.648.074c2.314-.821,2.666-6.844,2.605-9.095a.474.474,0,0,1,.947-.027c.024.9.136,8.818-3.235,10.015a1.8,1.8,0,0,1-.6.108" transform="translate(-6.959 -5.092)" fill="#261d2a"/>
          <path id="Trazado_881482" data-name="Trazado 881482" d="M152.362,115a2.1,2.1,0,0,1-.815-.171,3.948,3.948,0,0,1-2.079-3.3,4.567,4.567,0,0,1,2.263-4.3c4.581-2.913,7.305.648,7.333.684a.474.474,0,0,1-.759.567c-.09-.118-2.242-2.883-6.065-.451a3.578,3.578,0,0,0-1.828,3.421,3.027,3.027,0,0,0,1.5,2.5,1.1,1.1,0,0,0,1.2-.2,1.909,1.909,0,0,0,.576-2.555,1.736,1.736,0,0,0-1.819-1,.474.474,0,0,1-.3-.9,2.628,2.628,0,0,1,2.95,1.438,2.854,2.854,0,0,1-.8,3.745,2.109,2.109,0,0,1-1.355.519" transform="translate(-7.865 -5.583)" fill="#261d2a"/>
          <path id="Trazado_881483" data-name="Trazado 881483" d="M161.4,78.046c-2.058-1.845,7.726-5.342,4.52-8.912-6.181-6.881-11.284-1.85-12.149-1.908,0,0,7.649-6.161-2.484-7.809s-14.478,4.377-14.478,4.377,3.683-8.221-7.545-6.477-17.2,29.724-5.113,24.84,27.255-2.178,22.235,5.724c-3.179,5,14.128,11.613,1.374,11.152s2.464,24.144-4.174,25.608-1.053-16.6-14.534-17.289-11.563,8.972-11.563,8.972c-1.241,25.144,15.981,23.591,28.93,13.144s-3.153-19.83.951-24.584c5.572-6.455,14.8-2.9,11.033,7.425-1.294,3.553,11.492,3.446,13.981-10.993S163.457,79.892,161.4,78.046" transform="translate(-6.178 -3.004)" fill="#403955"/>
          <path id="Trazado_881484" data-name="Trazado 881484" d="M126.107,78.019a.472.472,0,0,1-.428-.271c-1.719-3.626-1.935-6.514-.64-8.584,1.885-3.017,6.232-3.1,6.416-3.1h.006a.474.474,0,0,1,.006.947c-.04,0-4.019.082-5.626,2.659-1.109,1.779-.875,4.361.7,7.674a.473.473,0,0,1-.225.631.482.482,0,0,1-.2.045" transform="translate(-6.536 -3.477)" fill="#fcfdff"/>
          <path id="Trazado_881485" data-name="Trazado 881485" d="M138.2,77.494a.474.474,0,0,1-.454-.338,7.488,7.488,0,0,1,.612-6.354c2.27-3.6,7.437-4.468,7.656-4.5a.474.474,0,1,1,.15.936c-.049.008-4.968.834-7.006,4.075a6.581,6.581,0,0,0-.5,5.575.475.475,0,0,1-.455.609" transform="translate(-7.227 -3.489)" fill="#fcfdff"/>
          <path id="Trazado_881486" data-name="Trazado 881486" d="M148.247,78.942h-.028a.473.473,0,0,1-.445-.5c.226-3.94,1.4-6.6,3.5-7.893,2.82-1.749,6.2-.339,6.344-.278a.474.474,0,0,1-.371.872c-.03-.013-3.081-1.276-5.48.214-1.811,1.127-2.836,3.529-3.045,7.138a.473.473,0,0,1-.471.447" transform="translate(-7.777 -3.667)" fill="#fcfdff"/>
          <path id="Trazado_881487" data-name="Trazado 881487" d="M168.2,93.992a.473.473,0,0,1-.45-.326c-.964-2.927-2.488-4.827-4.528-5.649-3.187-1.28-6.6.492-6.635.509a.473.473,0,1,1-.443-.836c.154-.083,3.843-1.994,7.432-.551,2.312.93,4.018,3.027,5.074,6.232a.474.474,0,0,1-.45.621" transform="translate(-8.204 -4.557)" fill="#fcfdff"/>
          <path id="Trazado_881488" data-name="Trazado 881488" d="M169.785,104.482h-.021a.474.474,0,0,1-.453-.494c.115-2.667-.57-4.654-2.036-5.907-2.707-2.314-7.219-1.435-7.264-1.427a.474.474,0,1,1-.189-.928c.2-.042,5.014-.977,8.068,1.635,1.7,1.452,2.494,3.7,2.367,6.667a.474.474,0,0,1-.473.454" transform="translate(-8.391 -5.027)" fill="#fcfdff"/>
          <path id="Trazado_881489" data-name="Trazado 881489" d="M166.122,142.322s-16.053,21.408-19.148,16.884-1.743-13.971-1.743-13.971-14.988-.366-10.983,15.43c6.268,24.718,13.872.09,14.843,2.229s5.336,9.415,11.488,8.862,15.9-6.879,15.957-17.373c.082-15.308-10.413-12.061-10.413-12.061" transform="translate(-7.029 -7.475)" fill="#eeebd5"/>
          <path id="Trazado_881490" data-name="Trazado 881490" d="M78.416,97.375a14.628,14.628,0,0,0-9.442-1.556c-.225-1.626-3.019-3.983-3.6-4.455a.474.474,0,1,0-.6.734c1.359,1.108,3.273,3.059,3.273,3.925,0,.011.006.022.007.033a11.367,11.367,0,0,0-3.97,2.141c-.809.664-1.8,1.612-1.744,2.546-.024-.037-.049-.072-.073-.109A51.676,51.676,0,0,0,59.4,95.55a.474.474,0,0,0-.824.462,49.65,49.65,0,0,0,2.841,5.061c1.539,3.135,3,7.017,2.287,9.387-.045.146-.166.489-.336.5H63.34c-1.014,0-3.505-3.637-5.934-8.019-1.017-2.1-1.982-3.868-2.4-4.612a.474.474,0,0,0-.839.438c.495,1.017,1.374,2.782,2.424,4.694,2.054,4.293,3.8,8.872,2.92,9.955-.319.4-1.209.3-2.323-.243-3.117-1.524-8.11-6.707-6.959-11.606a.474.474,0,0,0-.353-.568.468.468,0,0,0-.569.352c-1.265,5.389,4.1,11.029,7.466,12.674a4.933,4.933,0,0,0,2.09.585,1.691,1.691,0,0,0,1.386-.6c.716-.887.383-2.91-.392-5.232,1.339,1.869,2.644,3.195,3.589,3.123.38-.03.892-.259,1.168-1.173.524-1.737.051-4.1-.789-6.455a6.389,6.389,0,0,0,3.028,2.132,2.455,2.455,0,0,0,.377.037,8.995,8.995,0,0,0-1.8,6.441.473.473,0,0,0,.467.4.427.427,0,0,0,.077-.007.473.473,0,0,0,.391-.544c-.9-5.559,6.738-10.829,6.816-10.882a.474.474,0,0,0-.34-.859c-4.244.662-9.1.767-9.538-.212-.114-.254.189-.874,1.378-1.853,6-4.935,13.173-.782,13.245-.739a.473.473,0,0,0,.484-.814m-7.207,4.8a23.193,23.193,0,0,0-3.057,3.042,1.242,1.242,0,0,1-1.1.264c-1.213-.251-2.656-1.819-3.985-3.683,1.6.954,5.552.687,8.146.377" transform="translate(-2.585 -4.802)" fill="#261d2a"/>
          <path id="Trazado_881491" data-name="Trazado 881491" d="M198.622,185.693H198.6a.473.473,0,0,1-.446-.5c.886-15.762-8.909-29.737-9.009-29.875a.474.474,0,0,1,.772-.55c.1.143,10.087,14.378,9.182,30.479a.474.474,0,0,1-.473.447" transform="translate(-9.949 -8.134)" fill="#261d2a"/>
          <path id="Trazado_881492" data-name="Trazado 881492" d="M141.93,227.489s42.085-.693,41.729-1.244-.711-22.316-20.863-24.274-20.866,25.518-20.866,25.518" transform="translate(-7.469 -10.623)" fill="#eeebd5"/>
          <path id="Trazado_881493" data-name="Trazado 881493" d="M230.424,188.3l-29.108,1.571.763,15.794a128.951,128.951,0,0,0-23.56-10.078c-2.313-.73-24.966-8.122-26.427,15.754-.748,12.23,4.444,3.836,5.413.749a8.438,8.438,0,0,0,1.438,5.834c1.966,3.24,3.509-.427,4.111-2.266-.022.749.362,1.885,2.234,3.152s3.118-4.416,6.77-7.469c2.186-1.827,4.676-.529,5.755.3,5.52,5.877,24.471,22.4,36.813,20.143,20.157-3.687,15.8-43.487,15.8-43.487" transform="translate(-8 -9.91)" fill="#9f543d"/>
          <path id="Trazado_881494" data-name="Trazado 881494" d="M158.177,213.274a.474.474,0,0,1-.469-.413c-.968-7.439,7.3-12.025,7.649-12.216a.474.474,0,0,1,.453.833c-.081.044-8.047,4.471-7.163,11.262a.473.473,0,0,1-.408.531.458.458,0,0,1-.062,0" transform="translate(-8.295 -10.556)" fill="#261d2a"/>
          <path id="Trazado_881495" data-name="Trazado 881495" d="M163.93,216.118h-.024a.473.473,0,0,1-.45-.5c.485-9.928,7.909-10.03,8.005-10.03h0a.474.474,0,0,1,0,.947c-.27,0-6.617.115-7.057,9.128a.474.474,0,0,1-.473.451" transform="translate(-8.602 -10.819)" fill="#261d2a"/>
          <path id="Trazado_881496" data-name="Trazado 881496" d="M210.768,153.789a.473.473,0,0,1-.456-.347,2.393,2.393,0,0,0-2.246-1.975.484.484,0,0,1-.481-.465.472.472,0,0,1,.46-.482,3.4,3.4,0,0,1,3.179,2.669.472.472,0,0,1-.33.583.456.456,0,0,1-.127.018" transform="translate(-10.924 -7.921)" fill="#fcfdff"/>
          <path id="Trazado_881497" data-name="Trazado 881497" d="M210.587,158.235a.475.475,0,0,1-.457-.347,2.393,2.393,0,0,0-2.246-1.975h0a.474.474,0,0,1-.016-.947,3.386,3.386,0,0,1,3.18,2.669.472.472,0,0,1-.33.583.456.456,0,0,1-.127.018" transform="translate(-10.915 -8.155)" fill="#fcfdff"/>
          <path id="Trazado_881498" data-name="Trazado 881498" d="M215.914,158.267a.474.474,0,0,1-.456-.347,2.421,2.421,0,0,0-2.246-1.975h-.006a.474.474,0,0,1-.015-.947,3.43,3.43,0,0,1,3.179,2.669.472.472,0,0,1-.33.583.457.457,0,0,1-.127.018" transform="translate(-11.195 -8.157)" fill="#fcfdff"/>
          <path id="Trazado_881499" data-name="Trazado 881499" d="M216.4,163.049a.474.474,0,0,1-.456-.347,2.367,2.367,0,0,0-2.247-1.975h0a.474.474,0,0,1-.015-.947h.048a3.378,3.378,0,0,1,3.131,2.67.472.472,0,0,1-.33.583.457.457,0,0,1-.127.018" transform="translate(-11.22 -8.408)" fill="#fcfdff"/>
          <path id="Trazado_881500" data-name="Trazado 881500" d="M211.155,162.929a.473.473,0,0,1-.456-.347,2.367,2.367,0,0,0-2.247-1.975h0a.474.474,0,0,1-.015-.947,3.417,3.417,0,0,1,3.179,2.669.474.474,0,0,1-.33.584.493.493,0,0,1-.127.017" transform="translate(-10.945 -8.402)" fill="#fcfdff"/>
          <path id="Trazado_881501" data-name="Trazado 881501" d="M221.523,163.583a.473.473,0,0,1-.456-.347,2.416,2.416,0,0,0-2.246-1.975h-.006a.474.474,0,0,1-.015-.947h.049a3.378,3.378,0,0,1,3.13,2.67.474.474,0,0,1-.33.584.492.492,0,0,1-.127.017" transform="translate(-11.49 -8.436)" fill="#fcfdff"/>
          <path id="Trazado_881502" data-name="Trazado 881502" d="M220.51,168.066a.474.474,0,0,1-.474-.468,2.5,2.5,0,0,0-1.583-2.621.474.474,0,0,1,.238-.917,3.464,3.464,0,0,1,2.293,3.527.473.473,0,0,1-.468.479Z" transform="translate(-11.478 -8.633)" fill="#fcfdff"/>
          <path id="Trazado_881503" data-name="Trazado 881503" d="M126.249,191.583a.474.474,0,0,1-.447-.316c-2.3-6.535-.781-13.882.9-18.9a51.393,51.393,0,0,1,4.222-9.38.474.474,0,1,1,.808.495c-.093.153-9.279,15.419-5.036,27.466a.474.474,0,0,1-.29.6.481.481,0,0,1-.157.027" transform="translate(-6.559 -8.566)" fill="#261d2a"/>
          <path id="Trazado_881504" data-name="Trazado 881504" d="M182.385,214.872c-1.843,0-3.731-.92-5.624-2.744a.474.474,0,0,1,.658-.682c1.927,1.859,3.8,2.683,5.58,2.437a6.67,6.67,0,0,0,4.244-3,.474.474,0,1,1,.816.483,7.551,7.551,0,0,1-4.932,3.46,5.58,5.58,0,0,1-.743.05" transform="translate(-9.294 -11.085)" fill="#261d2a"/>
          <path id="Trazado_881505" data-name="Trazado 881505" d="M216.862,214.286a.474.474,0,0,1-.371-.246c-2.393-4.446-15.089-8.088-15.217-8.124a.473.473,0,0,1-.327-.584.478.478,0,0,1,.585-.328c.538.153,13.209,3.789,15.793,8.585a.474.474,0,0,1-.192.642.467.467,0,0,1-.271.054" transform="translate(-10.574 -10.787)" fill="#261d2a"/>
          <path id="Trazado_881506" data-name="Trazado 881506" d="M31.09,197.985s-13.011-68.161-10.048-68.836c9.334-2.13,89.071-3.02,89.071-3.02,5.048,3.925,14.241,71.807,14.241,71.807-9.658.038-93.264.049-93.264.049" transform="translate(-1.084 -6.638)" fill="#eeebd5"/>
          <path id="Trazado_881507" data-name="Trazado 881507" d="M27.325,133.076a.474.474,0,0,1-.019-.947c2.826-.115,69.293-2.823,77.323-.815a.474.474,0,1,1-.229.919c-7.9-1.976-76.364.815-77.055.843Z" transform="translate(-1.413 -6.872)" fill="#261d2a"/>
          <path id="Trazado_881508" data-name="Trazado 881508" d="M45.309,183.843a.474.474,0,0,1-.464-.379l-6.6-32.36a.474.474,0,0,1,.459-.567l51.529-.614a.452.452,0,0,1,.472.385l6.2,32.187a.474.474,0,0,1-.458.564l-51.123.785Zm-6.025-32.366,6.411,31.413,50.165-.771-6.017-31.244Z" transform="translate(-2.012 -7.89)" fill="#261d2a"/>
          <path id="Trazado_881509" data-name="Trazado 881509" d="M123.966,212.37H69.842s-4.524-19.64,3.3-36.695H84.859L81.47,156.5H46.483L49.6,175.675h4.69a60.341,60.341,0,0,0-7.805,36.695H13.223l1.484,16.156,110.76-1.721Z" transform="translate(-0.696 -8.236)" fill="#403955"/>
          <path id="Trazado_881510" data-name="Trazado 881510" d="M55.671,206.583a.474.474,0,0,1-.474-.474,49.567,49.567,0,0,1,4.388-21.182,27.722,27.722,0,0,1,4.432-6.989.473.473,0,1,1,.682.657c-.086.089-8.555,9.124-8.555,27.515a.474.474,0,0,1-.474.474" transform="translate(-2.905 -9.356)" fill="#fcfdff"/>
          <path id="Trazado_881511" data-name="Trazado 881511" d="M49.587,224.691c-14.763,0-26.658-.019-29.126-.074a.474.474,0,0,1-.462-.485.446.446,0,0,1,.484-.462c7.35.166,98.623,0,99.544,0h0a.474.474,0,0,1,0,.947c-.612,0-41.162.074-70.441.074" transform="translate(-1.052 -11.771)" fill="#fcfdff"/>
          <path id="Trazado_881512" data-name="Trazado 881512" d="M123.454,115.364s1.875,6.776,9.481,2.429-.7,12.229-7.606,8.351-3.2-13.085-1.875-10.78" transform="translate(-6.382 -6.052)" fill="#eeebd5"/>
          <path id="Trazado_881513" data-name="Trazado 881513" d="M126.448,139.031a.47.47,0,0,1-.164-.028,4.081,4.081,0,0,1-2.87-2.644c-.5-1.965,1.185-3.9,1.256-3.983a.474.474,0,0,1,.711.626c-.014.016-1.424,1.647-1.048,3.128.212.835.979,1.5,2.277,1.984a.473.473,0,0,1-.164.917" transform="translate(-6.49 -6.958)" fill="#fcfdff"/>
          <path id="Trazado_881514" data-name="Trazado 881514" d="M138.231,137.815a.492.492,0,0,1-.091-.009,3.412,3.412,0,0,1-2.7-1.846c-.855-1.932.661-4.472.726-4.578a.474.474,0,0,1,.811.49c-.014.023-1.326,2.227-.67,3.706a2.537,2.537,0,0,0,2.01,1.3.474.474,0,0,1-.09.939" transform="translate(-7.114 -6.902)" fill="#fcfdff"/>
          <path id="Trazado_881515" data-name="Trazado 881515" d="M132.556,139.031a.521.521,0,0,1-.1-.009,3.717,3.717,0,0,1-2.933-2.071c-.8-1.983.812-4.422.882-4.526a.473.473,0,0,1,.786.527c-.014.022-1.4,2.13-.789,3.645a2.847,2.847,0,0,0,2.254,1.5.473.473,0,0,1-.1.936" transform="translate(-6.804 -6.958)" fill="#fcfdff"/>
          <path id="Trazado_881516" data-name="Trazado 881516" d="M172.268,23.255c10.117,8.964,5.565,21.575,4.339,24.449l-4.316-1.186c12.507-25.1-19.577-27.051-19.577-27.051l-.7-1.558c5.091-1.265,12.7-1.347,20.256,5.347" transform="translate(-8 -0.907)" fill="#e8c01b"/>
          <path id="Trazado_881517" data-name="Trazado 881517" d="M178.425,14.825c-10.826-10-23.776-6.749-29.728-4.414l-1.121-2.49s19.291-9.805,34.518,5.267,6.019,36.368,6.019,36.368l-2.887-.077c1.7-6.367,4.943-23.806-6.8-34.655" transform="translate(-7.766 -0.252)" fill="#be607a"/>
          <path id="Trazado_881518" data-name="Trazado 881518" d="M178.488,15c11.745,10.849,8.5,28.288,6.8,34.655L180.8,48.424c1.886-5.231,4.886-17.494-3.567-27.5-8.48-10.039-20.764-8.8-27.1-7.275l-1.378-3.059C154.711,8.254,167.662,5,178.488,15" transform="translate(-7.829 -0.429)" fill="#a17296"/>
          <path id="Trazado_881519" data-name="Trazado 881519" d="M177.31,21.171c8.452,10.007,5.453,22.27,3.568,27.5l-4.366-1.2c1.226-2.874,5.778-15.485-4.34-24.449-7.555-6.694-15.165-6.612-20.255-5.347l-1.7-3.782c6.332-1.527,18.616-2.764,27.1,7.275" transform="translate(-7.905 -0.677)" fill="#d37e3a"/>
          <path id="Trazado_881520" data-name="Trazado 881520" d="M185.264,50.128a.474.474,0,0,1-.439-.653c.071-.174,6.99-17.641-4.456-31.77C168.954,3.614,149.1,10.952,148.9,11.029a.474.474,0,0,1-.336-.887c.206-.079,20.7-7.653,32.539,6.967,11.8,14.572,4.671,32.544,4.6,32.724a.473.473,0,0,1-.439.295" transform="translate(-7.802 -0.427)" fill="#261d2a"/>
          <path id="Trazado_881521" data-name="Trazado 881521" d="M180.851,49.139a.5.5,0,0,1-.155-.025.476.476,0,0,1-.293-.6c.933-2.689,5.147-16.632-3.483-27.044-9.11-10.99-26.451-7.156-26.624-7.118a.469.469,0,0,1-.568-.355.474.474,0,0,1,.355-.567c.18-.04,18.082-4.006,27.567,7.435,8.955,10.8,4.611,25.186,3.649,27.96a.473.473,0,0,1-.447.317" transform="translate(-7.879 -0.67)" fill="#261d2a"/>
          <path id="Trazado_881522" data-name="Trazado 881522" d="M176.58,48.169a.49.49,0,0,1-.174-.033.475.475,0,0,1-.266-.615c.055-.138,5.388-14-3.081-22.832-8.506-8.873-20.85-6.355-20.974-6.327a.48.48,0,0,1-.563-.365.474.474,0,0,1,.365-.562c.128-.028,12.989-2.653,21.855,6.6,3.687,3.846,5.422,9.194,5.015,15.463a30.189,30.189,0,0,1-1.737,8.373.475.475,0,0,1-.441.3" transform="translate(-7.973 -0.898)" fill="#261d2a"/>
          <path id="Trazado_881523" data-name="Trazado 881523" d="M177.227,41.494s-.738-7.623,5.789-5.011,4.234,9.522,1.776,7.083,2.421-10.408,7.379-6.7,3.683,10.666.1,11.1,2.335-8.076,6.72-2.636-5.645,14.943-9.586,11.273-.674-9.371.214-5.83-1.783,6.932-8.905,6.631-3.618-12.415-1.2-8.81-1.806,7.515-6.742,3.218.981-12.806,4.456-10.323" transform="translate(-8.993 -1.889)" fill="#fcfdff"/>
          <path id="Trazado_881524" data-name="Trazado 881524" d="M191.574,57.89a3.577,3.577,0,0,1-2.515-.963,6.884,6.884,0,0,1-.806-.891c-1.328,1.056-3.624,1.986-7.582,1.819a4.554,4.554,0,0,1-4.5-3.787,7.7,7.7,0,0,1-3.733-1.922c-2.973-2.586-2.357-6.794-.269-9.439,1.377-1.743,3.106-2.481,4.536-2.019.013-1.218.254-3.468,1.753-4.593,1.133-.85,2.719-.878,4.712-.079a8.624,8.624,0,0,1,2.327,1.356c1.607-1.783,4.24-2.928,6.938-.908a8.39,8.39,0,0,1,3.451,6.55,4.852,4.852,0,0,1,3.454,2c2.573,3.193.62,7.557-2.284,10.26a8.757,8.757,0,0,1-5.478,2.619m-2.624-2.508a5.77,5.77,0,0,0,.754.852c1.691,1.575,4.66.245,6.7-1.656,2.593-2.414,4.385-6.252,2.192-8.974a3.863,3.863,0,0,0-2.756-1.634,6.8,6.8,0,0,1-.193,1.051,4.173,4.173,0,0,1-3.345,3.392c-1.155.142-1.483-.5-1.573-.787-.358-1.132.962-3.09,2.714-4.03a4.919,4.919,0,0,1,1.491-.528,7.439,7.439,0,0,0-3.075-5.844c-2.713-2.032-4.956-.006-5.682.8a5.588,5.588,0,0,1,1.544,3.674,2.787,2.787,0,0,1-1.342,2.709,1.706,1.706,0,0,1-1.948-.533c-1.36-1.35-.831-3.889.477-5.769a7.8,7.8,0,0,0-2.1-1.21c-1.665-.666-2.94-.682-3.791-.044-1.647,1.233-1.354,4.536-1.351,4.569a.474.474,0,0,1-.747.431c-1.273-.91-2.933.069-4.017,1.442-1.506,1.908-2.71,5.649.147,8.137a7.111,7.111,0,0,0,2.961,1.643c-.2-2.407.719-5.034,2.016-5.552.314-.123,1.122-.3,1.847.784a3.646,3.646,0,0,1-.351,4.931,3.761,3.761,0,0,1-2.369.9,3.545,3.545,0,0,0,3.551,2.774c3.1.136,5.543-.459,7.025-1.674a5.671,5.671,0,0,1-.334-4.888c.355-.8.879-1.23,1.441-1.18.394.034.925.316,1.214,1.47a5.07,5.07,0,0,1-.931,4.545c-.055.067-.113.135-.174.2m-.192-5.274c-.049,0-.274.138-.486.61a4.77,4.77,0,0,0,.169,3.8,4.093,4.093,0,0,0,.7-3.652c-.15-.6-.338-.752-.376-.758Zm-11.778,3.084h.006a2.861,2.861,0,0,0,1.917-.664,2.738,2.738,0,0,0,.19-3.694c-.377-.562-.627-.462-.71-.431-.764.305-1.656,2.56-1.4,4.789m17.9-9.139a4.053,4.053,0,0,0-.985.377c-1.57.841-2.416,2.413-2.259,2.91.052.166.371.153.554.133a3.274,3.274,0,0,0,2.545-2.7,5.741,5.741,0,0,0,.145-.723m-9.28-5.276c-1.1,1.642-1.352,3.578-.5,4.426.232.229.577.472.912.333a1.956,1.956,0,0,0,.764-1.827,4.621,4.621,0,0,0-1.178-2.931" transform="translate(-8.967 -1.863)" fill="#261d2a"/>
          <path id="Trazado_881525" data-name="Trazado 881525" d="M134.689,6.709s-1.067-7.577,5.566-5.293,4.642,9.3,2.081,6.987,1.969-10.518,7.082-7.055,4.141,10.472.581,11.082,1.984-8.183,6.6-2.966S151.6,24.672,147.509,21.2s-1.078-9.328-.038-5.835-1.482,7.013-8.609,7.066-4.151-12.223-1.583-8.741-1.479,7.6-6.6,3.551.426-12.841,4-10.533" transform="translate(-6.768 -0.027)" fill="#fcfdff"/>
          <path id="Trazado_881526" data-name="Trazado 881526" d="M138.792,22.88a4.517,4.517,0,0,1-4.618-3.558,7.648,7.648,0,0,1-3.81-1.735c-3.109-2.458-2.7-6.592-.689-9.4,1.3-1.817,3-2.646,4.455-2.252-.042-1.217.1-3.482,1.552-4.679,1.1-.9,2.676-1.007,4.7-.309a8.7,8.7,0,0,1,2.391,1.229c1.529-1.858,4.1-3.123,6.883-1.242A8.343,8.343,0,0,1,153.388,7.3a4.815,4.815,0,0,1,3.537,1.823c2.709,3.063.947,7.519-1.837,10.363-2.331,2.382-5.68,3.939-7.912,2.049a6.916,6.916,0,0,1-.843-.849c-1.281,1.121-3.536,2.163-7.494,2.192Zm-3.625-3.541a3.512,3.512,0,0,0,3.623,2.594h.042c3.1-.023,5.52-.735,6.949-2.025a5.665,5.665,0,0,1-.549-4.859c.32-.821.836-1.25,1.392-1.255.4.017.936.275,1.274,1.411a5.086,5.086,0,0,1-.729,4.582c-.053.071-.109.143-.169.216a5.656,5.656,0,0,0,.789.811c1.756,1.489,4.663.013,6.621-1.988,2.488-2.542,4.114-6.464,1.8-9.074a3.828,3.828,0,0,0-2.824-1.495,6.956,6.956,0,0,1-.139,1.03,4.219,4.219,0,0,1-3.2,3.586c-1.139.19-1.5-.43-1.606-.707-.412-1.114.821-3.14,2.538-4.168a4.939,4.939,0,0,1,1.464-.6,7.4,7.4,0,0,0-3.322-5.686c-2.785-1.885-4.926.216-5.634,1.074a5.591,5.591,0,0,1,1.691,3.584,2.809,2.809,0,0,1-1.222,2.793,1.7,1.7,0,0,1-1.97-.437c-1.416-1.281-1-3.844.226-5.787a7.726,7.726,0,0,0-2.144-1.1c-1.691-.583-2.965-.533-3.788.144-1.6,1.313-1.16,4.6-1.155,4.636a.474.474,0,0,1-.214.464.468.468,0,0,1-.512,0c-1.314-.845-2.935.222-3.959,1.653-1.416,1.98-2.45,5.773.5,8.11a7.045,7.045,0,0,0,3.03,1.493c-.3-2.4.494-5.066,1.774-5.646.308-.141,1.107-.351,1.879.694a3.649,3.649,0,0,1-.137,4.943,3.786,3.786,0,0,1-2.329,1.011m11.417-4.6c-.049,0-.279.156-.474.664a4.792,4.792,0,0,0,.342,3.754,4.106,4.106,0,0,0,.538-3.683c-.174-.584-.367-.729-.405-.735ZM136.29,13.518a.34.34,0,0,0-.144.035c-.756.343-1.548,2.636-1.2,4.852a2.878,2.878,0,0,0,1.891-.758,2.739,2.739,0,0,0,.033-3.7c-.26-.352-.454-.428-.581-.428m16.141-5.13a4.058,4.058,0,0,0-.962.423c-1.539.921-2.316,2.535-2.135,3.025.06.16.375.134.557.1a3.314,3.314,0,0,0,2.434-2.85,5.858,5.858,0,0,0,.106-.7m-9.5-4.809c-1.023,1.695-1.2,3.643-.309,4.445a.889.889,0,0,0,.924.287,1.978,1.978,0,0,0,.686-1.885,4.594,4.594,0,0,0-1.3-2.847" transform="translate(-6.741 0)" fill="#261d2a"/>
          <path id="Trazado_881527" data-name="Trazado 881527" d="M198.916,136.759c-.222,0-.446-.008-.675-.025a.474.474,0,0,1,.069-.945,7.636,7.636,0,0,0,1.78-.068.474.474,0,0,1,.15.936,8.46,8.46,0,0,1-1.324.1m-2.5-.34a.491.491,0,0,1-.122-.015,12.228,12.228,0,0,1-1.856-.66.474.474,0,0,1,.388-.864,11.1,11.1,0,0,0,1.71.608.473.473,0,0,1-.12.931m5.554-.327a.474.474,0,0,1-.217-.9,3.688,3.688,0,0,0,1.29-1.053.474.474,0,0,1,.757.569,4.643,4.643,0,0,1-1.615,1.328.475.475,0,0,1-.215.051m-9-1.206a.464.464,0,0,1-.255-.075,14.282,14.282,0,0,1-1.573-1.165.473.473,0,1,1,.613-.721,13.5,13.5,0,0,0,1.47,1.089.474.474,0,0,1-.256.873m-2.882-2.443a.476.476,0,0,1-.351-.153,16.912,16.912,0,0,1-1.227-1.513.473.473,0,0,1,.768-.553,15.858,15.858,0,0,0,1.159,1.426.474.474,0,0,1-.35.794m-2.216-3.064a.471.471,0,0,1-.411-.237c-.314-.547-.609-1.128-.88-1.73a.474.474,0,0,1,.864-.388c.259.573.54,1.127.837,1.646a.473.473,0,0,1-.41.71m-1.56-3.445a.472.472,0,0,1-.446-.317c-.2-.561-.378-1.145-.537-1.737l-.03-.114a.474.474,0,1,1,.918-.235l.027.1c.153.569.327,1.13.515,1.67a.473.473,0,0,1-.29.6.459.459,0,0,1-.157.027m-.9-3.672a.475.475,0,0,1-.471-.423,11.69,11.69,0,0,1-.067-1.236c0-.25.009-.5.026-.738a.474.474,0,0,1,.945.065c-.016.221-.023.445-.024.674a10.534,10.534,0,0,0,.063,1.134.474.474,0,0,1-.421.522l-.051,0m.269-3.755a.46.46,0,0,1-.123-.017.472.472,0,0,1-.334-.58,10,10,0,0,1,.7-1.855.474.474,0,1,1,.849.422,9.114,9.114,0,0,0-.637,1.68.475.475,0,0,1-.458.351m18.618-2.042c-.094,0-.189,0-.285-.006a.475.475,0,0,1-.454-.494.5.5,0,0,1,.493-.454,4.538,4.538,0,0,0,1.693-.209.473.473,0,1,1,.314.893,5.322,5.322,0,0,1-1.76.269m-2.134-.3a.489.489,0,0,1-.121-.015,11.13,11.13,0,0,1-1.859-.675.474.474,0,0,1,.4-.859,10.1,10.1,0,0,0,1.7.619.473.473,0,0,1-.119.931m-14.816-1.033a.473.473,0,0,1-.377-.759,11.791,11.791,0,0,1,1.319-1.465.473.473,0,1,1,.65.688,11.143,11.143,0,0,0-1.215,1.348.471.471,0,0,1-.377.188M207.255,115a.448.448,0,0,1-.155-.027.473.473,0,0,1-.292-.6,1.4,1.4,0,0,0,.075-.469,2.7,2.7,0,0,0-.242-1.033.473.473,0,1,1,.871-.37,3.594,3.594,0,0,1,.318,1.4,2.368,2.368,0,0,1-.127.782.475.475,0,0,1-.448.317m-8.521-.428a.479.479,0,0,1-.269-.083,11.29,11.29,0,0,1-1.519-1.264.474.474,0,0,1,.668-.672,10.328,10.328,0,0,0,1.39,1.156.473.473,0,0,1-.27.863m-8.657-2.042a.474.474,0,0,1-.273-.861,15.535,15.535,0,0,1,1.668-1.019.474.474,0,0,1,.443.838,14.378,14.378,0,0,0-1.567.956.47.47,0,0,1-.272.086m5.992-.62a.472.472,0,0,1-.39-.206,10.415,10.415,0,0,1-.819-1.425c-.429.132-.854.279-1.269.441a.474.474,0,0,1-.346-.883,18.556,18.556,0,0,1,1.846-.611.473.473,0,0,1,.582.332.482.482,0,0,1,0,.235,9.421,9.421,0,0,0,.782,1.375.474.474,0,0,1-.39.742m9.968-.324a.471.471,0,0,1-.335-.139,5.3,5.3,0,0,0-1.416-1,.474.474,0,0,1,.421-.85,6.258,6.258,0,0,1,1.667,1.178.473.473,0,0,1-.336.807m-3.322-1.719a.516.516,0,0,1-.113-.013,11.486,11.486,0,0,0-1.8-.28.473.473,0,1,1,.075-.944,12.492,12.492,0,0,1,1.945.3.474.474,0,0,1-.112.935m-5.649-.111a.474.474,0,0,1-.076-.942,17.459,17.459,0,0,1,1.936-.207.473.473,0,1,1,.048.945,16.515,16.515,0,0,0-1.832.2.42.42,0,0,1-.077.007m-2.5-1.3a.472.472,0,0,1-.46-.368q-.092-.405-.156-.828a8.728,8.728,0,0,1-.1-1.144.474.474,0,0,1,.465-.482h.009a.474.474,0,0,1,.474.465,7.843,7.843,0,0,0,.085,1.021c.039.26.086.511.142.757a.473.473,0,0,1-.356.567.505.505,0,0,1-.106.011m-.065-3.756a.466.466,0,0,1-.095-.009.475.475,0,0,1-.37-.558,10.633,10.633,0,0,1,.578-1.894.474.474,0,1,1,.877.359,9.5,9.5,0,0,0-.526,1.721.475.475,0,0,1-.464.381m1.409-3.495a.466.466,0,0,1-.245-.069.474.474,0,0,1-.159-.651,14.877,14.877,0,0,1,1.128-1.6.473.473,0,1,1,.737.594,13.753,13.753,0,0,0-1.055,1.5.474.474,0,0,1-.405.227m2.364-2.953a.474.474,0,0,1-.333-.811c.45-.445.937-.882,1.447-1.3a.474.474,0,0,1,.6.735c-.486.4-.949.81-1.377,1.234a.472.472,0,0,1-.333.137m13.154-.575a3.535,3.535,0,0,1-.863-.117.474.474,0,1,1,.231-.919,1.377,1.377,0,0,0,1.323-.145.474.474,0,0,1,.692.648,1.834,1.834,0,0,1-1.383.532m-2.473-.871a.472.472,0,0,1-.247-.071,11.324,11.324,0,0,1-1.579-1.186.474.474,0,1,1,.629-.709,10.431,10.431,0,0,0,1.447,1.089.474.474,0,0,1-.249.877m-7.744-.945a.475.475,0,0,1-.264-.869c.538-.359,1.1-.7,1.661-1a.474.474,0,0,1,.451.833c-.538.291-1.071.613-1.585.958a.478.478,0,0,1-.262.08M212.7,95.5a.475.475,0,0,1-.46-.362c-.023-.1-.05-.2-.082-.3a2.334,2.334,0,0,0-.683-1.08.474.474,0,1,1,.625-.712,3.275,3.275,0,0,1,.963,1.511c.038.123.071.242.1.355a.472.472,0,0,1-.349.571.452.452,0,0,1-.112.014m-6.577-1.175a.474.474,0,0,1-.36-.166q-.168-.2-.332-.4c-.233.085-.468.176-.7.275a.473.473,0,1,1-.365-.873c.158-.066.317-.131.475-.19q-.128-.18-.251-.366a.474.474,0,1,1,.787-.527c.128.192.261.381.4.566.147-.046.291-.09.435-.131a.474.474,0,0,1,.258.912l-.064.018.085.1a.475.475,0,0,1-.052.669.47.47,0,0,1-.308.114m3.956-1.213a.517.517,0,0,1-.084-.008,6.318,6.318,0,0,0-1.754-.034.474.474,0,1,1-.1-.942,7.247,7.247,0,0,1,2.022.044.474.474,0,0,1-.083.94m-6.064-1.928a.475.475,0,0,1-.421-.254,19.154,19.154,0,0,1-.808-1.767.474.474,0,0,1,.881-.35,18.21,18.21,0,0,0,.767,1.678.473.473,0,0,1-.42.693m-1.4-3.514a.473.473,0,0,1-.455-.342q-.129-.448-.241-.913c-.081-.334-.148-.662-.2-.981a.474.474,0,0,1,.387-.548.468.468,0,0,1,.548.385q.077.449.19.923c.071.3.148.586.23.872a.475.475,0,0,1-.324.586.49.49,0,0,1-.132.018m-.619-3.727a.474.474,0,0,1-.474-.465l0-.218a10.079,10.079,0,0,1,.151-1.758.473.473,0,1,1,.932.167,9.1,9.1,0,0,0-.135,1.592l0,.2a.475.475,0,0,1-.464.483Zm.687-3.691a.487.487,0,0,1-.19-.04.474.474,0,0,1-.243-.624,7.964,7.964,0,0,1,1.034-1.719.474.474,0,1,1,.745.586,7.007,7.007,0,0,0-.911,1.514.474.474,0,0,1-.434.283m2.308-2.956a.474.474,0,0,1-.3-.844,10.644,10.644,0,0,1,1.662-1.081.474.474,0,1,1,.442.838,9.5,9.5,0,0,0-1.512.983.474.474,0,0,1-.3.1m3.33-1.777a.474.474,0,0,1-.153-.923,11.31,11.31,0,0,1,1.934-.485.474.474,0,0,1,.125.94,10.33,10.33,0,0,0-1.754.443.508.508,0,0,1-.153.025" transform="translate(-9.729 -3.9)" fill="#261d2a"/>
          <path id="Trazado_881528" data-name="Trazado 881528" d="M92.848,14.456c18.85,17.907.054,37.684,0,39.346s2.192,12.477.587,12.672S80.4,61.963,80.4,61.963,51.026,72.424,35.117,51.494,52.289-24.075,92.848,14.456" transform="translate(-1.634 -0.055)" fill="#76ada1"/>
          <path id="Trazado_881529" data-name="Trazado 881529" d="M44.316,25.218s36.6-11.357,37.9-9.157,7.147,29.054,7.147,29.054S52.375,55.871,51.814,54.129s-7.5-28.911-7.5-28.911" transform="translate(-2.332 -0.83)" fill="#eeebd5"/>
          <path id="Trazado_881530" data-name="Trazado 881530" d="M52.71,41.733s-3.136-9.982-3.136-11.306c0-3.061,27.936-10.566,29.669-9.722S82.618,34.24,82.618,34.24L70.7,43.278Z" transform="translate(-2.609 -1.086)" fill="#403955"/>
          <path id="Trazado_881531" data-name="Trazado 881531" d="M52.884,42.132S58.6,31.4,59.981,31.647s9.583,8.464,10.395,7.977,3.249-11.721,4.548-11.4,7.781,5.879,7.869,6.411,1.957,7.639,1.876,7.964S55.6,51.028,55.6,51.028s-2.813-8.182-2.711-8.9" transform="translate(-2.783 -1.485)" fill="#d37e3a"/>
          <path id="Trazado_881532" data-name="Trazado 881532" d="M73.458,28.854a2.684,2.684,0,1,1-2.684-2.683,2.684,2.684,0,0,1,2.684,2.683" transform="translate(-3.583 -1.377)" fill="#e8c01b"/>
          <path id="Trazado_881533" data-name="Trazado 881533" d="M94.39,23.354a.475.475,0,0,1-.451-.328C88.045,4.836,70.445,6.957,69.7,7.056a.474.474,0,0,1-.125-.939c.19-.029,19.128-2.334,25.271,16.617a.474.474,0,0,1-.305.6.488.488,0,0,1-.146.023" transform="translate(-3.64 -0.317)" fill="#fcfdff"/>
          <path id="Trazado_881534" data-name="Trazado 881534" d="M98.929,38.937a.473.473,0,0,1-.431-.669c1.489-3.3-1.809-7.949-1.842-8a.474.474,0,0,1,.769-.552c.15.207,3.65,5.137,1.935,8.938a.472.472,0,0,1-.432.279" transform="translate(-5.082 -1.554)" fill="#fcfdff"/>
          <path id="Trazado_881535" data-name="Trazado 881535" d="M95.6,91.149a.641.641,0,0,1-.357-.112,17.632,17.632,0,0,1-2.288-3.681c-2.5.279-4.581.373-4.872-.033a.553.553,0,0,1,.057-.7c.475-.525,1.589-1.747,2.934-3.146-.974-2.209-1.657-4.2-1.4-4.83a.641.641,0,0,1,.733-.4A25.04,25.04,0,0,1,94.485,80.1c1.771-1.645,3.4-2.943,4.169-2.96a.815.815,0,0,1,.575.22.478.478,0,0,1,.129.409c-.221,1.336-.5,2.932-.808,4.548,4.147,2.367,4.195,2.791,4.223,3.029a.586.586,0,0,1-.318.549c-.046.021-2.213.423-4.854.832-.576,2.336-1.187,4.133-1.739,4.371a.661.661,0,0,1-.259.055m-1.675-3.907a21.4,21.4,0,0,0,1.658,2.815,16.269,16.269,0,0,0,1-3.179c-.877.13-1.781.256-2.657.365M91.5,84.406c-.723.754-1.45,1.53-2.157,2.3.69,0,1.833-.1,3.159-.242-.34-.67-.68-1.369-1-2.061m.7-.723c.4.891.845,1.811,1.278,2.673,1.083-.128,2.236-.279,3.337-.435.221-.952.445-2.011.668-3.124-.925-.522-1.9-1.057-2.829-1.55-.772.738-1.6,1.564-2.454,2.437m6.16-.386c-.17.845-.348,1.682-.53,2.476,1.491-.221,2.8-.436,3.574-.59-.617-.445-1.739-1.132-3.044-1.886m-7.8-4.032a16.958,16.958,0,0,0,1.227,3.481c.639-.654,1.311-1.325,1.98-1.967a32.357,32.357,0,0,0-3.207-1.514m4.82,1.3c.609.324,1.184.637,1.665.9l.631.351c.228-1.184.45-2.411.655-3.624a17.149,17.149,0,0,0-2.951,2.37m3.3-2.48h0Z" transform="translate(-4.63 -4.059)" fill="#261d2a"/>
          <path id="Trazado_881536" data-name="Trazado 881536" d="M228.937,186.462a.472.472,0,0,1-.316-.121c-2.587-2.32-18.6-1.523-24.552-1.02a.481.481,0,0,1-.512-.432.473.473,0,0,1,.432-.512c2.232-.189,21.9-1.755,25.265,1.259a.474.474,0,0,1-.316.826" transform="translate(-10.712 -9.673)" fill="#261d2a"/>
          <path id="Trazado_881537" data-name="Trazado 881537" d="M28.547,117.077c-.334,0-.667-.012-1-.041a.472.472,0,0,1-.431-.512.479.479,0,0,1,.511-.432,12.052,12.052,0,0,0,1.822,0,.467.467,0,0,1,.5.441.472.472,0,0,1-.441.5q-.485.034-.968.034m2.816-.277a.473.473,0,0,1-.086-.939c.577-.107,1.185-.249,1.806-.421a.473.473,0,1,1,.254.912c-.648.179-1.283.327-1.887.44a.548.548,0,0,1-.086.008m-5.633-.1a.484.484,0,0,1-.135-.02,7.657,7.657,0,0,1-1.839-.819.473.473,0,0,1,.5-.8,6.791,6.791,0,0,0,1.611.716.473.473,0,0,1-.136.927m9.284-.9a.474.474,0,0,1-.157-.92c.644-.23,1.231-.467,1.736-.684a.473.473,0,0,1,.376.869c-.521.225-1.128.47-1.8.708a.465.465,0,0,1-.159.027m-12.455-1.077a.476.476,0,0,1-.353-.157A8.2,8.2,0,0,1,21.07,112.9a.474.474,0,1,1,.84-.439,7.089,7.089,0,0,0,1,1.461.474.474,0,0,1-.353.79m-1.772-3.311a.474.474,0,0,1-.454-.337,11.552,11.552,0,0,1-.4-1.933.474.474,0,0,1,.414-.527.463.463,0,0,1,.527.413,10.6,10.6,0,0,0,.37,1.773.477.477,0,0,1-.319.591.517.517,0,0,1-.135.019m-.447-3.745h-.027a.472.472,0,0,1-.447-.5,11.983,11.983,0,0,1,.266-1.948.473.473,0,1,1,.925.2,11.083,11.083,0,0,0-.245,1.8.474.474,0,0,1-.472.448m.8-3.686a.473.473,0,0,1-.443-.641,15.165,15.165,0,0,1,.816-1.777.473.473,0,1,1,.834.449,13.923,13.923,0,0,0-.764,1.665.474.474,0,0,1-.442.305m1.788-3.33a.466.466,0,0,1-.271-.087.473.473,0,0,1-.116-.659,17.4,17.4,0,0,1,1.211-1.525.473.473,0,1,1,.708.629,16.222,16.222,0,0,0-1.143,1.442.478.478,0,0,1-.389.2m9.229-1.167a.474.474,0,0,1,0-.947,13.6,13.6,0,0,0,1.826-.128.474.474,0,1,1,.134.939,14.54,14.54,0,0,1-1.953.136Zm-1.892-.086-.045,0c-.632-.059-1.277-.151-1.918-.271a.473.473,0,1,1,.174-.93c.613.115,1.231.2,1.832.258a.474.474,0,0,1-.043.945m5.617-.5a.474.474,0,0,1-.172-.915,2.3,2.3,0,0,0,1.236-.9.474.474,0,1,1,.837.446,3.144,3.144,0,0,1-1.729,1.334.467.467,0,0,1-.171.032m-9.339-.2a.465.465,0,0,1-.129-.018c-.622-.173-1.241-.378-1.84-.607a.474.474,0,1,1,.339-.885l.066.026a.478.478,0,0,1,.137-.222,18.006,18.006,0,0,1,1.51-1.23.473.473,0,1,1,.556.766c-.434.315-.857.656-1.261,1.015.247.08.5.154.747.225a.473.473,0,0,1-.127.929m-3.531-1.359a.462.462,0,0,1-.213-.051,16.807,16.807,0,0,1-1.688-.974.473.473,0,0,1,.52-.791,16.156,16.156,0,0,0,1.593.919.474.474,0,0,1-.212.9M37.1,96a.476.476,0,0,1-.391-.2,3.927,3.927,0,0,0-.419-.5,3.51,3.51,0,0,0-.806-.622.474.474,0,1,1,.462-.827,4.53,4.53,0,0,1,1.025.79,4.982,4.982,0,0,1,.519.623.475.475,0,0,1-.122.658A.463.463,0,0,1,37.1,96M28.5,95.6a.475.475,0,0,1-.232-.889,13.836,13.836,0,0,1,1.776-.833.473.473,0,1,1,.337.885,12.944,12.944,0,0,0-1.653.777.478.478,0,0,1-.228.06m-8.644-.346a.476.476,0,0,1-.31-.115,13.484,13.484,0,0,1-1.277-1.259l-.114-.132a.474.474,0,1,1,.724-.611l.08.093a12.324,12.324,0,0,0,1.206,1.191.474.474,0,0,1,.049.669.467.467,0,0,1-.358.164m12.179-.975a.474.474,0,0,1-.082-.94,7.53,7.53,0,0,1,2.015-.095.474.474,0,0,1,.424.518.48.48,0,0,1-.518.425,6.356,6.356,0,0,0-1.757.083.4.4,0,0,1-.081.008M17.462,92.345a.475.475,0,0,1-.423-.257,8.88,8.88,0,0,1-.709-1.866.474.474,0,1,1,.918-.235,7.767,7.767,0,0,0,.634,1.666.474.474,0,0,1-.421.692m-.946-3.638a.474.474,0,0,1-.473-.452c-.008-.163-.011-.326-.011-.49a11.711,11.711,0,0,1,.1-1.483.474.474,0,1,1,.94.12,10.676,10.676,0,0,0-.088,1.361c0,.15,0,.3.01.448a.472.472,0,0,1-.452.494h-.022m.459-3.746a.457.457,0,0,1-.127-.018.472.472,0,0,1-.33-.583,16.1,16.1,0,0,1,.639-1.846.474.474,0,0,1,.875.363,14.936,14.936,0,0,0-.6,1.737.474.474,0,0,1-.456.347m1.442-3.5a.465.465,0,0,1-.228-.06A.474.474,0,0,1,18,80.76a18.475,18.475,0,0,1,1.029-1.65.473.473,0,1,1,.776.543,17.563,17.563,0,0,0-.975,1.565.474.474,0,0,1-.415.245m6.212-1.584-.332,0a.474.474,0,0,1,.01-.947h.012l.309,0a8.824,8.824,0,0,0,1.487-.12.467.467,0,0,1,.547.386.472.472,0,0,1-.386.547,9.646,9.646,0,0,1-1.648.135m-2.2-.212a.443.443,0,0,1-.086-.009,14.567,14.567,0,0,1-1.9-.488.473.473,0,0,1-.081-.864.46.46,0,0,1-.089-.063.473.473,0,0,1-.042-.668,15.247,15.247,0,0,1,1.38-1.385.474.474,0,1,1,.624.712,14.309,14.309,0,0,0-1.294,1.3.473.473,0,0,1-.117.1,13.622,13.622,0,0,0,1.685.429.473.473,0,0,1-.085.939m5.564-.5a.474.474,0,0,1-.225-.891,1.845,1.845,0,0,0,1-1.058.474.474,0,0,1,.921.224,2.714,2.714,0,0,1-1.47,1.669.475.475,0,0,1-.224.057m-9.157-.675a.479.479,0,0,1-.2-.045,17.955,17.955,0,0,1-1.713-.923.473.473,0,0,1,.494-.808,17,17,0,0,0,1.622.873.474.474,0,0,1-.2.9M15.6,76.528a.471.471,0,0,1-.282-.095l-.3-.23a13.075,13.075,0,0,1-1.186-1.051.473.473,0,1,1,.671-.668,12.152,12.152,0,0,0,1.1.974l.28.216a.474.474,0,0,1-.285.854M28.619,76.1a.47.47,0,0,1-.345-.149,4.213,4.213,0,0,0-.641-.543,2.278,2.278,0,0,0-.713-.335.473.473,0,0,1,.246-.914,3.186,3.186,0,0,1,1.013.475,5.129,5.129,0,0,1,.783.667.473.473,0,0,1-.019.67.466.466,0,0,1-.324.13m-5.173-.2a.474.474,0,0,1-.246-.879,7.219,7.219,0,0,1,1.85-.818.473.473,0,0,1,.244.914,6.28,6.28,0,0,0-1.6.713.47.47,0,0,1-.245.069M12.975,73.827a.474.474,0,0,1-.4-.217,6.859,6.859,0,0,1-.843-1.844.473.473,0,1,1,.911-.257,5.993,5.993,0,0,0,.729,1.588.473.473,0,0,1-.4.729m-.987-3.589h-.029a.476.476,0,0,1-.444-.5,7.083,7.083,0,0,1,.431-1.978.474.474,0,0,1,.89.328,6,6,0,0,0-.375,1.709.472.472,0,0,1-.472.444M13.241,66.7a.473.473,0,0,1-.4-.727,12.884,12.884,0,0,1,1.184-1.572.473.473,0,1,1,.712.623,12.027,12.027,0,0,0-1.1,1.455.471.471,0,0,1-.4.22m2.474-2.862a.473.473,0,0,1-.317-.825,14.761,14.761,0,0,1,1.535-1.232.473.473,0,0,1,.53.784,14.534,14.534,0,0,0-1.431,1.15.469.469,0,0,1-.316.122" transform="translate(-0.606 -3.247)" fill="#261d2a"/>
        </g>
      </g>
    </g>
    <g id="Grupo_1103603-2" data-name="Grupo 1103603" transform="translate(-43 -117.958)">
      <rect id="Rectángulo_404156-2" data-name="Rectángulo 404156" width="248" height="91.916" transform="translate(247 1615)" fill="#5b2ccf"/>
    </g>
  </g>
</svg>
