<svg xmlns="http://www.w3.org/2000/svg" width="190" height="63" viewBox="0 0 190 63">
  <g id="Grupo_1102663" data-name="Grupo 1102663" transform="translate(-1230.051 -3260)">
    <rect id="Rectángulo_403706" data-name="Rectángulo 403706" width="190" height="45" transform="translate(1230.051 3260)" fill="#fbd8d1"/>
    <g id="Grupo_1102664" data-name="Grupo 1102664" transform="translate(1239.115 3267.652)">
      <path id="Trazado_874195" data-name="Trazado 874195" d="M59.931,40.846a1.145,1.145,0,1,1,1.146,1.146,1.145,1.145,0,0,1-1.146-1.146" transform="translate(11.855 8.411)" fill="#14d6f0"/>
      <path id="Trazado_874196" data-name="Trazado 874196" d="M46.622,40.846a1.145,1.145,0,1,1,1.146,1.146,1.145,1.145,0,0,1-1.146-1.146" transform="translate(7.218 8.411)" fill="#14d6f0"/>
      <path id="Trazado_874197" data-name="Trazado 874197" d="M33.313,40.846a1.145,1.145,0,1,1,1.145,1.146,1.145,1.145,0,0,1-1.145-1.146" transform="translate(2.581 8.411)" fill="#14d6f0"/>
      <path id="Trazado_874198" data-name="Trazado 874198" d="M20,40.846a1.145,1.145,0,1,1,1.146,1.146A1.145,1.145,0,0,1,20,40.846" transform="translate(-2.057 8.411)" fill="#14d6f0"/>
      <path id="Trazado_874199" data-name="Trazado 874199" d="M6.694,40.846A1.145,1.145,0,1,1,7.84,41.992a1.145,1.145,0,0,1-1.146-1.146" transform="translate(-6.694 8.411)" fill="#14d6f0"/>
      <path id="Trazado_874200" data-name="Trazado 874200" d="M59.931,28.952A1.145,1.145,0,1,1,61.077,30.1a1.146,1.146,0,0,1-1.146-1.146" transform="translate(11.855 4.266)" fill="#14d6f0"/>
      <path id="Trazado_874201" data-name="Trazado 874201" d="M46.622,28.952A1.145,1.145,0,1,1,47.768,30.1a1.146,1.146,0,0,1-1.146-1.146" transform="translate(7.218 4.266)" fill="#14d6f0"/>
      <path id="Trazado_874202" data-name="Trazado 874202" d="M33.313,28.952A1.145,1.145,0,1,1,34.458,30.1a1.146,1.146,0,0,1-1.145-1.146" transform="translate(2.581 4.266)" fill="#14d6f0"/>
      <path id="Trazado_874203" data-name="Trazado 874203" d="M20,28.952A1.145,1.145,0,1,1,21.149,30.1,1.146,1.146,0,0,1,20,28.952" transform="translate(-2.057 4.266)" fill="#14d6f0"/>
      <path id="Trazado_874204" data-name="Trazado 874204" d="M6.694,28.952A1.145,1.145,0,1,1,7.84,30.1a1.146,1.146,0,0,1-1.146-1.146" transform="translate(-6.694 4.266)" fill="#14d6f0"/>
      <path id="Trazado_874205" data-name="Trazado 874205" d="M59.931,17.059a1.145,1.145,0,1,1,1.146,1.146,1.146,1.146,0,0,1-1.146-1.146" transform="translate(11.855 0.123)" fill="#14d6f0"/>
      <path id="Trazado_874206" data-name="Trazado 874206" d="M46.622,17.059a1.145,1.145,0,1,1,1.146,1.146,1.146,1.146,0,0,1-1.146-1.146" transform="translate(7.218 0.123)" fill="#14d6f0"/>
      <path id="Trazado_874207" data-name="Trazado 874207" d="M33.313,17.059a1.145,1.145,0,1,1,1.145,1.146,1.146,1.146,0,0,1-1.145-1.146" transform="translate(2.581 0.123)" fill="#14d6f0"/>
      <path id="Trazado_874208" data-name="Trazado 874208" d="M20,17.059a1.145,1.145,0,1,1,1.146,1.146A1.146,1.146,0,0,1,20,17.059" transform="translate(-2.057 0.123)" fill="#14d6f0"/>
      <path id="Trazado_874209" data-name="Trazado 874209" d="M6.694,17.059A1.145,1.145,0,1,1,7.84,18.205a1.146,1.146,0,0,1-1.146-1.146" transform="translate(-6.694 0.123)" fill="#14d6f0"/>
      <path id="Trazado_874210" data-name="Trazado 874210" d="M59.931,5.166a1.145,1.145,0,1,1,1.146,1.146,1.145,1.145,0,0,1-1.146-1.146" transform="translate(11.855 -4.021)" fill="#14d6f0"/>
      <path id="Trazado_874211" data-name="Trazado 874211" d="M46.622,5.166a1.145,1.145,0,1,1,1.146,1.146,1.145,1.145,0,0,1-1.146-1.146" transform="translate(7.218 -4.021)" fill="#14d6f0"/>
      <path id="Trazado_874212" data-name="Trazado 874212" d="M33.313,5.166a1.145,1.145,0,1,1,1.145,1.146,1.145,1.145,0,0,1-1.145-1.146" transform="translate(2.581 -4.021)" fill="#14d6f0"/>
      <path id="Trazado_874213" data-name="Trazado 874213" d="M20,5.166a1.145,1.145,0,1,1,1.146,1.146A1.145,1.145,0,0,1,20,5.166" transform="translate(-2.057 -4.021)" fill="#14d6f0"/>
      <path id="Trazado_874214" data-name="Trazado 874214" d="M6.694,5.166A1.145,1.145,0,1,1,7.84,6.312,1.145,1.145,0,0,1,6.694,5.166" transform="translate(-6.694 -4.021)" fill="#14d6f0"/>
    </g>
    <g id="Grupo_1102666" data-name="Grupo 1102666" transform="translate(1335 3267.652)">
      <path id="Trazado_874195-2" data-name="Trazado 874195" d="M59.931,40.846a1.145,1.145,0,1,1,1.146,1.146,1.145,1.145,0,0,1-1.146-1.146" transform="translate(11.855 8.411)" fill="#14d6f0"/>
      <path id="Trazado_874196-2" data-name="Trazado 874196" d="M46.622,40.846a1.145,1.145,0,1,1,1.146,1.146,1.145,1.145,0,0,1-1.146-1.146" transform="translate(7.218 8.411)" fill="#14d6f0"/>
      <path id="Trazado_874197-2" data-name="Trazado 874197" d="M33.313,40.846a1.145,1.145,0,1,1,1.145,1.146,1.145,1.145,0,0,1-1.145-1.146" transform="translate(2.581 8.411)" fill="#14d6f0"/>
      <path id="Trazado_874198-2" data-name="Trazado 874198" d="M20,40.846a1.145,1.145,0,1,1,1.146,1.146A1.145,1.145,0,0,1,20,40.846" transform="translate(-2.057 8.411)" fill="#14d6f0"/>
      <path id="Trazado_874199-2" data-name="Trazado 874199" d="M6.694,40.846A1.145,1.145,0,1,1,7.84,41.992a1.145,1.145,0,0,1-1.146-1.146" transform="translate(-6.694 8.411)" fill="#14d6f0"/>
      <path id="Trazado_874200-2" data-name="Trazado 874200" d="M59.931,28.952A1.145,1.145,0,1,1,61.077,30.1a1.146,1.146,0,0,1-1.146-1.146" transform="translate(11.855 4.266)" fill="#14d6f0"/>
      <path id="Trazado_874201-2" data-name="Trazado 874201" d="M46.622,28.952A1.145,1.145,0,1,1,47.768,30.1a1.146,1.146,0,0,1-1.146-1.146" transform="translate(7.218 4.266)" fill="#14d6f0"/>
      <path id="Trazado_874202-2" data-name="Trazado 874202" d="M33.313,28.952A1.145,1.145,0,1,1,34.458,30.1a1.146,1.146,0,0,1-1.145-1.146" transform="translate(2.581 4.266)" fill="#14d6f0"/>
      <path id="Trazado_874203-2" data-name="Trazado 874203" d="M20,28.952A1.145,1.145,0,1,1,21.149,30.1,1.146,1.146,0,0,1,20,28.952" transform="translate(-2.057 4.266)" fill="#14d6f0"/>
      <path id="Trazado_874204-2" data-name="Trazado 874204" d="M6.694,28.952A1.145,1.145,0,1,1,7.84,30.1a1.146,1.146,0,0,1-1.146-1.146" transform="translate(-6.694 4.266)" fill="#14d6f0"/>
      <path id="Trazado_874205-2" data-name="Trazado 874205" d="M59.931,17.059a1.145,1.145,0,1,1,1.146,1.146,1.146,1.146,0,0,1-1.146-1.146" transform="translate(11.855 0.123)" fill="#14d6f0"/>
      <path id="Trazado_874206-2" data-name="Trazado 874206" d="M46.622,17.059a1.145,1.145,0,1,1,1.146,1.146,1.146,1.146,0,0,1-1.146-1.146" transform="translate(7.218 0.123)" fill="#14d6f0"/>
      <path id="Trazado_874207-2" data-name="Trazado 874207" d="M33.313,17.059a1.145,1.145,0,1,1,1.145,1.146,1.146,1.146,0,0,1-1.145-1.146" transform="translate(2.581 0.123)" fill="#14d6f0"/>
      <path id="Trazado_874208-2" data-name="Trazado 874208" d="M20,17.059a1.145,1.145,0,1,1,1.146,1.146A1.146,1.146,0,0,1,20,17.059" transform="translate(-2.057 0.123)" fill="#14d6f0"/>
      <path id="Trazado_874209-2" data-name="Trazado 874209" d="M6.694,17.059A1.145,1.145,0,1,1,7.84,18.205a1.146,1.146,0,0,1-1.146-1.146" transform="translate(-6.694 0.123)" fill="#14d6f0"/>
      <path id="Trazado_874210-2" data-name="Trazado 874210" d="M59.931,5.166a1.145,1.145,0,1,1,1.146,1.146,1.145,1.145,0,0,1-1.146-1.146" transform="translate(11.855 -4.021)" fill="#14d6f0"/>
      <path id="Trazado_874211-2" data-name="Trazado 874211" d="M46.622,5.166a1.145,1.145,0,1,1,1.146,1.146,1.145,1.145,0,0,1-1.146-1.146" transform="translate(7.218 -4.021)" fill="#14d6f0"/>
      <path id="Trazado_874212-2" data-name="Trazado 874212" d="M33.313,5.166a1.145,1.145,0,1,1,1.145,1.146,1.145,1.145,0,0,1-1.145-1.146" transform="translate(2.581 -4.021)" fill="#14d6f0"/>
      <path id="Trazado_874213-2" data-name="Trazado 874213" d="M20,5.166a1.145,1.145,0,1,1,1.146,1.146A1.145,1.145,0,0,1,20,5.166" transform="translate(-2.057 -4.021)" fill="#14d6f0"/>
      <path id="Trazado_874214-2" data-name="Trazado 874214" d="M6.694,5.166A1.145,1.145,0,1,1,7.84,6.312,1.145,1.145,0,0,1,6.694,5.166" transform="translate(-6.694 -4.021)" fill="#14d6f0"/>
    </g>
    <g id="Grupo_1102665" data-name="Grupo 1102665" transform="translate(1286.359 3260)">
      <g id="Grupo_1102647" data-name="Grupo 1102647" transform="translate(29.578 0.923)">
        <g id="Grupo_1102643" data-name="Grupo 1102643">
          <path id="Trazado_879880" data-name="Trazado 879880" d="M220.193,20.889H207.6a.378.378,0,0,1-.378-.378V7.917L207.1,7.5H182.562a.63.63,0,0,0-.63.63V21.118h4.712l13.515,13.515v20.4h19.824a.63.63,0,0,0,.63-.63V21.015Z" transform="translate(-181.932 -7.5)" fill="#fff3de"/>
          <g id="Grupo_1102640" data-name="Grupo 1102640" transform="translate(0 0)">
            <path id="Trazado_879881" data-name="Trazado 879881" d="M186.644,21.118l1.079,1.079V8.13a.63.63,0,0,1,.63-.63h-5.792a.63.63,0,0,0-.63.63V21.118Z" transform="translate(-181.932 -7.5)" fill="#ffe5c2"/>
          </g>
          <g id="Grupo_1102641" data-name="Grupo 1102641" transform="translate(25.166 0)">
            <path id="Trazado_879882" data-name="Trazado 879882" d="M386.46,7.5V20.637a.378.378,0,0,0,.378.378h13.137Z" transform="translate(-386.46 -7.5)" fill="#fe9901"/>
          </g>
          <g id="Grupo_1102642" data-name="Grupo 1102642" transform="translate(25.166)">
            <path id="Trazado_879883" data-name="Trazado 879883" d="M390.369,20.637V11.409L386.46,7.5V20.637a.378.378,0,0,0,.378.378h3.909A.378.378,0,0,1,390.369,20.637Z" transform="translate(-386.46 -7.5)" fill="#fb8801"/>
          </g>
        </g>
        <g id="Grupo_1102646" data-name="Grupo 1102646" transform="translate(9.63 18.535)">
          <path id="Trazado_879884" data-name="Trazado 879884" d="M284.375,158.135H260.193l8.6,8.6V178.9h15.584a.378.378,0,0,0,.378-.378V158.513A.378.378,0,0,0,284.375,158.135Z" transform="translate(-260.193 -158.135)" fill="#fb8801"/>
          <g id="Grupo_1102644" data-name="Grupo 1102644" transform="translate(8.598 10.11)">
            <path id="Trazado_879885" data-name="Trazado 879885" d="M330.067,250.95h15.227l-7.711-10.4a.63.63,0,0,0-1.013,0l-4.331,5.841-2.173-2.93v7.487Z" transform="translate(-330.067 -240.297)" fill="#fed402"/>
          </g>
          <g id="Grupo_1102645" data-name="Grupo 1102645" transform="translate(17.31 3.356)">
            <circle id="Elipse_11639" data-name="Elipse 11639" cx="1.891" cy="1.891" r="1.891" fill="#fed402"/>
          </g>
        </g>
      </g>
      <g id="Grupo_1102660" data-name="Grupo 1102660" transform="translate(9.124 14.54)">
        <g id="Grupo_1102651" data-name="Grupo 1102651" transform="translate(0)">
          <g id="Grupo_1102648" data-name="Grupo 1102648" transform="translate(0)">
            <path id="Trazado_879886" data-name="Trazado 879886" d="M53.962,131.559H41.372a.378.378,0,0,1-.378-.378V118.587l-.126-.417H16.331a.63.63,0,0,0-.63.63v46.275a.63.63,0,0,0,.63.63H53.752a.63.63,0,0,0,.63-.63V131.685Z" transform="translate(-15.701 -118.17)" fill="#d8ecfe"/>
          </g>
          <path id="Trazado_879887" data-name="Trazado 879887" d="M22.136,165.076v-7.608H20.571a.378.378,0,0,1-.378-.378V137.083a.378.378,0,0,1,.378-.378h1.566V118.8a.63.63,0,0,1,.63-.63H16.331a.63.63,0,0,0-.63.63v46.275a.63.63,0,0,0,.63.63h6.435A.63.63,0,0,1,22.136,165.076Z" transform="translate(-15.701 -118.17)" fill="#c4e2ff"/>
          <g id="Grupo_1102649" data-name="Grupo 1102649" transform="translate(25.166 0)">
            <path id="Trazado_879888" data-name="Trazado 879888" d="M220.229,118.171v13.137a.378.378,0,0,0,.378.378h13.137Z" transform="translate(-220.229 -118.171)" fill="#0593fc"/>
          </g>
          <g id="Grupo_1102650" data-name="Grupo 1102650" transform="translate(25.166 0)">
            <path id="Trazado_879889" data-name="Trazado 879889" d="M224.138,131.308V122.08l-3.909-3.909v13.137a.378.378,0,0,0,.378.378h3.909A.378.378,0,0,1,224.138,131.308Z" transform="translate(-220.229 -118.171)" fill="#0182fc"/>
          </g>
        </g>
        <g id="Grupo_1102659" data-name="Grupo 1102659" transform="translate(4.491 18.535)">
          <g id="Grupo_1102653" data-name="Grupo 1102653" transform="translate(0)">
            <g id="Grupo_1102652" data-name="Grupo 1102652">
              <path id="Trazado_879890" data-name="Trazado 879890" d="M52.2,289.19V269.184a.378.378,0,0,1,.378-.378H81.523a.378.378,0,0,1,.378.378V289.19a.378.378,0,0,1-.378.378H52.581A.378.378,0,0,1,52.2,289.19Z" transform="translate(-52.203 -268.806)" fill="#0593fc"/>
            </g>
          </g>
          <g id="Grupo_1102654" data-name="Grupo 1102654" transform="translate(0)">
            <path id="Trazado_879891" data-name="Trazado 879891" d="M57.346,289.19V269.184a.378.378,0,0,1,.378-.378H52.581a.378.378,0,0,0-.378.378V289.19a.378.378,0,0,0,.378.378h5.143A.378.378,0,0,1,57.346,289.19Z" transform="translate(-52.203 -268.806)" fill="#0182fc"/>
          </g>
          <g id="Grupo_1102655" data-name="Grupo 1102655" transform="translate(0 7.608)">
            <path id="Trazado_879892" data-name="Trazado 879892" d="M52.581,343.795H81.166l-7.711-10.4a.63.63,0,0,0-1.013,0l-4.331,5.841L61.926,330.9a.63.63,0,0,0-1.013,0L52.2,342.641v.775A.378.378,0,0,0,52.581,343.795Z" transform="translate(-52.203 -330.641)" fill="#46cc8d"/>
          </g>
          <g id="Grupo_1102657" data-name="Grupo 1102657" transform="translate(0 7.608)">
            <g id="Grupo_1102656" data-name="Grupo 1102656">
              <path id="Trazado_879893" data-name="Trazado 879893" d="M57.346,343.416v-.775l6.645-8.961-2.065-2.785a.63.63,0,0,0-1.013,0L52.2,342.64v.775a.378.378,0,0,0,.378.378h5.143A.378.378,0,0,1,57.346,343.416Z" transform="translate(-52.203 -330.639)" fill="#08b865"/>
            </g>
          </g>
          <g id="Grupo_1102658" data-name="Grupo 1102658" transform="translate(22.449 3.356)">
            <circle id="Elipse_11640" data-name="Elipse 11640" cx="1.891" cy="1.891" r="1.891" fill="#fff"/>
          </g>
        </g>
      </g>
      <g id="Grupo_1102661" data-name="Grupo 1102661" transform="translate(8.201 0)">
        <path id="Trazado_879894" data-name="Trazado 879894" d="M396.189,183.536a2.814,2.814,0,1,0-2.814-2.814A2.817,2.817,0,0,0,396.189,183.536Zm0-3.783a.968.968,0,1,1-.968.968A.97.97,0,0,1,396.189,179.754Z" transform="translate(-345.981 -156.017)"/>
        <path id="Trazado_879895" data-name="Trazado 879895" d="M260.488,69.976v1.919l-1.583-2.423a.923.923,0,0,0-1.7.5v5.019a.923.923,0,0,0,1.846,0V73.076l1.583,2.423a.923.923,0,0,0,1.7-.5V69.976a.923.923,0,0,0-1.846,0Z" transform="translate(-226.571 -60.556)"/>
        <path id="Trazado_879896" data-name="Trazado 879896" d="M306.531,70.9h2.017a.923.923,0,0,0,0-1.846h-2.017a2.186,2.186,0,0,0-2.184,2.184v2.5a2.186,2.186,0,0,0,2.184,2.184h.757a2.186,2.186,0,0,0,2.184-2.184V72.575a.923.923,0,0,0-.923-.923h-.883a.923.923,0,0,0-.04,1.845v.237a.338.338,0,0,1-.338.338h-.757a.338.338,0,0,1-.338-.338v-2.5A.338.338,0,0,1,306.531,70.9Z" transform="translate(-267.908 -60.556)"/>
        <path id="Trazado_879897" data-name="Trazado 879897" d="M68.259,36.852a.923.923,0,0,0,.923-.923V14.438h0a.92.92,0,0,0-.268-.653L55.4.27A.922.922,0,0,0,54.746,0L30.208,0a1.555,1.555,0,0,0-1.553,1.553V13.618H9.754A1.555,1.555,0,0,0,8.2,15.171V61.446A1.555,1.555,0,0,0,9.754,63h37.42a1.555,1.555,0,0,0,1.553-1.553V59.062a.923.923,0,1,0-1.846,0v2.092H10.047V15.463H33.367V27.677a1.3,1.3,0,0,0,1.3,1.3H46.882V54.755a.923.923,0,0,0,1.846,0V49.382h18.9a1.555,1.555,0,0,0,1.553-1.553V40.236a.923.923,0,0,0-1.846,0v7.3H48.728V41.143H63.39a1.3,1.3,0,0,0,1.3-1.3V19.836a1.3,1.3,0,0,0-1.3-1.3H47.8a.923.923,0,1,0,0,1.846H62.845V38.418l-6.782-9.145a1.554,1.554,0,0,0-2.5,0l-3.59,4.841-1.252-1.688V28.053a.922.922,0,0,0-.268-.651l-7.022-7.022H43.49a.923.923,0,0,0,0-1.846h-3.9l-4.6-4.6v-.906h1.095a2.186,2.186,0,0,0,2.184-2.184v-.167A2.186,2.186,0,0,0,36.087,8.5H34.069a.923.923,0,0,0-.923.923v4.2H30.5V1.846h23.32V14.06a1.3,1.3,0,0,0,1.3,1.3H67.337V35.929a.923.923,0,0,0,.923.923Zm-19.022-.639a.923.923,0,0,0,1.482,0l4.1-5.524L61.2,39.3H48.727V35.525ZM34.992,10.342h1.095a.338.338,0,0,1,.338.338v.167a.338.338,0,0,1-.338.338H34.992Zm.221,6.426L45.577,27.133H35.213Zm20.454-3.253V3.151L66.031,13.515H55.667Z" transform="translate(-8.201 0)"/>
        <path id="Trazado_879898" data-name="Trazado 879898" d="M49.488,183.129a.923.923,0,0,0-.923.923v.352a2.186,2.186,0,0,0,2.184,2.184h.757a2.186,2.186,0,0,0,2.184-2.184v-3.758a.923.923,0,1,0-1.846,0V184.4a.338.338,0,0,1-.338.338h-.757a.338.338,0,0,1-.338-.338v-.352A.923.923,0,0,0,49.488,183.129Z" transform="translate(-43.598 -157.61)"/>
        <path id="Trazado_879899" data-name="Trazado 879899" d="M98.329,185.665v-1.407h1.095a2.186,2.186,0,0,0,2.184-2.184v-.167a2.186,2.186,0,0,0-2.184-2.184H97.406a.923.923,0,0,0-.923.923v5.018a.923.923,0,1,0,1.846,0Zm0-4.1h1.095a.338.338,0,0,1,.338.338v.167a.338.338,0,0,1-.338.338H98.329Z" transform="translate(-85.62 -157.61)"/>
        <path id="Trazado_879900" data-name="Trazado 879900" d="M145.022,181.57h2.018a.923.923,0,1,0,0-1.846h-2.018a2.186,2.186,0,0,0-2.184,2.184v2.5a2.186,2.186,0,0,0,2.184,2.184h.757a2.186,2.186,0,0,0,2.184-2.184v-1.159a.923.923,0,0,0-.923-.923h-.883a.923.923,0,0,0-.04,1.845v.237a.338.338,0,0,1-.338.338h-.757a.338.338,0,0,1-.338-.338v-2.5A.339.339,0,0,1,145.022,181.57Z" transform="translate(-126.271 -157.61)"/>
        <path id="Trazado_879901" data-name="Trazado 879901" d="M76.247,282.613V262.607a1.3,1.3,0,0,0-1.3-1.3H46a1.3,1.3,0,0,0-1.3,1.3v20.006a1.3,1.3,0,0,0,1.3,1.3H74.946A1.3,1.3,0,0,0,76.247,282.613ZM74.4,263.152v18.038l-6.782-9.146a1.553,1.553,0,0,0-2.5,0l-3.59,4.841-5.445-7.342a1.56,1.56,0,0,0-1.248-.628h0a1.56,1.56,0,0,0-1.248.628l-7.046,9.5V263.152ZM46.6,282.069l8.239-11.11,5.951,8.025a.923.923,0,0,0,1.482,0l4.1-5.524,6.384,8.609Z" transform="translate(-40.212 -229.153)"/>
        <path id="Trazado_879902" data-name="Trazado 879902" d="M229.958,294.207a2.814,2.814,0,1,0-2.814-2.814A2.817,2.817,0,0,0,229.958,294.207Zm0-3.783a.968.968,0,1,1-.968.968A.97.97,0,0,1,229.958,290.425Z" transform="translate(-200.204 -253.071)"/>
        <path id="Trazado_879903" data-name="Trazado 879903" d="M45.626,460.1a.923.923,0,1,0,0,1.846h5.393a.923.923,0,1,0,0-1.846Z" transform="translate(-40.212 -403.489)"/>
      </g>
    </g>
  </g>
</svg>
