<svg xmlns="http://www.w3.org/2000/svg" xmlns:xlink="http://www.w3.org/1999/xlink" width="295" height="306" viewBox="0 0 295 306">
  <defs>
    <clipPath id="clip-path">
      <rect id="Rect치ngulo_403964" data-name="Rect치ngulo 403964" width="277.214" height="279.002" fill="none"/>
    </clipPath>
  </defs>
  <g id="Grupo_1102893" data-name="Grupo 1102893" transform="translate(-1125 -1641)">
    <rect id="Rect치ngulo_403939" data-name="Rect치ngulo 403939" width="295" height="306" transform="translate(1125 1641)" fill="none"/>
    <g id="Grupo_1102889" data-name="Grupo 1102889" transform="translate(1134 1654)">
      <g id="Grupo_1102888" data-name="Grupo 1102888" clip-path="url(#clip-path)">
        <path id="Trazado_879947" data-name="Trazado 879947" d="M209.743,104.966l-.014-.011a4.04,4.04,0,1,1,.014.011m4.337-5.621a2.95,2.95,0,0,0-3.616,4.662l.01.009a2.958,2.958,0,0,0,4.129-.531,2.953,2.953,0,0,0-.523-4.139" transform="translate(50.66 23.739)" fill="#261d2a"/>
        <path id="Trazado_879948" data-name="Trazado 879948" d="M17.526,23.248l-.014-.011a4.038,4.038,0,1,1,.014.011m4.337-5.621a2.95,2.95,0,0,0-3.616,4.662l.01.009a2.958,2.958,0,0,0,4.129-.531,2.953,2.953,0,0,0-.523-4.139" transform="translate(3.872 3.848)" fill="#261d2a"/>
        <path id="Trazado_879949" data-name="Trazado 879949" d="M20.864,213.39l-.015-.011a4.211,4.211,0,1,1,.015.011m4.337-5.621a2.95,2.95,0,0,0-3.616,4.662l.01.009a2.959,2.959,0,0,0,4.129-.531,2.953,2.953,0,0,0-.523-4.139" transform="translate(4.684 50.131)" fill="#261d2a"/>
        <path id="Trazado_879950" data-name="Trazado 879950" d="M201.175,71.6s-1.105-8.391,6.971-5.675,5.445,10.4,2.366,7.768,2.7-11.545,8.877-7.575,4.8,11.673.415,12.243,2.653-8.97,8.175-3.08-6.535,16.631-11.466,12.682-1.072-10.322.111-6.437-2.007,7.693-10.752,7.543-4.764-13.605-1.707-9.689-2.018,8.336-8.187,3.723.868-14.151,5.2-11.5" transform="translate(47.113 15.849)" fill="#fcfdff"/>
        <path id="Trazado_879951" data-name="Trazado 879951" d="M206.479,89.809c-.163,0-.327,0-.494,0a5.522,5.522,0,0,1-5.645-4.061,9.94,9.94,0,0,1-4.611-2.028c-3.587-2.682-3.167-6.87-1.16-9.832,1.446-2.134,3.858-3.71,6.054-3.128,0-1.33.252-3.611,1.839-4.918,1.376-1.134,3.4-1.263,6-.387a11.087,11.087,0,0,1,2.9,1.432,6.462,6.462,0,0,1,8.479-1.173,9.072,9.072,0,0,1,4.446,7.146,6.215,6.215,0,0,1,4.261,2.116c2.528,2.7,1.977,6.8-1.4,10.455-3.058,3.306-7.918,5.524-10.9,3.136a7.893,7.893,0,0,1-1.011-.964c-1.941,1.439-4.962,2.208-8.759,2.208m-4.818-4.022c.509,1.374,1.685,2.729,4.347,2.775,3.75.05,6.712-.624,8.5-1.96a5.977,5.977,0,0,1-.623-5.086c.393-1.073,1.1-1.7,1.861-1.706.413.012,1.171.242,1.6,1.651a5.311,5.311,0,0,1-.8,4.859,5.7,5.7,0,0,1-.38.454,6.74,6.74,0,0,0,.862.818c2.282,1.829,6.559-.139,9.214-3.009,2.31-2.5,3.893-6.11,1.409-8.761a4.886,4.886,0,0,0-3.381-1.733,7.117,7.117,0,0,1-.133.818,5.041,5.041,0,0,1-4.128,4.185c-1.449.184-1.873-.573-1.989-.908-.426-1.217.828-3.177,2.8-4.371a6.573,6.573,0,0,1,2.242-.872,7.857,7.857,0,0,0-3.878-6.185,5.2,5.2,0,0,0-6.847.921,6.061,6.061,0,0,1,1.915,3.837,3.252,3.252,0,0,1-1.456,3.24,2.276,2.276,0,0,1-2.558-.475c-1.753-1.5-1.161-4.346.339-6.44a9.983,9.983,0,0,0-2.5-1.212c-2.172-.73-3.795-.675-4.817.168-1.763,1.45-1.343,4.8-1.339,4.837a.622.622,0,0,1-.941.612c-1.761-1.081-4.035.359-5.374,2.335-1.676,2.472-2.055,5.947.875,8.138a9.154,9.154,0,0,0,3.622,1.732c-.257-2.59.735-5.411,2.258-6.12a1.9,1.9,0,0,1,2.423.781c1.409,1.8,1.406,3.9-.007,5.345a4.774,4.774,0,0,1-3.11,1.328m14.044-4.732c-.086,0-.409.216-.657.89a4.766,4.766,0,0,0,.382,3.781c.041-.051.082-.1.121-.153a4.038,4.038,0,0,0,.6-3.749c-.191-.63-.41-.768-.446-.77ZM203.1,79.4a.484.484,0,0,0-.22.056c-.884.412-1.838,2.786-1.517,5.107a3.6,3.6,0,0,0,2.52-.979c.965-.985.933-2.406-.085-3.709-.3-.384-.535-.475-.7-.475m19.9-5.18a5.625,5.625,0,0,0-1.539.655c-1.654,1-2.418,2.464-2.268,2.9.029.081.261.137.655.086a3.832,3.832,0,0,0,3.075-3.224c.031-.133.056-.271.077-.413M211.53,68.639c-1.289,1.837-1.507,3.831-.492,4.7a1.111,1.111,0,0,0,1.19.31A2.084,2.084,0,0,0,213,71.608a4.771,4.771,0,0,0-1.475-2.969" transform="translate(46.989 15.728)" fill="#261d2a"/>
        <path id="Trazado_879952" data-name="Trazado 879952" d="M27.6,112s-1.105-8.391,6.971-5.675,5.445,10.4,2.366,7.768,2.7-11.545,8.877-7.575,4.8,11.673.414,12.243,2.655-8.97,8.177-3.08S47.87,132.307,42.94,128.358s-1.072-10.322.111-6.437-2.007,7.693-10.752,7.543-4.765-13.605-1.707-9.689S28.573,128.11,22.4,123.5s.868-14.151,5.2-11.5" transform="translate(4.863 25.682)" fill="#fcfdff"/>
        <path id="Trazado_879953" data-name="Trazado 879953" d="M32.906,130.208c-.163,0-.328,0-.494,0a5.521,5.521,0,0,1-5.645-4.061,9.95,9.95,0,0,1-4.612-2.028c-3.586-2.682-3.166-6.87-1.159-9.832,1.447-2.134,3.861-3.71,6.054-3.128,0-1.33.251-3.611,1.839-4.918,1.376-1.132,3.4-1.262,6-.385a11.107,11.107,0,0,1,2.9,1.432,6.457,6.457,0,0,1,8.478-1.173,9.069,9.069,0,0,1,4.446,7.146,6.206,6.206,0,0,1,4.261,2.115c2.529,2.7,1.978,6.8-1.4,10.455-3.058,3.306-7.919,5.524-10.9,3.136A7.892,7.892,0,0,1,41.665,128c-1.941,1.439-4.964,2.208-8.759,2.208m-4.817-4.021c.507,1.374,1.685,2.728,4.344,2.774,3.748.056,6.713-.623,8.5-1.961a5.976,5.976,0,0,1-.623-5.086c.394-1.071,1.1-1.707,1.86-1.7.414.012,1.173.242,1.6,1.651a5.307,5.307,0,0,1-.8,4.859,5.908,5.908,0,0,1-.379.454,6.74,6.74,0,0,0,.862.818c2.28,1.828,6.559-.138,9.214-3.009,2.31-2.5,3.893-6.11,1.409-8.761a4.886,4.886,0,0,0-3.382-1.733,6.855,6.855,0,0,1-.132.818,5.044,5.044,0,0,1-4.128,4.185c-1.449.188-1.871-.573-1.989-.908-.426-1.217.828-3.177,2.8-4.371a6.574,6.574,0,0,1,2.242-.872,7.858,7.858,0,0,0-3.879-6.185,5.194,5.194,0,0,0-6.846.923,6.058,6.058,0,0,1,1.915,3.837,3.25,3.25,0,0,1-1.456,3.239,2.275,2.275,0,0,1-2.558-.475c-1.753-1.5-1.161-4.344.339-6.438a9.919,9.919,0,0,0-2.5-1.212c-2.172-.729-3.792-.675-4.814.165-1.758,1.442-1.347,4.806-1.342,4.839a.622.622,0,0,1-.941.61c-1.759-1.081-4.035.358-5.373,2.334-1.677,2.473-2.057,5.95.873,8.139a9.141,9.141,0,0,0,3.623,1.732c-.257-2.59.735-5.411,2.258-6.12a1.9,1.9,0,0,1,2.423.781c1.409,1.8,1.405,3.9-.007,5.345a4.774,4.774,0,0,1-3.109,1.329m14.043-4.734c-.086,0-.409.216-.657.89a4.766,4.766,0,0,0,.382,3.781c.041-.051.081-.1.121-.153a4.042,4.042,0,0,0,.6-3.749c-.2-.642-.44-.773-.448-.77M29.527,119.8a.5.5,0,0,0-.22.056c-.884.412-1.837,2.788-1.517,5.109a3.615,3.615,0,0,0,2.52-.98c.965-.985.933-2.407-.085-3.71-.3-.383-.535-.475-.7-.475m19.9-5.18a5.633,5.633,0,0,0-1.538.655c-1.654,1-2.42,2.464-2.268,2.9.027.08.261.137.655.086a3.835,3.835,0,0,0,3.075-3.224c.03-.133.056-.27.076-.413m-11.467-5.583c-1.289,1.835-1.507,3.83-.491,4.7a1.115,1.115,0,0,0,1.189.31,2.081,2.081,0,0,0,.777-2.038,4.768,4.768,0,0,0-1.475-2.969" transform="translate(4.739 25.562)" fill="#261d2a"/>
        <path id="Trazado_879954" data-name="Trazado 879954" d="M6.806,129.22c-.459,0-.9,0-2.106-4.824-4.087-.788-4.445-1.268-4.565-1.43a.809.809,0,0,1-.113-.625c.073-.261.245-.868,4.915-2.752,1.679-4.374,2.248-4.374,2.625-4.374a.852.852,0,0,1,.584.3,12.069,12.069,0,0,1,.985,3.126c.128.526.283,1.159.374,1.437.245.109.787.3,1.236.465,2.4.86,3.02,1.154,3.132,1.727a.82.82,0,0,1-.229.675,21.734,21.734,0,0,1-4.029,1.733c-1.977,4.5-2.4,4.522-2.774,4.542H6.806m-5.091-6.789c.816.235,2.305.574,3.606.816a.623.623,0,0,1,.489.463c.333,1.347.767,2.881,1.081,3.756.451-.814,1.138-2.258,1.695-3.534a.624.624,0,0,1,.363-.338c1.112-.39,2.365-.87,3.147-1.212-.548-.23-1.292-.5-1.774-.67-1.373-.492-1.63-.6-1.807-.836a6.8,6.8,0,0,1-.592-1.94c-.128-.521-.325-1.322-.5-1.92A34.417,34.417,0,0,0,6,120.285a.616.616,0,0,1-.351.357,39.939,39.939,0,0,0-3.937,1.789" transform="translate(0 28.044)" fill="#261d2a"/>
        <path id="Trazado_879955" data-name="Trazado 879955" d="M210.837,37.957c-.46,0-.9,0-2.108-4.824-4.087-.788-4.445-1.268-4.565-1.43a.809.809,0,0,1-.113-.625c.073-.261.245-.868,4.916-2.752,1.677-4.374,2.246-4.374,2.625-4.374a.855.855,0,0,1,.584.3,12.035,12.035,0,0,1,.984,3.126c.129.526.285,1.159.376,1.439.245.108.786.3,1.236.464,2.4.86,3.02,1.154,3.132,1.727a.828.828,0,0,1-.229.675,21.734,21.734,0,0,1-4.029,1.733c-1.977,4.5-2.4,4.522-2.774,4.542h-.036m-5.092-6.789c.817.235,2.307.573,3.606.816a.623.623,0,0,1,.49.463c.332,1.347.767,2.881,1.079,3.756.453-.814,1.139-2.258,1.7-3.534a.624.624,0,0,1,.363-.338c1.112-.39,2.365-.87,3.147-1.212-.548-.23-1.293-.5-1.774-.67-1.373-.492-1.631-.6-1.807-.836a6.7,6.7,0,0,1-.592-1.94c-.128-.521-.326-1.322-.5-1.92a34.416,34.416,0,0,0-1.42,3.269.623.623,0,0,1-.351.357,39.973,39.973,0,0,0-3.938,1.789" transform="translate(49.663 5.83)" fill="#261d2a"/>
        <path id="Trazado_879956" data-name="Trazado 879956" d="M13.977,31.979h0l-2.4-.009,2.548-1.727a.622.622,0,0,0-.7-1.03l-3.437,2.33.076-4.015a.621.621,0,0,0-.609-.634h0a.623.623,0,0,0-.63.611l-.067,3.544-2.1-2.28a.622.622,0,1,0-.914.843l2.164,2.346-3.984-.015a.622.622,0,0,0-.01,1.243h.006l3.633.014L4.7,35.125a.621.621,0,1,0,.7,1.028L8.691,33.92l-.076,4.046a.621.621,0,0,0,.609.634h0a.624.624,0,0,0,.63-.611l.072-3.821L12.172,36.6a.622.622,0,0,0,.914-.843l-2.346-2.545,3.23.011a.622.622,0,0,0,.007-1.243" transform="translate(0.8 6.547)" fill="#261d2a"/>
        <path id="Trazado_879957" data-name="Trazado 879957" d="M159.736,96.967h0l-2.4-.009,2.548-1.727a.622.622,0,0,0-.7-1.03l-3.437,2.33.076-4.015a.621.621,0,0,0-.609-.634h0a.623.623,0,0,0-.63.611l-.067,3.544-2.1-2.28a.622.622,0,0,0-.915.843l2.164,2.346-3.984-.014a.621.621,0,0,0-.01,1.242h.006l3.633.012-2.839,1.925a.622.622,0,0,0,.341,1.136.628.628,0,0,0,.357-.107l3.3-2.234-.077,4.046a.621.621,0,0,0,.609.634h0a.624.624,0,0,0,.63-.611l.072-3.821,2.241,2.431a.622.622,0,0,0,.915-.843L156.5,98.2l3.23.011a.622.622,0,0,0,.007-1.243" transform="translate(36.279 22.365)" fill="#261d2a"/>
        <path id="Trazado_879958" data-name="Trazado 879958" d="M103.022,14.857s-3.6-9.648-1.8-8.877,7.622,3.713,7.622,3.713,6.271-4.342,6.656-3.756-.514,8.535-.514,8.535,7.718,4.116,6.3,5.017-8.49,1.672-8.49,1.672-2.685,9.905-3.955,8.908c-1.935-1.522-3.634-7.622-3.634-7.622s-8.116-.128-7.858-1.415,5.672-6.175,5.672-6.175" transform="translate(23.694 1.432)" fill="#e8c01b"/>
        <path id="Trazado_879959" data-name="Trazado 879959" d="M205.583,201.274s-3.6-9.648-1.8-8.877,7.622,3.712,7.622,3.712,6.271-4.341,6.657-3.755-.515,8.535-.515,8.535,7.718,4.116,6.3,5.017-8.49,1.671-8.49,1.671-2.685,9.906-3.955,8.909c-1.936-1.522-3.635-7.622-3.635-7.622s-8.116-.128-7.858-1.415,5.671-6.175,5.671-6.175" transform="translate(48.659 46.808)" fill="#e8c01b"/>
        <path id="Trazado_879960" data-name="Trazado 879960" d="M78.089,24.77s2.1-7.158,2.678-6.284a60.414,60.414,0,0,1,2.3,5.671s6.055,2.042,5.9,2.451-5.434,2.551-5.434,2.551-1.707,6.227-2.663,5.614-2.614-5.58-2.614-5.58-5.421-.522-4.752-1.758,4.592-2.665,4.592-2.665" transform="translate(17.876 4.482)" fill="#e8c01b"/>
        <path id="Trazado_879961" data-name="Trazado 879961" d="M166.937,129.034c-1.4-7.022-21.4,7.606-23.27,2.953-1.413-3.509-14.416-22.65-22.473-35.031,4.948-23.284-7.837-30.67-32.921-34.46,0,0-16.509-7.7-26.435,17.342s-8.271,30.421-3.271,34.383,7.631-4.592,11.068.494,3.092,12.664,8.68,18.691c7.658,8.26,19.98,4.17,29.708-7.743l8.4,13.342s-14.552,10.424-17.086,16.559c-4.3,10.4,15.929,22.383,40.388,18.19,37.871-6.492,28.62-37.7,27.216-44.719" transform="translate(13.287 14.94)" fill="#dd988b"/>
        <path id="Trazado_879962" data-name="Trazado 879962" d="M187.111,134.531c-5.533-10.042-18.528-21.915-33.379-27.4-19.213-7.1-32.165,20.689-37.608,35.649a26.9,26.9,0,0,0-5.48-16.47s-12.47,1.064-15.336,10.622c-13,7.319-24.048,25.537-21.337,35.129,2.993,10.594,23.555,68.176,22.15,75.114-2.7,13.329,118.052,1,117.349-3.209-.182-1.093.606-5.684,1.16-12.739,37.943-24.177-8.119-89.373-27.519-96.7" transform="translate(17.905 25.799)" fill="#a17296"/>
        <path id="Trazado_879963" data-name="Trazado 879963" d="M95.863,198.285s2.79,42.307-30.582,26.425c-21.357-10.165-19.354-20.529-19.354-20.529Z" transform="translate(11.167 48.265)" fill="#a17296"/>
        <path id="Trazado_879964" data-name="Trazado 879964" d="M5.583,135.618s87.978-8.307,88.979-3.043,8.82,66.493,8.82,66.493,30.584-2.809,32.428,0,1.943,17.809,1.943,17.809-118.2,8.767-122.2,1.746-9.971-83.005-9.971-83.005" transform="translate(1.359 31.845)" fill="#eeebd5"/>
        <path id="Trazado_879965" data-name="Trazado 879965" d="M136.35,169.674c-.781-4.384-7.979-11.867-24.33-12.46-22.43-.813-30.955,21.22-26.309,32.242,1.743,4.134,3.648,2.581,5.349-.974.061.446.112.887.2,1.347,1.309,6.765,3.668,4.455,5.543.961a10.267,10.267,0,0,0,1.191,2.652c3.206,5.189,8.675-10.511,13.955-10.688s6.355,2.137,9.665,3.49c8.767,3.585,14.987-15.162,14.736-16.57" transform="translate(20.565 38.262)" fill="#dd988b"/>
        <path id="Trazado_879966" data-name="Trazado 879966" d="M108.378,157.957a.81.81,0,0,1-.269-.053c-.635-.221-.573-.577-.083-3.353,7.586-43.047,42.066-39.966,42.412-39.926a.622.622,0,0,1-.128,1.237c-1.373-.139-33.493-2.958-41,38.547,15.893-28.412,40.913-30.981,59.214-28.084a.622.622,0,0,1-.194,1.228c-18.138-2.876-43.011-.257-58.524,28.534-.74,1.374-1.007,1.87-1.432,1.87" transform="translate(26.202 27.886)" fill="#261d2a"/>
        <path id="Trazado_879967" data-name="Trazado 879967" d="M104.049,152.433h0c-2.882-.014-5.8-1.833-8-4.994a21.284,21.284,0,0,1-1.925-19.268.622.622,0,1,1,1.168.428,20.027,20.027,0,0,0,1.778,18.13c1.965,2.824,4.509,4.449,6.981,4.46,1.312-.822.712-13.222-.62-24.234a.622.622,0,0,1,1.236-.148c.453,3.751,2.6,22.605.3,25.188a1.206,1.206,0,0,1-.918.438" transform="translate(22.563 30.733)" fill="#261d2a"/>
        <path id="Trazado_879968" data-name="Trazado 879968" d="M165.743,198.853c-2.021,0-5.344-3.335-11.129-9.321-8.543-8.841-20.244-20.942-28.115-18.636a.621.621,0,1,1-.351-1.192c8.589-2.529,20.6,9.894,29.361,18.966,4.241,4.389,9.05,9.363,10.35,8.924.351-.946-3.738-6.067-7.344-10.584-8.361-10.47-20.994-26.291-21.53-38.786-.382-8.889,1.986-15.25,7.034-18.907,10.426-7.546,28.366-.926,29.126-.639a.621.621,0,0,1-.439,1.163c-.18-.068-18.078-6.672-27.959.486-4.688,3.4-6.881,9.4-6.519,17.844.517,12.09,13,27.719,21.259,38.063,5.583,6.993,8.032,10.151,7.567,11.73a1.2,1.2,0,0,1-.8.808,1.581,1.581,0,0,1-.514.081" transform="translate(30.597 30.601)" fill="#261d2a"/>
        <path id="Trazado_879969" data-name="Trazado 879969" d="M165.457,226.317a44.385,44.385,0,0,1-13.236-2c-25.093-7.792-37.287-36.157-37.408-36.443a.622.622,0,0,1,1.146-.484c.118.281,12.1,28.127,36.638,35.741,14.328,4.448,30.129,1.23,46.965-9.563a.622.622,0,1,1,.671,1.047c-12.151,7.79-23.8,11.7-34.777,11.7" transform="translate(27.935 45.521)" fill="#261d2a"/>
        <path id="Trazado_879970" data-name="Trazado 879970" d="M180.924,195.667c-10.314,0-17.665-7.069-19.688-10.038-.62-.91-.75-1.415-.466-1.8a.732.732,0,0,1,.826-.252c10.682,3.162,22.011.031,22.124,0a.622.622,0,0,1,.339,1.2c-.46.131-11.023,3.054-21.69.308a23.929,23.929,0,0,0,6.609,5.849,22.32,22.32,0,0,0,17.563,2.765.621.621,0,0,1,.315,1.2,23.4,23.4,0,0,1-5.931.775" transform="translate(39.098 44.675)" fill="#261d2a"/>
        <path id="Trazado_879971" data-name="Trazado 879971" d="M117.849,189.357a.622.622,0,0,1-.32-1.156c.091-.053,9.13-5.584,15.047-19.942a.622.622,0,0,1,1.15.474c-6.086,14.768-15.176,20.309-15.56,20.537a.613.613,0,0,1-.317.087" transform="translate(28.534 40.862)" fill="#261d2a"/>
        <path id="Trazado_879972" data-name="Trazado 879972" d="M90.154,187.853a.621.621,0,0,1-.6-.475c-2.491-10.246,4.72-18.93,5.028-19.294a.621.621,0,0,1,.95.8c-.071.086-7.11,8.578-4.771,18.2a.621.621,0,0,1-.456.751.676.676,0,0,1-.148.017" transform="translate(21.671 40.86)" fill="#261d2a"/>
        <path id="Trazado_879973" data-name="Trazado 879973" d="M95.006,187.853a.621.621,0,0,1-.62-.6c-.272-9.1,6.186-15.827,6.461-16.11a.622.622,0,1,1,.89.868c-.063.066-6.365,6.642-6.108,15.2a.624.624,0,0,1-.6.64Z" transform="translate(22.973 41.612)" fill="#261d2a"/>
        <path id="Trazado_879974" data-name="Trazado 879974" d="M10.707,151.055s48.021-16.647,48.626-14.366,3.538,11.894,3.538,11.894-46.088,17.364-46.926,14.989-5.237-12.517-5.237-12.517" transform="translate(2.606 33.219)" fill="#d37e3a"/>
        <path id="Trazado_879975" data-name="Trazado 879975" d="M61.434,168.374s25.377,5.852,25.679,8.193S83.9,187.861,83.9,187.861s-26.682-7.514-27.151-8.7,4.681-10.785,4.681-10.785" transform="translate(13.807 40.984)" fill="#e8c01b"/>
        <path id="Trazado_879976" data-name="Trazado 879976" d="M70.084,95.974a2.1,2.1,0,0,1-.758-.144c-3.206-1.232-5.552-10.814-5.809-11.9a.622.622,0,0,1,1.21-.286c.914,3.865,3.091,10.276,5.046,11.027a.842.842,0,0,0,.848-.128c2.647-1.832,1.031-9.584.185-12.417A.622.622,0,1,1,72,81.767c.338,1.13,3.192,11.124-.67,13.8a2.158,2.158,0,0,1-1.242.412" transform="translate(15.456 19.795)" fill="#261d2a"/>
        <path id="Trazado_879977" data-name="Trazado 879977" d="M82.32,93.528a2.1,2.1,0,0,1-.758-.144c-3.206-1.232-5.552-10.814-5.809-11.9a.622.622,0,0,1,1.21-.286c.914,3.865,3.091,10.276,5.046,11.027a.841.841,0,0,0,.848-.128c2.648-1.832,1.032-9.583.185-12.417a.622.622,0,1,1,1.191-.357c.338,1.132,3.193,11.125-.67,13.8a2.158,2.158,0,0,1-1.242.412" transform="translate(18.435 19.2)" fill="#261d2a"/>
        <path id="Trazado_879978" data-name="Trazado 879978" d="M104.2,95.459a3.075,3.075,0,0,1-.4-.026,5.188,5.188,0,0,1-3.765-3.468,5.992,5.992,0,0,1,1.4-6.223c4.808-5.262,9.479-1.681,9.526-1.645a.622.622,0,0,1-.768.977c-.154-.118-3.828-2.885-7.838,1.5a4.7,4.7,0,0,0-1.145,4.962,3.97,3.97,0,0,0,2.76,2.658,1.424,1.424,0,0,0,1.449-.669,2.5,2.5,0,0,0-.144-3.433,2.246,2.246,0,0,0-2.648-.647.621.621,0,0,1-.693-1.032,3.446,3.446,0,0,1,4.23.809,3.745,3.745,0,0,1,.271,5.018,2.679,2.679,0,0,1-2.233,1.212" transform="translate(24.265 20.172)" fill="#261d2a"/>
        <path id="Trazado_879979" data-name="Trazado 879979" d="M109.918,80.536l-9.175,1.128a11.995,11.995,0,0,0-23.319,3.669c-.145-.247-.288-.495-.454-.735a12.06,12.06,0,1,0,2.1,7.117c.145.246.288.495.454.735A12.007,12.007,0,0,0,101.1,82.872l8.972-1.1a.621.621,0,0,0-.152-1.233M73.188,100.282A10.768,10.768,0,1,1,75.946,85.3a10.784,10.784,0,0,1-2.758,14.979M95.528,94.5A10.768,10.768,0,1,1,98.285,79.52,10.783,10.783,0,0,1,95.528,94.5" transform="translate(13.404 17.919)" fill="#fcfdff"/>
        <path id="Trazado_879980" data-name="Trazado 879980" d="M132.945,101.4c-6.762,1.756,3.431-7.8,1.378-18.092-5.158-25.853-32.433-19.36-32.433-19.36s-2.915,8.764-.587,13.689,8.913,1.109,2.293,8.713c-12.527,14.389,6.67,27.188-2.656,31.908S99.424,95.64,78.459,102.03s-9.787,20.07-9.787,20.07c4.861,9.643-8.251,14.7,12.611,19.3s31.142-10.8,33.062-25.339-11.769-18.215-7.339-26.045c2.362-4.174,4.612-5.457,6.708-5.394.246.019.479.044.705.071a11.379,11.379,0,0,1,4.451,2.224c1.692,2.716-.418,7.37-2.1,11.678-2.458,6.289,1.053,11.352,13.107,12.054s9.83-11,3.069-9.245" transform="translate(15.991 15.389)" fill="#9f543d"/>
        <path id="Trazado_879981" data-name="Trazado 879981" d="M61.557,82.618S148.8,81.969,147.883,71.3s-26.5-5.108-26.5-5.108-5.447-38.535-34.538-27.231S61.557,82.618,61.557,82.618" transform="translate(14.944 8.978)" fill="#403955"/>
        <path id="Trazado_879982" data-name="Trazado 879982" d="M86.326,77.113s2.074-18.6-12.964-19.5c-27.891-1.665-17.476,20.919-26.179,15.4s-2.678,31.055,11.636,24.6,8.965-20.052,13.06-19.617C84,79.3,86.326,77.113,86.326,77.113" transform="translate(10.501 14.003)" fill="#9f543d"/>
        <path id="Trazado_879983" data-name="Trazado 879983" d="M55.117,81.876c-1.507,0-3.523-1.02-6.207-3.121a.621.621,0,1,1,.766-.979c3.7,2.892,5.353,3.076,6.093,2.722,1.435-.688,1.483-4.236,1.529-7.667.058-4.266.124-9.1,2.666-11.3a5.634,5.634,0,0,1,4.608-1.118c7.163.936,10.652,3.876,12.318,6.177a9.692,9.692,0,0,1,1.931,4.953.623.623,0,0,1-.6.64.644.644,0,0,1-.643-.6c-.012-.337-.455-8.277-13.168-9.937a4.4,4.4,0,0,0-3.633.824C58.658,64.3,58.6,68.842,58.541,72.847c-.056,4.159-.106,7.753-2.236,8.772a2.718,2.718,0,0,1-1.189.256" transform="translate(11.847 14.686)" fill="#261d2a"/>
        <path id="Trazado_879984" data-name="Trazado 879984" d="M57.641,86.9a12.308,12.308,0,0,1-5.6-1.869.621.621,0,1,1,.6-1.088c2.99,1.65,5.146,2.113,6.4,1.374,1.921-1.128,1.946-5.053,1.97-8.851.027-4.558.057-9.272,3.634-9.568,7.712-.638,11.426,6.349,11.463,6.418a.621.621,0,1,1-1.1.573c-.136-.259-3.406-6.321-10.257-5.753-2.274.189-2.464,3.424-2.494,8.337-.026,4.146-.052,8.43-2.584,9.915a3.946,3.946,0,0,1-2.033.511" transform="translate(12.589 16.273)" fill="#261d2a"/>
        <path id="Trazado_879985" data-name="Trazado 879985" d="M117.427,103.717c-2.191,0-3.72-.566-4.649-1.712-2.161-2.667-.438-7.674,1.385-12.974,1.083-3.145,2.2-6.4,2.339-8.884.145-2.673-.373-4.533-1.5-5.377a3.9,3.9,0,0,0-3.284-.348.621.621,0,0,1-.422-1.169,5.115,5.115,0,0,1,4.44.512c1.507,1.12,2.182,3.289,2.009,6.45-.145,2.661-1.293,6-2.4,9.221-1.634,4.746-3.322,9.654-1.6,11.785.883,1.093,2.742,1.472,5.526,1.129a.616.616,0,0,1,.693.541.622.622,0,0,1-.541.694,16.386,16.386,0,0,1-1.994.132" transform="translate(26.99 17.759)" fill="#261d2a"/>
        <path id="Trazado_879986" data-name="Trazado 879986" d="M113.176,83.346a.619.619,0,0,1-.62-.6,6.662,6.662,0,0,0-2.221-4.975c-3.361-2.937-9.424-2.4-9.486-2.387a.623.623,0,0,1-.119-1.24c.271-.024,6.65-.606,10.421,2.688A7.852,7.852,0,0,1,113.8,82.7a.624.624,0,0,1-.6.647Z" transform="translate(24.382 18.035)" fill="#261d2a"/>
        <path id="Trazado_879987" data-name="Trazado 879987" d="M117.144,182.08c-2.13,0-4.924-1.061-8.338-3.166a.622.622,0,0,1,.654-1.058c5.234,3.229,7.792,3.148,8.853,2.818a1.785,1.785,0,0,0,1.087-.766.622.622,0,0,1,1.141.495,2.915,2.915,0,0,1-1.855,1.457,5.134,5.134,0,0,1-1.542.22" transform="translate(26.413 43.27)" fill="#261d2a"/>
        <path id="Trazado_879988" data-name="Trazado 879988" d="M93.934,43.944a.622.622,0,0,1-.6-.455A3.159,3.159,0,0,0,90.383,40.9h-.009a.622.622,0,0,1-.021-1.243,4.432,4.432,0,0,1,4.18,3.5.621.621,0,0,1-.431.765.6.6,0,0,1-.168.024" transform="translate(21.846 9.653)" fill="#fcfdff"/>
        <path id="Trazado_879989" data-name="Trazado 879989" d="M93.761,48.39a.622.622,0,0,1-.6-.455A3.2,3.2,0,0,0,90.21,45.35H90.2a.622.622,0,0,1-.021-1.243,4.433,4.433,0,0,1,4.18,3.5.621.621,0,0,1-.431.765.6.6,0,0,1-.168.024" transform="translate(21.804 10.736)" fill="#fcfdff"/>
        <path id="Trazado_879990" data-name="Trazado 879990" d="M99.089,48.41a.622.622,0,0,1-.6-.455,3.157,3.157,0,0,0-2.953-2.585h-.009a.622.622,0,0,1-.021-1.243,4.448,4.448,0,0,1,4.18,3.5.621.621,0,0,1-.431.765.6.6,0,0,1-.168.024" transform="translate(23.101 10.741)" fill="#fcfdff"/>
        <path id="Trazado_879991" data-name="Trazado 879991" d="M99.581,53.191a.62.62,0,0,1-.6-.455,3.173,3.173,0,0,0-2.954-2.585h-.007A.622.622,0,0,1,96,48.907a4.455,4.455,0,0,1,4.18,3.5.623.623,0,0,1-.431.766.649.649,0,0,1-.168.022" transform="translate(23.221 11.904)" fill="#fcfdff"/>
        <path id="Trazado_879992" data-name="Trazado 879992" d="M94.339,53.082a.622.622,0,0,1-.6-.455,3.154,3.154,0,0,0-2.953-2.585h-.009a.622.622,0,0,1-.021-1.243,4.446,4.446,0,0,1,4.18,3.5.621.621,0,0,1-.431.765.6.6,0,0,1-.168.024" transform="translate(21.945 11.878)" fill="#fcfdff"/>
        <path id="Trazado_879993" data-name="Trazado 879993" d="M104.708,53.715a.622.622,0,0,1-.6-.455,3.169,3.169,0,0,0-2.953-2.585h-.009a.622.622,0,0,1-.021-1.243,4.409,4.409,0,0,1,4.18,3.5.621.621,0,0,1-.431.765.6.6,0,0,1-.168.024" transform="translate(24.469 12.031)" fill="#fcfdff"/>
        <path id="Trazado_879994" data-name="Trazado 879994" d="M103.463,58.435a.622.622,0,0,1-.622-.613c-.041-2.847-2-3.412-2.085-3.436a.624.624,0,0,1-.441-.757.617.617,0,0,1,.751-.446c1.025.259,2.975,1.557,3.019,4.622a.622.622,0,0,1-.613.63Z" transform="translate(24.413 12.941)" fill="#fcfdff"/>
        <path id="Trazado_879995" data-name="Trazado 879995" d="M39.857,164.465s2.723-8.492,4.3-8.142S50.3,163.97,50.3,163.97s10.09-.175,9.521,1.228-6.4,7.5-6.4,7.5,2.852,8.284,1.272,8.9-9.128-5-9.128-5-7.723,7.426-8.953,5,1.756-8.9,1.756-8.9-7.022-5.227-6.671-5.924,8.161-2.314,8.161-2.314" transform="translate(7.712 38.048)" fill="#76ada1"/>
        <path id="Trazado_879996" data-name="Trazado 879996" d="M25.185,190.693c-5.188,0-9.081-.184-10.834-.64a.622.622,0,0,1,.313-1.2c9.086,2.365,80.527-2.949,81.248-3A.622.622,0,1,1,96,187.087c-2.394.178-48.53,3.606-70.82,3.606" transform="translate(3.38 45.237)" fill="#261d2a"/>
        <path id="Trazado_879997" data-name="Trazado 879997" d="M80.747,207.262s-2.643-6.049-16.879-2-8.5-17.27-14.59-12.59a7.034,7.034,0,0,0-1.684,1.828c-.966-3.218-2.5-5.511-4.936-4.2a6.715,6.715,0,0,0-2.936,3.969c-.7-1.311-2.062-.9-4.545,3.03-6.215,9.825-1.753,19.6,10.417,23.809s36.732-4.016,35.152-13.847" transform="translate(7.883 46.23)" fill="#dd988b"/>
        <path id="Trazado_879998" data-name="Trazado 879998" d="M55.943,214.574l-.056,0c-.353-.031-8.674-.841-12.03-6.707-2.06-3.6-1.758-8.272.9-13.878a.621.621,0,1,1,1.123.532c-2.469,5.214-2.788,9.495-.944,12.723,3.028,5.3,10.984,6.084,11.064,6.091a.622.622,0,0,1-.055,1.241" transform="translate(10.347 47.132)" fill="#261d2a"/>
        <path id="Trazado_879999" data-name="Trazado 879999" d="M48.153,216.25a.628.628,0,0,1-.287-.071c-5.8-3.028-9.317-6.759-10.458-11.091a12.582,12.582,0,0,1,1.329-9.447.622.622,0,0,1,1.046.674,11.524,11.524,0,0,0-1.168,8.476c1.054,3.971,4.361,7.432,9.827,10.287a.622.622,0,0,1-.288,1.173" transform="translate(9.008 47.552)" fill="#261d2a"/>
        <path id="Trazado_880000" data-name="Trazado 880000" d="M61.6,223.307a.622.622,0,0,1-.09-1.237,23.139,23.139,0,0,0,7.36-2.693c4.826-2.814,7.361-6.911,7.536-12.178a.629.629,0,0,1,.642-.6.62.62,0,0,1,.6.642c-.453,13.645-15.8,16.039-15.958,16.061a.764.764,0,0,1-.091.006" transform="translate(14.844 50.288)" fill="#261d2a"/>
        <path id="Trazado_880001" data-name="Trazado 880001" d="M174.286,146.69a.606.606,0,0,1-.081,0,.622.622,0,0,1-.536-.7,3.177,3.177,0,0,0-1.7-3.536.622.622,0,1,1,.456-1.156,4.42,4.42,0,0,1,2.476,4.854.622.622,0,0,1-.615.541" transform="translate(41.763 34.382)" fill="#fcfdff"/>
        <path id="Trazado_880002" data-name="Trazado 880002" d="M172.385,150.713a.587.587,0,0,1-.081,0,.622.622,0,0,1-.536-.7,3.177,3.177,0,0,0-1.7-3.536.621.621,0,1,1,.455-1.156A4.42,4.42,0,0,1,173,150.173a.622.622,0,0,1-.615.54" transform="translate(41.301 35.361)" fill="#fcfdff"/>
        <path id="Trazado_880003" data-name="Trazado 880003" d="M177.278,152.82a.619.619,0,0,1-.617-.7,3.176,3.176,0,0,0-1.7-3.535.621.621,0,1,1,.455-1.156,4.419,4.419,0,0,1,2.477,4.854.623.623,0,0,1-.615.541" transform="translate(42.492 35.874)" fill="#fcfdff"/>
        <path id="Trazado_880004" data-name="Trazado 880004" d="M175.855,157.412a.619.619,0,0,1-.617-.7,3.164,3.164,0,0,0-1.7-3.536.625.625,0,0,1-.343-.808.617.617,0,0,1,.8-.347,4.419,4.419,0,0,1,2.476,4.854.623.623,0,0,1-.615.541" transform="translate(42.146 36.992)" fill="#fcfdff"/>
        <path id="Trazado_880005" data-name="Trazado 880005" d="M171.077,155.256a.6.6,0,0,1-.082,0,.622.622,0,0,1-.536-.7,3.177,3.177,0,0,0-1.7-3.536.621.621,0,1,1,.455-1.156,4.419,4.419,0,0,1,2.477,4.854.622.622,0,0,1-.614.541" transform="translate(40.982 36.467)" fill="#fcfdff"/>
        <path id="Trazado_880006" data-name="Trazado 880006" d="M180.366,159.9a.619.619,0,0,1-.617-.7,3.165,3.165,0,0,0-1.7-3.535.625.625,0,0,1-.344-.808.615.615,0,0,1,.8-.347,4.416,4.416,0,0,1,2.476,4.853.623.623,0,0,1-.615.541" transform="translate(43.244 37.598)" fill="#fcfdff"/>
        <path id="Trazado_880007" data-name="Trazado 880007" d="M177.369,163.757a.622.622,0,0,1-.576-.858c1.079-2.636-.5-3.924-.571-3.978a.624.624,0,0,1-.108-.87.616.616,0,0,1,.865-.116c.842.64,2.125,2.6.965,5.435a.622.622,0,0,1-.576.387" transform="translate(42.837 38.412)" fill="#fcfdff"/>
        <path id="Trazado_880008" data-name="Trazado 880008" d="M27.131,164.327s-7.5,5.8-2.951,8.984,8.767,5.531,8.767,5.531-7.957,9.482-14.511.761,1.471-18.084,8.694-15.275" transform="translate(3.897 39.876)" fill="#be607a"/>
        <path id="Trazado_880009" data-name="Trazado 880009" d="M55.609,156.275S69.493,140.2,70.626,143.527s6.75,20.809,5.7,20.843-20.714-8.095-20.714-8.095" transform="translate(13.536 34.826)" fill="#be607a"/>
        <path id="Trazado_880010" data-name="Trazado 880010" d="M79.783,180.345a.622.622,0,0,1-.572-.377c-.32-.745-1.292-3.014-2.018-3.244-.285-.094-.7.15-1.354.553a8.74,8.74,0,0,1-4.949,1.555c-1.4,0-2.273-.275-2.753-.863a2.731,2.731,0,0,1-.226-2.395c.247-1.2.28-1.623-.785-1.874a5.2,5.2,0,0,0-5.062,1.118.622.622,0,0,1-.923-.833,6.432,6.432,0,0,1,6.272-1.495c2.294.543,1.931,2.292,1.715,3.336-.118.569-.229,1.109-.026,1.358.123.15.519.4,1.788.4a7.561,7.561,0,0,0,4.3-1.373c.828-.507,1.544-.946,2.38-.678.924.293,1.679,1.362,2.783,3.939a.622.622,0,0,1-.326.817.63.63,0,0,1-.245.05" transform="translate(14.844 41.931)" fill="#261d2a"/>
        <path id="Trazado_880011" data-name="Trazado 880011" d="M18.32,155.265a.586.586,0,0,1-.092-.007.621.621,0,0,1-.523-.705c.029-.191.726-4.69,3.424-5.97a4.306,4.306,0,0,1,4.179.5,16.713,16.713,0,0,1,3.254,2.607c.65.634,1.165,1.15,1.513,1.088.894-.121,2.7-3.077,4.478-6.1,1.736-2.951,3.294-4.414,4.9-4.607,1.717-.206,3.007,1.105,4.132,2.265,1.221,1.261,1.825,1.763,2.472,1.333a18.284,18.284,0,0,0,2.055-1.748c1.813-1.686,3.865-3.6,6.007-3.106,1.5.343,2.721,1.8,3.746,4.44a.622.622,0,0,1-1.16.449c-.853-2.2-1.817-3.437-2.865-3.678-1.5-.343-3.3,1.329-4.88,2.8a19.3,19.3,0,0,1-2.212,1.874c-1.579,1.053-2.895-.3-4.056-1.5-.969-1-1.966-2.043-3.092-1.9-1.159.138-2.5,1.485-3.979,4-3,5.093-4.153,6.533-5.385,6.7-.95.126-1.654-.56-2.545-1.431a15.513,15.513,0,0,0-3.023-2.427,3.165,3.165,0,0,0-3.008-.449c-2.1.995-2.723,4.991-2.729,5.031a.621.621,0,0,1-.614.53" transform="translate(4.308 34.258)" fill="#261d2a"/>
        <path id="Trazado_880012" data-name="Trazado 880012" d="M86.8,172.467a.621.621,0,0,1-.541-.315c-7.279-12.817,2.28-29.608,2.691-30.318a.622.622,0,0,1,1.077.624c-.1.167-9.61,16.887-2.687,29.08a.621.621,0,0,1-.54.929" transform="translate(20.333 34.449)" fill="#261d2a"/>
        <path id="Trazado_880013" data-name="Trazado 880013" d="M81.621,114.307a4.62,4.62,0,0,1-.965-.107c-7.316-1.548-8.678-12.018-8.732-12.463a.621.621,0,0,1,.541-.693.612.612,0,0,1,.693.542c.014.1,1.311,10.033,7.756,11.4a2.1,2.1,0,0,0,2.1-.491c2.233-2.325.694-10.831-.09-13.913a.622.622,0,0,1,1.206-.307c.3,1.2,2.892,11.841-.22,15.08a3.047,3.047,0,0,1-2.29.954" transform="translate(17.506 23.806)" fill="#261d2a"/>
        <path id="Trazado_880014" data-name="Trazado 880014" d="M78.077,128.344a.61.61,0,0,1-.358-.114c-5.656-3.99-2.515-13.283-2.379-13.679a.622.622,0,0,1,1.175.407c-.03.09-2.971,8.806,1.921,12.258a.622.622,0,0,1-.359,1.129" transform="translate(18.097 27.781)" fill="#261d2a"/>
        <path id="Trazado_880015" data-name="Trazado 880015" d="M87.162,127.413a.479.479,0,0,1-.083-.006,5.26,5.26,0,0,1-3.954-2.387c-2.177-3.429-.4-9.174-.323-9.416a.621.621,0,0,1,1.185.374c-.016.053-1.679,5.44.189,8.378a4.027,4.027,0,0,0,3.069,1.82.621.621,0,0,1-.082,1.237" transform="translate(19.971 28.033)" fill="#261d2a"/>
        <path id="Trazado_880016" data-name="Trazado 880016" d="M97.551,122.918a8.032,8.032,0,0,1-5.077-1.66c-3.242-2.527-3.779-7-3.8-7.186a.62.62,0,0,1,.547-.686.6.6,0,0,1,.688.546c0,.042.507,4.151,3.336,6.35a7.333,7.333,0,0,0,5.676,1.3.611.611,0,0,1,.7.532.62.62,0,0,1-.533.7,11.364,11.364,0,0,1-1.537.108" transform="translate(21.583 27.597)" fill="#261d2a"/>
        <path id="Trazado_880017" data-name="Trazado 880017" d="M208.895,171.454s-5.886-22.224-7.181-27.557l6.164-7.437,10.315,2.36s6.653,25.2,7.284,28.3c.69,3.391-16.582,4.331-16.582,4.331" transform="translate(49.1 33.216)" fill="#e8c01b"/>
        <path id="Trazado_880018" data-name="Trazado 880018" d="M218.308,140.376a28.213,28.213,0,0,0-4.359-6.208l-7.152-4.1-4.718,8.249c-.888,3.341-.89,3.442-.8,5.485.29,6.777,4.954-.874,4.954-.874s1.927,3.5,3.938,2.677,2.727-5.1,2.727-5.1,5.24,9.127,5.415-.133" transform="translate(48.984 31.661)" fill="#eeebd5"/>
        <path id="Trazado_880019" data-name="Trazado 880019" d="M218.5,167.214a.621.621,0,0,1-.6-.455l-6.9-24.855a.622.622,0,0,1,1.2-.332l6.9,24.853a.62.62,0,0,1-.433.765.6.6,0,0,1-.167.024" transform="translate(51.356 34.349)" fill="#261d2a"/>
        <path id="Trazado_880020" data-name="Trazado 880020" d="M212.217,167.793a.621.621,0,0,1-.6-.465l-6.409-24.634a.622.622,0,1,1,1.2-.312l6.407,24.633a.621.621,0,0,1-.6.778" transform="translate(49.945 34.544)" fill="#261d2a"/>
        <path id="Trazado_880021" data-name="Trazado 880021" d="M207.489,165.452l16.582-4.331c.083.9,3.132,9.584,2.566,10.308-.967,1.24-16.719,4.419-16.815,4.439s-2.334-10.416-2.334-10.416" transform="translate(50.505 39.219)" fill="#c45041"/>
        <path id="Trazado_880022" data-name="Trazado 880022" d="M209.038,169.1a.622.622,0,0,1-.188-1.215l14.931-4.729a.622.622,0,0,1,.376,1.185l-14.931,4.73a.656.656,0,0,1-.188.029" transform="translate(50.731 39.707)" fill="#261d2a"/>
        <path id="Trazado_880023" data-name="Trazado 880023" d="M213.785,134.979l-11.87,4.152s1.077-11.056,2.683-12.281,9.186,8.129,9.186,8.129" transform="translate(49.148 30.85)" fill="#403955"/>
        <path id="Trazado_880024" data-name="Trazado 880024" d="M68.4,18.875S53.253,36.166,49.552,40.22l-9.612-.961-3.8-9.875S53.333,9.79,55.551,7.537C57.98,5.071,68.4,18.875,68.4,18.875" transform="translate(8.797 1.763)" fill="#e8c01b"/>
        <path id="Trazado_880025" data-name="Trazado 880025" d="M36.671,25.337a28.2,28.2,0,0,0-2.717,7.082l.6,8.221,9.477-.693c3.266-1.128,3.352-1.181,5-2.395,5.461-4.024-3.492-3.621-3.492-3.621s1.827-3.552.022-4.762-5.751.586-5.751.586,4.645-9.444-3.135-4.419" transform="translate(8.265 5.809)" fill="#eeebd5"/>
        <path id="Trazado_880026" data-name="Trazado 880026" d="M40.907,30.7a.622.622,0,0,1-.472-1.026L57.2,10.073a.622.622,0,1,1,.945.809l-16.767,19.6a.623.623,0,0,1-.472.218" transform="translate(9.806 2.399)" fill="#261d2a"/>
        <path id="Trazado_880027" data-name="Trazado 880027" d="M44.807,34.959a.622.622,0,0,1-.466-1.033L61.2,14.855a.621.621,0,1,1,.931.823L45.272,34.749a.616.616,0,0,1-.465.21" transform="translate(10.755 3.565)" fill="#261d2a"/>
        <path id="Trazado_880028" data-name="Trazado 880028" d="M64.6,20.361,51.751,9.023c.7-.571,6.2-7.949,7.119-7.884,1.569.111,13,11.4,13.071,11.47S64.6,20.361,64.6,20.361" transform="translate(12.597 0.277)" fill="#c45041"/>
        <path id="Trazado_880029" data-name="Trazado 880029" d="M66.154,16.489a.627.627,0,0,1-.387-.134L53.508,6.609a.622.622,0,1,1,.773-.974l12.26,9.745a.622.622,0,0,1-.388,1.109" transform="translate(12.967 1.339)" fill="#261d2a"/>
        <path id="Trazado_880030" data-name="Trazado 880030" d="M34.382,30.745l10.072,7.529s-9.773,5.28-11.687,4.63,1.615-12.159,1.615-12.159" transform="translate(7.837 7.484)" fill="#403955"/>
        <path id="Trazado_880031" data-name="Trazado 880031" d="M210.058,131.983a.622.622,0,0,1-.557-.343.674.674,0,0,1-.015-.525c.035-.091.178-.463.369-1.051a.622.622,0,1,1,1.182.384c-.2.624-.356,1.018-.393,1.114a.618.618,0,0,1-.31.354.6.6,0,0,1-.277.066m1.054-3.5a.621.621,0,0,1-.606-.763c.188-.8.341-1.61.455-2.392a.621.621,0,1,1,1.23.179c-.118.817-.279,1.657-.474,2.5a.623.623,0,0,1-.606.481m.7-4.921h-.029a.621.621,0,0,1-.593-.649c.012-.307.02-.62.02-.934,0-.487-.017-.98-.056-1.475a.62.62,0,0,1,.571-.668.613.613,0,0,1,.669.571c.041.526.06,1.052.06,1.572q0,.5-.021.99a.622.622,0,0,1-.62.594m-19.167-2.88a.622.622,0,0,1-.48-.224,2.577,2.577,0,0,1-.495-1.069,4.007,4.007,0,0,1-.1-.905,4.192,4.192,0,0,1,.111-.947.622.622,0,0,1,1.211.283,2.914,2.914,0,0,0-.078.664,2.732,2.732,0,0,0,.072.624,1.347,1.347,0,0,0,.241.556.621.621,0,0,1-.477,1.018m2.266-.065a.621.621,0,0,1-.32-1.155,8.721,8.721,0,0,0,1.766-1.49.622.622,0,1,1,.9.854,9.824,9.824,0,0,1-2.032,1.7.617.617,0,0,1-.318.087m16.484-2a.619.619,0,0,1-.6-.479,12.332,12.332,0,0,0-.757-2.238.622.622,0,0,1,1.131-.515,13.572,13.572,0,0,1,.836,2.467.62.62,0,0,1-.463.747.562.562,0,0,1-.143.017m-13.017-1.531a.622.622,0,0,1-.506-.982,22.667,22.667,0,0,0,1.293-2.048.622.622,0,0,1,1.084.609,23.429,23.429,0,0,1-1.365,2.16.622.622,0,0,1-.506.261m-4.9-.944a.622.622,0,0,1-.466-1.033,10.2,10.2,0,0,1,2.012-1.716.622.622,0,0,1,.688,1.037,8.941,8.941,0,0,0-1.767,1.5.625.625,0,0,1-.466.21m15.8-1.967a.618.618,0,0,1-.45-.194,5.551,5.551,0,0,0-1.833-1.252.622.622,0,1,1,.492-1.141,6.733,6.733,0,0,1,2.241,1.537.622.622,0,0,1-.45,1.051m-11.72-.816a.621.621,0,0,1-.246-1.192,16.64,16.64,0,0,1,2.445-.832.626.626,0,0,1,.639.213c.27-.637.51-1.286.719-1.93a.622.622,0,0,1,1.184.383c-.116.356-.24.714-.374,1.069a.624.624,0,0,1,.38-.175,12.669,12.669,0,0,1,2.612.027.62.62,0,0,1,.543.69.609.609,0,0,1-.691.543,11.437,11.437,0,0,0-2.355-.022.624.624,0,0,1-.674-.565v-.019c-.111.28-.226.558-.347.833a.622.622,0,0,1-1.113.053.608.608,0,0,1-.214.1,15.527,15.527,0,0,0-2.262.77.589.589,0,0,1-.245.051m4.786-5.332a.635.635,0,0,1-.127-.012.622.622,0,0,1-.482-.735,19.6,19.6,0,0,0,.343-2.385.633.633,0,0,1,.669-.569.621.621,0,0,1,.571.669,20.735,20.735,0,0,1-.366,2.538.62.62,0,0,1-.608.495m.379-4.944a.621.621,0,0,1-.619-.583,14.856,14.856,0,0,0-.334-2.361.622.622,0,0,1,1.214-.275,16.319,16.319,0,0,1,.362,2.559.622.622,0,0,1-.583.659h-.039m-24.68-.4a3.141,3.141,0,0,1-2.262-1.135.622.622,0,0,1,.9-.857,1.733,1.733,0,0,0,1.609.72.622.622,0,0,1,.269,1.215,2.441,2.441,0,0,1-.517.057m2.252-1.585a.614.614,0,0,1-.338-.1.621.621,0,0,1-.182-.86,9.207,9.207,0,0,0,.972-2.108.622.622,0,1,1,1.18.392,10.451,10.451,0,0,1-1.11,2.4.625.625,0,0,1-.522.281m-4.969-1.59h-.036a.621.621,0,0,1-.586-.655,4.853,4.853,0,0,1,1.058-2.6.621.621,0,1,1,1,.742,3.67,3.67,0,0,0-.813,1.926.62.62,0,0,1-.619.587m26.3-1.25a.62.62,0,0,1-.574-.383,13.545,13.545,0,0,0-.684-1.4c-.134-.24-.276-.47-.424-.688a.623.623,0,0,1,1.033-.7c.165.247.323.5.475.772a14.6,14.6,0,0,1,.747,1.529.623.623,0,0,1-.573.86m-19.692-1.825a.606.606,0,0,1-.106-.009.622.622,0,0,1-.509-.717,19.844,19.844,0,0,0,.257-2.4.616.616,0,0,1,.282-.492.594.594,0,0,1-.108-.174.621.621,0,0,1,.336-.812,23.934,23.934,0,0,1,2.412-.847.622.622,0,0,1,.347,1.195,22.211,22.211,0,0,0-2.175.756.623.623,0,0,1,.148.431,21.073,21.073,0,0,1-.274,2.548.622.622,0,0,1-.612.517m-3.915-.943a.621.621,0,0,1-.387-1.108,16.886,16.886,0,0,1,2.149-1.434.623.623,0,0,1,.613,1.084A15.477,15.477,0,0,0,178.4,95.36a.614.614,0,0,1-.385.134m20.817-1.3a.624.624,0,0,1-.415-.158,9.488,9.488,0,0,0-1.91-1.332.621.621,0,1,1,.582-1.1,10.847,10.847,0,0,1,2.16,1.5.622.622,0,0,1-.417,1.084m-4.342-2.33a.606.606,0,0,1-.168-.022,13.538,13.538,0,0,0-2.335-.425.622.622,0,0,1-.56-.679.63.63,0,0,1,.679-.56,14.82,14.82,0,0,1,2.55.466.621.621,0,0,1-.167,1.22m-7.4-.219a.622.622,0,0,1-.106-1.235,20.783,20.783,0,0,1,2.547-.286.6.6,0,0,1,.652.589.621.621,0,0,1-.589.652,20.042,20.042,0,0,0-2.4.27.528.528,0,0,1-.107.01m-4.924-.167a.621.621,0,0,1-.619-.579,19.636,19.636,0,0,0-.311-2.39.621.621,0,1,1,1.22-.237,20.9,20.9,0,0,1,.332,2.543.624.624,0,0,1-.578.663h-.044m-.957-4.869a.622.622,0,0,1-.588-.42,14.48,14.48,0,0,0-.95-2.185.622.622,0,1,1,1.1-.589,15.849,15.849,0,0,1,1.031,2.371.621.621,0,0,1-.387.79.634.634,0,0,1-.2.034m-21.014-1.625a.621.621,0,0,1-.518-.964A18.279,18.279,0,0,1,161.291,82a.622.622,0,0,1,.921.836,17.837,17.837,0,0,0-1.5,1.873.621.621,0,0,1-.518.279m18.647-2.717a.62.62,0,0,1-.481-.229,10.993,10.993,0,0,0-1.61-1.6.659.659,0,0,1-.132-.9.588.588,0,0,1,.837-.131s.077.061.082.066a12.088,12.088,0,0,1,1.786,1.773.62.62,0,0,1-.088.874.611.611,0,0,1-.393.142M163.532,81.3a.621.621,0,0,1-.405-1.093,16.816,16.816,0,0,1,2.08-1.532.621.621,0,0,1,.654,1.057,15.654,15.654,0,0,0-1.924,1.417.619.619,0,0,1-.405.15m11.457-2.126a.625.625,0,0,1-.281-.066,8.9,8.9,0,0,0-2.182-.781.622.622,0,0,1,.256-1.217A10.154,10.154,0,0,1,175.27,78a.622.622,0,0,1-.281,1.176m-7.225-.443a.622.622,0,0,1-.211-1.206,10.114,10.114,0,0,1,2.576-.579.627.627,0,0,1,.673.566.62.62,0,0,1-.566.673,8.891,8.891,0,0,0-2.261.51.626.626,0,0,1-.211.037" transform="translate(38.841 18.73)" fill="#261d2a"/>
        <path id="Trazado_880032" data-name="Trazado 880032" d="M15.294,117.547l-.527-.007a.621.621,0,0,1-.609-.634.589.589,0,0,1,.635-.609l.5.007c.654,0,1.3-.029,1.919-.077a.61.61,0,0,1,.669.571.622.622,0,0,1-.572.668c-.652.051-1.329.082-2.019.082m-2.99-.219a.658.658,0,0,1-.1-.006,15.316,15.316,0,0,1-2.518-.608.621.621,0,1,1,.4-1.178,13.927,13.927,0,0,0,2.313.556.622.622,0,0,1-.1,1.236m7.429-.168a.621.621,0,0,1-.1-1.235c.8-.134,1.6-.3,2.387-.5a.622.622,0,0,1,.3,1.207c-.819.2-1.655.378-2.484.516a.588.588,0,0,1-.1.009m-12.1-1.452a.638.638,0,0,1-.323-.09,10.325,10.325,0,0,1-2.062-1.646.621.621,0,1,1,.894-.862,9.032,9.032,0,0,0,1.814,1.444.622.622,0,0,1-.323,1.154m-3.412-3.533a.62.62,0,0,1-.542-.317,12.328,12.328,0,0,1-1.025-2.4.622.622,0,1,1,1.187-.368,11.221,11.221,0,0,0,.92,2.161.622.622,0,0,1-.541.926m-1.5-4.705a.622.622,0,0,1-.615-.536c-.08-.577-.136-1.182-.167-1.82-.012-.244-.021-.484-.029-.724a.622.622,0,0,1,1.243-.036c.006.231.015.465.027.7q.043.9.157,1.708a.622.622,0,0,1-.531.7.664.664,0,0,1-.086.006m-.159-4.96H2.526a.622.622,0,0,1-.589-.654c.046-.868.129-1.72.249-2.532a.622.622,0,1,1,1.231.183c-.114.773-.194,1.585-.237,2.415a.623.623,0,0,1-.62.589M3.3,97.6a.642.642,0,0,1-.159-.02.623.623,0,0,1-.443-.76A19.671,19.671,0,0,1,3.5,94.386a.622.622,0,0,1,1.151.471A18.268,18.268,0,0,0,3.9,97.137a.621.621,0,0,1-.6.464m17.2-3.207a7.394,7.394,0,0,1-2.5-.5.621.621,0,1,1,.429-1.166,6.213,6.213,0,0,0,2.073.423l.127,0h.016a.622.622,0,0,1,.016,1.243Zm2.019-1.278a.619.619,0,0,1-.617-.7,1.142,1.142,0,0,0,.009-.134,3.191,3.191,0,0,0-.724-1.72.622.622,0,1,1,1.02-.711,4.424,4.424,0,0,1,.947,2.431,2.294,2.294,0,0,1-.02.3.623.623,0,0,1-.615.541M5.187,93.025a.611.611,0,0,1-.32-.091.62.62,0,0,1-.211-.853,14.492,14.492,0,0,1,1.529-2.094.621.621,0,1,1,.933.821,13.512,13.512,0,0,0-1.4,1.916.621.621,0,0,1-.533.3m10.8-.211a.622.622,0,0,1-.337-.1,14.733,14.733,0,0,1-2.043-1.6.622.622,0,0,1,.847-.91,13.6,13.6,0,0,0,1.87,1.463.621.621,0,0,1-.337,1.144m-3.632-3.362a.622.622,0,0,1-.491-.241c-.315-.4-.613-.827-.9-1.263a.6.6,0,0,1-.114.065A10.568,10.568,0,0,0,8.843,89.2a.621.621,0,1,1-.746-.992,11.624,11.624,0,0,1,2.254-1.334l.019-.009a.623.623,0,0,1,1.154-.415,16.53,16.53,0,0,0,1.327,1.994.623.623,0,0,1-.491,1M20.011,89a.62.62,0,0,1-.389-.137,7.46,7.46,0,0,0-1.982-1.141.622.622,0,1,1,.45-1.159A8.685,8.685,0,0,1,20.4,87.9.621.621,0,0,1,20.011,89m-7.039-1.671a.622.622,0,0,1-.109-1.233,10.2,10.2,0,0,1,2.64-.126.621.621,0,0,1-.1,1.238,8.745,8.745,0,0,0-2.315.112.675.675,0,0,1-.111.009M9.908,85.144a.624.624,0,0,1-.578-.392,21.106,21.106,0,0,1-.8-2.433A.622.622,0,0,1,9.733,82a19.945,19.945,0,0,0,.752,2.288.622.622,0,0,1-.347.809.65.65,0,0,1-.23.044m-1.272-4.8a.62.62,0,0,1-.614-.53c-.121-.822-.2-1.674-.246-2.535a.622.622,0,0,1,.592-.65.6.6,0,0,1,.65.591c.041.821.119,1.631.234,2.412a.623.623,0,0,1-.525.706.741.741,0,0,1-.091.006m-.247-4.957H8.362a.622.622,0,0,1-.594-.649,22.353,22.353,0,0,1,.246-2.54.622.622,0,0,1,1.228.191,21.377,21.377,0,0,0-.233,2.4.622.622,0,0,1-.62.6M9.181,70.5A.6.6,0,0,1,9,70.47a.622.622,0,0,1-.41-.777,14.632,14.632,0,0,1,.975-2.4.622.622,0,1,1,1.1.573,13.351,13.351,0,0,0-.892,2.2.619.619,0,0,1-.593.438M30,68.175a8.691,8.691,0,0,1-1.1-.071.622.622,0,1,1,.158-1.235,8.422,8.422,0,0,0,.971.062,6.833,6.833,0,0,0,1.306-.122.622.622,0,1,1,.239,1.221,10.87,10.87,0,0,1-1.57.144M31.658,61.3a8.562,8.562,0,0,1,1.007.459.622.622,0,1,1-.586,1.1,8.733,8.733,0,0,0-.887-.4,6.787,6.787,0,0,0-1.265-.348.622.622,0,0,1,.211-1.226,10.749,10.749,0,0,1,1.518.422M26.58,67.463a.616.616,0,0,1-.236-.047,11.585,11.585,0,0,1-2.29-1.274.622.622,0,0,1,.721-1.013,10.265,10.265,0,0,0,2.043,1.139.622.622,0,0,1-.237,1.2m7.116-.425a.622.622,0,0,1-.407-1.092,1.365,1.365,0,0,0,.542-.959.982.982,0,0,0-.134-.475A.621.621,0,1,1,34.78,63.9a2.195,2.195,0,0,1,.295,1.084,2.518,2.518,0,0,1-.972,1.9.617.617,0,0,1-.407.152m-22.223-.909a.614.614,0,0,1-.393-.142.621.621,0,0,1-.088-.874,11.84,11.84,0,0,1,1.873-1.828.621.621,0,1,1,.766.979A10.589,10.589,0,0,0,11.955,65.9a.622.622,0,0,1-.482.229m11.071-1.5a.623.623,0,0,1-.449-.191,16.815,16.815,0,0,1-1.625-2.006.624.624,0,0,1,.067-.791l-.351.045a.611.611,0,0,1-.7-.533.626.626,0,0,1,.245-.582.608.608,0,0,1-.583-.332c-.26-.5-.514-1.028-.756-1.587-.108-.25-.209-.494-.3-.735a.622.622,0,0,1,1.158-.456c.09.229.185.46.287.7q.347.793.719,1.5a.623.623,0,0,1-.177.785,21.146,21.146,0,0,1,2.5-.178h.009a.622.622,0,0,1,.009,1.243c-.424.006-.843.022-1.256.053a.625.625,0,0,1,.157.157,15.192,15.192,0,0,0,1.5,1.854.622.622,0,0,1-.45,1.052m-7.192-1.541a.622.622,0,0,1-.275-1.18,14.614,14.614,0,0,1,2.42-.93.622.622,0,0,1,.346,1.195,13.381,13.381,0,0,0-2.216.85.623.623,0,0,1-.275.065m12.177-1.13a.726.726,0,0,1-.116-.01c-.8-.152-1.608-.264-2.4-.337a.622.622,0,0,1,.113-1.238c.834.076,1.684.2,2.52.353a.621.621,0,0,1-.114,1.232m-9.614-6.016a.623.623,0,0,1-.606-.477,13.132,13.132,0,0,1-.356-2.583.622.622,0,0,1,.6-.642.611.611,0,0,1,.64.6,11.844,11.844,0,0,0,.325,2.335.621.621,0,0,1-.463.749.568.568,0,0,1-.143.016m-.1-4.92A.579.579,0,0,1,17.667,51a.622.622,0,0,1-.461-.749,8.85,8.85,0,0,1,1-2.463.622.622,0,1,1,1.071.634,7.606,7.606,0,0,0-.857,2.118.622.622,0,0,1-.6.477m2.473-4.224a.621.621,0,0,1-.431-1.069,12.649,12.649,0,0,1,2.068-1.594.622.622,0,0,1,.659,1.054,11.4,11.4,0,0,0-1.865,1.435.616.616,0,0,1-.43.174m4.174-2.657a.622.622,0,0,1-.245-1.194,22.624,22.624,0,0,1,2.41-.867.622.622,0,0,1,.356,1.191,21.2,21.2,0,0,0-2.275.818.61.61,0,0,1-.245.051M29.221,42.7a.622.622,0,0,1-.119-1.232,22.884,22.884,0,0,1,2.549-.369.621.621,0,1,1,.087,1.24,22.375,22.375,0,0,0-2.4.351.67.67,0,0,1-.121.011" transform="translate(0.464 10.003)" fill="#261d2a"/>
        <path id="Trazado_880033" data-name="Trazado 880033" d="M139.04,12.709C106.751,35.6,142.8,71.739,142.8,71.739s-7.079,13.665-3.832,14.195,18.889-6.395,18.889-6.395,26.112,14.241,51.436-2.5S204.363-33.6,139.04,12.709" transform="translate(30.573 0)" fill="#eeebd5"/>
        <path id="Trazado_880034" data-name="Trazado 880034" d="M168.477,22.95a15.6,15.6,0,0,1,12.643,5.342l8.894-3.2,1.148-6.954a29.843,29.843,0,0,0-44.517,1.012l3.235,8.634,7.459.782a15.581,15.581,0,0,1,11.137-5.619" transform="translate(35.695 2.111)" fill="#a17296"/>
        <path id="Trazado_880035" data-name="Trazado 880035" d="M192.511,35.05a29.77,29.77,0,0,0-8.032-18.764L174.435,26.438A15.587,15.587,0,0,1,174.1,47.36l10.7,9.424a29.793,29.793,0,0,0,7.705-21.734" transform="translate(42.378 3.964)" fill="#e8c01b"/>
        <path id="Trazado_880036" data-name="Trazado 880036" d="M169.724,46.246a15.573,15.573,0,0,1-11.019-3.733l-8.5,1.935-1.539,8.211A29.854,29.854,0,0,0,191,50.7l-2.639-8.616-8.064-.808a15.578,15.578,0,0,1-10.569,4.969" transform="translate(36.187 10.047)" fill="#76ada1"/>
        <path id="Trazado_880037" data-name="Trazado 880037" d="M155.138,37.384a15.563,15.563,0,0,1,3.61-10.866L148.054,17.1a29.824,29.824,0,0,0,2.514,41.444L160.606,48.4a15.583,15.583,0,0,1-5.467-11.014" transform="translate(34.287 4.162)" fill="#be607a"/>
        <path id="Trazado_880038" data-name="Trazado 880038" d="M167.629,58.619s-7.176-28.478-5.608-28.83,26.358,7,26.028,8.21-7.056,6.348-7.056,6.348,13.435,8.383,13.119,9.855-9.338,10.512-9.338,10.512l-9.916-14.167s-6.951,10.7-7.229,8.072" transform="translate(39.383 7.248)" fill="#403955"/>
        <path id="Trazado_880039" data-name="Trazado 880039" d="M180.762,17.217a.625.625,0,0,1-.515-.271c-5.58-8.192-18.2-4.164-18.325-4.122a.622.622,0,1,1-.388-1.181c.136-.046,13.639-4.353,19.742,4.6a.623.623,0,0,1-.164.864.615.615,0,0,1-.349.108" transform="translate(39.215 2.572)" fill="#fcfdff"/>
        <path id="Trazado_880040" data-name="Trazado 880040" d="M185.083,39.353a.612.612,0,0,1-.357-.112.623.623,0,0,1-.152-.867c3.446-4.9.066-14.087.031-14.177a.622.622,0,1,1,1.165-.438c.15.4,3.644,9.891-.178,15.331a.623.623,0,0,1-.51.262" transform="translate(44.9 5.685)" fill="#fcfdff"/>
        <path id="Trazado_880041" data-name="Trazado 880041" d="M145.438,42.084a.623.623,0,0,1-.511-.266c-3.147-4.514.124-17.323.266-17.867a.621.621,0,0,1,1.2.312c-.032.127-3.27,12.8-.448,16.843a.622.622,0,0,1-.51.977" transform="translate(34.945 5.716)" fill="#fcfdff"/>
      </g>
    </g>
  </g>
</svg>
