<svg xmlns="http://www.w3.org/2000/svg" xmlns:xlink="http://www.w3.org/1999/xlink" width="295" height="420" viewBox="0 0 295 420">
  <defs>
    <clipPath id="clip-path">
      <rect id="Rectángulo_404166" data-name="Rectángulo 404166" width="219.208" height="211.947" fill="none"/>
    </clipPath>
  </defs>
  <g id="Grupo_1103632" data-name="Grupo 1103632" transform="translate(-181 -1668.535)">
    <g id="Grupo_1103629" data-name="Grupo 1103629" transform="translate(14378 10614.989)">
      <rect id="Rectángulo_401793" data-name="Rectángulo 401793" width="295" height="75.777" transform="translate(-14197 -8602.231)" fill="#14d6f0"/>
      <rect id="Rectángulo_402091" data-name="Rectángulo 402091" width="249" height="287.223" transform="translate(-14174 -8931.034)" fill="#a0eef9"/>
      <g id="Grupo_1099708" data-name="Grupo 1099708" transform="translate(-14041.765 -8946.454)">
        <path id="Trazado_874185" data-name="Trazado 874185" d="M59.931,65.431a1.944,1.944,0,1,1,1.945,1.945,1.945,1.945,0,0,1-1.945-1.945" transform="translate(61.91 72.609)" fill="#5b2ccf"/>
        <path id="Trazado_874186" data-name="Trazado 874186" d="M46.622,65.431a1.944,1.944,0,1,1,1.945,1.945,1.945,1.945,0,0,1-1.945-1.945" transform="translate(44.759 72.609)" fill="#5b2ccf"/>
        <path id="Trazado_874187" data-name="Trazado 874187" d="M33.313,65.431a1.944,1.944,0,1,1,1.943,1.945,1.945,1.945,0,0,1-1.943-1.945" transform="translate(27.609 72.609)" fill="#5b2ccf"/>
        <path id="Trazado_874188" data-name="Trazado 874188" d="M20,65.431a1.944,1.944,0,1,1,1.945,1.945A1.945,1.945,0,0,1,20,65.431" transform="translate(10.456 72.609)" fill="#5b2ccf"/>
        <path id="Trazado_874189" data-name="Trazado 874189" d="M6.694,65.431a1.944,1.944,0,1,1,1.945,1.945,1.945,1.945,0,0,1-1.945-1.945" transform="translate(-6.694 72.609)" fill="#5b2ccf"/>
        <path id="Trazado_874190" data-name="Trazado 874190" d="M59.931,53.538a1.944,1.944,0,1,1,1.945,1.945,1.945,1.945,0,0,1-1.945-1.945" transform="translate(61.91 57.283)" fill="#5b2ccf"/>
        <path id="Trazado_874191" data-name="Trazado 874191" d="M46.622,53.538a1.944,1.944,0,1,1,1.945,1.945,1.945,1.945,0,0,1-1.945-1.945" transform="translate(44.759 57.283)" fill="#5b2ccf"/>
        <path id="Trazado_874192" data-name="Trazado 874192" d="M33.313,53.538a1.944,1.944,0,1,1,1.943,1.945,1.945,1.945,0,0,1-1.943-1.945" transform="translate(27.609 57.283)" fill="#5b2ccf"/>
        <path id="Trazado_874193" data-name="Trazado 874193" d="M20,53.538a1.944,1.944,0,1,1,1.945,1.945A1.945,1.945,0,0,1,20,53.538" transform="translate(10.456 57.283)" fill="#5b2ccf"/>
        <path id="Trazado_874194" data-name="Trazado 874194" d="M6.694,53.538a1.944,1.944,0,1,1,1.945,1.945,1.945,1.945,0,0,1-1.945-1.945" transform="translate(-6.694 57.283)" fill="#5b2ccf"/>
        <path id="Trazado_874195" data-name="Trazado 874195" d="M59.931,41.644a1.944,1.944,0,1,1,1.945,1.945,1.943,1.943,0,0,1-1.945-1.945" transform="translate(61.91 41.958)" fill="#5b2ccf"/>
        <path id="Trazado_874196" data-name="Trazado 874196" d="M46.622,41.644a1.944,1.944,0,1,1,1.945,1.945,1.943,1.943,0,0,1-1.945-1.945" transform="translate(44.759 41.958)" fill="#5b2ccf"/>
        <path id="Trazado_874197" data-name="Trazado 874197" d="M33.313,41.644a1.944,1.944,0,1,1,1.943,1.945,1.943,1.943,0,0,1-1.943-1.945" transform="translate(27.609 41.958)" fill="#5b2ccf"/>
        <path id="Trazado_874198" data-name="Trazado 874198" d="M20,41.644a1.944,1.944,0,1,1,1.945,1.945A1.943,1.943,0,0,1,20,41.644" transform="translate(10.456 41.958)" fill="#5b2ccf"/>
        <path id="Trazado_874199" data-name="Trazado 874199" d="M6.694,41.644a1.944,1.944,0,1,1,1.945,1.945,1.943,1.943,0,0,1-1.945-1.945" transform="translate(-6.694 41.958)" fill="#5b2ccf"/>
        <path id="Trazado_874200" data-name="Trazado 874200" d="M59.931,29.751A1.944,1.944,0,1,1,61.876,31.7a1.945,1.945,0,0,1-1.945-1.945" transform="translate(61.91 26.629)" fill="#5b2ccf"/>
        <path id="Trazado_874201" data-name="Trazado 874201" d="M46.622,29.751A1.944,1.944,0,1,1,48.567,31.7a1.945,1.945,0,0,1-1.945-1.945" transform="translate(44.759 26.629)" fill="#5b2ccf"/>
        <path id="Trazado_874202" data-name="Trazado 874202" d="M33.313,29.751A1.944,1.944,0,1,1,35.256,31.7a1.945,1.945,0,0,1-1.943-1.945" transform="translate(27.609 26.629)" fill="#5b2ccf"/>
        <path id="Trazado_874203" data-name="Trazado 874203" d="M20,29.751A1.944,1.944,0,1,1,21.948,31.7,1.945,1.945,0,0,1,20,29.751" transform="translate(10.456 26.629)" fill="#5b2ccf"/>
        <path id="Trazado_874204" data-name="Trazado 874204" d="M6.694,29.751A1.944,1.944,0,1,1,8.639,31.7a1.945,1.945,0,0,1-1.945-1.945" transform="translate(-6.694 26.629)" fill="#5b2ccf"/>
        <path id="Trazado_874205" data-name="Trazado 874205" d="M59.931,17.858A1.944,1.944,0,1,1,61.876,19.8a1.945,1.945,0,0,1-1.945-1.945" transform="translate(61.91 11.303)" fill="#5b2ccf"/>
        <path id="Trazado_874206" data-name="Trazado 874206" d="M46.622,17.858A1.944,1.944,0,1,1,48.567,19.8a1.945,1.945,0,0,1-1.945-1.945" transform="translate(44.759 11.303)" fill="#5b2ccf"/>
        <path id="Trazado_874207" data-name="Trazado 874207" d="M33.313,17.858A1.944,1.944,0,1,1,35.256,19.8a1.945,1.945,0,0,1-1.943-1.945" transform="translate(27.609 11.303)" fill="#5b2ccf"/>
        <path id="Trazado_874208" data-name="Trazado 874208" d="M20,17.858A1.944,1.944,0,1,1,21.948,19.8,1.945,1.945,0,0,1,20,17.858" transform="translate(10.456 11.303)" fill="#5b2ccf"/>
        <path id="Trazado_874209" data-name="Trazado 874209" d="M6.694,17.858A1.944,1.944,0,1,1,8.639,19.8a1.945,1.945,0,0,1-1.945-1.945" transform="translate(-6.694 11.303)" fill="#5b2ccf"/>
        <path id="Trazado_874210" data-name="Trazado 874210" d="M59.931,5.964a1.944,1.944,0,1,1,1.945,1.945,1.943,1.943,0,0,1-1.945-1.945" transform="translate(61.91 -4.021)" fill="#5b2ccf"/>
        <path id="Trazado_874211" data-name="Trazado 874211" d="M46.622,5.964a1.944,1.944,0,1,1,1.945,1.945,1.943,1.943,0,0,1-1.945-1.945" transform="translate(44.759 -4.021)" fill="#5b2ccf"/>
        <path id="Trazado_874212" data-name="Trazado 874212" d="M33.313,5.964a1.944,1.944,0,1,1,1.943,1.945,1.943,1.943,0,0,1-1.943-1.945" transform="translate(27.609 -4.021)" fill="#5b2ccf"/>
        <path id="Trazado_874213" data-name="Trazado 874213" d="M20,5.964a1.944,1.944,0,1,1,1.945,1.945A1.943,1.943,0,0,1,20,5.964" transform="translate(10.456 -4.021)" fill="#5b2ccf"/>
        <path id="Trazado_874214" data-name="Trazado 874214" d="M6.694,5.964A1.944,1.944,0,1,1,8.639,7.909,1.943,1.943,0,0,1,6.694,5.964" transform="translate(-6.694 -4.021)" fill="#5b2ccf"/>
      </g>
      <g id="Grupo_1103633" data-name="Grupo 1103633" transform="translate(-14161.353 -8876.249)">
        <g id="Grupo_1103617" data-name="Grupo 1103617" clip-path="url(#clip-path)">
          <path id="Trazado_882038" data-name="Trazado 882038" d="M201.943,60.108h0l-1.755.017,1.843-1.285a.454.454,0,0,0-.519-.745l-2.486,1.734.016-2.932a.454.454,0,0,0-.451-.457h0a.454.454,0,0,0-.454.451l-.015,2.588-1.558-1.645a.454.454,0,0,0-.659.624l1.6,1.692-2.907.027a.454.454,0,0,0,0,.908h0l2.652-.025L195.2,62.492a.454.454,0,0,0,.52.744l2.383-1.661-.017,2.954a.454.454,0,0,0,.451.457h0a.455.455,0,0,0,.454-.451l.017-2.79,1.658,1.753a.454.454,0,1,0,.66-.624l-1.737-1.835,2.357-.023a.454.454,0,0,0-.005-.908" transform="translate(-17.922 -5.21)" fill="#261d2a"/>
          <path id="Trazado_882039" data-name="Trazado 882039" d="M72.22,207.231h0l-1.755.016,1.844-1.285a.454.454,0,1,0-.52-.744L69.3,206.951l.017-2.932a.454.454,0,0,0-.451-.457h0a.454.454,0,0,0-.454.451l-.015,2.588-1.557-1.645a.454.454,0,1,0-.659.624l1.6,1.692-2.908.027a.454.454,0,0,0,0,.908h0l2.652-.025-2.054,1.432a.454.454,0,0,0,.52.744L68.38,208.7l-.017,2.954a.454.454,0,0,0,.451.457h0a.455.455,0,0,0,.454-.451l.016-2.79,1.659,1.753a.454.454,0,1,0,.659-.624l-1.736-1.835,2.357-.023a.454.454,0,0,0-.006-.908" transform="translate(-5.947 -18.792)" fill="#261d2a"/>
          <path id="Trazado_882040" data-name="Trazado 882040" d="M13.188,32.172s-.976-6.782,5.365-4.7,4.39,8.347,1.951,6.26,1.952-9.391,6.829-6.26,3.9,9.391.488,9.913,1.951-7.3,6.341-2.609-4.878,13.564-8.78,10.435-.976-8.348,0-5.217-1.463,6.26-8.292,6.26-3.9-10.956-1.463-7.826-1.463,6.783-6.341,3.131.487-11.478,3.9-9.391" transform="translate(-0.677 -2.466)" fill="#fff"/>
          <path id="Trazado_882041" data-name="Trazado 882041" d="M17.044,46.667a4.294,4.294,0,0,1-4.437-3.2,7.618,7.618,0,0,1-3.64-1.588c-2.9-2.173-2.493-5.715-.886-8.087,1.275-1.882,3.046-2.775,4.554-2.374-.026-1.074.125-3,1.413-4.084,1.052-.881,2.6-.995,4.6-.338a8.551,8.551,0,0,1,2.295,1.126,4.885,4.885,0,0,1,6.589-1.077,7.313,7.313,0,0,1,3.549,5.723,4.605,4.605,0,0,1,3.366,1.653c2.54,2.717.915,6.4-1.246,8.735C30.85,45.7,27.3,47.321,25.052,45.523a6.346,6.346,0,0,1-.813-.778c-1.555,1.247-4.047,1.922-7.194,1.922m-3.477-3.179a3.339,3.339,0,0,0,3.477,2.271c2.965,0,5.275-.612,6.654-1.742a4.88,4.88,0,0,1-.542-4.2c.3-.82.818-1.309,1.381-1.287.382.009.906.24,1.232,1.283a4.366,4.366,0,0,1-.613,3.979q-.123.167-.261.324a5.426,5.426,0,0,0,.724.7c1.791,1.438,4.9-.1,6.916-2.272,1.9-2.047,3.361-5.238,1.248-7.5a3.766,3.766,0,0,0-2.708-1.363,5.9,5.9,0,0,1-.11.771,3.969,3.969,0,0,1-3.123,3.34c-1.1.168-1.438-.414-1.532-.672-.355-.968.69-2.653,2.237-3.605a5.153,5.153,0,0,1,1.631-.655,6.419,6.419,0,0,0-3.137-5.047,3.973,3.973,0,0,0-5.4.89,4.922,4.922,0,0,1,1.575,3.129A2.575,2.575,0,0,1,22.1,34.4a1.725,1.725,0,0,1-1.938-.368c-1.381-1.182-.927-3.5.221-5.194a7.64,7.64,0,0,0-2.018-.981c-1.681-.554-2.936-.5-3.732.17-1.426,1.193-1.046,4-1.042,4.031a.454.454,0,0,1-.686.451c-1.39-.85-3.084.333-4.072,1.791-1.373,2.026-1.746,5.034.679,6.849a7.034,7.034,0,0,0,2.9,1.372c-.267-2.126.479-4.454,1.686-5.024a1.442,1.442,0,0,1,1.84.607,3.2,3.2,0,0,1-.011,4.334,3.68,3.68,0,0,1-2.362,1.046m10.948-4.047c-.086,0-.329.207-.506.691a4,4,0,0,0,.345,3.22c.025-.03.048-.062.071-.093a3.432,3.432,0,0,0,.477-3.171c-.167-.534-.349-.644-.388-.646m-9.857-1.163a.392.392,0,0,0-.172.044c-.715.338-1.458,2.33-1.146,4.273a2.817,2.817,0,0,0,1.94-.788,2.3,2.3,0,0,0-.058-3.141c-.245-.314-.433-.388-.564-.388m15.5-4.482a4.208,4.208,0,0,0-1.13.493c-1.335.821-2.005,2.125-1.861,2.519.056.153.462.1.543.087a3.088,3.088,0,0,0,2.373-2.631c.032-.15.057-.306.075-.467m-9.07-4.369c-1.01,1.526-1.167,3.2-.33,3.919a.88.88,0,0,0,.937.248,1.728,1.728,0,0,0,.622-1.694,3.97,3.97,0,0,0-1.228-2.473" transform="translate(-0.63 -2.419)" fill="#261d2a"/>
          <path id="Trazado_882042" data-name="Trazado 882042" d="M186.088,213.281s-.976-6.782,5.365-4.7,4.39,8.347,1.951,6.26,1.952-9.391,6.829-6.26,3.9,9.391.488,9.913,1.951-7.3,6.34-2.609-4.877,13.564-8.779,10.435-.976-8.348,0-5.217-1.463,6.26-8.292,6.26-3.9-10.956-1.463-7.826-1.463,6.783-6.341,3.131.487-11.478,3.9-9.391" transform="translate(-16.638 -19.185)" fill="#fff"/>
          <path id="Trazado_882043" data-name="Trazado 882043" d="M189.944,227.775a4.294,4.294,0,0,1-4.437-3.2,7.635,7.635,0,0,1-3.64-1.588c-2.9-2.173-2.493-5.716-.886-8.087,1.276-1.883,3.048-2.775,4.554-2.375-.026-1.074.125-3,1.413-4.083,1.052-.882,2.6-1,4.6-.338a8.524,8.524,0,0,1,2.295,1.126,4.885,4.885,0,0,1,6.589-1.077,7.313,7.313,0,0,1,3.549,5.723,4.607,4.607,0,0,1,3.366,1.654c2.54,2.716.915,6.4-1.246,8.735-2.352,2.536-5.905,4.163-8.149,2.364a6.29,6.29,0,0,1-.813-.779c-1.554,1.247-4.047,1.922-7.194,1.922m-3.477-3.178a3.34,3.34,0,0,0,3.477,2.27c2.965,0,5.275-.612,6.654-1.741a4.88,4.88,0,0,1-.542-4.2c.3-.82.819-1.293,1.382-1.287.382.008.906.239,1.232,1.283a4.366,4.366,0,0,1-.613,3.979q-.123.166-.261.324a5.483,5.483,0,0,0,.724.7c1.792,1.437,4.9-.1,6.916-2.273,1.9-2.046,3.361-5.237,1.248-7.5a3.768,3.768,0,0,0-2.708-1.362,5.916,5.916,0,0,1-.11.771,3.968,3.968,0,0,1-3.122,3.339c-1.1.166-1.438-.414-1.532-.672-.356-.968.69-2.653,2.237-3.605a5.161,5.161,0,0,1,1.63-.654,6.42,6.42,0,0,0-3.136-5.048,3.972,3.972,0,0,0-5.4.89,4.919,4.919,0,0,1,1.575,3.129A2.573,2.573,0,0,1,195,215.512a1.72,1.72,0,0,1-1.939-.368c-1.381-1.182-.927-3.5.221-5.193a7.613,7.613,0,0,0-2.018-.981c-1.681-.554-2.936-.5-3.732.169-1.426,1.194-1.046,4-1.042,4.031a.454.454,0,0,1-.686.452c-1.39-.85-3.084.334-4.072,1.79-1.373,2.026-1.746,5.034.679,6.85a7.057,7.057,0,0,0,2.9,1.371c-.267-2.126.479-4.455,1.686-5.025a1.443,1.443,0,0,1,1.84.607,3.2,3.2,0,0,1-.011,4.334,3.68,3.68,0,0,1-2.362,1.047m10.949-4.048c-.086,0-.329.207-.506.691a4,4,0,0,0,.345,3.22c.025-.031.048-.062.072-.093a3.434,3.434,0,0,0,.477-3.171c-.167-.535-.351-.648-.388-.647m-9.857-1.163a.378.378,0,0,0-.172.044c-.715.338-1.457,2.33-1.146,4.273a2.826,2.826,0,0,0,1.941-.789,2.3,2.3,0,0,0-.058-3.141c-.245-.315-.434-.388-.565-.388m15.5-4.482a4.278,4.278,0,0,0-1.13.493c-1.335.821-2.005,2.126-1.861,2.519.057.154.463.1.543.087a3.088,3.088,0,0,0,2.373-2.63c.032-.15.057-.306.075-.468m-9.07-4.369c-1.01,1.527-1.167,3.2-.33,3.919a.876.876,0,0,0,.938.249,1.732,1.732,0,0,0,.622-1.695,3.975,3.975,0,0,0-1.229-2.473" transform="translate(-16.592 -19.138)" fill="#261d2a"/>
          <path id="Trazado_882044" data-name="Trazado 882044" d="M182.715,20.536s7.628-7.5,7.968-7.141,2.742,2.744,2.742,2.744l-7.713,7.541Z" transform="translate(-16.867 -1.235)" fill="#c15f7a"/>
          <path id="Trazado_882045" data-name="Trazado 882045" d="M211.09,43.071a47.478,47.478,0,0,1-8.833-1.987,5.8,5.8,0,0,1-2.59-5.08.454.454,0,0,1,.147-.3c4.011-3.636,6.447-5.219,7.252-4.715a3.8,3.8,0,0,1,1.169,1.114,10.371,10.371,0,0,0,.781.94c.652.7,3,8.472,2.717,9.581a.561.561,0,0,1-.367.42.958.958,0,0,1-.277.029m-10.527-6.82a4.952,4.952,0,0,0,2.113,4.027,54.62,54.62,0,0,0,8.187,1.889,40.716,40.716,0,0,0-2.515-8.512,11.125,11.125,0,0,1-.837-1.008,2.927,2.927,0,0,0-.929-.892h-.01c-.6,0-3.565,2.295-6.01,4.5" transform="translate(-18.431 -2.852)" fill="#261d2a"/>
          <path id="Trazado_882046" data-name="Trazado 882046" d="M206.723,42.393s4.176-4.19,4.224-3.885c.08.511,1.264,4.286.929,4.8s-5.153-.919-5.153-.919" transform="translate(-19.084 -3.553)" fill="#261d2a"/>
          <path id="Trazado_882047" data-name="Trazado 882047" d="M200.752,39.66a24.031,24.031,0,0,1,.641-3.521c.186-.029,3.056-.159,3.1-.527s.377-3.23.377-3.23c.269.062,2.982-.161,3.363-.1s-11.792-13.567-11.792-13.567c-2.845,2.681-8.215,8.071-8.215,8.071,1.227,1.564,11.831,12.7,12.525,12.872" transform="translate(-17.376 -1.728)" fill="#76ada2"/>
          <path id="Trazado_882048" data-name="Trazado 882048" d="M201.017,36.81a.456.456,0,0,1-.324-.135l-9.2-9.365a.454.454,0,0,1,.648-.637l9.2,9.365a.454.454,0,0,1-.324.772" transform="translate(-17.666 -2.45)" fill="#261d2a"/>
          <path id="Trazado_882049" data-name="Trazado 882049" d="M204.3,32.768a.453.453,0,0,1-.33-.143l-8.932-9.5a.454.454,0,0,1,.661-.623l8.932,9.5a.454.454,0,0,1-.33.765" transform="translate(-17.994 -2.065)" fill="#261d2a"/>
          <path id="Trazado_882050" data-name="Trazado 882050" d="M187.977,26.983h-.017a.457.457,0,0,1-.325-.155c-2.123-2.435-2.12-2.748-2.119-2.917,0-.2,0-.43,3.8-4.164,3.771-3.706,4.116-3.783,4.263-3.816.209-.044.76-.169,2.943,2.221a.454.454,0,0,1-.016.63l-8.216,8.071a.45.45,0,0,1-.318.131m-1.49-3.027c.23.358.875,1.159,1.517,1.91l7.555-7.421a9.9,9.9,0,0,0-1.814-1.6c-.714.493-6.327,5.976-7.257,7.116" transform="translate(-17.126 -1.469)" fill="#261d2a"/>
          <path id="Trazado_882051" data-name="Trazado 882051" d="M184.378,20.934a.454.454,0,0,1-.19-.866,12.826,12.826,0,0,0,5.7-5.514.454.454,0,1,1,.821.386,13.5,13.5,0,0,1-6.139,5.953.456.456,0,0,1-.19.042" transform="translate(-16.979 -1.319)" fill="#261d2a"/>
          <path id="Trazado_882052" data-name="Trazado 882052" d="M30.362,182.061s-9.989,3.829-10.157,3.363-1.417-3.611-1.417-3.611l10.083-3.832Z" transform="translate(-1.734 -16.43)" fill="#c15f7a"/>
          <path id="Trazado_882053" data-name="Trazado 882053" d="M13.478,162.592c-.615,0-1.007-.122-1.172-.365a3.791,3.791,0,0,1-.627-1.489,10.391,10.391,0,0,0-.34-1.174c-.319-.9.636-8.966,1.338-9.868a.564.564,0,0,1,.5-.239c.885.08,6.969,4.695,7.568,5.433a5.8,5.8,0,0,1,.345,5.692.452.452,0,0,1-.255.217,28.077,28.077,0,0,1-7.36,1.792m-.186-12.131A40.825,40.825,0,0,0,12.2,159.27a11.305,11.305,0,0,1,.365,1.258,2.9,2.9,0,0,0,.495,1.188c.52.257,4.176-.668,7.315-1.717a4.957,4.957,0,0,0-.328-4.536,54.7,54.7,0,0,0-6.752-5m7.4,9.909h0Z" transform="translate(-1.041 -13.797)" fill="#261d2a"/>
          <path id="Trazado_882054" data-name="Trazado 882054" d="M17.577,152.854s-5.5,2.173-5.424,1.873c.13-.5.553-4.434,1.067-4.774s4.357,2.9,4.357,2.9" transform="translate(-1.122 -13.841)" fill="#261d2a"/>
          <path id="Trazado_882055" data-name="Trazado 882055" d="M21.036,155.945a24.042,24.042,0,0,1-1.994,2.972c-.182-.047-2.866-1.076-3.054-.755s-1.635,2.809-1.635,2.809c-.221-.163-2.8-1.044-3.122-1.253s5.39,17.148,5.39,17.148c3.679-1.322,10.756-4.117,10.756-4.117-.5-1.923-5.773-16.368-6.34-16.8" transform="translate(-1.036 -14.396)" fill="#76ada2"/>
          <path id="Trazado_882056" data-name="Trazado 882056" d="M24.935,172.69a.454.454,0,0,1-.424-.291l-4.692-12.261a.453.453,0,0,1,.847-.324l4.693,12.26a.455.455,0,0,1-.261.586.463.463,0,0,1-.162.03" transform="translate(-1.827 -14.726)" fill="#261d2a"/>
          <path id="Trazado_882057" data-name="Trazado 882057" d="M20.042,175.1a.455.455,0,0,1-.428-.3L15.22,162.521a.454.454,0,0,1,.854-.306l4.4,12.274a.454.454,0,0,1-.275.58.446.446,0,0,1-.152.026" transform="translate(-1.403 -14.947)" fill="#261d2a"/>
          <path id="Trazado_882058" data-name="Trazado 882058" d="M18.593,181.9a.444.444,0,0,1-.086-.008c-.21-.041-.764-.149-1.811-3.211a.454.454,0,0,1,.267-.571l10.756-4.117a.454.454,0,0,1,.595.287c.975,3.08.846,3.367.777,3.52-.082.184-.175.393-5.151,2.3-4.241,1.624-5.1,1.8-5.346,1.8m-.892-3.1a9.911,9.911,0,0,0,1.022,2.2c.852-.166,8.187-2.951,9.5-3.624-.067-.419-.339-1.411-.626-2.356Z" transform="translate(-1.539 -16.059)" fill="#261d2a"/>
          <path id="Trazado_882059" data-name="Trazado 882059" d="M21.365,185.236a.453.453,0,0,1-.3-.794,13.5,13.5,0,0,1,8.006-3.005.466.466,0,0,1,.463.445.454.454,0,0,1-.445.463,12.756,12.756,0,0,0-7.425,2.779.455.455,0,0,1-.3.113" transform="translate(-1.93 -16.749)" fill="#261d2a"/>
          <path id="Trazado_882060" data-name="Trazado 882060" d="M193.332,89.244c-1.649-5.429-156.591-.769-156.591-.769-1.442.281-.1,95.654-.1,95.654,1.645.431,32.206.624,65.913.43-.36,7.912-3.358,14.632-12.51,14.632-22.26,0-24.027,17.961-24.027,17.961h96.3c-1.648-27.207-22.639-9.247-32.206-24.967-.757-1.244-1.123-4.169-1.245-7.857,33.022-.4,62.656-1.2,64.463-2.565,4.123-3.1,1.649-87.09,0-92.519" transform="translate(-3.33 -7.996)" fill="#eeebd5"/>
          <path id="Trazado_882061" data-name="Trazado 882061" d="M52.684,98.439s129.938-2.563,129.82.266c-.186,4.451,4.959,74.21.887,75.083-3.588.769-132.025,5.672-132.757,1.281-.341-2.05.171-75.348,2.05-76.629" transform="translate(-4.665 -8.989)" fill="#c15f7a"/>
          <path id="Trazado_882062" data-name="Trazado 882062" d="M109.516,195a.454.454,0,0,1-.01-.908l25.458-.512a.448.448,0,0,1,.463.444.454.454,0,0,1-.445.464L109.524,195Z" transform="translate(-10.068 -17.87)" fill="#261d2a"/>
          <path id="Trazado_882063" data-name="Trazado 882063" d="M86.637,105.521s-.2,26.93,1.538,27.955,61.765,2.251,62.021-.532-1.025-25.117.135-25.469c2.522-.768,13.7-.161,13.7-.161,1.489,4.986.819,34.343-.769,35.881s-88.874,2.819-90.213,1.281-2.819-37.673-.677-39.248c0,0,14.526-1.4,14.261.293" transform="translate(-6.582 -9.664)" fill="#403955"/>
          <path id="Trazado_882064" data-name="Trazado 882064" d="M189.841,130.785a.465.465,0,0,1-.071-.005.455.455,0,0,1-.379-.517c.266-1.724-.221-18.133-.516-26.569a.453.453,0,1,1,.906-.032c.035,1,.852,24.5.508,26.739a.453.453,0,0,1-.447.385" transform="translate(-17.436 -9.529)" fill="#fff"/>
          <path id="Trazado_882065" data-name="Trazado 882065" d="M189.892,146.231a.454.454,0,0,1-.407-.657c.317-.633.263-4.945.123-7.8a.454.454,0,0,1,.907-.044c.058,1.189.32,7.178-.218,8.255a.454.454,0,0,1-.406.251" transform="translate(-17.488 -12.674)" fill="#fff"/>
          <path id="Trazado_882066" data-name="Trazado 882066" d="M141.228,212.212a.464.464,0,0,1-.126-.017c-6.678-1.933-8.611-10.733-8.689-11.106a.454.454,0,1,1,.888-.188c.018.085,1.9,8.641,8.054,10.422a.454.454,0,0,1-.126.89" transform="translate(-12.223 -18.513)" fill="#fff"/>
          <path id="Trazado_882067" data-name="Trazado 882067" d="M155.43,217.547a.456.456,0,0,1-.321-.133c-.8-.8-6.042-2.024-9.159-2.61a.453.453,0,0,1,.167-.891c.854.16,8.375,1.6,9.635,2.858a.454.454,0,0,1-.321.775" transform="translate(-13.439 -19.747)" fill="#fff"/>
          <path id="Trazado_882068" data-name="Trazado 882068" d="M196.862,91.414h-.011c-6.928-.169-29.339-1.017-29.564-1.026a.453.453,0,0,1-.437-.47.436.436,0,0,1,.471-.437c.225.008,22.63.856,29.551,1.025a.454.454,0,0,1-.011.908" transform="translate(-15.403 -8.26)" fill="#fff"/>
          <path id="Trazado_882069" data-name="Trazado 882069" d="M51.35,92.169a.454.454,0,0,1-.03-.907c1.027-.07,25.234-1.7,30.53-.676a.454.454,0,1,1-.173.891c-5.177-1-30.044.674-30.3.691H51.35" transform="translate(-4.699 -8.331)" fill="#fff"/>
          <path id="Trazado_882070" data-name="Trazado 882070" d="M129.072,143.085c-8.574,0-17.99-.367-18.633-.392a.452.452,0,0,1-.435-.472.458.458,0,0,1,.471-.435c.258.01,25.888,1.008,31.4-.246a.454.454,0,0,1,.2.886c-2.218.5-7.436.659-13.009.659" transform="translate(-10.155 -13.065)" fill="#fff"/>
          <path id="Trazado_882071" data-name="Trazado 882071" d="M89.194,22.29s-2.736-14.124-.256-14.95c2.306-.769,12.045,5.383,11.789,7.518-.273,2.276-11.533,7.432-11.533,7.432" transform="translate(-8.114 -0.671)" fill="#d37e3a"/>
          <path id="Trazado_882072" data-name="Trazado 882072" d="M74.268,37.85S67.075,25.392,69.149,23.8c1.93-1.48,13.142,1.157,13.6,3.26.484,2.24-8.478,10.788-8.478,10.788" transform="translate(-6.349 -2.158)" fill="#d37e3a"/>
          <path id="Trazado_882073" data-name="Trazado 882073" d="M69.116,58.005S56.1,51.877,56.9,49.388c.741-2.316,11.454-6.546,13.027-5.079,1.676,1.564-.808,13.7-.808,13.7" transform="translate(-5.249 -4.062)" fill="#d37e3a"/>
          <path id="Trazado_882074" data-name="Trazado 882074" d="M79.787,75.595s-14.2,2.281-14.95-.224C64.142,73.04,70.6,63.5,72.729,63.829c2.266.346,7.058,11.765,7.058,11.765" transform="translate(-5.981 -5.892)" fill="#d37e3a"/>
          <path id="Trazado_882075" data-name="Trazado 882075" d="M148.87,21.443s2.736-14.124.256-14.95c-2.306-.77-12.045,5.382-11.789,7.517.273,2.276,11.533,7.432,11.533,7.432" transform="translate(-12.678 -0.593)" fill="#d37e3a"/>
          <path id="Trazado_882076" data-name="Trazado 882076" d="M163.678,37s7.193-12.458,5.119-14.048c-1.93-1.48-13.142,1.158-13.6,3.26C154.716,28.456,163.678,37,163.678,37" transform="translate(-14.326 -2.079)" fill="#d37e3a"/>
          <path id="Trazado_882077" data-name="Trazado 882077" d="M168.866,57.158s13.015-6.128,12.219-8.618c-.741-2.316-11.454-6.546-13.027-5.078-1.676,1.563.808,13.7.808,13.7" transform="translate(-15.461 -3.984)" fill="#d37e3a"/>
          <path id="Trazado_882078" data-name="Trazado 882078" d="M158.056,74.748s14.2,2.281,14.95-.224c.694-2.33-5.767-11.866-7.892-11.541-2.266.346-7.058,11.765-7.058,11.765" transform="translate(-14.591 -5.813)" fill="#d37e3a"/>
          <path id="Trazado_882079" data-name="Trazado 882079" d="M111.35,12.819s14.864,1.025,14.352-1.025S120.064-.251,118.782,0s-7.432,12.815-7.432,12.815" transform="translate(-10.279 0)" fill="#d37e3a"/>
          <path id="Trazado_882080" data-name="Trazado 882080" d="M129.178,20.559C162.723,34.44,157,62.365,140.809,67.468s-8.618,23.16-13.3,23.738-17.4,4.049-20.873,0,2.533-17.576-9.254-20.242c-49.017-11.089-1.753-64.286,31.793-50.4" transform="translate(-7.042 -1.686)" fill="#e2ba1c"/>
          <path id="Trazado_882081" data-name="Trazado 882081" d="M105.936,89.887s26.811-1.417,26.008.681l-.432,14.482,13.881.428c0,4.3-20.488,25.733-25.991,25.458S89.1,104.97,92.74,104.794s14.5-.6,14.5-.6Z" transform="translate(-8.528 -8.255)" fill="#403955"/>
          <path id="Trazado_882082" data-name="Trazado 882082" d="M114.851,87.022a.453.453,0,0,1-.447-.53c.026-.158,1.891-11.276,1.136-20.089a13.851,13.851,0,0,1-8.576-4.063c-1.812-1.9-2.526-4-1.865-5.479.418-.935,1.536-2.044,4.55-1.93a5.146,5.146,0,0,1,3.946,2.02c1.57,1.924,2.4,5.065,2.78,8.6a13.559,13.559,0,0,0,5.47-.939l.258-.1c.45-3.771,1.364-7,3.049-8.583a3.839,3.839,0,0,1,3.533-1c2.167.418,3.48,1.435,3.6,2.79.21,2.3-3.021,4.864-9.354,7.434-.9,8.693.547,20.263.568,20.43a.454.454,0,0,1-.9.115c-.085-.673-1.44-11.535-.61-20.173a14.318,14.318,0,0,1-5.531.932c.747,8.8-1.053,19.537-1.164,20.183a.454.454,0,0,1-.447.377m-5.558-31.189c-1.77,0-2.96.492-3.367,1.4-.5,1.116.164,2.876,1.694,4.481a12.907,12.907,0,0,0,7.829,3.769c-.362-3.308-1.132-6.209-2.559-7.958a4.225,4.225,0,0,0-3.271-1.686c-.111,0-.22-.005-.326-.005m18.519-.078a2.886,2.886,0,0,0-2.041.837c-1.458,1.368-2.286,4.179-2.719,7.536,7.939-3.3,8.392-5.655,8.331-6.321-.083-.91-1.157-1.651-2.872-1.981a3.648,3.648,0,0,0-.7-.07" transform="translate(-9.68 -5.063)" fill="#261d2a"/>
          <path id="Trazado_882083" data-name="Trazado 882083" d="M108.2,95.779a.454.454,0,0,1-.012-.908l25.629-.683a.487.487,0,0,1,.466.442.454.454,0,0,1-.442.466l-25.628.683Z" transform="translate(-9.946 -8.695)" fill="#fff"/>
          <path id="Trazado_882084" data-name="Trazado 882084" d="M109.139,103.12a.454.454,0,0,1-.014-.908l22.383-.683a.489.489,0,0,1,.467.44.454.454,0,0,1-.44.467l-22.382.683Z" transform="translate(-10.033 -9.373)" fill="#fff"/>
          <path id="Trazado_882085" data-name="Trazado 882085" d="M151.8,47.1a.455.455,0,0,1-.453-.422c-1.156-16.523-20.441-19.884-20.635-19.916a.453.453,0,1,1,.147-.895c.2.033,20.187,3.5,21.394,20.748a.454.454,0,0,1-.421.485H151.8" transform="translate(-12.032 -2.387)" fill="#fff"/>
          <path id="Trazado_882086" data-name="Trazado 882086" d="M126.268,127.333a.454.454,0,0,1-.3-.8l14.181-12.472a.454.454,0,0,1,.6.682l-14.182,12.473a.453.453,0,0,1-.3.113" transform="translate(-11.615 -10.52)" fill="#fff"/>
          <path id="Trazado_882087" data-name="Trazado 882087" d="M151.869,62.467a.454.454,0,0,1-.214-.854c1.9-1.012,2.2-5.843,2.152-7.619a.454.454,0,0,1,.442-.465.467.467,0,0,1,.466.442c.007.283.145,6.961-2.632,8.442a.453.453,0,0,1-.213.054" transform="translate(-13.978 -4.942)" fill="#fff"/>
          <path id="Trazado_882088" data-name="Trazado 882088" d="M82.03,60.738a.449.449,0,0,1-.339-.153,2.946,2.946,0,0,1,.285-4.043.454.454,0,0,1,.667.615,2.03,2.03,0,0,0-.27,2.828.455.455,0,0,1-.343.752" transform="translate(-7.48 -5.206)" fill="#fff"/>
          <path id="Trazado_882089" data-name="Trazado 882089" d="M86.319,58.32a.452.452,0,0,1-.339-.152,2.946,2.946,0,0,1,.284-4.043.454.454,0,0,1,.667.615,2.034,2.034,0,0,0-.271,2.827.454.454,0,0,1-.34.754" transform="translate(-7.876 -4.983)" fill="#fff"/>
          <path id="Trazado_882090" data-name="Trazado 882090" d="M82.647,53.894a.452.452,0,0,1-.339-.152,2.946,2.946,0,0,1,.284-4.043.454.454,0,1,1,.668.615,2.029,2.029,0,0,0-.27,2.827.455.455,0,0,1-.343.752" transform="translate(-7.537 -4.575)" fill="#fff"/>
          <path id="Trazado_882091" data-name="Trazado 882091" d="M86.788,50.732a.45.45,0,0,1-.339-.152,2.946,2.946,0,0,1,.284-4.043.454.454,0,0,1,.668.615,2.028,2.028,0,0,0-.27,2.827.455.455,0,0,1-.343.752" transform="translate(-7.919 -4.283)" fill="#fff"/>
          <path id="Trazado_882092" data-name="Trazado 882092" d="M90.316,55.138a.449.449,0,0,1-.339-.153,2.948,2.948,0,0,1,.284-4.043.454.454,0,0,1,.668.615,2.032,2.032,0,0,0-.27,2.829.454.454,0,0,1-.343.752" transform="translate(-8.245 -4.689)" fill="#fff"/>
          <path id="Trazado_882093" data-name="Trazado 882093" d="M92.65,46.125a.453.453,0,0,1-.34-.153,2.946,2.946,0,0,1,.284-4.043.454.454,0,0,1,.667.615,2.038,2.038,0,0,0-.272,2.827.454.454,0,0,1-.339.754" transform="translate(-8.46 -3.857)" fill="#fff"/>
          <path id="Trazado_882094" data-name="Trazado 882094" d="M83.728,46.183a.452.452,0,0,1-.339-.152,2.947,2.947,0,0,1,.284-4.043.454.454,0,0,1,.668.615,2.03,2.03,0,0,0-.27,2.828.455.455,0,0,1-.343.752" transform="translate(-7.636 -3.863)" fill="#fff"/>
          <path id="Trazado_882095" data-name="Trazado 882095" d="M87.426,44.243a.449.449,0,0,1-.408-.26c-.347-.741-.451-2.489,1.636-3.811a.454.454,0,1,1,.486.767c-1.913,1.213-1.323,2.605-1.3,2.663a.458.458,0,0,1-.226.6.47.47,0,0,1-.19.041" transform="translate(-8.015 -3.702)" fill="#fff"/>
          <path id="Trazado_882096" data-name="Trazado 882096" d="M222.7,124.648a.454.454,0,0,1-.024-.907,14.938,14.938,0,0,0,1.751-.2.454.454,0,0,1,.155.894,16,16,0,0,1-1.857.215H222.7m-1.812-.036-.046,0a8.4,8.4,0,0,1-1.873-.4.454.454,0,0,1,.295-.859,7.524,7.524,0,0,0,1.671.353.454.454,0,0,1-.046.9m5.387-.571a.454.454,0,0,1-.12-.891c.563-.155,1.132-.339,1.69-.546a.454.454,0,1,1,.317.851c-.584.217-1.178.409-1.765.571a.472.472,0,0,1-.122.016m3.4-1.261a.454.454,0,0,1-.193-.865c.538-.252,1.069-.529,1.578-.822a.454.454,0,0,1,.454.786c-.531.307-1.085.6-1.646.858a.443.443,0,0,1-.192.044m3.142-1.817a.454.454,0,0,1-.261-.825,17.237,17.237,0,0,0,1.393-1.088.454.454,0,0,1,.6.685,18.5,18.5,0,0,1-1.467,1.146.457.457,0,0,1-.261.083m2.729-2.384a.454.454,0,0,1-.337-.76,12.052,12.052,0,0,0,1.083-1.372.454.454,0,1,1,.752.508,13.094,13.094,0,0,1-1.163,1.475.453.453,0,0,1-.336.149m2-3.007a.441.441,0,0,1-.183-.039.453.453,0,0,1-.231-.6,8.264,8.264,0,0,0,.532-1.631.454.454,0,1,1,.888.188,9.165,9.165,0,0,1-.59,1.811.455.455,0,0,1-.416.27m.732-3.521a.454.454,0,0,1-.454-.444,7.56,7.56,0,0,0-.232-1.694.454.454,0,0,1,.88-.221,8.5,8.5,0,0,1,.26,1.9.454.454,0,0,1-.444.464Zm-.858-3.5a.454.454,0,0,1-.414-.266,13.028,13.028,0,0,0-.831-1.544.454.454,0,0,1,.77-.482,13.955,13.955,0,0,1,.889,1.651.454.454,0,0,1-.225.6.46.46,0,0,1-.188.04m-1.912-3.076a.452.452,0,0,1-.355-.171c-.359-.447-.754-.892-1.175-1.322a.454.454,0,0,1,.648-.635,18.4,18.4,0,0,1,1.236,1.39.454.454,0,0,1-.354.738m-15.412-1.346a5.283,5.283,0,0,1-.813-.062.454.454,0,1,1,.141-.9,4.938,4.938,0,0,0,1.655-.041.454.454,0,0,1,.162.893,6.417,6.417,0,0,1-1.144.106m2.793-.634a.454.454,0,0,1-.18-.87,10.5,10.5,0,0,0,1.529-.824.454.454,0,1,1,.493.762,11.268,11.268,0,0,1-1.664.895.445.445,0,0,1-.179.037m-5.2-.094a.454.454,0,0,1-.268-.088,4.207,4.207,0,0,1-1.281-1.551.453.453,0,1,1,.812-.4,3.319,3.319,0,0,0,1,1.222.454.454,0,0,1-.269.821m15.286-.519a.45.45,0,0,1-.295-.109c-.442-.377-.913-.747-1.4-1.1a.454.454,0,1,1,.532-.735c.506.367,1,.752,1.458,1.144a.454.454,0,0,1-.294.8m-7.036-1.335a.454.454,0,0,1-.3-.8,15.116,15.116,0,0,0,1.264-1.225.454.454,0,0,1,.669.614,15.967,15.967,0,0,1-1.342,1.3.449.449,0,0,1-.3.11m4.1-.8a.444.444,0,0,1-.237-.068c-.5-.31-1.025-.607-1.55-.881a.454.454,0,1,1,.421-.8c.544.284,1.084.592,1.6.913a.454.454,0,0,1-.239.841m-13.983-.474a.454.454,0,0,1-.452-.419c-.008-.1-.012-.2-.012-.3a2.749,2.749,0,0,1,.551-1.722.454.454,0,1,1,.719.554,1.866,1.866,0,0,0-.362,1.168c0,.075,0,.153.009.233a.454.454,0,0,1-.418.487l-.035,0m10.768-1.208a.443.443,0,0,1-.182-.038c-.546-.239-1.1-.457-1.658-.652a.454.454,0,1,1,.3-.856c.575.2,1.155.428,1.721.676a.454.454,0,0,1-.182.87m1.577-.184a.454.454,0,0,1-.364-.724c.348-.467.679-.962.987-1.471a.454.454,0,1,1,.777.469c-.322.534-.67,1.053-1.035,1.543a.453.453,0,0,1-.365.183m-5-1.009a.436.436,0,0,1-.113-.015,16.865,16.865,0,0,0-1.732-.353.454.454,0,1,1,.131-.9,17.824,17.824,0,0,1,1.826.371.454.454,0,0,1-.113.894m-5.383-.26a.454.454,0,0,1-.128-.89,7.029,7.029,0,0,1,1.918-.255.46.46,0,0,1,.458.449.455.455,0,0,1-.45.458,6.149,6.149,0,0,0-1.669.218.453.453,0,0,1-.129.019m12.264-1.833a.453.453,0,0,1-.408-.653c.256-.525.494-1.073.708-1.628a.454.454,0,1,1,.847.326c-.223.58-.471,1.152-.738,1.7a.456.456,0,0,1-.408.255m1.307-3.382a.423.423,0,0,1-.129-.019.454.454,0,0,1-.307-.564c.166-.559.314-1.14.439-1.725a.454.454,0,1,1,.888.191c-.131.607-.284,1.21-.457,1.792a.454.454,0,0,1-.435.325m.765-3.545a.374.374,0,0,1-.064,0,.453.453,0,0,1-.387-.512c.082-.584.144-1.18.188-1.774a.454.454,0,1,1,.9.065c-.044.613-.109,1.23-.194,1.834a.454.454,0,0,1-.448.391m.261-3.616h0a.455.455,0,0,1-.451-.457v-.214c0-.285,0-.573-.013-.862-.007-.24-.017-.476-.032-.708a.454.454,0,0,1,.906-.054c.015.241.025.486.034.734.009.3.013.6.013.89v.22a.453.453,0,0,1-.454.451m-.231-3.618a.454.454,0,0,1-.448-.387,17.424,17.424,0,0,0-.346-1.734.454.454,0,0,1,.88-.224,18.551,18.551,0,0,1,.364,1.824.455.455,0,0,1-.382.516.572.572,0,0,1-.068,0m-.9-3.508a.454.454,0,0,1-.424-.291,13.36,13.36,0,0,0-.732-1.593.454.454,0,0,1,.8-.434,14.556,14.556,0,0,1,.781,1.7.454.454,0,0,1-.424.616m-16.719-.724q-.125,0-.248-.005a.453.453,0,0,1-.431-.475.462.462,0,0,1,.475-.432,5.77,5.77,0,0,0,1.666-.192.453.453,0,0,1,.221.88,6.913,6.913,0,0,1-1.682.224m-1.927-.551a.45.45,0,0,1-.278-.1,2.538,2.538,0,0,1-.964-1.9.454.454,0,0,1,.9-.064,1.638,1.638,0,0,0,.615,1.243.454.454,0,0,1-.278.813m5.2-.275a.454.454,0,0,1-.192-.865,11.228,11.228,0,0,0,1.516-.861.454.454,0,1,1,.507.753,12.253,12.253,0,0,1-1.639.93.449.449,0,0,1-.192.043m11.707-1.622a.453.453,0,0,1-.363-.182,11.337,11.337,0,0,0-1.149-1.31.454.454,0,0,1,.634-.65,12.416,12.416,0,0,1,1.242,1.414.454.454,0,0,1-.091.635.45.45,0,0,1-.272.092m-8.7-.391a.454.454,0,0,1-.3-.792,12.762,12.762,0,0,0,1.218-1.258.454.454,0,0,1,.694.585,13.879,13.879,0,0,1-1.305,1.348.457.457,0,0,1-.3.116M212.389,73.5a.446.446,0,0,1-.2-.046.453.453,0,0,1-.209-.606,4.807,4.807,0,0,1,1.246-1.55.454.454,0,1,1,.585.694A3.908,3.908,0,0,0,212.8,73.25a.454.454,0,0,1-.408.255m14.772-1.087a.45.45,0,0,1-.261-.084,11.55,11.55,0,0,0-1.5-.894.454.454,0,1,1,.406-.811,12.371,12.371,0,0,1,1.616.965.454.454,0,0,1-.262.824m-3.776-.635a.447.447,0,0,1-.242-.071.453.453,0,0,1-.141-.626c.1-.151.188-.3.278-.459-.392-.109-.792-.2-1.193-.272a.454.454,0,1,1,.158-.893,13.525,13.525,0,0,1,1.468.346c.042-.086.083-.174.123-.261a.454.454,0,0,1,.827.377,13.9,13.9,0,0,1-.893,1.65.456.456,0,0,1-.384.211m-8.331-.642a.454.454,0,0,1-.193-.865,10.248,10.248,0,0,1,1.788-.635.454.454,0,1,1,.227.879,9.3,9.3,0,0,0-1.629.578.457.457,0,0,1-.192.044m3.494-.921a.454.454,0,0,1-.044-.9,13.414,13.414,0,0,1,1.876-.055.453.453,0,0,1,.437.47.441.441,0,0,1-.471.437,12.582,12.582,0,0,0-1.751.052l-.046,0m6.339-1.729a.47.47,0,0,1-.131-.019.453.453,0,0,1-.3-.565,13.6,13.6,0,0,0,.394-1.709.454.454,0,1,1,.9.147,14.426,14.426,0,0,1-.421,1.824.455.455,0,0,1-.435.323m.594-3.57h-.024a.454.454,0,0,1-.43-.477q.024-.466.024-.909c0-.293-.008-.58-.023-.859a.454.454,0,0,1,.429-.477.441.441,0,0,1,.477.429q.023.442.024.907t-.025.955a.455.455,0,0,1-.453.431m-.2-3.615a.454.454,0,0,1-.447-.374,12.156,12.156,0,0,0-.428-1.693.454.454,0,0,1,.862-.286,13.073,13.073,0,0,1,.459,1.819.453.453,0,0,1-.366.526.412.412,0,0,1-.081.007m-1.149-3.425a.454.454,0,0,1-.4-.243,10.234,10.234,0,0,0-.93-1.464.454.454,0,0,1,.722-.551,11.176,11.176,0,0,1,1.014,1.595.454.454,0,0,1-.4.664m-2.189-2.873a.448.448,0,0,1-.31-.123,10.929,10.929,0,0,0-1.365-1.081.454.454,0,0,1,.5-.754,11.779,11.779,0,0,1,1.48,1.173.454.454,0,0,1-.31.785m-3-2.018a.449.449,0,0,1-.192-.043,8.936,8.936,0,0,0-1.617-.593.454.454,0,0,1,.2-.886,9.6,9.6,0,0,1,1.8.656.454.454,0,0,1-.192.865" transform="translate(-19.534 -4.75)" fill="#261d2a"/>
          <path id="Trazado_882097" data-name="Trazado 882097" d="M11.666,136.707a.439.439,0,0,1-.231-.064c-.026-.015-.64-.382-1.543-1.06a.454.454,0,0,1,.546-.726c.86.647,1.456,1,1.461,1.006a.454.454,0,0,1-.232.844M8.75,134.533a.454.454,0,0,1-.3-.112c-.472-.41-.926-.837-1.352-1.268a.454.454,0,1,1,.646-.637c.409.415.847.825,1.3,1.219a.455.455,0,0,1-.3.8M6.206,131.94a.452.452,0,0,1-.35-.164,17.879,17.879,0,0,1-1.112-1.5.454.454,0,1,1,.757-.5A16.841,16.841,0,0,0,6.556,131.2a.453.453,0,0,1-.35.742m-1.991-3.026a.453.453,0,0,1-.408-.252,12.487,12.487,0,0,1-.709-1.744.454.454,0,1,1,.866-.274,11.594,11.594,0,0,0,.656,1.615.453.453,0,0,1-.205.608.445.445,0,0,1-.2.047m-1.082-3.446a.454.454,0,0,1-.449-.395,9.967,9.967,0,0,1-.089-1.322c0-.191.006-.381.017-.573a.454.454,0,1,1,.906.051c-.01.176-.015.35-.015.522a9.1,9.1,0,0,0,.081,1.2.453.453,0,0,1-.39.509.445.445,0,0,1-.06,0m.208-3.6a.462.462,0,0,1-.111-.014.456.456,0,0,1-.33-.552,11.225,11.225,0,0,1,.615-1.786.454.454,0,0,1,.831.365,10.282,10.282,0,0,0-.566,1.644.454.454,0,0,1-.439.343m1.44-3.316a.455.455,0,0,1-.383-.7,10.709,10.709,0,0,1,1.151-1.5.454.454,0,1,1,.668.614,9.777,9.777,0,0,0-1.052,1.375.453.453,0,0,1-.384.212m12.979-.409h0a6.048,6.048,0,0,1-1.92-.346.454.454,0,0,1,.294-.859,5.138,5.138,0,0,0,1.631.3.454.454,0,0,1,0,.908m1.776-.323a.454.454,0,0,1-.157-.88c.484-.178.761-.4.761-.61a.379.379,0,0,0-.017-.107.454.454,0,0,1,.871-.254,1.267,1.267,0,0,1,.054.359c0,.441-.234,1.051-1.353,1.465a.479.479,0,0,1-.158.028m-5.187-.778a.454.454,0,0,1-.236-.065,12.518,12.518,0,0,1-1.525-1.1.454.454,0,1,1,.583-.7,11.462,11.462,0,0,0,1.414,1.022.454.454,0,0,1-.236.841M7.23,115.9a.454.454,0,0,1-.27-.82,10.009,10.009,0,0,1,1.63-.973.454.454,0,1,1,.389.82,9.023,9.023,0,0,0-1.481.884.45.45,0,0,1-.269.089m12.078-.618a.455.455,0,0,1-.23-.063,8.254,8.254,0,0,0-1.571-.691.454.454,0,1,1,.284-.861,8.94,8.94,0,0,1,1.747.771.454.454,0,0,1-.231.844m-7.747-.555a.457.457,0,0,1-.33-.143c-.1-.111-.208-.224-.312-.339-.1.025-.208.053-.311.081a.454.454,0,0,1-.333-.839c-.084-.105-.168-.21-.251-.316a.454.454,0,1,1,.717-.557q.251.324.511.63c.318-.06.642-.108.969-.144a.454.454,0,1,1,.1.9c-.122.013-.243.029-.364.046a.454.454,0,0,1-.394.679m4.326-.608a.385.385,0,0,1-.077-.008,13.43,13.43,0,0,0-1.743-.176.452.452,0,0,1-.438-.467.472.472,0,0,1,.467-.439,14.065,14.065,0,0,1,1.867.189.454.454,0,0,1-.076.9m-6.554-2.254a.455.455,0,0,1-.381-.207c-.333-.515-.651-1.051-.944-1.594a.454.454,0,1,1,.8-.431c.281.521.587,1.037.907,1.53a.454.454,0,0,1-.38.7M7.6,108.677a.455.455,0,0,1-.415-.27c-.252-.565-.485-1.143-.689-1.717a.453.453,0,1,1,.854-.3c.2.551.42,1.107.664,1.651a.453.453,0,0,1-.23.6.444.444,0,0,1-.184.04m-1.223-3.417a.455.455,0,0,1-.438-.336c-.162-.6-.3-1.2-.413-1.8a.454.454,0,0,1,.892-.166c.108.577.241,1.161.4,1.734a.454.454,0,0,1-.319.556.419.419,0,0,1-.12.016m-.659-3.566a.454.454,0,0,1-.451-.41c-.06-.619-.091-1.243-.093-1.853a.453.453,0,0,1,.452-.456h0a.454.454,0,0,1,.454.452c0,.583.033,1.179.089,1.77a.454.454,0,0,1-.408.5l-.044,0m0-3.624-.045,0a.455.455,0,0,1-.407-.5,17.249,17.249,0,0,1,.282-1.841.454.454,0,1,1,.888.186,16.6,16.6,0,0,0-.267,1.745.454.454,0,0,1-.451.409m.746-3.545a.468.468,0,0,1-.143-.023.455.455,0,0,1-.288-.574,15.924,15.924,0,0,1,.693-1.735.454.454,0,1,1,.821.388A14.8,14.8,0,0,0,6.9,94.214a.455.455,0,0,1-.431.31M8,91.248a.446.446,0,0,1-.24-.069.453.453,0,0,1-.144-.625A16.146,16.146,0,0,1,8.7,89.03a.454.454,0,0,1,.709.566,15.4,15.4,0,0,0-1.018,1.438A.456.456,0,0,1,8,91.248m2.249-2.841a.454.454,0,0,1-.329-.766c.433-.456.877-.89,1.321-1.293a.454.454,0,1,1,.61.672c-.428.388-.855.808-1.273,1.246a.454.454,0,0,1-.329.142M25.27,87.185a.453.453,0,0,1-.028-.906,2.963,2.963,0,0,0,1.487-.417.454.454,0,1,1,.527.738,3.755,3.755,0,0,1-1.956.584h-.03m-1.81-.091a.527.527,0,0,1-.065,0,14.176,14.176,0,0,1-1.834-.4.454.454,0,0,1,.246-.873,13.32,13.32,0,0,0,1.717.37.454.454,0,0,1-.064.9m-3.494-.972a.449.449,0,0,1-.17-.034,18.14,18.14,0,0,1-1.689-.786.454.454,0,1,1,.425-.8,17.258,17.258,0,0,0,1.6.746.454.454,0,0,1-.171.875m-7.025-.149a.454.454,0,0,1-.276-.814c.5-.381,1.01-.738,1.524-1.061a.454.454,0,0,1,.482.769c-.489.308-.978.648-1.454,1.013a.456.456,0,0,1-.276.093m14.675-.854a.453.453,0,0,1-.433-.318,2.338,2.338,0,0,0-.977-1.115.454.454,0,0,1,.507-.753,3.174,3.174,0,0,1,1.336,1.6.455.455,0,0,1-.3.569.464.464,0,0,1-.135.019m-10.853-.7a.452.452,0,0,1-.253-.078q-.215-.146-.425-.3a.457.457,0,0,1-.522-.392q-.276-.218-.538-.444a.454.454,0,1,1,.593-.687c.19.163.387.325.589.482.44-.2.886-.381,1.33-.537a.454.454,0,1,1,.3.856c-.26.092-.52.192-.779.3a.454.454,0,0,1-.3.8M24.82,83a.47.47,0,0,1-.135-.02A8.65,8.65,0,0,0,23,82.642a.454.454,0,0,1,.093-.9,9.573,9.573,0,0,1,1.866.375A.454.454,0,0,1,24.82,83m-5.387-.142a.454.454,0,0,1-.093-.9,13.137,13.137,0,0,1,1.862-.256.454.454,0,1,1,.058.906,11.954,11.954,0,0,0-1.732.239.482.482,0,0,1-.094.009m-5.4-.811a.455.455,0,0,1-.34-.153,12.223,12.223,0,0,1-1.135-1.5.454.454,0,0,1,.765-.487,11.375,11.375,0,0,0,1.05,1.39.453.453,0,0,1-.34.754M12.1,79a.454.454,0,0,1-.419-.28,9.962,9.962,0,0,1-.554-1.815.453.453,0,0,1,.889-.18,9.185,9.185,0,0,0,.5,1.649.454.454,0,0,1-.248.592A.443.443,0,0,1,12.1,79m-.719-3.532a.455.455,0,0,1-.454-.449v-.123a11.127,11.127,0,0,1,.144-1.761.449.449,0,0,1,.521-.376.455.455,0,0,1,.376.521,10.041,10.041,0,0,0-.133,1.616V75a.455.455,0,0,1-.448.459Zm.563-3.571a.46.46,0,0,1-.138-.022.455.455,0,0,1-.294-.57,15.181,15.181,0,0,1,.679-1.743.454.454,0,1,1,.824.379,14.443,14.443,0,0,0-.638,1.639.457.457,0,0,1-.433.316m1.5-3.3a.454.454,0,0,1-.391-.683q.154-.263.321-.53.334-.534.668-1.026a.454.454,0,1,1,.752.508c-.216.32-.434.653-.65,1-.107.17-.209.339-.308.507a.453.453,0,0,1-.392.224m2.038-3a.445.445,0,0,1-.278-.1.453.453,0,0,1-.08-.636c.39-.5.792-.979,1.192-1.416a.454.454,0,1,1,.669.613c-.383.419-.768.877-1.145,1.36a.451.451,0,0,1-.359.176m2.458-2.665a.453.453,0,0,1-.3-.792,14.624,14.624,0,0,1,1.472-1.156.454.454,0,1,1,.511.751,13.587,13.587,0,0,0-1.38,1.084.451.451,0,0,1-.3.114m11.63-1.257a.45.45,0,0,1-.249-.074,9.972,9.972,0,0,0-1.527-.825.454.454,0,1,1,.359-.834,10.907,10.907,0,0,1,1.666.9.454.454,0,0,1-.25.833m-8.63-.762a.454.454,0,0,1-.192-.865,9.623,9.623,0,0,1,1.794-.631.454.454,0,1,1,.212.883,8.681,8.681,0,0,0-1.624.571.447.447,0,0,1-.191.042m5.308-.652a.413.413,0,0,1-.093-.009,7.822,7.822,0,0,0-1.6-.167h-.112a.454.454,0,0,1-.005-.908h.117a8.679,8.679,0,0,1,1.784.187.453.453,0,0,1-.093.9" transform="translate(-0.239 -5.463)" fill="#261d2a"/>
          <path id="Trazado_882098" data-name="Trazado 882098" d="M234.811,177.416c-3.391-2.53-26.757,23.721-26.757,23.721-.4,1.444,29.52,2.9,29.52,2.9s-1.04-25.342-2.763-26.626m-6.211,19.1s-8.537-.417-8.421-.829c0,0,6.541-7.534,7.308-6.6s1.113,7.431,1.113,7.431" transform="translate(-19.206 -16.362)" fill="#d37e3a"/>
          <path id="Trazado_882099" data-name="Trazado 882099" d="M235.6,206.557h-.038a.455.455,0,0,1-.415-.49l.221-2.694a.454.454,0,0,1,.9.074l-.221,2.694a.454.454,0,0,1-.452.417" transform="translate(-21.707 -18.736)" fill="#261d2a"/>
          <path id="Trazado_882100" data-name="Trazado 882100" d="M231.619,206.347l-.038,0a.454.454,0,0,1-.415-.489l.222-2.694a.454.454,0,1,1,.9.074l-.222,2.694a.454.454,0,0,1-.452.417" transform="translate(-21.34 -18.717)" fill="#261d2a"/>
          <path id="Trazado_882101" data-name="Trazado 882101" d="M227.306,206l-.037,0a.454.454,0,0,1-.416-.489l.222-2.694a.454.454,0,1,1,.9.074l-.222,2.694a.454.454,0,0,1-.452.417" transform="translate(-20.942 -18.685)" fill="#261d2a"/>
          <path id="Trazado_882102" data-name="Trazado 882102" d="M223.258,205.783h-.038a.455.455,0,0,1-.415-.49l.221-2.694a.454.454,0,1,1,.9.074l-.221,2.694a.454.454,0,0,1-.452.417" transform="translate(-20.568 -18.664)" fill="#261d2a"/>
          <path id="Trazado_882103" data-name="Trazado 882103" d="M219.28,205.572h-.038a.455.455,0,0,1-.415-.49l.222-2.694a.454.454,0,0,1,.9.074l-.222,2.694a.454.454,0,0,1-.452.417" transform="translate(-20.201 -18.645)" fill="#261d2a"/>
          <path id="Trazado_882104" data-name="Trazado 882104" d="M214.967,205.231l-.037,0a.454.454,0,0,1-.416-.489l.222-2.694a.46.46,0,0,1,.489-.415.454.454,0,0,1,.416.489l-.222,2.694a.454.454,0,0,1-.452.417" transform="translate(-19.803 -18.614)" fill="#261d2a"/>
          <path id="Trazado_882105" data-name="Trazado 882105" d="M235.886,190.109a.454.454,0,0,1-.01-.908l2.7-.057a.435.435,0,0,1,.464.444.455.455,0,0,1-.445.464l-2.7.057Z" transform="translate(-21.734 -17.461)" fill="#261d2a"/>
          <path id="Trazado_882106" data-name="Trazado 882106" d="M235.244,186.195a.454.454,0,0,1-.01-.908l2.7-.057h.01a.454.454,0,0,1,.009.908l-2.7.057Z" transform="translate(-21.675 -17.1)" fill="#261d2a"/>
          <path id="Trazado_882107" data-name="Trazado 882107" d="M235.139,181.87a.454.454,0,0,1-.009-.908l2.7-.056a.449.449,0,0,1,.463.444.454.454,0,0,1-.444.464l-2.7.056Z" transform="translate(-21.665 -16.7)" fill="#261d2a"/>
          <path id="Trazado_882108" data-name="Trazado 882108" d="M236.68,199a.454.454,0,0,1-.009-.908l2.7-.057a.476.476,0,0,1,.463.445.453.453,0,0,1-.444.463l-2.7.057Z" transform="translate(-21.807 -18.282)" fill="#261d2a"/>
          <path id="Trazado_882109" data-name="Trazado 882109" d="M236.285,194.7a.454.454,0,0,1-.009-.908l2.7-.056a.463.463,0,0,1,.463.444.454.454,0,0,1-.444.464l-2.7.056Z" transform="translate(-21.771 -17.885)" fill="#261d2a"/>
          <path id="Trazado_882110" data-name="Trazado 882110" d="M47.442,15.164s-2.63-7.043-1.314-6.48,5.564,2.71,5.564,2.71,4.577-3.17,4.859-2.742-.375,6.23-.375,6.23,5.634,3,4.6,3.663-6.2,1.22-6.2,1.22-1.96,7.232-2.887,6.5c-1.413-1.111-2.653-5.564-2.653-5.564s-5.924-.093-5.737-1.033,4.14-4.508,4.14-4.508" transform="translate(-3.997 -0.795)" fill="#e2ba1c"/>
          <path id="Trazado_882111" data-name="Trazado 882111" d="M224.27,153.987s-2.63-7.043-1.314-6.48,5.564,2.71,5.564,2.71,4.577-3.17,4.859-2.742-.375,6.23-.375,6.23,5.634,3,4.6,3.662-6.2,1.221-6.2,1.221-1.96,7.231-2.887,6.5c-1.413-1.111-2.653-5.564-2.653-5.564s-5.924-.093-5.737-1.033,4.14-4.508,4.14-4.508" transform="translate(-20.321 -13.611)" fill="#e2ba1c"/>
          <path id="Trazado_882112" data-name="Trazado 882112" d="M25.368,19.224c-.334,0-.657-.2-1.45-3.543-2.977-.614-3.234-.968-3.32-1.087a.6.6,0,0,1-.076-.458c.057-.191.188-.632,3.616-1.962C25.365,9.1,25.79,9.041,26.02,9.012a.62.62,0,0,1,.5.219,8.7,8.7,0,0,1,.689,2.291c.09.385.2.849.261,1.053.178.083.571.229.9.35,1.745.652,2.195.871,2.271,1.292a.6.6,0,0,1-.174.49A15.773,15.773,0,0,1,27.5,15.933c-1.487,3.267-1.8,3.279-2.069,3.289l-.067,0m-3.611-5c.594.18,1.678.441,2.625.63a.454.454,0,0,1,.352.342c.23.986.533,2.109.752,2.751.339-.59.852-1.637,1.271-2.562a.453.453,0,0,1,.269-.243c.814-.275,1.735-.613,2.307-.855-.4-.173-.937-.375-1.288-.506-1-.373-1.184-.453-1.311-.628a4.906,4.906,0,0,1-.413-1.421c-.088-.381-.224-.967-.347-1.406a25.166,25.166,0,0,0-1.067,2.373.454.454,0,0,1-.26.258,28.9,28.9,0,0,0-2.891,1.268m2.729-1.692h0Z" transform="translate(-1.893 -0.832)" fill="#261d2a"/>
          <path id="Trazado_882113" data-name="Trazado 882113" d="M222.791,222.626c-.333,0-.658-.2-1.45-3.543-2.977-.614-3.234-.968-3.32-1.086a.6.6,0,0,1-.076-.457c.056-.191.188-.632,3.616-1.962,1.228-3.08,1.653-3.133,1.883-3.163a.623.623,0,0,1,.5.22,8.723,8.723,0,0,1,.688,2.291c.09.384.2.849.26,1.053.178.083.571.229.9.35,1.745.652,2.195.871,2.271,1.291a.6.6,0,0,1-.175.491,15.856,15.856,0,0,1-2.955,1.226c-1.487,3.266-1.8,3.279-2.069,3.289l-.067,0m-3.611-5c.594.18,1.678.441,2.625.631a.452.452,0,0,1,.352.342c.23.985.533,2.109.752,2.751.339-.591.852-1.637,1.271-2.563a.458.458,0,0,1,.269-.243c.814-.274,1.735-.613,2.307-.854-.4-.174-.937-.376-1.287-.506-1-.372-1.185-.453-1.312-.627a4.93,4.93,0,0,1-.413-1.421c-.088-.382-.224-.968-.347-1.406a24.574,24.574,0,0,0-1.067,2.372.456.456,0,0,1-.26.258,29.207,29.207,0,0,0-2.891,1.268m2.728-1.692h0Z" transform="translate(-20.118 -19.609)" fill="#261d2a"/>
          <path id="Trazado_882114" data-name="Trazado 882114" d="M205.212,13.786l-.011-.008a3.184,3.184,0,1,1,.011.008m3.279-4.251a2.231,2.231,0,0,0-2.734,3.525l.007.005a2.236,2.236,0,0,0,3.122-.4,2.231,2.231,0,0,0-.4-3.13" transform="translate(-18.831 -0.753)" fill="#261d2a"/>
          <path id="Trazado_882115" data-name="Trazado 882115" d="M1.224,177.893l-.011-.008a3.182,3.182,0,1,1,.011.008M4.5,173.642a2.231,2.231,0,0,0-2.734,3.525l.007.005a2.236,2.236,0,0,0,3.122-.4,2.231,2.231,0,0,0-.4-3.13" transform="translate(0 -15.903)" fill="#261d2a"/>
          <path id="Trazado_882116" data-name="Trazado 882116" d="M232.784,30.917a.608.608,0,0,1-.342-.106,16.864,16.864,0,0,1-2.192-3.525c-2.391.266-4.389.357-4.668-.033a.529.529,0,0,1,.054-.674c.454-.5,1.521-1.675,2.81-3.014-.933-2.117-1.588-4.025-1.342-4.626a.62.62,0,0,1,.7-.386,23.993,23.993,0,0,1,3.906,1.776c1.695-1.576,3.26-2.819,3.995-2.835a.639.639,0,0,1,.551.21.456.456,0,0,1,.124.393c-.211,1.279-.477,2.808-.774,4.357,3.972,2.268,4.019,2.674,4.046,2.9a.558.558,0,0,1-.3.525c-.045.02-2.122.407-4.651.8-.552,2.237-1.138,3.959-1.667,4.187a.628.628,0,0,1-.247.052m-1.6-3.742a20.4,20.4,0,0,0,1.588,2.7,15.589,15.589,0,0,0,.957-3.045c-.84.124-1.706.245-2.545.349m-2.329-2.718c-.693.723-1.39,1.468-2.067,2.208.661,0,1.755-.093,3.026-.231-.326-.643-.652-1.313-.959-1.977m.67-.693c.388.854.811,1.737,1.225,2.562,1.037-.123,2.142-.268,3.2-.418.211-.911.427-1.927.64-2.993-.886-.5-1.822-1.014-2.711-1.487-.74.707-1.537,1.5-2.351,2.335m5.9-.369c-.162.81-.332,1.612-.507,2.373,1.43-.211,2.682-.418,3.424-.565-.591-.426-1.666-1.085-2.916-1.807m-7.474-3.862a16.263,16.263,0,0,0,1.174,3.333c.613-.626,1.257-1.27,1.9-1.883a30.865,30.865,0,0,0-3.071-1.45m4.617,1.243c.584.31,1.135.61,1.6.866.21.115.41.227.6.335.219-1.135.431-2.31.628-3.472a16.38,16.38,0,0,0-2.828,2.271m3.162-2.376h0Z" transform="translate(-20.816 -1.615)" fill="#261d2a"/>
          <path id="Trazado_882117" data-name="Trazado 882117" d="M24.384,227.778a11.426,11.426,0,0,1-4.215-.755,9.978,9.978,0,0,1-5.52-5.722,11.676,11.676,0,0,1-1.1-5.968,16.119,16.119,0,0,1-4.789-3.268c-8.108-7.805.482-17.6.569-17.693a.454.454,0,0,1,.677.605c-.334.374-8.093,9.238-.616,16.434a15.5,15.5,0,0,0,4.337,3.019,5.618,5.618,0,0,1,2.408-3.322c2.126-1.35,4.988-1.191,6.38.358a2.26,2.26,0,0,1-.279,3.31c-1.4,1.358-4.364,2.073-7.8.9a11.05,11.05,0,0,0,1.056,5.275,9.1,9.1,0,0,0,5.013,5.228c4.523,1.8,9.866-.513,9.918-.536a.454.454,0,0,1,.367.831,17.428,17.428,0,0,1-6.4,1.307m-9.8-13c3.129,1.127,5.783.543,7.021-.655a1.4,1.4,0,0,0,.235-2.051c-1.09-1.211-3.48-1.3-5.219-.2a4.715,4.715,0,0,0-2.037,2.9" transform="translate(-0.487 -17.93)" fill="#261d2a"/>
          <path id="Trazado_882118" data-name="Trazado 882118" d="M31.149,226.918s-3.835-5.268,2.773-11.69c4.567-4.439,15.942-9.858,20.5-1.18S39.8,239.132,31.149,226.918" transform="translate(-2.773 -19.334)" fill="#a17296"/>
          <path id="Trazado_882119" data-name="Trazado 882119" d="M34.175,230.973a.454.454,0,0,1-.28-.812c3.725-2.9,9.787-7.741,10.192-8.379a1.812,1.812,0,0,0-.3-.824,5.172,5.172,0,0,0-2.435-2.3c-.881-.073-5.935,4.1-10.1,8.027a.454.454,0,0,1-.623-.661c2.777-2.614,9.412-8.643,10.956-8.244a6.167,6.167,0,0,1,3.145,3.022,1.663,1.663,0,0,1,.172,1.381c-.366.789-7.428,6.343-10.447,8.694a.455.455,0,0,1-.279.1" transform="translate(-2.814 -20.103)" fill="#261d2a"/>
        </g>
      </g>
    </g>
    <g id="Grupo_1103603" data-name="Grupo 1103603" transform="translate(-43 348.042)">
      <rect id="Rectángulo_404156" data-name="Rectángulo 404156" width="248" height="106.916" transform="translate(247 1599.958)" fill="#5b2ccf"/>
    </g>
  </g>
</svg>
