<svg xmlns="http://www.w3.org/2000/svg" xmlns:xlink="http://www.w3.org/1999/xlink" width="295" height="306" viewBox="0 0 295 306">
  <defs>
    <clipPath id="clip-path">
      <rect id="Rect치ngulo_403965" data-name="Rect치ngulo 403965" width="280.102" height="258.722" fill="none"/>
    </clipPath>
  </defs>
  <g id="Grupo_1102892" data-name="Grupo 1102892" transform="translate(-180 -1971)">
    <rect id="Rect치ngulo_403940" data-name="Rect치ngulo 403940" width="295" height="306" transform="translate(180 1971)" fill="none"/>
    <g id="Grupo_1102891" data-name="Grupo 1102891" transform="translate(187 1995)">
      <g id="Grupo_1102890" data-name="Grupo 1102890" clip-path="url(#clip-path)">
        <path id="Trazado_880042" data-name="Trazado 880042" d="M208.081,161.882l-.014-.011a3.988,3.988,0,1,1,.014.011m4.284-5.553a2.914,2.914,0,0,0-3.572,4.6l.01.009a2.922,2.922,0,0,0,4.079-.524,2.917,2.917,0,0,0-.517-4.089" transform="translate(47.117 35.263)" fill="#261d2a"/>
        <path id="Trazado_880043" data-name="Trazado 880043" d="M52.686,60.978l-.014-.011a3.99,3.99,0,1,1,.014.011m4.284-5.553a2.914,2.914,0,0,0-3.572,4.6l.01.007a2.922,2.922,0,0,0,4.079-.523,2.917,2.917,0,0,0-.517-4.089" transform="translate(11.657 12.238)" fill="#261d2a"/>
        <path id="Trazado_880044" data-name="Trazado 880044" d="M206.272,20.76s-1.092-8.288,6.885-5.605,5.378,10.269,2.337,7.672,2.664-11.4,8.768-7.482,4.74,11.53.409,12.092,2.622-8.859,8.077-3.041-6.455,16.427-11.325,12.526-1.059-10.2.109-6.358-1.982,7.6-10.62,7.45-4.705-13.439-1.686-9.57-1.993,8.234-8.086,3.677S202,18.143,206.272,20.76" transform="translate(45.351 3.275)" fill="#fcfdff"/>
        <path id="Trazado_880045" data-name="Trazado 880045" d="M211.506,38.744l-.489,0a5.456,5.456,0,0,1-5.575-4.012,9.813,9.813,0,0,1-4.554-2c-3.543-2.649-3.128-6.786-1.146-9.711,1.43-2.108,3.812-3.665,5.981-3.09,0-1.314.248-3.567,1.815-4.857,1.36-1.12,3.355-1.247,5.931-.381a10.913,10.913,0,0,1,2.867,1.414,6.38,6.38,0,0,1,8.375-1.157A8.953,8.953,0,0,1,229.1,22a6.13,6.13,0,0,1,4.21,2.089c2.5,2.664,1.953,6.718-1.387,10.327-3.02,3.266-7.822,5.457-10.77,3.1a7.891,7.891,0,0,1-1-.952c-1.916,1.421-4.9,2.181-8.65,2.181m-4.759-3.973c.5,1.358,1.664,2.7,4.293,2.743,3.7.056,6.631-.617,8.393-1.938a5.9,5.9,0,0,1-.615-5.023c.383-1.042,1.071-1.684,1.8-1.684h.034c.409.012,1.158.239,1.582,1.631a5.242,5.242,0,0,1-.79,4.8,5.835,5.835,0,0,1-.375.448,6.657,6.657,0,0,0,.851.808c2.254,1.808,6.479-.136,9.1-2.972,2.282-2.467,3.845-6.035,1.392-8.654a4.826,4.826,0,0,0-3.339-1.712,7.029,7.029,0,0,1-.131.808,4.98,4.98,0,0,1-4.078,4.134c-1.432.183-1.848-.566-1.965-.9-.421-1.2.818-3.138,2.762-4.317a6.494,6.494,0,0,1,2.214-.861,7.759,7.759,0,0,0-3.831-6.109,5.13,5.13,0,0,0-6.764.911,5.984,5.984,0,0,1,1.891,3.791,3.21,3.21,0,0,1-1.438,3.2,2.249,2.249,0,0,1-2.526-.469c-1.732-1.479-1.147-4.293.335-6.361a9.84,9.84,0,0,0-2.469-1.2c-2.146-.721-3.747-.667-4.758.166-1.742,1.433-1.326,4.744-1.323,4.778a.614.614,0,0,1-.93.6c-1.739-1.07-3.985.356-5.308,2.307-1.656,2.443-2.03,5.876.863,8.038a9.028,9.028,0,0,0,3.579,1.711c-.254-2.558.726-5.345,2.23-6.045a1.88,1.88,0,0,1,2.394.771c1.392,1.782,1.389,3.855-.007,5.28a4.712,4.712,0,0,1-3.072,1.312M220.619,30.1c-.085,0-.4.214-.648.879a4.708,4.708,0,0,0,.377,3.735c.041-.05.08-.1.119-.151a3.992,3.992,0,0,0,.594-3.7c-.193-.634-.452-.787-.442-.76m-12.451-1.631a.494.494,0,0,0-.217.055c-.873.407-1.815,2.752-1.5,5.045a3.56,3.56,0,0,0,2.49-.968c.953-.971.921-2.377-.084-3.664-.3-.378-.528-.469-.69-.469m19.655-5.117A5.581,5.581,0,0,0,226.3,24c-1.632.99-2.388,2.434-2.239,2.86.028.079.258.134.647.085a3.786,3.786,0,0,0,3.037-3.185c.029-.131.055-.267.076-.408m-11.328-5.515c-1.274,1.813-1.489,3.783-.485,4.64a1.1,1.1,0,0,0,1.174.306,2.059,2.059,0,0,0,.768-2.014,4.708,4.708,0,0,0-1.457-2.932" transform="translate(45.235 3.162)" fill="#261d2a"/>
        <path id="Trazado_880046" data-name="Trazado 880046" d="M20.17,187.038s-1.092-8.288,6.885-5.605,5.378,10.269,2.337,7.673,2.664-11.4,8.768-7.482,4.74,11.53.409,12.093,2.622-8.86,8.077-3.042S40.19,207.1,35.321,203.2s-1.059-10.2.109-6.358-1.982,7.6-10.62,7.45-4.706-13.439-1.686-9.57-1.993,8.234-8.086,3.677.857-13.978,5.133-11.361" transform="translate(2.885 41.218)" fill="#fcfdff"/>
        <path id="Trazado_880047" data-name="Trazado 880047" d="M25.405,205.022c-.162,0-.324,0-.489,0a5.454,5.454,0,0,1-5.576-4.011,9.824,9.824,0,0,1-4.554-2c-3.543-2.65-3.128-6.788-1.145-9.714,1.428-2.105,3.812-3.662,5.98-3.088,0-1.314.248-3.568,1.815-4.859,1.36-1.119,3.355-1.248,5.931-.381a10.97,10.97,0,0,1,2.867,1.415,6.382,6.382,0,0,1,8.375-1.159A8.963,8.963,0,0,1,43,188.278a6.13,6.13,0,0,1,4.21,2.089c2.5,2.664,1.953,6.717-1.387,10.327-3.019,3.266-7.82,5.461-10.77,3.1a7.794,7.794,0,0,1-1-.952c-1.917,1.421-4.9,2.181-8.65,2.181m-4.759-3.973c.5,1.357,1.664,2.7,4.293,2.741,3.715.039,6.63-.617,8.392-1.937a5.9,5.9,0,0,1-.615-5.023c.389-1.06,1.107-1.711,1.839-1.684.408.011,1.157.238,1.581,1.629a5.243,5.243,0,0,1-.79,4.8c-.115.155-.242.3-.375.448a6.659,6.659,0,0,0,.851.808c2.254,1.807,6.479-.139,9.1-2.973,2.281-2.467,3.844-6.035,1.39-8.654a4.824,4.824,0,0,0-3.339-1.712,7.114,7.114,0,0,1-.131.811,4.98,4.98,0,0,1-4.078,4.133c-1.433.181-1.848-.567-1.965-.9-.421-1.2.819-3.138,2.763-4.318a6.5,6.5,0,0,1,2.213-.86,7.762,7.762,0,0,0-3.832-6.109,5.131,5.131,0,0,0-6.762.911,5.986,5.986,0,0,1,1.891,3.791,3.208,3.208,0,0,1-1.438,3.2,2.248,2.248,0,0,1-2.526-.469c-1.732-1.479-1.147-4.291.335-6.36a9.84,9.84,0,0,0-2.469-1.2c-2.147-.721-3.748-.666-4.758.166-1.742,1.432-1.326,4.745-1.323,4.778a.614.614,0,0,1-.93.6c-1.737-1.067-3.984.354-5.307,2.3-1.657,2.443-2.031,5.877.863,8.041a9.037,9.037,0,0,0,3.578,1.71c-.254-2.557.726-5.344,2.23-6.044a1.879,1.879,0,0,1,2.394.771c1.392,1.782,1.389,3.853-.007,5.279a4.71,4.71,0,0,1-3.07,1.313m13.871-4.676c-.085,0-.4.214-.648.881a4.708,4.708,0,0,0,.377,3.735c.041-.05.081-.1.119-.151a3.993,3.993,0,0,0,.594-3.705c-.192-.631-.4-.755-.442-.759m-12.451-1.63a.477.477,0,0,0-.217.055c-.873.407-1.815,2.752-1.5,5.044a3.557,3.557,0,0,0,2.49-.967,2.652,2.652,0,0,0-.084-3.664c-.3-.379-.528-.469-.69-.469m19.655-5.118a5.556,5.556,0,0,0-1.52.647c-1.632.99-2.389,2.435-2.24,2.86.028.081.26.135.648.086a3.786,3.786,0,0,0,3.036-3.185c.029-.131.055-.269.076-.409m-11.328-5.515c-1.274,1.814-1.489,3.783-.485,4.64a1.089,1.089,0,0,0,1.175.306,2.057,2.057,0,0,0,.766-2.013,4.706,4.706,0,0,0-1.457-2.933" transform="translate(2.768 41.105)" fill="#261d2a"/>
        <path id="Trazado_880048" data-name="Trazado 880048" d="M194.756,41.082h0l-2.375-.009,2.517-1.706a.615.615,0,0,0-.69-1.017l-3.395,2.3.075-3.966a.614.614,0,0,0-.6-.626h0a.615.615,0,0,0-.623.6l-.066,3.5-2.077-2.252a.614.614,0,1,0-.9.833l2.137,2.318-3.935-.014a.614.614,0,0,0-.01,1.227h.006l3.589.012-2.8,1.9a.614.614,0,0,0,.337,1.123.62.62,0,0,0,.352-.106L189.535,43l-.075,4a.614.614,0,0,0,.6.626h0a.617.617,0,0,0,.623-.6l.071-3.774,2.213,2.4a.614.614,0,0,0,.9-.833L191.558,42.3l3.191.011a.614.614,0,0,0,.007-1.228" transform="translate(42.031 8.228)" fill="#261d2a"/>
        <path id="Trazado_880049" data-name="Trazado 880049" d="M14.607,98.88h0l-2.375-.009,2.517-1.706a.615.615,0,0,0-.69-1.017l-3.395,2.3.075-3.966a.614.614,0,0,0-.6-.626h0a.615.615,0,0,0-.623.6l-.066,3.5L7.363,95.709a.614.614,0,1,0-.9.833L8.6,98.859l-3.935-.014a.614.614,0,0,0-.01,1.227h.006l3.589.012-2.8,1.9a.614.614,0,0,0,.337,1.123A.62.62,0,0,0,6.133,103L9.386,100.8l-.075,4a.614.614,0,0,0,.6.626h0a.617.617,0,0,0,.623-.6l.071-3.774,2.213,2.4a.614.614,0,0,0,.9-.833L11.409,100.1l3.191.011a.614.614,0,0,0,.007-1.228" transform="translate(0.923 21.417)" fill="#261d2a"/>
        <path id="Trazado_880050" data-name="Trazado 880050" d="M0,63.679S11.56,55,12.946,57.388s0,15.33,0,15.33S20.5,66.246,23.2,68.557s2.853,22.369,0,22.744S12.639,80.92,12.639,80.92s-5.7,8.131-7.553,5.744S0,63.679,0,63.679" transform="translate(0 13.001)" fill="#e8c01b"/>
        <path id="Trazado_880051" data-name="Trazado 880051" d="M202.416,167.689s12.105,7.9,10.339,10.015-14.407,5.243-14.407,5.243,8.667,4.886,7.416,8.209-20.044,10.33-21.372,7.777,6.143-13.471,6.143-13.471-9.59-2.579-7.98-5.134,19.86-12.639,19.86-12.639" transform="translate(41.616 38.265)" fill="#e8c01b"/>
        <path id="Trazado_880052" data-name="Trazado 880052" d="M163.254,14.443a.648.648,0,0,1-.166-.022L155.7,12.352a.614.614,0,0,1-.426-.757l2.1-7.5a.619.619,0,0,1,.758-.425l7.384,2.067a.613.613,0,0,1,.426.757l-2.1,7.5a.613.613,0,0,1-.591.448m-6.627-3.107,6.2,1.737L164.6,6.759l-6.2-1.737Z" transform="translate(35.428 0.833)" fill="#261d2a"/>
        <path id="Trazado_880053" data-name="Trazado 880053" d="M160.663,23.695a.641.641,0,0,1-.166-.022L153.112,21.6a.614.614,0,0,1-.426-.757l2.1-7.5a.615.615,0,0,1,.757-.425l7.384,2.067a.613.613,0,0,1,.426.757l-2.1,7.5a.614.614,0,0,1-.591.448m-6.629-3.107,6.2,1.737L162,16.011l-6.2-1.737Z" transform="translate(34.836 2.945)" fill="#261d2a"/>
        <path id="Trazado_880054" data-name="Trazado 880054" d="M154.272,30.163s8.234-28.372,8.179-29.2,12.956,2.636,16,9.417c3.352,7.476,15.84,6.05,15.223,13.2-.761,8.823-13.874,2.2-18.172,5-4.06,2.654-11.426,5.393-21.227,1.581" transform="translate(35.203 0.193)" fill="#76ada1"/>
        <path id="Trazado_880055" data-name="Trazado 880055" d="M182.227,14.973a.614.614,0,0,1-.162-.022L159.019,8.675a.614.614,0,0,1,.323-1.185l23.046,6.277a.614.614,0,0,1-.161,1.206" transform="translate(36.183 1.704)" fill="#261d2a"/>
        <path id="Trazado_880056" data-name="Trazado 880056" d="M179.69,24.119a.6.6,0,0,1-.161-.022l-23.181-6.263a.614.614,0,1,1,.319-1.185l23.182,6.264a.614.614,0,0,1-.16,1.206" transform="translate(35.573 3.794)" fill="#261d2a"/>
        <path id="Trazado_880057" data-name="Trazado 880057" d="M181.224,22.493a16.022,16.022,0,0,1-2.4-.19.614.614,0,0,1,.2-1.212c1.454.238,4.1.328,5-.432a.789.789,0,0,0,.3-.642c.018-1.759-3.421-2.89-4.627-3.147a.614.614,0,0,1-.472-.73.621.621,0,0,1,.728-.473c.576.124,5.63,1.291,5.6,4.361a2.019,2.019,0,0,1-.742,1.57,5.867,5.867,0,0,1-3.588.9" transform="translate(40.687 3.572)" fill="#261d2a"/>
        <path id="Trazado_880058" data-name="Trazado 880058" d="M166.656,15.94a.594.594,0,0,1-.166-.023l-7.178-2.009a.614.614,0,0,1,.332-1.183l7.176,2.011a.614.614,0,0,1-.165,1.2" transform="translate(36.251 2.898)" fill="#261d2a"/>
        <path id="Trazado_880059" data-name="Trazado 880059" d="M162.84,8.934a.594.594,0,0,1-.166-.023.613.613,0,0,1-.426-.757L163.7,2.971a.614.614,0,0,1,1.183.33l-1.452,5.184a.616.616,0,0,1-.591.448" transform="translate(37.018 0.576)" fill="#261d2a"/>
        <path id="Trazado_880060" data-name="Trazado 880060" d="M165.232,8.322a.594.594,0,0,1-.166-.023.613.613,0,0,1-.426-.757l.838-2.991a.614.614,0,0,1,1.183.33l-.838,2.992a.616.616,0,0,1-.591.448" transform="translate(37.564 0.936)" fill="#261d2a"/>
        <path id="Trazado_880061" data-name="Trazado 880061" d="M158.1,25.87a.641.641,0,0,1-.166-.022.615.615,0,0,1-.426-.758l1.452-5.182a.619.619,0,0,1,.757-.426.612.612,0,0,1,.426.757l-1.452,5.183a.616.616,0,0,1-.591.448" transform="translate(35.935 4.441)" fill="#261d2a"/>
        <path id="Trazado_880062" data-name="Trazado 880062" d="M160.488,25.258a.594.594,0,0,1-.166-.023.613.613,0,0,1-.426-.757l.838-2.989a.614.614,0,1,1,1.183.33l-.838,2.991a.616.616,0,0,1-.591.448" transform="translate(36.481 4.801)" fill="#261d2a"/>
        <path id="Trazado_880063" data-name="Trazado 880063" d="M159.722,4.583S156.769-.568,153.251.051s-9.892,3.25-10,3.983,6.088,8.968,9.261,8.9a10,10,0,0,0,5.35-1.7Z" transform="translate(32.687 0)" fill="#c45041"/>
        <path id="Trazado_880064" data-name="Trazado 880064" d="M156.752,15.189s-2.953-5.151-6.471-4.532-9.892,3.25-10,3.983,6.088,8.968,9.261,8.9a9.993,9.993,0,0,0,5.35-1.7Z" transform="translate(32.01 2.42)" fill="#c45041"/>
        <path id="Trazado_880065" data-name="Trazado 880065" d="M155.8,7.327s-.715,2.551-3.107,1.88S147.8,4.5,147.8,4.5s4.119-1.8,6.442-1.164c2.485.68,1.557,3.992,1.557,3.992" transform="translate(33.726 0.73)" fill="#e8c01b"/>
        <path id="Trazado_880066" data-name="Trazado 880066" d="M152.867,17.794s-.715,2.551-3.107,1.88-4.892-4.708-4.892-4.708,4.119-1.8,6.442-1.166c2.485.682,1.557,3.993,1.557,3.993" transform="translate(33.057 3.118)" fill="#e8c01b"/>
        <path id="Trazado_880067" data-name="Trazado 880067" d="M19.335,159.254s-3.558-9.53-1.778-8.768,7.529,3.667,7.529,3.667,6.194-4.289,6.576-3.71-.508,8.43-.508,8.43,7.623,4.065,6.226,4.956-8.386,1.652-8.386,1.652-2.652,9.784-3.907,8.8c-1.912-1.5-3.59-7.529-3.59-7.529s-8.016-.126-7.762-1.4,5.6-6.1,5.6-6.1" transform="translate(3.132 34.317)" fill="#e8c01b"/>
        <path id="Trazado_880068" data-name="Trazado 880068" d="M213.961,53.1s-3.558-9.53-1.778-8.768S219.711,48,219.711,48s6.194-4.289,6.576-3.71-.508,8.43-.508,8.43S233.4,56.788,232,57.678s-8.386,1.652-8.386,1.652-2.652,9.784-3.907,8.8c-1.912-1.5-3.59-7.529-3.59-7.529s-8.016-.127-7.762-1.4,5.6-6.1,5.6-6.1" transform="translate(47.544 10.095)" fill="#e8c01b"/>
        <path id="Trazado_880069" data-name="Trazado 880069" d="M6.942,134.685s2.079-7.071,2.646-6.207a59.337,59.337,0,0,1,2.267,5.6s5.983,2.017,5.825,2.421-5.367,2.52-5.367,2.52-1.686,6.151-2.631,5.545S7.1,139.055,7.1,139.055s-5.355-.517-4.694-1.738,4.536-2.632,4.536-2.632" transform="translate(0.536 29.3)" fill="#e8c01b"/>
        <path id="Trazado_880070" data-name="Trazado 880070" d="M170.921,108.216c13.338-8.487,18.5-27.477,2.015-32.2s19-22.4-9.532-34.912S134.44,46,134.44,46c-13.1-20.546-54.01-7.234-50.093,8.669S60.17,62.252,66.229,82.86c5.194,17.666,20.86,23.808,8.432,28s-.9,20.721,27.72,30.249,26.621-20.135,25.708-4.015,23.04,16.294,44.618-2.719-15.124-17.67-1.786-26.157" transform="translate(14.917 8.104)" fill="#403955"/>
        <path id="Trazado_880071" data-name="Trazado 880071" d="M149.5,65.225a.627.627,0,0,1-.3-.079c-6.916-3.907-5.985-10.07-5.236-15.022.651-4.318.851-6.6-2.173-7.211a12.609,12.609,0,0,0-12.406,4.512.614.614,0,0,1-.991-.726,14.093,14.093,0,0,1,13.64-4.99c4.311.871,3.744,4.624,3.143,8.6-.727,4.818-1.552,10.28,4.628,13.768a.615.615,0,0,1-.3,1.15" transform="translate(29.27 9.452)" fill="#fcfdff"/>
        <path id="Trazado_880072" data-name="Trazado 880072" d="M101.371,74.812a.614.614,0,0,1-.259-1.172c4.441-2.058,6.756-3.906,7.081-5.647.314-1.7-1.351-3.416-3.112-5.233-2.092-2.157-4.461-4.6-4.323-7.779.365-8.414,12.777-10.163,13.3-10.233a.614.614,0,1,1,.163,1.217c-.119.016-11.921,1.681-12.241,9.069-.115,2.65,1.966,4.8,3.978,6.87,1.988,2.052,3.869,3.992,3.438,6.314-.407,2.19-2.876,4.267-7.771,6.538a.623.623,0,0,1-.258.056" transform="translate(22.99 10.21)" fill="#fcfdff"/>
        <path id="Trazado_880073" data-name="Trazado 880073" d="M78.173,124.928a.615.615,0,0,1-.549-.338,7.124,7.124,0,0,1-.577-5.644c1.449-4.267,7.224-7.051,11.442-9.085,1.869-.9,4.693-2.262,4.629-2.824,0-.028-.12-.677-4-1.556C79.094,103.209,73.646,91.57,75.028,82.544c.91-5.946,4.543-9.24,9.746-8.822,6.675.542,10.254-.045,11.606-1.9,1.415-1.942.793-5.625-2.143-12.714-2.569-6.2-2.571-10.914,0-14,5.211-6.269,18.979-3.429,19.564-3.306a.614.614,0,1,1-.254,1.2c-.136-.028-13.63-2.811-18.366,2.89-2.254,2.712-2.189,7,.193,12.747,2.639,6.373,3.99,11.177,2,13.908-1.654,2.272-5.452,2.991-12.7,2.4-6.457-.5-8.046,5.27-8.432,7.785-1.3,8.49,3.78,19.431,13.15,21.555,3.39.769,4.822,1.525,4.946,2.614.162,1.427-2.017,2.48-5.317,4.07-4.021,1.939-9.528,4.595-10.812,8.373a5.871,5.871,0,0,0,.511,4.7.614.614,0,0,1-.271.824.622.622,0,0,1-.276.066" transform="translate(17.072 9.367)" fill="#fcfdff"/>
        <path id="Trazado_880074" data-name="Trazado 880074" d="M156.859,130.066c-9.58-3.94-17.494,1.175-19.832-2.27-1.1-1.618-.679-6.848.072-11.942,8.47.561,15.045-2.8,16.638-10.021,1.6-7.257-2.14-13.008-1.787-18.546s6.317-.072,8.4-5.451.916-10.324-18.287-25.309-26.847-3.252-26.847-3.252c-2.109,1.708,5.885,26.094-1.873,28.447-13.435,4.076-21.653,5.036-3.6,21.218q1.649,1.479,3.343,2.787c.352,8.085.658,18.813-.05,21.507-1.175,4.461-16.012,2-16.4,12.3s34.577,29.932,52.725,24.106c27.254-8.752,22.525-27.389,7.5-33.571" transform="translate(22.05 11.16)" fill="#9f543d"/>
        <path id="Trazado_880075" data-name="Trazado 880075" d="M135.354,75.011c-.06,0-.12,0-.182-.006-4.272-.318-6.629-9.448-6.884-10.489a.615.615,0,0,1,1.194-.292c.634,2.585,2.908,9.342,5.781,9.555a.7.7,0,0,0,.676-.268c1.167-1.464-.069-7.437-1.123-10.857a.614.614,0,0,1,1.174-.362c.3.969,2.86,9.537.908,11.985a1.9,1.9,0,0,1-1.544.734" transform="translate(29.27 14.115)" fill="#261d2a"/>
        <path id="Trazado_880076" data-name="Trazado 880076" d="M124.562,78.751c-.06,0-.12,0-.182-.006-4.272-.318-6.629-9.448-6.884-10.489a.615.615,0,0,1,1.194-.292c.634,2.585,2.908,9.342,5.781,9.555a.7.7,0,0,0,.674-.268c1.168-1.464-.069-7.437-1.123-10.858a.615.615,0,0,1,1.175-.361c.3.969,2.86,9.537.908,11.986a1.9,1.9,0,0,1-1.544.733" transform="translate(26.807 14.968)" fill="#261d2a"/>
        <path id="Trazado_880077" data-name="Trazado 880077" d="M111.472,88.88a2.716,2.716,0,0,1-1.126-.257,3.438,3.438,0,0,1-2.116-4.1,3.2,3.2,0,0,1,2.981-2.606.615.615,0,0,1,.576.65.6.6,0,0,1-.65.576,2.035,2.035,0,0,0-1.715,1.675,2.214,2.214,0,0,0,1.431,2.685,1.259,1.259,0,0,0,1.38-.135,3.538,3.538,0,0,0,.916-3.285,4.2,4.2,0,0,0-3.127-3.305c-5.088-1.571-6.673,2.222-6.738,2.384a.614.614,0,0,1-1.142-.45c.02-.05,2.042-5.025,8.242-3.107a5.468,5.468,0,0,1,3.973,4.254,4.743,4.743,0,0,1-1.368,4.478,2.438,2.438,0,0,1-1.518.54" transform="translate(23.298 18.065)" fill="#261d2a"/>
        <path id="Trazado_880078" data-name="Trazado 880078" d="M134.664,105.909c-10.022,0-18.228-9.086-18.6-9.507a.614.614,0,0,1,.917-.816c.095.107,9.66,10.68,20.2,8.882a.615.615,0,0,1,.208,1.212,16.2,16.2,0,0,1-2.718.228" transform="translate(26.449 21.765)" fill="#261d2a"/>
        <path id="Trazado_880079" data-name="Trazado 880079" d="M127.031,86.534s-1.4-5.492,5.741-4.779,7.481,17.613.465,17.81-6.206-13.031-6.206-13.031" transform="translate(28.962 18.641)" fill="#c45041"/>
        <path id="Trazado_880080" data-name="Trazado 880080" d="M133.19,93.084c-3.947,0-8.151-9.441-8.633-10.553a.614.614,0,1,1,1.127-.486c1.731,4,5.341,10.167,7.7,9.795,1.038-.174,2.89-1.944,3.623-11.823a.606.606,0,0,1,.658-.567.615.615,0,0,1,.566.66c-.623,8.4-2.1,12.513-4.644,12.943a2.6,2.6,0,0,1-.4.032" transform="translate(28.411 18.129)" fill="#261d2a"/>
        <path id="Trazado_880081" data-name="Trazado 880081" d="M213.107,98.687s10.319-16.535,1.581-33.955c-8.46-16.859-8.16-4.595-6.24-.873-.242-.468-2.569-7.013-7.691-7.54-2.315-.238-2.343,2.924-.976,6.89-1.323-3.381-3.521-6.434-7.187-7.38-9.442-2.436,3.951,12.176,4.331,18.635,0,0-12.252-10.554-18.032-3.336-11.545,14.42,16.723-2.342,12.51,12.639-4.263,15.161-16.883-14.773-17.952-.963-.75,9.677,11.072,12.206,11.452,14.866.167,1.172,3.283,6.626,5.162,8.031,4.178,10.453,11.921,25.545,11.3,28.337-.874,3.957-37.982-5.149-43.71-5.9s-5.009,33.982-5.009,33.982,52.368,13.275,72.712.714-12.254-64.146-12.254-64.146" transform="translate(34.826 12.678)" fill="#9f543d"/>
        <path id="Trazado_880082" data-name="Trazado 880082" d="M133.807,128.026c-.582,0-1.13-.687-2.225-2.058-2.712-3.393-8.357-10.457-16.848-7.924a.614.614,0,0,1-.35-1.178c9.281-2.765,15.277,4.732,18.158,8.336.321.4.666.834.943,1.152,0-.093-.009-.2-.017-.317-.4-5.739,5.637-7.768,8.885-8.04a.614.614,0,1,1,.1,1.223c-.333.029-8.176.766-7.761,6.73.064.919.068,1.762-.577,2.013a.828.828,0,0,1-.308.063" transform="translate(26.001 26.531)" fill="#261d2a"/>
        <path id="Trazado_880083" data-name="Trazado 880083" d="M110.937,117.479a253.929,253.929,0,0,0,31.422,20.732c16.874,9.227,12.26-25.279,15.793-24.387,5.679,1.433,49.543-2.176,49.815,6.923s11.177,48.027,4.112,47.177-18.031-3.7-19.631,0,8.849,52.059.308,55.759-81.29,5.818-89.151,4.624-.424-60.557-3.22-63.381-16.646,15.449-21.27,10.012-4.1-24.467-11.991-34.6,30.582-33.266,43.812-22.857" transform="translate(15.076 25.97)" fill="#76ada1"/>
        <path id="Trazado_880084" data-name="Trazado 880084" d="M158.061,172.526a.614.614,0,0,1-.3-1.151c8.5-4.7,12.944-9.915,13.207-15.5.4-8.524-9.2-15.179-9.3-15.245a.614.614,0,0,1,.693-1.014c.419.286,10.26,7.1,9.832,16.312-.281,6.043-4.937,11.6-13.84,16.524a.611.611,0,0,1-.3.076" transform="translate(35.928 31.834)" fill="#261d2a"/>
        <path id="Trazado_880085" data-name="Trazado 880085" d="M142.7,145.035c-.27,0-.542-.013-.818-.039-12.842-1.259-39.754-22.483-40.894-23.386a.614.614,0,0,1,.763-.962c.276.217,27.768,21.9,40.251,23.124a6.63,6.63,0,0,0,5.219-1.755c7.216-6.294,8.08-26.734,8.088-26.94a.674.674,0,0,1,.637-.59.614.614,0,0,1,.59.637c-.033.862-.9,21.179-8.506,27.818a7.938,7.938,0,0,1-5.329,2.092" transform="translate(22.99 26.125)" fill="#261d2a"/>
        <path id="Trazado_880086" data-name="Trazado 880086" d="M195.573,78.785h-.037a.613.613,0,0,1-.577-.647c.215-3.8.027-14.059-3.387-15.9a.615.615,0,0,1,.583-1.082c4.8,2.584,4.063,16.459,4.03,17.047a.615.615,0,0,1-.612.58" transform="translate(43.641 13.939)" fill="#261d2a"/>
        <path id="Trazado_880087" data-name="Trazado 880087" d="M200.628,77.553a.6.6,0,0,1-.348-.108.614.614,0,0,1-.157-.855c3.043-4.415-2.415-14.78-2.471-14.884a.615.615,0,0,1,1.084-.578c.241.452,5.863,11.131,2.4,16.161a.612.612,0,0,1-.506.265" transform="translate(45.086 13.874)" fill="#261d2a"/>
        <path id="Trazado_880088" data-name="Trazado 880088" d="M194.555,134.935a.606.606,0,0,1-.349-.108.615.615,0,0,1-.157-.855c3.043-4.415-2.415-14.78-2.471-14.884a.615.615,0,0,1,1.085-.578c.241.452,5.863,11.131,2.4,16.161a.611.611,0,0,1-.5.265" transform="translate(43.699 26.968)" fill="#261d2a"/>
        <path id="Trazado_880089" data-name="Trazado 880089" d="M185.909,98.376a5.165,5.165,0,0,1-1.738-.3c-4.216-1.495-5.657-8.089-5.717-8.37a.614.614,0,0,1,1.2-.254c.012.061,1.358,6.2,4.928,7.466,1.707.61,3.724-.016,5.99-1.852a.614.614,0,0,1,.773.954,8.9,8.9,0,0,1-5.437,2.353" transform="translate(40.718 20.302)" fill="#261d2a"/>
        <path id="Trazado_880090" data-name="Trazado 880090" d="M212.309,143.451a.615.615,0,0,1-.612-.56c-.4-4.58,3.7-8.486,3.87-8.65a.614.614,0,0,1,.841.894c-.038.037-3.839,3.669-3.488,7.648a.612.612,0,0,1-.558.666l-.054,0" transform="translate(48.301 30.594)" fill="#261d2a"/>
        <path id="Trazado_880091" data-name="Trazado 880091" d="M145.809,118.117a.615.615,0,0,1-.21-1.193c1.345-.484,4.882-2.184,5.107-4.2.122-1.1-.758-2.252-2.61-3.432a6.137,6.137,0,0,1-2.951-4.267c-.857-5.185,4.618-12.007,7.56-15.67.458-.571.852-1.062,1.15-1.457a2.417,2.417,0,0,0,.473-1.937c-.451-2.771-4.582-5.641-4.624-5.671a.614.614,0,1,1,.7-1.012c.188.129,4.608,3.2,5.14,6.486a3.637,3.637,0,0,1-.7,2.872c-.3.4-.707.905-1.173,1.487-2.821,3.514-8.073,10.058-7.308,14.7a4.9,4.9,0,0,0,2.4,3.43c2.282,1.454,3.348,3,3.17,4.606-.356,3.19-5.683,5.14-5.91,5.222a.639.639,0,0,1-.206.036" transform="translate(33.1 18.065)" fill="#fcfdff"/>
        <path id="Trazado_880092" data-name="Trazado 880092" d="M96.1,115.324a16.629,16.629,0,0,1-3.483-.365.614.614,0,0,1,.28-1.2c.058.012,5.82,1.314,8.758-1.389,1.5-1.38,2.034-3.624,1.586-6.663-.578-3.936-3.8-7.584-6.913-11.11-3.646-4.128-7.089-8.029-6.366-12.3.52-3.057,3.176-5.892,8.121-8.662a.615.615,0,0,1,.6,1.072c-4.6,2.578-7.058,5.128-7.512,7.8-.625,3.689,2.628,7.375,6.075,11.278,3.234,3.661,6.577,7.447,7.209,11.743.511,3.471-.154,6.077-1.974,7.75a9.4,9.4,0,0,1-6.383,2.044" transform="translate(20.506 16.786)" fill="#fcfdff"/>
        <path id="Trazado_880093" data-name="Trazado 880093" d="M112.728,175.957a21.631,21.631,0,0,1-9.168-1.879c-5.948-2.767-9.894-8.545-11.729-17.174a.614.614,0,0,1,1.2-.254c1.75,8.23,5.465,13.719,11.046,16.313,10.974,5.1,25.669-2.625,25.817-2.706a.615.615,0,0,1,.578,1.084c-.464.247-8.773,4.616-17.745,4.616" transform="translate(20.952 35.635)" fill="#261d2a"/>
        <path id="Trazado_880094" data-name="Trazado 880094" d="M138.951,204.364c-15.172,0-28.576-1.092-29.653-1.182a.614.614,0,1,1,.1-1.223c.517.043,51.955,4.231,68.6-3.742a.614.614,0,1,1,.531,1.108c-8.362,4-24.809,5.039-39.582,5.039" transform="translate(24.812 45.217)" fill="#261d2a"/>
        <path id="Trazado_880095" data-name="Trazado 880095" d="M126.41,151.456s13.058-9.791,26.4-3.793c8.091,3.637-2.733,32.5-7.282,32.4-4.344-.1-32-21.143-19.123-28.6" transform="translate(28.072 33.251)" fill="#eeebd5"/>
        <path id="Trazado_880096" data-name="Trazado 880096" d="M127.421,156.456s13.3-3.467,11.041,7.745c0,0-9.656,5.317-11.041-7.745" transform="translate(29.076 35.586)" fill="#403955"/>
        <path id="Trazado_880097" data-name="Trazado 880097" d="M146.547,150.8s6.7,12-4.715,12.637c0,0-7.577-8.005,4.715-12.637" transform="translate(31.837 34.412)" fill="#403955"/>
        <path id="Trazado_880098" data-name="Trazado 880098" d="M77.276,243.432S21.664,92.55,25.271,88.764,86.3,67,86.3,67l54.1,152.658Z" transform="translate(5.728 15.29)" fill="#eeebd5"/>
        <path id="Trazado_880099" data-name="Trazado 880099" d="M72.714,208.806,58.446,169.965c3.628-2.155,49.583-20.4,49.583-20.4l12.989,40.233Z" transform="translate(13.337 34.128)" fill="#a17296"/>
        <path id="Trazado_880100" data-name="Trazado 880100" d="M57.73,168.307,44.313,131.329c3.627-2.155,50.464-19.2,50.464-19.2l13.277,37.985Z" transform="translate(10.112 25.587)" fill="#be607a"/>
        <path id="Trazado_880101" data-name="Trazado 880101" d="M44.731,130.352l-14.4-40.011C33.962,88.185,80.75,74.063,80.75,74.063l14.124,40.676Z" transform="translate(6.922 16.9)" fill="#c45041"/>
        <path id="Trazado_880102" data-name="Trazado 880102" d="M54.335,122.837a30.431,30.431,0,0,0-4.378-1.373c2.542-.355,4.549-1.082,3.5-3.364-2.187-4.744-8.192-3.919-8.192-3.919s11.743-9.921-6.593-6.812-15.006,12.585-15.006,12.585c-.478,20.993,19.014,17.507,19.014,17.507.268-10.252,19.475-11.592,11.659-14.624" transform="translate(5.345 24.363)" fill="#9f543d"/>
        <path id="Trazado_880103" data-name="Trazado 880103" d="M28.912,121.694a.611.611,0,0,1-.614-.6c0-.311.084-7.618,15.194-8.747a.615.615,0,0,1,.091,1.226c-13.863,1.035-14.057,7.447-14.057,7.512a.617.617,0,0,1-.613.614Z" transform="translate(6.457 25.635)" fill="#261d2a"/>
        <path id="Trazado_880104" data-name="Trazado 880104" d="M33.381,127.575a.554.554,0,0,1-.134-.016.614.614,0,0,1-.467-.731c.021-.092,2.135-9.135,12.625-8.6a.614.614,0,0,1,.583.644.607.607,0,0,1-.645.582c-9.432-.44-11.29,7.308-11.364,7.639a.613.613,0,0,1-.6.48" transform="translate(7.477 26.973)" fill="#261d2a"/>
        <path id="Trazado_880105" data-name="Trazado 880105" d="M47.253,117.381a.614.614,0,0,1-.495-.976l25.035-34.34a.614.614,0,1,1,.991.725l-25.035,34.34a.612.612,0,0,1-.5.252" transform="translate(10.643 18.669)" fill="#fcfdff"/>
        <path id="Trazado_880106" data-name="Trazado 880106" d="M56.722,156.466a.606.606,0,0,1-.35-.111.613.613,0,0,1-.154-.855l24.145-34.685a.614.614,0,0,1,1.007.7L57.227,156.2a.615.615,0,0,1-.5.263" transform="translate(12.803 27.509)" fill="#fcfdff"/>
        <path id="Trazado_880107" data-name="Trazado 880107" d="M72.154,197.3a.615.615,0,0,1-.486-.99L99.8,159.8a.614.614,0,1,1,.973.75L72.64,197.059a.613.613,0,0,1-.486.238" transform="translate(16.325 36.409)" fill="#fcfdff"/>
        <path id="Trazado_880108" data-name="Trazado 880108" d="M159.076,120.044a.6.6,0,0,1-.354-.113,3.132,3.132,0,0,0-3.875-.14.614.614,0,0,1-.8-.933,4.364,4.364,0,0,1,5.382.071.614.614,0,0,1-.355,1.115" transform="translate(35.104 26.92)" fill="#fcfdff"/>
        <path id="Trazado_880109" data-name="Trazado 880109" d="M161.747,123.6a.608.608,0,0,1-.354-.113,3.129,3.129,0,0,0-3.875-.141.614.614,0,0,1-.8-.933,4.367,4.367,0,0,1,5.383.072.614.614,0,0,1-.356,1.115" transform="translate(35.713 27.732)" fill="#fcfdff"/>
        <path id="Trazado_880110" data-name="Trazado 880110" d="M165.892,120.256a.6.6,0,0,1-.354-.113,3.128,3.128,0,0,0-3.875-.14.614.614,0,0,1-.8-.933,4.361,4.361,0,0,1,5.382.071.614.614,0,0,1-.355,1.115" transform="translate(36.659 26.968)" fill="#fcfdff"/>
        <path id="Trazado_880111" data-name="Trazado 880111" d="M169.292,123.655a.6.6,0,0,1-.354-.113,3.142,3.142,0,0,0-3.872-.144.614.614,0,0,1-.8-.931,4.367,4.367,0,0,1,5.382.072.614.614,0,0,1-.355,1.115" transform="translate(37.435 27.744)" fill="#fcfdff"/>
        <path id="Trazado_880112" data-name="Trazado 880112" d="M165.156,126.878a.608.608,0,0,1-.354-.113,3.127,3.127,0,0,0-3.875-.141.614.614,0,0,1-.8-.933,4.369,4.369,0,0,1,5.383.072.614.614,0,0,1-.356,1.115" transform="translate(36.491 28.479)" fill="#fcfdff"/>
        <path id="Trazado_880113" data-name="Trazado 880113" d="M173.6,120.825a.615.615,0,0,1-.355-.113,3.132,3.132,0,0,0-3.87-.144.614.614,0,1,1-.8-.931,4.363,4.363,0,0,1,5.382.072.614.614,0,0,1-.355,1.115" transform="translate(38.418 27.098)" fill="#fcfdff"/>
        <path id="Trazado_880114" data-name="Trazado 880114" d="M175.615,125.16a.61.61,0,0,1-.472-.22c-1.831-2.186-3.715-1.342-3.734-1.335a.614.614,0,0,1-.518-1.113c.946-.442,3.251-.661,5.194,1.659a.614.614,0,0,1-.47,1.008" transform="translate(38.914 27.887)" fill="#fcfdff"/>
        <path id="Trazado_880115" data-name="Trazado 880115" d="M46.913,20.383c-3.675-2.94-26.889,4.557-37.391,23.708,0,0,2.024,1.227,4.964,2.986,4.146-5.3,16.394-19.6,32.665-26.487-.08-.068-.16-.144-.238-.206" transform="translate(2.173 4.51)" fill="#be607a"/>
        <path id="Trazado_880116" data-name="Trazado 880116" d="M46.229,20.436c-16.27,6.886-28.517,21.187-32.665,26.488,2.2,1.314,4.9,2.924,7.668,4.547C25.669,44.808,37.337,28.7,49.337,23.822a22.545,22.545,0,0,0-3.109-3.386" transform="translate(3.095 4.663)" fill="#a17296"/>
        <path id="Trazado_880117" data-name="Trazado 880117" d="M50.28,26.562c-.679-1.05-1.491-2.233-2.367-3.369-12,4.875-23.668,20.985-28.107,27.649,2.94,1.726,5.938,3.46,8.45,4.864,2.3-5.544,9.258-20.135,22.024-29.144" transform="translate(4.52 5.292)" fill="#76ada1"/>
        <path id="Trazado_880118" data-name="Trazado 880118" d="M48.71,25.936c-12.766,9.009-19.728,23.6-22.024,29.144A38.176,38.176,0,0,0,32.708,58.1c2.138.278,5.319-16.632,17.978-28.9,0,0-.785-1.423-1.976-3.263" transform="translate(6.089 5.918)" fill="#d37e3a"/>
        <path id="Trazado_880119" data-name="Trazado 880119" d="M13.678,47.652a.608.608,0,0,1-.348-.108.615.615,0,0,1-.158-.854c.119-.173,12.071-17.309,32.919-26.7a.614.614,0,0,1,.5,1.12C26.07,30.355,14.3,47.217,14.185,47.385a.617.617,0,0,1-.507.267" transform="translate(2.981 4.549)" fill="#261d2a"/>
        <path id="Trazado_880120" data-name="Trazado 880120" d="M19.921,51.562a.605.605,0,0,1-.337-.1.614.614,0,0,1-.176-.851c.685-1.039,16.916-25.48,29.472-27.874a.615.615,0,0,1,.231,1.207C37.063,26.24,20.6,51.036,20.434,51.286a.612.612,0,0,1-.513.276" transform="translate(4.406 5.186)" fill="#261d2a"/>
        <path id="Trazado_880121" data-name="Trazado 880121" d="M26.8,55.808a.614.614,0,0,1-.574-.838c.075-.189,7.547-19.026,22.241-29.423a.614.614,0,1,1,.709,1c-14.387,10.179-21.732,28.679-21.8,28.866a.616.616,0,0,1-.572.391" transform="translate(5.975 5.804)" fill="#261d2a"/>
        <path id="Trazado_880122" data-name="Trazado 880122" d="M37.49,20S39.785,7.019,43.539,9.224c3.568,2.1,6.673,9.4,6.673,9.4s10.093-1.3,9.94.811-5.068,7.48-5.068,7.48,4.353,11.578,3.416,13.7-12.867-5.688-12.867-5.688-8.369,7.774-9.756,7.2.827-12.384.827-12.384S26.5,24.808,28.229,22.824,37.49,20,37.49,20" transform="translate(6.396 2.047)" fill="#e8c01b"/>
        <path id="Trazado_880123" data-name="Trazado 880123" d="M37.6,20.686a.561.561,0,0,1-.127-.014.614.614,0,0,1-.475-.727c.163-.775,1.625-7.628,2.89-9.063a.614.614,0,1,1,.921.811c-.792.9-2.02,5.693-2.609,8.5a.616.616,0,0,1-.6.489" transform="translate(8.439 2.436)" fill="#fcfdff"/>
        <path id="Trazado_880124" data-name="Trazado 880124" d="M67.751,38.047a.6.6,0,0,1-.168-.023,11.039,11.039,0,0,1-2.4-.986.614.614,0,0,1,.6-1.072,9.771,9.771,0,0,0,2.131.876.615.615,0,0,1-.165,1.206m-4.23-2.393a.611.611,0,0,1-.427-.172,10.516,10.516,0,0,1-1.629-2.027.614.614,0,1,1,1.043-.647A9.355,9.355,0,0,0,63.948,34.6a.615.615,0,0,1,.014.868.606.606,0,0,1-.44.187m26.185-2.432c-.091,0-.182,0-.276-.011a3.53,3.53,0,0,1-2.2-.92.614.614,0,0,1,.83-.9,2.335,2.335,0,0,0,1.458.6c.065,0,.127.007.185.007l.16-.006a.615.615,0,1,1,.09,1.226c-.08.006-.165.009-.249.009m2.208-1.248a.621.621,0,0,1-.328-.095.614.614,0,0,1-.19-.847,4.945,4.945,0,0,0,.642-2.067.608.608,0,0,1,.683-.537.614.614,0,0,1,.538.68,6.149,6.149,0,0,1-.825,2.58.615.615,0,0,1-.52.285m-30.981-.441a.617.617,0,0,1-.58-.41,13.87,13.87,0,0,1-.615-2.492.614.614,0,0,1,.516-.7.608.608,0,0,1,.7.515,12.619,12.619,0,0,0,.56,2.27.616.616,0,0,1-.376.784.624.624,0,0,1-.2.034M86.5,30.324a.614.614,0,0,1-.6-.47,9.122,9.122,0,0,1-.232-2.128c0-.158,0-.317.01-.48a.624.624,0,0,1,.637-.591.614.614,0,0,1,.59.639c0,.146-.009.291-.009.432a7.926,7.926,0,0,0,.2,1.84.614.614,0,0,1-.452.742.649.649,0,0,1-.145.017M92.654,27.2a.614.614,0,0,1-.61-.556,16.963,16.963,0,0,0-.4-2.338.614.614,0,0,1,1.2-.285,18.049,18.049,0,0,1,.424,2.508.615.615,0,0,1-.554.669l-.058,0M60.172,26.7h0a.616.616,0,0,1-.61-.62,17.88,17.88,0,0,1,.206-2.531.614.614,0,0,1,1.215.184,16.559,16.559,0,0,0-.193,2.359.612.612,0,0,1-.614.608m64.224-.59a3.192,3.192,0,0,1-.474-.037c-.084-.012-.169-.028-.254-.048a.614.614,0,1,1,.264-1.2c.056.012.114.023.173.031a1.3,1.3,0,0,0,1.38-.547.614.614,0,0,1,.985.734,2.513,2.513,0,0,1-2.074,1.065m-37.788-.666a.561.561,0,0,1-.126-.014.614.614,0,0,1-.477-.726,21.618,21.618,0,0,1,.669-2.44.614.614,0,1,1,1.163.393,19.608,19.608,0,0,0-.629,2.3.615.615,0,0,1-.6.49m35.2-.734a.611.611,0,0,1-.5-.262,5.849,5.849,0,0,1-.938-2.551.614.614,0,1,1,1.215-.174,4.671,4.671,0,0,0,.728,2.02.614.614,0,0,1-.5.967m4.942-1.719a.64.64,0,0,1-.068,0,.614.614,0,0,1-.544-.677,9.237,9.237,0,0,0,.052-1,12.823,12.823,0,0,0-.072-1.323.614.614,0,0,1,1.221-.129,14.009,14.009,0,0,1,.08,1.452,10.367,10.367,0,0,1-.059,1.132.614.614,0,0,1-.609.548m-35.22-.567a.613.613,0,0,1-.576-.4,22.24,22.24,0,0,0-.942-2.194.614.614,0,1,1,1.1-.548,23.327,23.327,0,0,1,1,2.319.615.615,0,0,1-.365.788.645.645,0,0,1-.212.037m-30.622-.564a.625.625,0,0,1-.174-.026.614.614,0,0,1-.415-.763,18.937,18.937,0,0,1,.883-2.381.614.614,0,1,1,1.12.5,17.629,17.629,0,0,0-.825,2.225.613.613,0,0,1-.588.441M88.161,20.8a.629.629,0,0,1-.254-.055.614.614,0,0,1-.3-.813c.34-.75.725-1.5,1.142-2.237a.477.477,0,0,1,.026-.042,20.257,20.257,0,0,0-1.336-1.829.614.614,0,0,1,.949-.78,21.493,21.493,0,0,1,1.485,2.045.617.617,0,0,1-.016.688.614.614,0,0,1-.041.524c-.4.7-.766,1.422-1.092,2.138a.613.613,0,0,1-.559.36m32.789-.818a.536.536,0,0,1-.063,0,.614.614,0,0,1-.549-.673,15.572,15.572,0,0,1,.479-2.51.614.614,0,1,1,1.185.324,14.233,14.233,0,0,0-.442,2.311.615.615,0,0,1-.61.551m5.338-1.853a.614.614,0,0,1-.594-.464,20.54,20.54,0,0,0-.72-2.275.614.614,0,0,1,1.147-.436,21.982,21.982,0,0,1,.764,2.411.613.613,0,0,1-.446.744.58.58,0,0,1-.151.02m-63.37-.732a.605.605,0,0,1-.325-.093.613.613,0,0,1-.194-.846A17.266,17.266,0,0,1,63.9,14.4a.613.613,0,1,1,.933.8,16.544,16.544,0,0,0-1.4,1.909.615.615,0,0,1-.521.287m27.664-.866a.6.6,0,0,1-.346-.108.612.612,0,0,1-.158-.854c.469-.683.976-1.358,1.506-2a.614.614,0,0,1,.951.777c-.508.621-.994,1.267-1.444,1.922a.612.612,0,0,1-.507.267M152.7,16.52a.614.614,0,0,1-.594-.464,18.68,18.68,0,0,0-.777-2.249.614.614,0,0,1,1.137-.465,19.552,19.552,0,0,1,.831,2.416.614.614,0,0,1-.446.744.636.636,0,0,1-.151.018M122.22,15.247a.589.589,0,0,1-.24-.049.612.612,0,0,1-.325-.8,21.212,21.212,0,0,1,1.126-2.264.61.61,0,0,1,.434-.3c-.141-.23-.286-.453-.435-.673a.614.614,0,1,1,1.017-.688,21.863,21.863,0,0,1,1.291,2.173.614.614,0,1,1-1.091.566c-.065-.127-.133-.253-.2-.38a20.106,20.106,0,0,0-1.01,2.045.615.615,0,0,1-.566.373m-35.988-.994a.61.61,0,0,1-.419-.166A16.273,16.273,0,0,0,83.976,12.6a.614.614,0,1,1,.7-1.01,17.722,17.722,0,0,1,1.976,1.6.615.615,0,0,1-.42,1.064M66.1,13.671a.615.615,0,0,1-.4-1.08,15.551,15.551,0,0,1,2.066-1.5.615.615,0,0,1,.639,1.05,14.1,14.1,0,0,0-1.9,1.385.617.617,0,0,1-.4.149m27.595-.941a.612.612,0,0,1-.44-1.04c.581-.6,1.194-1.182,1.818-1.727a.614.614,0,1,1,.807.926c-.6.522-1.185,1.078-1.744,1.654a.609.609,0,0,1-.441.187m57.155-.766a.612.612,0,0,1-.542-.323,20.842,20.842,0,0,0-1.247-2.035.613.613,0,1,1,1.006-.7,21.573,21.573,0,0,1,1.323,2.157.615.615,0,0,1-.251.831.622.622,0,0,1-.29.072m-68.642-.485a.61.61,0,0,1-.264-.06,13.668,13.668,0,0,0-2.195-.827.614.614,0,1,1,.332-1.183,14.935,14.935,0,0,1,2.391.9.614.614,0,0,1-.264,1.168m-11.929-.345a.614.614,0,0,1-.227-1.185,15.557,15.557,0,0,1,2.444-.742.623.623,0,0,1,.73.472.615.615,0,0,1-.472.731,14.1,14.1,0,0,0-2.249.68.607.607,0,0,1-.226.044m54.383-.139a.612.612,0,0,1-.491-.98A20.672,20.672,0,0,1,125.8,8.08a.614.614,0,1,1,.887.85,19.4,19.4,0,0,0-1.534,1.818.612.612,0,0,1-.494.247m-47.154-.841a.557.557,0,0,1-.064,0,15.721,15.721,0,0,0-2.356-.054.6.6,0,0,1-.646-.581.614.614,0,0,1,.581-.645,15.956,15.956,0,0,1,2.547.059.614.614,0,0,1-.063,1.225m19.889-.645A.614.614,0,0,1,97.031,8.4c.668-.489,1.371-.958,2.088-1.392a.614.614,0,1,1,.636,1.051c-.687.414-1.358.863-2,1.331a.613.613,0,0,1-.362.118m24.389-.02a.609.609,0,0,1-.458-.206,16.219,16.219,0,0,0-1.692-1.651.614.614,0,0,1,.79-.941,17.572,17.572,0,0,1,1.82,1.776.614.614,0,0,1-.459,1.022m26.24-1.536a.611.611,0,0,1-.45-.2,14.323,14.323,0,0,0-1.733-1.592.614.614,0,0,1,.752-.971,15.523,15.523,0,0,1,1.882,1.728.615.615,0,0,1-.451,1.032m-19.974-.5a.615.615,0,0,1-.387-1.093,18.614,18.614,0,0,1,2.081-1.454.615.615,0,0,1,.633,1.054,17.282,17.282,0,0,0-1.942,1.357.616.616,0,0,1-.384.136m-26.459-.484a.614.614,0,0,1-.271-1.164c.741-.365,1.514-.7,2.3-1.008a.615.615,0,0,1,.442,1.147c-.75.29-1.491.614-2.2.962a.606.606,0,0,1-.27.064m16.436-.614a.612.612,0,0,1-.312-.085A13.091,13.091,0,0,0,115.6,5.265a.614.614,0,1,1,.426-1.151,14.4,14.4,0,0,1,2.311,1.1.614.614,0,0,1-.312,1.143M106.164,5.2a.614.614,0,0,1-.156-1.207l.136-.038a19.847,19.847,0,0,1,2.32-.513.614.614,0,1,1,.19,1.213,18.231,18.231,0,0,0-2.173.481l-.16.044a.584.584,0,0,1-.158.02m37.982-.217a.613.613,0,0,1-.275-.066,11.639,11.639,0,0,0-2.17-.834.614.614,0,1,1,.321-1.185,12.9,12.9,0,0,1,2.4.922.615.615,0,0,1-.278,1.163m-11.9-.039a.613.613,0,0,1-.237-1.179,16.973,16.973,0,0,1,2.415-.8.614.614,0,1,1,.3,1.19,15.765,15.765,0,0,0-2.24.747.617.617,0,0,1-.237.047m-18.8-.274a.6.6,0,0,1-.1-.009,13.725,13.725,0,0,0-2.314-.2.624.624,0,0,1-.626-.614.6.6,0,0,1,.6-.614,14.977,14.977,0,0,1,2.547.212.614.614,0,0,1-.1,1.22m23.544-.926a.614.614,0,0,1-.06-1.225,15.221,15.221,0,0,1,2.556-.045A.614.614,0,0,1,139.4,3.7a14.049,14.049,0,0,0-2.35.041.5.5,0,0,1-.061,0" transform="translate(13.59 0.556)" fill="#261d2a"/>
      </g>
    </g>
  </g>
</svg>
