<svg xmlns="http://www.w3.org/2000/svg" width="110" height="110" viewBox="0 0 110 110">
  <g id="Grupo_1102339" data-name="Grupo 1102339" transform="translate(-325.051 -935)">
    <circle id="Elipse_11627" data-name="Elipse 11627" cx="55" cy="55" r="55" transform="translate(325.051 935)" fill="#fff"/>
    <g id="Grupo_1102325" data-name="Grupo 1102325" transform="translate(350.051 958)">
      <g id="Grupo_1102335" data-name="Grupo 1102335" transform="translate(0.946 0.946)">
        <path id="Trazado_879428" data-name="Trazado 879428" d="M432.8,380.6l-4.972,2.342,3.486,7.4L436.286,388a1.279,1.279,0,0,0,.612-1.7l-2.4-5.085A1.28,1.28,0,0,0,432.8,380.6Z" transform="translate(-375.299 -333.446)" fill="#cffce9"/>
        <path id="Trazado_879429" data-name="Trazado 879429" d="M0,0H6.775V8.18H0Z" transform="matrix(0.905, -0.426, 0.426, 0.905, 46.408, 52.417)" fill="#6cf5c2"/>
        <path id="Trazado_879430" data-name="Trazado 879430" d="M0,0H6.775V8.18H0Z" transform="matrix(0.905, -0.426, 0.426, 0.905, 40.275, 55.304)" fill="#00c285"/>
        <path id="Trazado_879431" data-name="Trazado 879431" d="M54.173,42.033A22.869,22.869,0,0,1,53.312,31.1a25.684,25.684,0,0,0,.3-3.944C53.615,14.517,44.472,7.5,33.193,7.5S12.771,14.517,12.771,27.158a25.685,25.685,0,0,0,.3,3.944,22.869,22.869,0,0,1-.861,10.932A17.3,17.3,0,0,0,28.753,64.921h8.879A17.3,17.3,0,0,0,54.173,42.033Z" transform="translate(-11.284 -7.5)" fill="#fd6930"/>
        <path id="Trazado_879432" data-name="Trazado 879432" d="M192.891,42.033A22.869,22.869,0,0,1,192.03,31.1a25.687,25.687,0,0,0,.3-3.944c0-12.641-9.143-19.658-20.422-19.658q-.957,0-1.892.068c10.392.745,18.53,7.663,18.53,19.589a25.685,25.685,0,0,1-.3,3.944,22.869,22.869,0,0,0,.861,10.932,17.3,17.3,0,0,1-16.541,22.888h3.784a17.3,17.3,0,0,0,16.541-22.888Z" transform="translate(-150.001 -7.5)" fill="#fd5426"/>
        <path id="Trazado_879433" data-name="Trazado 879433" d="M51.677,378.637H36.513a12.754,12.754,0,0,0-12.754,12.754v1.9a1.215,1.215,0,0,0,1.215,1.215H63.217a1.215,1.215,0,0,0,1.215-1.215v-1.9A12.754,12.754,0,0,0,51.677,378.637Z" transform="translate(-22.186 -331.835)" fill="#5a5a5a"/>
        <path id="Trazado_879434" data-name="Trazado 879434" d="M58.6,394.846a12.694,12.694,0,0,1,2.044,6.927v1.9a1.215,1.215,0,0,1-1.215,1.215H23.776q-.017.331-.017.665v1.9a1.215,1.215,0,0,0,1.215,1.215H63.217a1.215,1.215,0,0,0,1.215-1.215v-1.9a12.744,12.744,0,0,0-5.827-10.71Z" transform="translate(-22.186 -346)" fill="#444"/>
        <g id="Grupo_1102334" data-name="Grupo 1102334" transform="translate(2.973 10.742)">
          <path id="Trazado_879435" data-name="Trazado 879435" d="M129.177,312.865h-1.852a.686.686,0,0,1-.686-.686v-8.8H116.551v8.8a.686.686,0,0,1-.686.686h-1.852a12.86,12.86,0,0,0-1.57.1,24.777,24.777,0,0,0,1.952,3.647,8.575,8.575,0,0,0,14.4,0,24.783,24.783,0,0,0,1.952-3.647A12.859,12.859,0,0,0,129.177,312.865Z" transform="translate(-102.66 -276.805)" fill="#ffe5c2"/>
          <ellipse id="Elipse_11625" data-name="Elipse 11625" cx="3.691" cy="3.69" rx="3.691" ry="3.69" transform="translate(30.491 10.391)" fill="#ffe5c2"/>
          <ellipse id="Elipse_11626" data-name="Elipse 11626" cx="3.691" cy="3.69" rx="3.691" ry="3.69" transform="translate(0 10.391)" fill="#ffe5c2"/>
          <path id="Trazado_879436" data-name="Trazado 879436" d="M74.345,100.2a12.1,12.1,0,0,0,2.836-1.351c2.9-1.964,3.144-6.166,3.144-6.166A8.463,8.463,0,0,0,84.2,98.066c5.586,2.994,11.105-.548,14.073,3.057a5.491,5.491,0,0,1,1.215,3.5v2.16a17.87,17.87,0,0,1-7.072,14.239,12.168,12.168,0,0,1-14.706,0,17.87,17.87,0,0,1-7.072-14.238V105.5A5.639,5.639,0,0,1,74.345,100.2Z" transform="translate(-66.125 -92.684)" fill="#ffe5c2"/>
        </g>
        <path id="Trazado_879437" data-name="Trazado 879437" d="M185.121,147.308c-1.765-2.144-4.434-1.76-7.482-1.727a4.97,4.97,0,0,1,3.7,1.727,5.491,5.491,0,0,1,1.215,3.5v2.16A17.871,17.871,0,0,1,175.48,167.2a12.141,12.141,0,0,1-5.461,2.325,12.162,12.162,0,0,0,9.245-2.325,17.87,17.87,0,0,0,7.072-14.239V150.8A5.493,5.493,0,0,0,185.121,147.308Z" transform="translate(-150.001 -128.127)" fill="#fed2a4"/>
        <path id="Trazado_879438" data-name="Trazado 879438" d="M367.231,327.072l-3.17,5.121,6.955,4.3,3.17-5.121a1.279,1.279,0,0,0-.415-1.761l-4.779-2.958A1.279,1.279,0,0,0,367.231,327.072Z" transform="translate(-319.573 -286.243)" fill="#dff6fd"/>
        <path id="Trazado_879439" data-name="Trazado 879439" d="M0,0H7.3V8.18H0Z" transform="translate(40.618 52.162) rotate(-58.25)" fill="#62dbfb"/>
        <path id="Trazado_879440" data-name="Trazado 879440" d="M0,0H7.3V8.18H0Z" transform="translate(36.774 58.369) rotate(-58.25)" fill="#08a9f1"/>
        <path id="Trazado_879441" data-name="Trazado 879441" d="M293.405,310.006v7.163h8.18v-7.163a1.057,1.057,0,0,0-1.057-1.057h-6.066A1.057,1.057,0,0,0,293.405,310.006Z" transform="translate(-257.828 -270.935)" fill="#fff5c6"/>
        <path id="Trazado_879442" data-name="Trazado 879442" d="M293.405,374.132h8.18v8.22h-8.18Z" transform="translate(-257.828 -327.898)" fill="#fee97d"/>
        <path id="Trazado_879443" data-name="Trazado 879443" d="M293.405,439.316h8.18v8.22h-8.18Z" transform="translate(-257.828 -384.862)" fill="#e8b800"/>
      </g>
      <g id="Grupo_1102338" data-name="Grupo 1102338" transform="translate(0 0)">
        <g id="Grupo_1102337" data-name="Grupo 1102337">
          <g id="Grupo_1102336" data-name="Grupo 1102336">
            <path id="Trazado_879444" data-name="Trazado 879444" d="M67.184,53.4l-2.4-5.084a2.225,2.225,0,0,0-2.962-1.065l-2.957,1.393,1.277-2.063a2.228,2.228,0,0,0-.721-3.063l-4.779-2.958a2.228,2.228,0,0,0-3.063.721h0l-2.15,3.474-.017-4.983a15.353,15.353,0,0,0-.9-4.6,22.034,22.034,0,0,1-.821-10.48,26.717,26.717,0,0,0,.314-4.089A20.727,20.727,0,0,0,43.789,7.543a.946.946,0,0,0-1.354-.132.969.969,0,0,0-.108,1.332A18.618,18.618,0,0,1,46.115,20.6a24.877,24.877,0,0,1-.173,2.927,4.639,4.639,0,0,0-4.058-2.4c-.116,0-.233,0-.348.013a6.156,6.156,0,0,0-.957-1.621c-1.836-2.231-4.4-2.165-7.1-2.095-2.356.061-4.792.124-7.253-1.2a7.524,7.524,0,0,1-3.384-4.69.946.946,0,0,0-1.879.085c0,.037-.264,3.769-2.731,5.441A11.187,11.187,0,0,1,15.6,18.316,6.588,6.588,0,0,0,12.164,21.2,4.627,4.627,0,0,0,7.335,23.53,24.932,24.932,0,0,1,7.162,20.6c0-5.726,1.96-10.521,5.669-13.867A20.451,20.451,0,0,1,26.639,1.892a20.817,20.817,0,0,1,12.64,3.883.946.946,0,0,0,1.339-.209.973.973,0,0,0-.24-1.331A22.7,22.7,0,0,0,26.639,0,22.33,22.33,0,0,0,11.565,5.332c-4.117,3.715-6.294,9-6.294,15.272a26.725,26.725,0,0,0,.314,4.089,22.031,22.031,0,0,1-.821,10.48A18.128,18.128,0,0,0,7.9,52.557,13.625,13.625,0,0,0,5.357,60.5v1.9a2.16,2.16,0,0,0,2.16,2.16h8.743a.972.972,0,0,0,.985-.917.946.946,0,0,0-.945-.975H7.517a.269.269,0,0,1-.269-.269V60.5a11.828,11.828,0,0,1,9.67-11.614A26.409,26.409,0,0,0,18.643,52a9.52,9.52,0,0,0,15.991,0,26.414,26.414,0,0,0,1.726-3.118,11.626,11.626,0,0,1,3,.983V62.674H20.754a.972.972,0,0,0-.985.917.946.946,0,0,0,.945.975H48.487a.942.942,0,0,0,.4-.089l17.232-8.119A2.228,2.228,0,0,0,67.184,53.4ZM42.009,25.783v-2.16c0-.2-.009-.4-.027-.6a2.747,2.747,0,0,1,2.646,2.742,2.811,2.811,0,0,1-2.821,2.741,18.562,18.562,0,0,0,.2-2.727Zm-2.092-1.524V25a5.25,5.25,0,0,1-5.086,5.275A5.175,5.175,0,0,1,29.567,25.1v-.841a1.207,1.207,0,0,1,1.205-1.205h7.939A1.207,1.207,0,0,1,39.917,24.259ZM39.5,30.281a17.014,17.014,0,0,1-6.08,8.988,11.26,11.26,0,0,1-13.563,0,17.014,17.014,0,0,1-6.08-8.988,7.288,7.288,0,0,0,4.76,1.886,7.069,7.069,0,0,0,6.888-5.49h2.429a7.068,7.068,0,0,0,6.888,5.49A7.289,7.289,0,0,0,39.5,30.281ZM16.247,20.094a13.1,13.1,0,0,0,3.043-1.457,7.938,7.938,0,0,0,2.868-3.855,9.148,9.148,0,0,0,3.171,3.12c2.9,1.555,5.715,1.482,8.195,1.419,2.694-.07,4.406-.039,5.595,1.406a4.152,4.152,0,0,1,.372.534,3.09,3.09,0,0,0-.779-.1H30.773a3.1,3.1,0,0,0-3.1,3.1v.525H25.6v-.525a3.1,3.1,0,0,0-3.1-3.1H14.561a4.67,4.67,0,0,1,1.685-1.068ZM13.36,24.259a1.207,1.207,0,0,1,1.205-1.205H22.5a1.207,1.207,0,0,1,1.205,1.205V25.1a5.175,5.175,0,0,1-5.264,5.174A5.25,5.25,0,0,1,13.36,25Zm-1.967-1.234.044,0a6.538,6.538,0,0,0-.17,1.478v1.278a18.567,18.567,0,0,0,.2,2.729A2.813,2.813,0,0,1,8.649,25.77a2.748,2.748,0,0,1,2.745-2.745Zm5.977,23.881h-.006a13.677,13.677,0,0,0-8.233,4.161A16.237,16.237,0,0,1,6.553,35.786a22.966,22.966,0,0,0,1.2-7.147,4.629,4.629,0,0,0,3.638,1.767c.152,0,.3-.009.455-.023a18.922,18.922,0,0,0,6.866,10.393,13,13,0,0,0,1.971,1.232v4.8H19.057C18.411,46.8,17.388,46.9,17.371,46.906ZM33.043,50.98a7.629,7.629,0,0,1-12.809,0A25.187,25.187,0,0,1,18.925,48.7l2.02,0a1.634,1.634,0,0,0,1.632-1.632V42.789a13.2,13.2,0,0,0,8.16-.011v4.285a1.634,1.634,0,0,0,1.632,1.632l1.983,0A25.151,25.151,0,0,1,33.043,50.98Zm6.318-10.963V47.8a13.763,13.763,0,0,0-3.418-.889,12.541,12.541,0,0,0-1.722-.11H32.629V41.989a13.013,13.013,0,0,0,1.935-1.214,18.922,18.922,0,0,0,6.866-10.392c.151.015.3.023.455.023a4.629,4.629,0,0,0,3.638-1.767,22.971,22.971,0,0,0,1.2,7.147,15.367,15.367,0,0,1,.6,2.229H41.364a2.005,2.005,0,0,0-2,2Zm8.18,22.657H41.253V56.346h6.288Zm0-8.22H41.253V48.126h6.288Zm-6.288-8.22V40.017a.111.111,0,0,1,.111-.111h6.167l.01,6.328H41.253Zm11.938-3.961a.334.334,0,0,1,.46-.108l4.779,2.958a.334.334,0,0,1,.108.46L55.866,49.9,50.519,46.59Zm-3.758,5.869,5.438,3.365-2.847,4.6-2.591-1.6Zm0,8.588,1.6.987-1.6,2.577ZM50.97,61.4l1.656-2.676.731,1.551Zm4.1-1.931L53.813,56.81l3.065-4.953,2.608,5.535Zm10.245-4.827L61.2,56.586,58.517,50.9l4.116-1.939h0a.334.334,0,0,1,.444.16l2.4,5.084A.334.334,0,0,1,65.313,54.647Z" transform="translate(-3.784 0)"/>
          </g>
        </g>
        <path id="Trazado_879445" data-name="Trazado 879445" d="M167.4,250.048a4.485,4.485,0,0,0,3.427-.012.946.946,0,1,0-.734-1.743,2.593,2.593,0,0,1-1.971.007.946.946,0,0,0-.721,1.749Z" transform="translate(-146.258 -216.917)"/>
        <path id="Trazado_879446" data-name="Trazado 879446" d="M161.678,276.025a2.969,2.969,0,0,1-4.1,0,.946.946,0,0,0-1.333,1.342,4.86,4.86,0,0,0,6.771,0,.946.946,0,0,0-1.333-1.342Z" transform="translate(-136.77 -240.977)"/>
        <path id="Trazado_879447" data-name="Trazado 879447" d="M128.773,195.748a.946.946,0,0,0,.946-.946v-.948a.946.946,0,0,0-1.892,0v.948A.946.946,0,0,0,128.773,195.748Z" transform="translate(-112.184 -168.581)"/>
        <path id="Trazado_879448" data-name="Trazado 879448" d="M228.158,192.908a.946.946,0,0,0-.946.946v.948a.946.946,0,0,0,1.892,0v-.948A.946.946,0,0,0,228.158,192.908Z" transform="translate(-199.036 -168.581)"/>
      </g>
    </g>
  </g>
</svg>
