<svg xmlns="http://www.w3.org/2000/svg" width="110" height="110" viewBox="0 0 110 110">
  <g id="Grupo_1102340" data-name="Grupo 1102340" transform="translate(-745.051 -935)">
    <circle id="Elipse_11628" data-name="Elipse 11628" cx="55" cy="55" r="55" transform="translate(745.051 935)" fill="#fff"/>
    <g id="Grupo_1102324" data-name="Grupo 1102324" transform="translate(774.105 957.718)">
      <g id="Grupo_1102332" data-name="Grupo 1102332" transform="translate(0.944 0.946)">
        <g id="Grupo_1102328" data-name="Grupo 1102328">
          <path id="Trazado_879403" data-name="Trazado 879403" d="M68.781,294.833l-9.706-5.306a2.553,2.553,0,0,1-.934-3.6l8.376-13.257,7.325.853a2.718,2.718,0,0,0,2.212-2.666v-4.112H89.439v4.112a2.718,2.718,0,0,0,2.212,2.666l7.325-.853,8.376,13.257a2.553,2.553,0,0,1-.934,3.6l-9.706,5.306Z" transform="translate(-57.746 -234.05)" fill="#fd4755"/>
          <g id="Grupo_1102324-2" data-name="Grupo 1102324" transform="translate(35.183 38.617)">
            <path id="Trazado_879404" data-name="Trazado 879404" d="M351.162,326.981l-8.376-13.257-3.524.411,8.117,12.846a2.553,2.553,0,0,1-.934,3.6l-9.706,5.306h3.783l9.706-5.306A2.553,2.553,0,0,0,351.162,326.981Z" transform="translate(-336.739 -313.724)" fill="#fb2b3a"/>
          </g>
          <g id="Grupo_1102325" data-name="Grupo 1102325" transform="translate(7.683 15.353)">
            <path id="Trazado_879405" data-name="Trazado 879405" d="M348.612,135.242h-3.021v-6h3.021a3,3,0,0,1,0,6Z" transform="translate(-316.975 -129.246)" fill="#ffdfcf"/>
            <path id="Trazado_879406" data-name="Trazado 879406" d="M121.666,135.242h3.021v-6h-3.021a3,3,0,0,0,0,6Z" transform="translate(-118.668 -129.246)" fill="#ffcebf"/>
          </g>
          <path id="Trazado_879407" data-name="Trazado 879407" d="M181.059,114.246v11.4a12.613,12.613,0,0,1-12.626,12.6h-.022a12.613,12.613,0,0,1-12.626-12.6v-11.4Z" transform="translate(-143.422 -100.785)" fill="#ffdfcf"/>
          <path id="Trazado_879408" data-name="Trazado 879408" d="M251.741,114.245v11.4a12.611,12.611,0,0,1-10.746,12.461,12.749,12.749,0,0,0,1.88.139h.022a12.613,12.613,0,0,0,12.626-12.6v-11.4h-3.783Z" transform="translate(-217.886 -100.784)" fill="#ffcebf"/>
          <g id="Grupo_1102326" data-name="Grupo 1102326" transform="translate(0 48.454)">
            <path id="Trazado_879409" data-name="Trazado 879409" d="M361.008,396.6l-.955,7.5h.843l9.706-5.306a2.553,2.553,0,0,0,.934-3.6l-2.157-3.415Z" transform="translate(-321.93 -391.766)" fill="#ffdfcf"/>
            <path id="Trazado_879410" data-name="Trazado 879410" d="M371.538,395.186l-2.157-3.415-2.773,1.6,1.148,1.816a2.553,2.553,0,0,1-.934,3.6l-6.546,3.579-.22,1.728h.843l9.706-5.306A2.552,2.552,0,0,0,371.538,395.186Z" transform="translate(-321.932 -391.766)" fill="#ffcebf"/>
            <path id="Trazado_879411" data-name="Trazado 879411" d="M68.679,396.563,60.3,391.734l-2.16,3.419a2.553,2.553,0,0,0,.934,3.6l9.706,5.306H69Z" transform="translate(-57.746 -391.734)" fill="#ffdfcf"/>
          </g>
          <g id="Grupo_1102327" data-name="Grupo 1102327" transform="translate(12.363)">
            <path id="Trazado_879412" data-name="Trazado 879412" d="M345.536,97.988h-15.4V93.477H343.21a2.578,2.578,0,0,1,2.578,2.578v1.681A.252.252,0,0,1,345.536,97.988Z" transform="translate(-308.15 -82.635)" fill="#fe99a0"/>
            <path id="Trazado_879413" data-name="Trazado 879413" d="M407.587,93.478H403.8a2.578,2.578,0,0,1,2.578,2.578v1.681a.252.252,0,0,1-.252.252h3.783a.252.252,0,0,0,.252-.252V96.056A2.578,2.578,0,0,0,407.587,93.478Z" transform="translate(-372.527 -82.636)" fill="#fd8087"/>
            <path id="Trazado_879414" data-name="Trazado 879414" d="M174.608,7.5H162.236a6.452,6.452,0,0,0-6.451,6.451v8.9h25.274v-8.9A6.451,6.451,0,0,0,174.608,7.5Z" transform="translate(-155.785 -7.5)" fill="#fd4755"/>
            <path id="Trazado_879415" data-name="Trazado 879415" d="M278.829,7.5h-3.783a6.452,6.452,0,0,1,6.451,6.451v8.9h3.783v-8.9A6.451,6.451,0,0,0,278.829,7.5Z" transform="translate(-260.006 -7.5)" fill="#fb2b3a"/>
            <path id="Trazado_879416" data-name="Trazado 879416" d="M229.313,103.029h-9v-2.9a.883.883,0,0,1,.883-.883h7.234a.883.883,0,0,1,.883.883Z" transform="translate(-212.176 -87.676)" fill="#00516a"/>
          </g>
        </g>
        <g id="Grupo_1102331" data-name="Grupo 1102331" transform="translate(6.211 35.065)">
          <path id="Trazado_879417" data-name="Trazado 879417" d="M108.256,474.5h35.058a1.261,1.261,0,0,1,1.261,1.261v1.261a1.261,1.261,0,0,1-1.261,1.261H108.256a1.261,1.261,0,0,1-1.261-1.261v-1.261A1.261,1.261,0,0,1,108.256,474.5Z" transform="translate(-106.995 -450.674)" fill="#004651"/>
          <path id="Trazado_879418" data-name="Trazado 879418" d="M368.778,474.5h-3.783a1.261,1.261,0,0,1,1.261,1.261v1.261a1.261,1.261,0,0,1-1.261,1.261h3.783a1.261,1.261,0,0,0,1.261-1.261v-1.261A1.261,1.261,0,0,0,368.778,474.5Z" transform="translate(-332.46 -450.674)" fill="#03373a"/>
          <path id="Trazado_879419" data-name="Trazado 879419" d="M140.792,309.386H110.778a3.783,3.783,0,0,1-3.783-3.783v-16.26a3.783,3.783,0,0,1,3.783-3.783h30.013a3.783,3.783,0,0,1,3.783,3.783V305.6A3.783,3.783,0,0,1,140.792,309.386Z" transform="translate(-106.995 -285.56)" fill="#00516a"/>
          <path id="Trazado_879420" data-name="Trazado 879420" d="M140.792,309.386H110.778a3.783,3.783,0,0,1-3.783-3.783v-16.26a3.783,3.783,0,0,1,3.783-3.783h30.013a3.783,3.783,0,0,1,3.783,3.783V305.6A3.783,3.783,0,0,1,140.792,309.386Z" transform="translate(-106.995 -285.56)" fill="#00516a"/>
          <path id="Trazado_879421" data-name="Trazado 879421" d="M348.778,285.561h-3.783a3.783,3.783,0,0,1,3.783,3.783V305.6a3.783,3.783,0,0,1-3.783,3.783h3.783a3.783,3.783,0,0,0,3.783-3.783v-16.26A3.783,3.783,0,0,0,348.778,285.561Z" transform="translate(-314.982 -285.561)" fill="#004651"/>
          <g id="Grupo_1102330" data-name="Grupo 1102330" transform="translate(8.42 2.942)">
            <g id="Grupo_1102329" data-name="Grupo 1102329" transform="translate(0 2.379)">
              <ellipse id="Elipse_11624" data-name="Elipse 11624" cx="9.881" cy="2.244" rx="9.881" ry="2.244" transform="matrix(0.717, -0.697, 0.697, 0.717, 0, 13.774)" fill="#d77f4a"/>
              <path id="Trazado_879422" data-name="Trazado 879422" d="M199.184,339.128c-.32-.307-1.023-.2-1.972.243a25.442,25.442,0,0,1-5.372,6.885,27.986,27.986,0,0,1-6.719,5.1c-.314.75-.359,1.3-.08,1.571.894.859,4.786-1.534,8.691-5.346S200.079,339.987,199.184,339.128Z" transform="translate(-183.458 -337.542)" fill="#c86d36"/>
              <path id="Trazado_879423" data-name="Trazado 879423" d="M223.168,374.261q-.566.513-1.137,1.07t-1.088,1.1a7.032,7.032,0,0,0,3.17,3.1q.576-.522,1.158-1.089.565-.551,1.087-1.1A7.037,7.037,0,0,1,223.168,374.261Z" transform="translate(-214.994 -368.397)" fill="#fee97d"/>
              <path id="Trazado_879424" data-name="Trazado 879424" d="M235.273,389.466a7.141,7.141,0,0,1-1.89-1.331q-.522.547-1.088,1.1t-1.146,1.078a7.138,7.138,0,0,0,1.88,1.34q.576-.522,1.158-1.089Q234.751,390.013,235.273,389.466Z" transform="translate(-223.913 -380.521)" fill="#f4da6e"/>
            </g>
            <path id="Trazado_879425" data-name="Trazado 879425" d="M275.535,315.636a.714.714,0,0,0,.4.18,3.677,3.677,0,0,0,2.205-6.905.145.145,0,0,0-.213.089,2.446,2.446,0,0,1-.864,1.392c-.945.69-1.879.015-2.794.663a2.6,2.6,0,0,0-.93,2.372.724.724,0,0,0,.236.456Z" transform="translate(-260.767 -308.891)" fill="#fee97d"/>
            <path id="Trazado_879426" data-name="Trazado 879426" d="M289.007,308.91a.145.145,0,0,0-.213.089,2.446,2.446,0,0,1-.864,1.392,1.838,1.838,0,0,1-1.062.342,3.643,3.643,0,0,1,.116,2.7,3.462,3.462,0,0,1-1.229,1.623l.645.578a.714.714,0,0,0,.4.18,3.677,3.677,0,0,0,2.205-6.906Z" transform="translate(-271.633 -308.891)" fill="#f4da6e"/>
          </g>
        </g>
      </g>
      <path id="Trazado_879427" data-name="Trazado 879427" d="M102.147,16.047V14.366a3.527,3.527,0,0,0-3.523-3.523h-8.84V7.4a7.406,7.406,0,0,0-7.4-7.4H70.015a7.406,7.406,0,0,0-7.4,7.4V8.892a.946.946,0,0,0,1.892,0V7.4a5.512,5.512,0,0,1,5.506-5.506H82.387A5.512,5.512,0,0,1,87.892,7.4v7.956H81.647V13.4a1.831,1.831,0,0,0-1.829-1.829H72.584A1.831,1.831,0,0,0,70.755,13.4v1.955H64.51V13.306a.946.946,0,0,0-1.892,0v2.048h-.736a3.944,3.944,0,0,0,0,7.888h.736v2.568a13.576,13.576,0,0,0,3.669,9.256H61.194a4.734,4.734,0,0,0-4.729,4.729V43.34L50.8,52.314a3.5,3.5,0,0,0,1.28,4.938l4.771,2.609a2.192,2.192,0,0,0-.382,1.237v1.261a2.209,2.209,0,0,0,2.207,2.207H79.665a.946.946,0,1,0,0-1.892H58.672a.316.316,0,0,1-.315-.315V61.1a.316.316,0,0,1,.315-.315H93.73a.316.316,0,0,1,.315.315v1.261a.316.316,0,0,1-.315.315H84.078a.946.946,0,1,0,0,1.892H93.73a2.209,2.209,0,0,0,2.207-2.207V61.1a2.192,2.192,0,0,0-.382-1.237l4.771-2.608a3.5,3.5,0,0,0,1.281-4.938l-5.67-8.974V39.794a4.734,4.734,0,0,0-4.729-4.729H86.115a13.576,13.576,0,0,0,3.669-9.256V23.241h.736a3.942,3.942,0,0,0,3.367-6h7.062a1.2,1.2,0,0,0,1.2-1.2Zm-39.529,5.3h-.736a2.052,2.052,0,1,1,0-4.1h.736ZM56.465,46.881V49.87l-1.384-.8Zm-3.482,8.711a1.606,1.606,0,0,1-.588-2.268l1.675-2.652,2.4,1.381v4a4.7,4.7,0,0,0,.278,1.594Zm42.954-8.711,1.387,2.2-1.387.8Zm0,9.173V52.059l2.4-1.382,1.672,2.647a1.606,1.606,0,0,1-.589,2.268l-3.76,2.056A4.694,4.694,0,0,0,95.937,56.054ZM72.647,13.461h7.108v1.892H72.647Zm18.561,23.5a2.841,2.841,0,0,1,2.837,2.837v16.26a2.841,2.841,0,0,1-2.837,2.837H61.194a2.841,2.841,0,0,1-2.837-2.837V39.794a2.841,2.841,0,0,1,2.837-2.837ZM87.892,25.809a11.684,11.684,0,0,1-4.586,9.256H69.1a11.685,11.685,0,0,1-4.585-9.256V17.244H87.892v8.564Zm4.079-5.06a2.036,2.036,0,0,1-1.45.6h-.736v-4.1h.736a2.051,2.051,0,0,1,1.45,3.5Zm8.285-5.4H89.784V12.734h8.84a1.634,1.634,0,0,1,1.632,1.632Zm-29.5,6.571a.946.946,0,0,0-.946.946v2.094a.946.946,0,0,0,1.892,0V22.871A.946.946,0,0,0,70.755,21.925Zm9.122-1.4a4.565,4.565,0,0,1,1.072-.251,4.79,4.79,0,0,1,2.415.383.946.946,0,1,0,.751-1.736,6.693,6.693,0,0,0-3.371-.527,6.465,6.465,0,0,0-1.517.355.946.946,0,0,0,.649,1.777ZM67.932,57.845A6.724,6.724,0,0,0,71.126,56.6a36.48,36.48,0,0,0,5.64-4.553,37.3,37.3,0,0,0,4.47-5.212c.046,0,.092,0,.139,0a4.724,4.724,0,0,0,4.481-3.025,4.771,4.771,0,0,0-2.182-5.667,1.09,1.09,0,0,0-1.6.671,1.5,1.5,0,0,1-.507.867,1.323,1.323,0,0,1-.87.165,3.031,3.031,0,0,0-1.912.489,3.5,3.5,0,0,0-1.345,2.947,35.5,35.5,0,0,0-5.237,4.3c-2.737,2.672-5.931,6.533-5.922,8.62a1.574,1.574,0,0,0,1.649,1.639ZM79.881,41.888a1.3,1.3,0,0,1,.814-.142,3.081,3.081,0,0,0,1.992-.529,2.953,2.953,0,0,0,.774-.843,2.8,2.8,0,0,1,.617,2.8,2.875,2.875,0,0,1-2.9,1.767L79.336,43.3a1.666,1.666,0,0,1,.544-1.41Zm-1.528,3.068L79.519,46A29.7,29.7,0,0,1,77,49.092a6.159,6.159,0,0,1-1.788-1.712A30.372,30.372,0,0,1,78.352,44.955ZM73.528,48.94q.142-.138.285-.275a8.068,8.068,0,0,0,1.858,1.81c-.075.074-.149.148-.224.221q-.316.309-.635.607a6.151,6.151,0,0,1-1.852-1.8Q73.234,49.227,73.528,48.94Zm-1.893,1.97A8.07,8.07,0,0,0,73.356,52.6a28.964,28.964,0,0,1-2.767,2.1,8.592,8.592,0,0,1-2.373,1.2A16.353,16.353,0,0,1,71.635,50.91ZM68.662,20.73a.943.943,0,0,0,.375-.078,4.79,4.79,0,0,1,2.415-.383,4.564,4.564,0,0,1,1.072.251.946.946,0,1,0,.65-1.777,6.455,6.455,0,0,0-1.517-.355,6.69,6.69,0,0,0-3.371.527.946.946,0,0,0,.376,1.814Zm12.985,1.195a.946.946,0,0,0-.946.946v2.094a.946.946,0,0,0,1.892,0V22.871A.946.946,0,0,0,81.647,21.925Zm-8.254,10a.946.946,0,0,0,.364,1.287,5.009,5.009,0,0,0,2.378.607h.082a4.553,4.553,0,0,0,2.486-.785.946.946,0,1,0-1.04-1.58,2.688,2.688,0,0,1-1.479.474,3.191,3.191,0,0,1-1.5-.366A.946.946,0,0,0,73.393,31.926Z" transform="translate(-50.256 0)"/>
    </g>
  </g>
</svg>
