<svg xmlns="http://www.w3.org/2000/svg" width="190" height="173" viewBox="0 0 190 173">
  <g id="Grupo_1103024" data-name="Grupo 1103024" transform="translate(-1230 -2388)">
    <rect id="Rectángulo_403942" data-name="Rectángulo 403942" width="190" height="173" transform="translate(1230 2388)" fill="#fbd8d1"/>
    <rect id="Rectángulo_404063" data-name="Rectángulo 404063" width="105" height="173" transform="translate(1315 2388)" fill="#ddd4f5"/>
    <rect id="Rectángulo_404064" data-name="Rectángulo 404064" width="142" height="131" rx="10" transform="translate(1254 2409)" fill="#fdefec"/>
    <g id="Filled_outline" data-name="Filled outline" transform="translate(1267.026 2416.028)">
      <path id="Trazado_880588" data-name="Trazado 880588" d="M214.47,435.235H192L196.213,424h14.044Z" transform="translate(-145.104 -336.378)" fill="#d6d6d4"/>
      <path id="Trazado_880589" data-name="Trazado 880589" d="M105.454,77.618v44.94H24V77.618A5.618,5.618,0,0,1,29.618,72H99.837l1.4.177A5.62,5.62,0,0,1,105.454,77.618Z" transform="translate(-6.596 -46.171)" fill="#4d5e78"/>
      <path id="Trazado_880590" data-name="Trazado 880590" d="M24,360v5.618a5.617,5.617,0,0,0,5.618,5.617H99.837a5.618,5.618,0,0,0,5.618-5.617V360Z" transform="translate(-6.596 -283.613)" fill="#d6d6d4"/>
      <path id="Trazado_880591" data-name="Trazado 880591" d="M226.15,426.809H210L211.053,424H225.1Z" transform="translate(-159.944 -336.378)" fill="#c7c7c5"/>
      <path id="Trazado_880592" data-name="Trazado 880592" d="M444.213,72.177v50.38H440V72h2.809Z" transform="translate(-349.568 -46.171)" fill="#485870"/>
      <path id="Trazado_880593" data-name="Trazado 880593" d="M136.6,29.618V82.984H72V29.618A5.618,5.618,0,0,1,77.618,24h53.367a5.7,5.7,0,0,1,1.143.116A5.621,5.621,0,0,1,136.6,29.618Z" transform="translate(-46.169 -6.597)" fill="#348fd9"/>
      <path id="Trazado_880594" data-name="Trazado 880594" d="M137.83,30.162V83.528H73.49L133.355,24.66a5.621,5.621,0,0,1,4.475,5.5Z" transform="translate(-47.398 -7.141)" fill="#3086cd"/>
      <path id="Trazado_880595" data-name="Trazado 880595" d="M104,88h53.367v42.131H104Z" transform="translate(-72.552 -59.362)" fill="#4db7e5"/>
      <path id="Trazado_880596" data-name="Trazado 880596" d="M104,206.044l12.639-8.426,12.639,8.426L143.323,192l14.044,14.044v9.831H104Z" transform="translate(-72.552 -145.105)" fill="#5f9548"/>
      <ellipse id="Elipse_11654" data-name="Elipse 11654" cx="6.124" cy="6.562" rx="6.124" ry="6.562" transform="translate(41.509 33.633)" fill="#f35244"/>
      <path id="Trazado_880597" data-name="Trazado 880597" d="M280,171.859l7.022,7.022q2.213-1.264,4.288-2.733l-8.577-8.577Q281.27,169.646,280,171.859Z" transform="translate(-217.655 -124.965)" fill="#ffb531"/>
      <path id="Trazado_880598" data-name="Trazado 880598" d="M326.177,24a3.171,3.171,0,0,0-1.881.618l-16.73,12.327a53.559,53.559,0,0,0-12,12.259l8.577,8.577a53.558,53.558,0,0,0,12.259-12l12.327-16.73A3.171,3.171,0,0,0,326.177,24Z" transform="translate(-230.49 -6.597)" fill="#92563a"/>
      <path id="Trazado_880599" data-name="Trazado 880599" d="M220.639,192l-4.353,1.633a9.312,9.312,0,0,0-5.971,9.874,8.122,8.122,0,0,1-2.316,6.75h9.582a9.312,9.312,0,0,0,9.034-7.054l1.045-4.181Z" transform="translate(-158.295 -145.105)" fill="#e0e0de"/>
      <path id="Trazado_880600" data-name="Trazado 880600" d="M219.925,227.043l-.885-.221a3.451,3.451,0,0,1-2.614-3.348,3.451,3.451,0,0,0-2.883-3.4l-1.523-.254a9.3,9.3,0,0,0-1.7,6.624A8.122,8.122,0,0,1,208,233.19h9.582a9.292,9.292,0,0,0,5.26-1.63l-.369-1.846a3.451,3.451,0,0,0-2.547-2.671Z" transform="translate(-158.295 -168.038)" fill="#88c25e"/>
      <path id="Trazado_880601" data-name="Trazado 880601" d="M72,328h64.6v5.618H72Z" transform="translate(-46.169 -257.231)" fill="#3086cd"/>
      <path id="Trazado_880602" data-name="Trazado 880602" d="M97.321,30.394a4.239,4.239,0,0,1,.133,1.054V74.984H18.809V31.448a4.218,4.218,0,0,1,4.213-4.213h1.4v44.94h2.809V23.022a4.218,4.218,0,0,1,4.213-4.213H84.815a4.223,4.223,0,0,1,1.053.133l.7-2.72A7.032,7.032,0,0,0,84.815,16H31.448a7.03,7.03,0,0,0-7.022,7.022v1.4h-1.4A7.03,7.03,0,0,0,16,31.448V82.006a7.03,7.03,0,0,0,7.022,7.022H49.083l-3.16,8.426h-3.24v2.809h30.9V97.454H70.34l-3.16-8.426H93.241a7.03,7.03,0,0,0,7.022-7.022V31.448a7.042,7.042,0,0,0-.222-1.754ZM67.34,97.454H48.923l3.16-8.426h12.1ZM97.454,82.006a4.218,4.218,0,0,1-4.213,4.213H23.022a4.218,4.218,0,0,1-4.213-4.213V77.793H97.454Z" transform="translate(0 -0.001)" fill="#3f1e8f"/>
      <path id="Trazado_880603" data-name="Trazado 880603" d="M432,152h2.809v32.3H432Z" transform="translate(-342.972 -112.127)" fill="#3f1e8f"/>
      <path id="Trazado_880604" data-name="Trazado 880604" d="M104,48h2.809v2.809H104Z" transform="translate(-72.552 -26.384)" fill="#5b2ccf"/>
      <path id="Trazado_880605" data-name="Trazado 880605" d="M136,48h2.809v2.809H136Z" transform="translate(-98.934 -26.384)" fill="#5b2ccf"/>
      <path id="Trazado_880606" data-name="Trazado 880606" d="M168,48h2.809v2.809H168Z" transform="translate(-125.317 -26.384)" fill="#5b2ccf"/>
      <path id="Trazado_880607" data-name="Trazado 880607" d="M96,81.4v42.131a1.4,1.4,0,0,0,1.4,1.4h53.367a1.4,1.4,0,0,0,1.4-1.4v-22.47h-2.809v9.249l-4.624-4.624-1.986,1.986,6.611,6.611v7.845H98.809v-7.675l11.235-7.49,3.434,2.29,1.558-2.337-4.213-2.809a1.4,1.4,0,0,0-1.558,0l-10.456,6.971V82.809h39.323V80H97.4A1.4,1.4,0,0,0,96,81.4Z" transform="translate(-65.956 -52.766)" fill="#3f1e8f"/>
      <path id="Trazado_880608" data-name="Trazado 880608" d="M152,119.724A7.724,7.724,0,1,0,159.724,112,7.724,7.724,0,0,0,152,119.724Zm12.639,0a4.915,4.915,0,1,1-4.915-4.915,4.915,4.915,0,0,1,4.915,4.915Z" transform="translate(-112.125 -79.149)" fill="#3f1e8f"/>
      <path id="Trazado_880609" data-name="Trazado 880609" d="M213.087,45.754,209.2,47.212a10.682,10.682,0,0,0-6.871,11.364,6.674,6.674,0,0,1-1.915,5.582,1.4,1.4,0,0,0,.992,2.4h9.582a10.7,10.7,0,0,0,10.4-8.118l.9-3.61a54.613,54.613,0,0,0,16.458-14.811l12.327-16.73a4.575,4.575,0,0,0-6.4-6.4L227.945,29.217a54.62,54.62,0,0,0-14.858,16.537Zm3.9-.958,6.183,6.183c-.614.4-1.237.8-1.872,1.178L215.8,46.668q.57-.951,1.178-1.871ZM204.15,63.748a9.474,9.474,0,0,0,.966-5.52,7.892,7.892,0,0,1,.98-4.914l.622.1a2.04,2.04,0,0,1,1.71,2.019,4.848,4.848,0,0,0,3.678,4.71l.885.221a2.056,2.056,0,0,1,1.51,1.584l.177.883a7.9,7.9,0,0,1-3.69.913Zm12.957-2.9a4.879,4.879,0,0,0-3.436-3.207l-.885-.221a2.043,2.043,0,0,1-1.55-1.985,4.838,4.838,0,0,0-3.039-4.5,7.959,7.959,0,0,1,1.988-1.09l3.506-1.315,5.82,5.82-.853,3.41a7.9,7.9,0,0,1-1.552,3.091Zm29.233-41.7a1.767,1.767,0,0,1,2.47,2.47l-12.327,16.73a51.831,51.831,0,0,1-10.975,11l-6.9-6.9a51.839,51.839,0,0,1,11-10.975Z" transform="translate(-151.7)" fill="#3f1e8f"/>
      <path id="Trazado_880610" data-name="Trazado 880610" d="M368.407,118.747l-1.685-2.247c-.817.613-1.625,1.258-2.4,1.916l1.817,2.142C366.87,119.936,367.634,119.326,368.407,118.747Z" transform="translate(-287.173 -82.859)" fill="#3f1e8f"/>
      <path id="Trazado_880611" data-name="Trazado 880611" d="M330.15,144.769a47.447,47.447,0,0,1,3.993-4.3l-1.937-2.034a50.253,50.253,0,0,0-4.229,4.559Z" transform="translate(-257.21 -100.94)" fill="#3f1e8f"/>
    </g>
  </g>
</svg>
