<svg xmlns="http://www.w3.org/2000/svg" xmlns:xlink="http://www.w3.org/1999/xlink" width="295" height="420" viewBox="0 0 295 420">
  <defs>
    <clipPath id="clip-path">
      <rect id="Rectángulo_404157" data-name="Rectángulo 404157" width="241.883" height="212.605" fill="none"/>
    </clipPath>
  </defs>
  <g id="Grupo_1103634" data-name="Grupo 1103634" transform="translate(-181 -1202.535)">
    <g id="Grupo_1100318" data-name="Grupo 1100318" transform="translate(14378 10148.989)">
      <rect id="Rectángulo_401793" data-name="Rectángulo 401793" width="295" height="75.777" transform="translate(-14197 -8602.231)" fill="#14d6f0"/>
      <rect id="Rectángulo_402091" data-name="Rectángulo 402091" width="249" height="287.223" transform="translate(-14174 -8931.034)" fill="#a0eef9"/>
      <g id="Grupo_1099708" data-name="Grupo 1099708" transform="translate(-14041.765 -8946.454)">
        <path id="Trazado_874185" data-name="Trazado 874185" d="M59.931,65.431a1.944,1.944,0,1,1,1.945,1.945,1.945,1.945,0,0,1-1.945-1.945" transform="translate(61.91 72.609)" fill="#5b2ccf"/>
        <path id="Trazado_874186" data-name="Trazado 874186" d="M46.622,65.431a1.944,1.944,0,1,1,1.945,1.945,1.945,1.945,0,0,1-1.945-1.945" transform="translate(44.759 72.609)" fill="#5b2ccf"/>
        <path id="Trazado_874187" data-name="Trazado 874187" d="M33.313,65.431a1.944,1.944,0,1,1,1.943,1.945,1.945,1.945,0,0,1-1.943-1.945" transform="translate(27.609 72.609)" fill="#5b2ccf"/>
        <path id="Trazado_874188" data-name="Trazado 874188" d="M20,65.431a1.944,1.944,0,1,1,1.945,1.945A1.945,1.945,0,0,1,20,65.431" transform="translate(10.456 72.609)" fill="#5b2ccf"/>
        <path id="Trazado_874189" data-name="Trazado 874189" d="M6.694,65.431a1.944,1.944,0,1,1,1.945,1.945,1.945,1.945,0,0,1-1.945-1.945" transform="translate(-6.694 72.609)" fill="#5b2ccf"/>
        <path id="Trazado_874190" data-name="Trazado 874190" d="M59.931,53.538a1.944,1.944,0,1,1,1.945,1.945,1.945,1.945,0,0,1-1.945-1.945" transform="translate(61.91 57.283)" fill="#5b2ccf"/>
        <path id="Trazado_874191" data-name="Trazado 874191" d="M46.622,53.538a1.944,1.944,0,1,1,1.945,1.945,1.945,1.945,0,0,1-1.945-1.945" transform="translate(44.759 57.283)" fill="#5b2ccf"/>
        <path id="Trazado_874192" data-name="Trazado 874192" d="M33.313,53.538a1.944,1.944,0,1,1,1.943,1.945,1.945,1.945,0,0,1-1.943-1.945" transform="translate(27.609 57.283)" fill="#5b2ccf"/>
        <path id="Trazado_874193" data-name="Trazado 874193" d="M20,53.538a1.944,1.944,0,1,1,1.945,1.945A1.945,1.945,0,0,1,20,53.538" transform="translate(10.456 57.283)" fill="#5b2ccf"/>
        <path id="Trazado_874194" data-name="Trazado 874194" d="M6.694,53.538a1.944,1.944,0,1,1,1.945,1.945,1.945,1.945,0,0,1-1.945-1.945" transform="translate(-6.694 57.283)" fill="#5b2ccf"/>
        <path id="Trazado_874195" data-name="Trazado 874195" d="M59.931,41.644a1.944,1.944,0,1,1,1.945,1.945,1.943,1.943,0,0,1-1.945-1.945" transform="translate(61.91 41.958)" fill="#5b2ccf"/>
        <path id="Trazado_874196" data-name="Trazado 874196" d="M46.622,41.644a1.944,1.944,0,1,1,1.945,1.945,1.943,1.943,0,0,1-1.945-1.945" transform="translate(44.759 41.958)" fill="#5b2ccf"/>
        <path id="Trazado_874197" data-name="Trazado 874197" d="M33.313,41.644a1.944,1.944,0,1,1,1.943,1.945,1.943,1.943,0,0,1-1.943-1.945" transform="translate(27.609 41.958)" fill="#5b2ccf"/>
        <path id="Trazado_874198" data-name="Trazado 874198" d="M20,41.644a1.944,1.944,0,1,1,1.945,1.945A1.943,1.943,0,0,1,20,41.644" transform="translate(10.456 41.958)" fill="#5b2ccf"/>
        <path id="Trazado_874199" data-name="Trazado 874199" d="M6.694,41.644a1.944,1.944,0,1,1,1.945,1.945,1.943,1.943,0,0,1-1.945-1.945" transform="translate(-6.694 41.958)" fill="#5b2ccf"/>
        <path id="Trazado_874200" data-name="Trazado 874200" d="M59.931,29.751A1.944,1.944,0,1,1,61.876,31.7a1.945,1.945,0,0,1-1.945-1.945" transform="translate(61.91 26.629)" fill="#5b2ccf"/>
        <path id="Trazado_874201" data-name="Trazado 874201" d="M46.622,29.751A1.944,1.944,0,1,1,48.567,31.7a1.945,1.945,0,0,1-1.945-1.945" transform="translate(44.759 26.629)" fill="#5b2ccf"/>
        <path id="Trazado_874202" data-name="Trazado 874202" d="M33.313,29.751A1.944,1.944,0,1,1,35.256,31.7a1.945,1.945,0,0,1-1.943-1.945" transform="translate(27.609 26.629)" fill="#5b2ccf"/>
        <path id="Trazado_874203" data-name="Trazado 874203" d="M20,29.751A1.944,1.944,0,1,1,21.948,31.7,1.945,1.945,0,0,1,20,29.751" transform="translate(10.456 26.629)" fill="#5b2ccf"/>
        <path id="Trazado_874204" data-name="Trazado 874204" d="M6.694,29.751A1.944,1.944,0,1,1,8.639,31.7a1.945,1.945,0,0,1-1.945-1.945" transform="translate(-6.694 26.629)" fill="#5b2ccf"/>
        <path id="Trazado_874205" data-name="Trazado 874205" d="M59.931,17.858A1.944,1.944,0,1,1,61.876,19.8a1.945,1.945,0,0,1-1.945-1.945" transform="translate(61.91 11.303)" fill="#5b2ccf"/>
        <path id="Trazado_874206" data-name="Trazado 874206" d="M46.622,17.858A1.944,1.944,0,1,1,48.567,19.8a1.945,1.945,0,0,1-1.945-1.945" transform="translate(44.759 11.303)" fill="#5b2ccf"/>
        <path id="Trazado_874207" data-name="Trazado 874207" d="M33.313,17.858A1.944,1.944,0,1,1,35.256,19.8a1.945,1.945,0,0,1-1.943-1.945" transform="translate(27.609 11.303)" fill="#5b2ccf"/>
        <path id="Trazado_874208" data-name="Trazado 874208" d="M20,17.858A1.944,1.944,0,1,1,21.948,19.8,1.945,1.945,0,0,1,20,17.858" transform="translate(10.456 11.303)" fill="#5b2ccf"/>
        <path id="Trazado_874209" data-name="Trazado 874209" d="M6.694,17.858A1.944,1.944,0,1,1,8.639,19.8a1.945,1.945,0,0,1-1.945-1.945" transform="translate(-6.694 11.303)" fill="#5b2ccf"/>
        <path id="Trazado_874210" data-name="Trazado 874210" d="M59.931,5.964a1.944,1.944,0,1,1,1.945,1.945,1.943,1.943,0,0,1-1.945-1.945" transform="translate(61.91 -4.021)" fill="#5b2ccf"/>
        <path id="Trazado_874211" data-name="Trazado 874211" d="M46.622,5.964a1.944,1.944,0,1,1,1.945,1.945,1.943,1.943,0,0,1-1.945-1.945" transform="translate(44.759 -4.021)" fill="#5b2ccf"/>
        <path id="Trazado_874212" data-name="Trazado 874212" d="M33.313,5.964a1.944,1.944,0,1,1,1.943,1.945,1.943,1.943,0,0,1-1.943-1.945" transform="translate(27.609 -4.021)" fill="#5b2ccf"/>
        <path id="Trazado_874213" data-name="Trazado 874213" d="M20,5.964a1.944,1.944,0,1,1,1.945,1.945A1.943,1.943,0,0,1,20,5.964" transform="translate(10.456 -4.021)" fill="#5b2ccf"/>
        <path id="Trazado_874214" data-name="Trazado 874214" d="M6.694,5.964A1.944,1.944,0,1,1,8.639,7.909,1.943,1.943,0,0,1,6.694,5.964" transform="translate(-6.694 -4.021)" fill="#5b2ccf"/>
      </g>
      <g id="Grupo_1103606" data-name="Grupo 1103606" transform="translate(-14162.706 -8862.55)">
        <g id="Grupo_1103605" data-name="Grupo 1103605" clip-path="url(#clip-path)">
          <path id="Trazado_881538" data-name="Trazado 881538" d="M236.51,79.211,236.5,79.2a3.248,3.248,0,1,1,.011.009M240,74.69a2.372,2.372,0,0,0-2.908,3.749l.008.007a2.379,2.379,0,0,0,3.321-.427A2.375,2.375,0,0,0,240,74.69" fill="#261d2a"/>
          <path id="Trazado_881539" data-name="Trazado 881539" d="M33.785,100.255l-.011-.009a3.248,3.248,0,1,1,.011.009m3.488-4.521a2.372,2.372,0,0,0-2.908,3.749l.008.007a2.38,2.38,0,0,0,3.321-.427,2.375,2.375,0,0,0-.421-3.329" fill="#261d2a"/>
          <path id="Trazado_881540" data-name="Trazado 881540" d="M9.948,109.555s-.889-6.748,5.606-4.564,4.379,8.361,1.9,6.247,2.169-9.285,7.139-6.092,3.859,9.388.334,9.845,2.134-7.213,6.575-2.476-5.256,13.375-9.221,10.2-.862-8.3.089-5.177-1.614,6.187-8.647,6.066-3.831-10.942-1.373-7.792-1.623,6.7-6.584,2.994.7-11.381,4.179-9.25" fill="#fcfdff"/>
          <path id="Trazado_881541" data-name="Trazado 881541" d="M14.115,124.106l-.4,0a4.441,4.441,0,0,1-4.539-3.266,8,8,0,0,1-3.709-1.631c-2.885-2.158-2.547-5.527-.932-7.909,1.163-1.715,3.105-2.983,4.869-2.514a5.139,5.139,0,0,1,1.479-3.956c1.106-.91,2.731-1.015,4.828-.31a8.932,8.932,0,0,1,2.334,1.152,5.192,5.192,0,0,1,6.819-.943,7.3,7.3,0,0,1,3.576,5.747,4.991,4.991,0,0,1,3.427,1.7c2.033,2.169,1.59,5.47-1.129,8.409-2.459,2.659-6.367,4.444-8.769,2.522a6.346,6.346,0,0,1-.813-.775c-1.561,1.157-3.991,1.776-7.043,1.776m-3.875-3.235a3.408,3.408,0,0,0,3.495,2.232c3.029.043,5.4-.5,6.833-1.577a4.806,4.806,0,0,1-.5-4.09c.316-.863.893-1.359,1.5-1.371.333.009.942.195,1.287,1.326a4.266,4.266,0,0,1-.643,3.91,4.536,4.536,0,0,1-.305.365,5.42,5.42,0,0,0,.693.658c1.834,1.47,5.274-.111,7.41-2.42,1.858-2.009,3.132-4.915,1.133-7.047a3.926,3.926,0,0,0-2.719-1.394,5.738,5.738,0,0,1-.107.659,4.054,4.054,0,0,1-3.32,3.366c-1.168.144-1.506-.462-1.6-.731-.343-.979.667-2.555,2.25-3.516a5.3,5.3,0,0,1,1.8-.7,6.321,6.321,0,0,0-3.119-4.974,4.178,4.178,0,0,0-5.507.743A4.873,4.873,0,0,1,20.36,109.4a2.614,2.614,0,0,1-1.171,2.6,1.829,1.829,0,0,1-2.057-.382c-1.41-1.2-.935-3.494.272-5.178a8.012,8.012,0,0,0-2.01-.975c-1.75-.586-3.051-.544-3.874.135-1.417,1.166-1.08,3.863-1.077,3.89a.5.5,0,0,1-.757.492c-1.412-.868-3.244.288-4.321,1.876-1.348,1.989-1.654,4.785.7,6.547A7.361,7.361,0,0,0,8.982,119.8c-.207-2.082.59-4.351,1.815-4.921a1.53,1.53,0,0,1,1.949.628,3.133,3.133,0,0,1-.006,4.3,3.835,3.835,0,0,1-2.5,1.069m11.3-3.807c-.069,0-.33.174-.529.717a3.833,3.833,0,0,0,.307,3.041c.034-.041.066-.082.1-.123a3.251,3.251,0,0,0,.484-3.017c-.156-.514-.365-.62-.359-.618M11.4,115.737a.393.393,0,0,0-.176.045c-.711.331-1.478,2.241-1.221,4.108a2.9,2.9,0,0,0,2.027-.787,2.161,2.161,0,0,0-.068-2.984c-.241-.309-.43-.382-.562-.382m16-4.167a4.537,4.537,0,0,0-1.238.527c-1.329.806-1.945,1.983-1.824,2.329.023.066.211.11.528.07a3.083,3.083,0,0,0,2.472-2.593c.025-.107.045-.218.062-.333m-9.223-4.49c-1.037,1.477-1.212,3.08-.4,3.778a.891.891,0,0,0,.957.249,1.671,1.671,0,0,0,.624-1.639,3.831,3.831,0,0,0-1.186-2.388" fill="#261d2a"/>
          <path id="Trazado_881542" data-name="Trazado 881542" d="M211.976,127.706s-.889-6.748,5.606-4.564,4.379,8.361,1.9,6.247,2.169-9.285,7.139-6.092,3.859,9.388.334,9.845,2.134-7.213,6.575-2.476-5.256,13.375-9.221,10.2-.862-8.3.089-5.177-1.614,6.187-8.647,6.066-3.831-10.942-1.373-7.792-1.623,6.7-6.584,2.994.7-11.381,4.179-9.25" fill="#fcfdff"/>
          <path id="Trazado_881543" data-name="Trazado 881543" d="M216.143,142.256l-.4,0a4.442,4.442,0,0,1-4.54-3.266,7.994,7.994,0,0,1-3.708-1.631c-2.885-2.157-2.547-5.525-.933-7.907,1.164-1.716,3.1-2.985,4.869-2.516a5.141,5.141,0,0,1,1.479-3.955c1.106-.91,2.731-1.015,4.829-.31a8.916,8.916,0,0,1,2.334,1.152,5.2,5.2,0,0,1,6.819-.943,7.3,7.3,0,0,1,3.575,5.747,4.991,4.991,0,0,1,3.428,1.7c2.033,2.169,1.59,5.469-1.129,8.408-2.459,2.659-6.368,4.442-8.769,2.522a6.346,6.346,0,0,1-.813-.775c-1.561,1.157-3.991,1.776-7.044,1.776m-3.874-3.234a3.407,3.407,0,0,0,3.5,2.231c3.016.037,5.4-.5,6.833-1.576a4.807,4.807,0,0,1-.5-4.09c.317-.864.886-1.384,1.5-1.372.332.01.942.2,1.287,1.328a4.268,4.268,0,0,1-.642,3.908,4.584,4.584,0,0,1-.306.365,5.418,5.418,0,0,0,.693.658c1.835,1.471,5.275-.112,7.41-2.42,1.858-2.009,3.131-4.914,1.133-7.046a3.929,3.929,0,0,0-2.719-1.394,5.718,5.718,0,0,1-.107.658,4.054,4.054,0,0,1-3.32,3.366c-1.165.148-1.505-.461-1.6-.73-.343-.979.666-2.555,2.249-3.515a5.287,5.287,0,0,1,1.8-.7,6.317,6.317,0,0,0-3.119-4.974,4.179,4.179,0,0,0-5.507.742,4.871,4.871,0,0,1,1.54,3.085,2.614,2.614,0,0,1-1.171,2.606,1.831,1.831,0,0,1-2.057-.382c-1.41-1.2-.934-3.494.273-5.178a7.977,7.977,0,0,0-2.01-.975c-1.747-.586-3.05-.543-3.872.133-1.413,1.16-1.082,3.865-1.079,3.892a.5.5,0,0,1-.757.491c-1.416-.87-3.246.289-4.322,1.878-1.348,1.989-1.653,4.784.7,6.545a7.348,7.348,0,0,0,2.913,1.393c-.207-2.083.591-4.352,1.816-4.922a1.529,1.529,0,0,1,1.949.628,3.134,3.134,0,0,1-.006,4.3,3.839,3.839,0,0,1-2.5,1.069m11.294-3.807c-.069,0-.329.174-.528.716a3.833,3.833,0,0,0,.307,3.041c.033-.041.066-.082.1-.123a3.248,3.248,0,0,0,.484-3.015c-.154-.507-.33-.618-.359-.619Zm-10.138-1.328a.4.4,0,0,0-.177.045c-.711.331-1.478,2.242-1.22,4.109a2.905,2.905,0,0,0,2.027-.788,2.161,2.161,0,0,0-.068-2.984c-.241-.308-.43-.382-.562-.382m16-4.166a4.524,4.524,0,0,0-1.238.527c-1.33.806-1.945,1.982-1.824,2.329.023.065.21.111.527.069a3.083,3.083,0,0,0,2.473-2.593c.024-.107.045-.217.062-.332m-9.223-4.49c-1.037,1.476-1.212,3.08-.4,3.778a.9.9,0,0,0,.957.249,1.676,1.676,0,0,0,.625-1.64,3.833,3.833,0,0,0-1.186-2.387" fill="#261d2a"/>
          <path id="Trazado_881544" data-name="Trazado 881544" d="M120.95,32.585h0l-1.934-.007,2.049-1.389a.5.5,0,1,0-.562-.828l-2.764,1.874L117.8,29a.5.5,0,0,0-.49-.509h0a.5.5,0,0,0-.507.491l-.054,2.85L115.052,30a.5.5,0,1,0-.735.678l1.74,1.887-3.2-.011a.5.5,0,0,0-.008,1h0l2.922.01-2.283,1.548a.5.5,0,1,0,.561.827l2.649-1.8-.061,3.254a.5.5,0,0,0,.49.51h0a.5.5,0,0,0,.507-.491l.058-3.073,1.8,1.955a.5.5,0,0,0,.736-.678l-1.888-2.047,2.6.009a.5.5,0,0,0,.006-1" fill="#261d2a"/>
          <path id="Trazado_881545" data-name="Trazado 881545" d="M228.858,194.955h0l-1.934-.007,2.049-1.389a.5.5,0,0,0-.561-.828l-2.765,1.874.061-3.229a.5.5,0,0,0-.49-.51h0a.5.5,0,0,0-.507.491l-.054,2.85-1.69-1.834a.5.5,0,1,0-.736.678l1.74,1.887-3.2-.011a.5.5,0,0,0-.008,1h0l2.922.01-2.283,1.548a.5.5,0,0,0,.561.828l2.65-1.8-.062,3.254a.5.5,0,0,0,.49.51h0a.5.5,0,0,0,.507-.491l.058-3.073,1.8,1.955a.5.5,0,0,0,.736-.678l-1.888-2.047,2.6.009a.5.5,0,0,0,.006-1" fill="#261d2a"/>
          <path id="Trazado_881546" data-name="Trazado 881546" d="M225.83,168.93s-2.9-7.759-1.448-7.139,6.13,2.986,6.13,2.986,5.043-3.492,5.353-3.021-.413,6.864-.413,6.864,6.207,3.31,5.069,4.035S233.693,174,233.693,174s-2.159,7.966-3.181,7.164c-1.557-1.224-2.923-6.13-2.923-6.13s-6.527-.1-6.32-1.138,4.561-4.966,4.561-4.966" fill="#e8c01b"/>
          <path id="Trazado_881547" data-name="Trazado 881547" d="M207.447,100.525a10.5,10.5,0,1,1-10.5-10.5,10.5,10.5,0,0,1,10.5,10.5" fill="#be607a"/>
          <path id="Trazado_881548" data-name="Trazado 881548" d="M184.768,107.912c-2.39,0-3.045-.564-3.273-1.155-.689-1.785,3.409-4.467,4.681-5.247a.5.5,0,0,1,.523.853c-2.229,1.366-4.532,3.36-4.271,4.034.087.223.96,1.258,9.71-.4,13.78-2.6,19.112-7.166,18.791-8.919-.139-.756-1.584-1.285-4.505-.768a.5.5,0,0,1-.175-.984c3.262-.578,5.377.01,5.663,1.572.556,3.03-6.62,7.63-19.588,10.081a43.276,43.276,0,0,1-7.556.929" fill="#261d2a"/>
          <path id="Trazado_881549" data-name="Trazado 881549" d="M202.625,95.652a.5.5,0,0,1-.453-.288c-1.307-2.788-5.463-2.91-5.5-2.911a.5.5,0,0,1-.489-.511.518.518,0,0,1,.51-.489c.2,0,4.822.142,6.389,3.487a.5.5,0,0,1-.452.712" fill="#261d2a"/>
          <path id="Trazado_881550" data-name="Trazado 881550" d="M204.66,98.587a.5.5,0,0,1-.5-.436,1.071,1.071,0,0,0-.583-.7.5.5,0,0,1-.246-.662.5.5,0,0,1,.658-.249,2.076,2.076,0,0,1,1.164,1.487.5.5,0,0,1-.433.56.459.459,0,0,1-.064,0" fill="#261d2a"/>
          <path id="Trazado_881551" data-name="Trazado 881551" d="M6.031,175.4s2.73-9.287,3.475-8.153a78.287,78.287,0,0,1,2.978,7.358s7.857,2.649,7.652,3.179-7.051,3.311-7.051,3.311-2.214,8.078-3.455,7.283-3.391-7.239-3.391-7.239-7.033-.679-6.165-2.282S6.031,175.4,6.031,175.4" fill="#e8c01b"/>
          <path id="Trazado_881552" data-name="Trazado 881552" d="M226.923,98.133s2.73-9.287,3.475-8.153a78.286,78.286,0,0,1,2.978,7.358s7.857,2.649,7.652,3.179-7.051,3.311-7.051,3.311-2.214,8.078-3.455,7.283-3.391-7.239-3.391-7.239-7.034-.679-6.165-2.282,5.957-3.457,5.957-3.457" fill="#e8c01b"/>
          <path id="Trazado_881553" data-name="Trazado 881553" d="M12.465,145.725s1.692-5.757,2.154-5.054a48.585,48.585,0,0,1,1.846,4.561s4.87,1.642,4.743,1.971-4.37,2.052-4.37,2.052-1.373,5.008-2.142,4.515-2.1-4.487-2.1-4.487-4.36-.421-3.822-1.415,3.693-2.143,3.693-2.143" fill="#e8c01b"/>
          <path id="Trazado_881554" data-name="Trazado 881554" d="M209.912,4.783s-35.611-19.4-61.2,19.954c-19.956,30.7,20.022,45.545,19.678,45.961-1.777,2.145-6.178,11.589-4.057,13.1s18.1-3.841,18.1-3.841,24.772,8.3,40.967-8.492c9.094-9.43,24.148-49.669-13.489-66.681" fill="#76ada1"/>
          <path id="Trazado_881555" data-name="Trazado 881555" d="M210.059,23.677c13.809,13.775-9.207,25.163-11.386,25.217s-.909,10.257-2.156,10.174-14.26-1.748-14.932-1.985,3.795-5.974-1.753-8.775c-3-1.513-15.864-9.249-10.932-18.274,11.392-20.848,33.648-13.849,41.159-6.357" fill="#e8c01b"/>
          <path id="Trazado_881556" data-name="Trazado 881556" d="M190.442,75.461a3.642,3.642,0,0,1-1.588-.412,6.852,6.852,0,0,1-2.573-2.011,6.124,6.124,0,0,1-.876.7c-1.363.88-2.2.35-2.571-.044-2.326-2.441-.9-10.338-.725-11.23a.5.5,0,1,1,.982.187c-.437,2.285-1.2,8.6.467,10.354.117.122.427.448,1.279-.091a5.418,5.418,0,0,0,.929-.769,4.31,4.31,0,0,1-.32-2.29,4.492,4.492,0,0,1,3.062-3.772.88.88,0,0,1,1.052.512c.415,1.026-.953,3.8-2.571,5.688a5.721,5.721,0,0,0,2.3,1.862,1.9,1.9,0,0,0,1.984.058c2.037-1.337,2.219-7.477,2.118-9.73a.5.5,0,0,1,.477-.522.492.492,0,0,1,.522.477c.04.886.31,8.721-2.568,10.611a2.474,2.474,0,0,1-1.384.417m-1.788-8.376a3.519,3.519,0,0,0-2.216,2.9,3.261,3.261,0,0,0,.085,1.295c1.219-1.556,2.17-3.554,2.131-4.2" fill="#261d2a"/>
          <path id="Trazado_881557" data-name="Trazado 881557" d="M192.29,56.5h-.037a.5.5,0,0,1-.462-.535c.031-.432.581-7.992,1.178-13.277a11.532,11.532,0,0,1-4.3-.157,70.722,70.722,0,0,1-1.237,11.531.5.5,0,0,1-.982-.194,67.564,67.564,0,0,0,1.216-11.627,9.807,9.807,0,0,1-3.223-1.84c-1.743-1.519-2.661-3.533-2.284-5.011a2.211,2.211,0,0,1,1.773-1.646,2.948,2.948,0,0,1,2.863.739c1.31,1.281,1.794,4,1.865,7.012a10.536,10.536,0,0,0,4.429.16c.179-1.468.359-2.679.528-3.385.735-3.072,2.895-4.112,4.729-4.063a3.3,3.3,0,0,1,3.345,2.351c.193,1.061-.2,3.132-4.989,5.087A16.635,16.635,0,0,1,194,42.5c-.613,5.343-1.2,13.429-1.209,13.537a.5.5,0,0,1-.5.464m5.945-21.3c-.771,0-2.924.282-3.645,3.3-.148.619-.307,1.662-.467,2.941a15.964,15.964,0,0,0,2.2-.724c2.977-1.215,4.616-2.7,4.383-3.982a2.355,2.355,0,0,0-2.389-1.53l-.083,0m-13.485-.555a2.787,2.787,0,0,0-.6.07,1.228,1.228,0,0,0-1.019.917c-.231.9.288,2.542,1.972,4.01a8.71,8.71,0,0,0,2.55,1.522c-.085-2.675-.513-4.953-1.554-5.971a1.847,1.847,0,0,0-1.346-.548" fill="#261d2a"/>
          <path id="Trazado_881558" data-name="Trazado 881558" d="M182.574,51.184s15.8-.031,17.363,2.828-2.492,3.7-2.492,3.7,3.437,1.219,2.463,3.26a2.5,2.5,0,0,1-3.215,1.141s3.221,1.83,2.328,3.266-16.908.3-20.336-2.277,2.062-3.762,2.062-3.762-4.358-.743-3.646-2.4S181.38,55.5,181.38,55.5s-7.933-4.724,1.194-4.315" fill="#403955"/>
          <path id="Trazado_881559" data-name="Trazado 881559" d="M208.463,34.762a.49.49,0,0,1-.159-.026.5.5,0,0,1-.315-.633c.954-2.85.783-5.33-.507-7.371-2.951-4.666-10.785-5.659-10.864-5.668a.5.5,0,0,1,.119-.993c.342.041,8.388,1.064,11.59,6.127,1.459,2.307,1.665,5.074.61,8.223a.5.5,0,0,1-.474.341" fill="#fcfdff"/>
          <path id="Trazado_881560" data-name="Trazado 881560" d="M204.751,42.962a1.469,1.469,0,0,1-.287-.028.5.5,0,0,1,.2-.981c1.018.215,2.74-2.706,3.577-4.74a.5.5,0,1,1,.925.381c-.381.927-2.32,5.368-4.412,5.368" fill="#fcfdff"/>
          <path id="Trazado_881561" data-name="Trazado 881561" d="M196.377,57.371l-.046,0-15-1.371a.5.5,0,0,1-.453-.544.513.513,0,0,1,.544-.452l15,1.371a.5.5,0,0,1-.045,1" fill="#fcfdff"/>
          <path id="Trazado_881562" data-name="Trazado 881562" d="M195.815,62.02l-.049,0L181.176,60.6a.5.5,0,0,1-.449-.547.508.508,0,0,1,.546-.449l14.59,1.421a.5.5,0,0,1-.048,1" fill="#fcfdff"/>
          <path id="Trazado_881563" data-name="Trazado 881563" d="M191.9,15.033a.5.5,0,0,1-.5-.5V7.907a.5.5,0,1,1,1,0v6.626a.5.5,0,0,1-.5.5" fill="#261d2a"/>
          <path id="Trazado_881564" data-name="Trazado 881564" d="M177.929,17.949a.5.5,0,0,1-.418-.225L173.4,11.5a.5.5,0,0,1,.835-.551l4.108,6.229a.5.5,0,0,1-.417.775" fill="#261d2a"/>
          <path id="Trazado_881565" data-name="Trazado 881565" d="M168.916,26.165a.5.5,0,0,1-.269-.079l-6.228-3.975a.5.5,0,0,1,.538-.843l6.229,3.976a.5.5,0,0,1-.27.921" fill="#261d2a"/>
          <path id="Trazado_881566" data-name="Trazado 881566" d="M158.579,36.767a.5.5,0,0,1-.072-.995l7.222-1.06a.5.5,0,0,1,.146.99l-7.223,1.06a.456.456,0,0,1-.073,0" fill="#261d2a"/>
          <path id="Trazado_881567" data-name="Trazado 881567" d="M163.219,50.152a.5.5,0,0,1-.3-.9l6.228-4.573a.5.5,0,1,1,.592.806l-6.229,4.573a.492.492,0,0,1-.3.1" fill="#261d2a"/>
          <path id="Trazado_881568" data-name="Trazado 881568" d="M171.964,57.371a.485.485,0,0,1-.235-.059.5.5,0,0,1-.205-.676l3.047-5.712a.5.5,0,1,1,.882.47L172.4,57.106a.5.5,0,0,1-.441.265" fill="#261d2a"/>
          <path id="Trazado_881569" data-name="Trazado 881569" d="M208.7,57.971a.5.5,0,0,1-.442-.267l-3.34-6.312a.5.5,0,1,1,.884-.467l3.339,6.313a.5.5,0,0,1-.441.733" fill="#261d2a"/>
          <path id="Trazado_881570" data-name="Trazado 881570" d="M219.275,49.754a.5.5,0,0,1-.259-.072l-6.891-4.176a.5.5,0,1,1,.518-.855l6.892,4.175a.5.5,0,0,1-.26.928" fill="#261d2a"/>
          <path id="Trazado_881571" data-name="Trazado 881571" d="M215.829,33.852a.5.5,0,0,1-.053-1l7.422-.795a.5.5,0,1,1,.106.994l-7.421.795a.488.488,0,0,1-.054,0" fill="#261d2a"/>
          <path id="Trazado_881572" data-name="Trazado 881572" d="M214.108,24.177a.5.5,0,0,1-.314-.89l5.433-4.373a.5.5,0,0,1,.627.78l-5.433,4.373a.5.5,0,0,1-.313.11" fill="#261d2a"/>
          <path id="Trazado_881573" data-name="Trazado 881573" d="M204.562,17.063a.5.5,0,0,1-.409-.787l4.537-6.482a.5.5,0,0,1,.82.573l-4.538,6.483a.5.5,0,0,1-.41.213" fill="#261d2a"/>
          <path id="Trazado_881574" data-name="Trazado 881574" d="M126.751,76.841c-8.688-17.828-20.374-11.249-20.374-11.249C86,70.279,77.176,77.4,86.51,99.233a52.128,52.128,0,0,0,2.471,5.018c-2.005,6.372-5.055,15.637-6.436,17.618-2.148,3.081-12.8-2.958-15.983,4.808s12.747,25.714,28.253,26.341c23.288.941,26.16-21.127,17.822-22.391s-11.5-2.309-12.328-5.6c-.33-1.32,1-3.707,2.7-6.091,5.618,2.9,11.1,2.6,14.648-1.857,3.764-4.737,3.087-10.28,5.325-14.205s4.647,2.206,8.1-.982,4.363-7.225-4.325-25.053" fill="#dd988b"/>
          <path id="Trazado_881575" data-name="Trazado 881575" d="M148.163,152.453c-9.891-19.768-27.087-23.476-32.932-24.171-6.9-2.612-14.085-3.058-14.922-3.253,0,0,7.64,20.909-6.429,10.859-16.009-11.435-11.335-14.019-11.335-14.019a34.493,34.493,0,0,0-6.347-.8c.008-.026.014-.042.014-.042-35.343-8.2-56.8,41.62-46.261,44.6,2.982.844,9.317,1.668,15.881,2.357-.069,15.832-9.474,38.483,9.249,37.079,22.588-1.7,88.659,8.753,85.758,0-1.349-4.077-4.131-16.282-6.719-28.78,6.844-4.716,19.564-12.794,14.043-23.832" fill="#be607a"/>
          <path id="Trazado_881576" data-name="Trazado 881576" d="M169.621,132.688s9.412,54.545-8.659,61.155-15.274-19.308-15.253-23.072,6.783-26.813,7.065-29.057,16.847-9.026,16.847-9.026" fill="#dd988b"/>
          <path id="Trazado_881577" data-name="Trazado 881577" d="M120.469,93.4a1.666,1.666,0,0,1-.846-.243c-3.011-1.76-1.47-9.282-1.284-10.134a.5.5,0,1,1,.977.213c-.461,2.118-1.213,7.874.812,9.057a.578.578,0,0,0,.589.046c1.378-.654,2.609-5.464,3.062-8.343a.5.5,0,1,1,.988.154c-.128.815-1.318,8-3.621,9.093a1.584,1.584,0,0,1-.677.157" fill="#261d2a"/>
          <path id="Trazado_881578" data-name="Trazado 881578" d="M107.3,91.875a1.666,1.666,0,0,1-.846-.243c-3.011-1.76-1.47-9.282-1.284-10.134a.5.5,0,1,1,.977.213c-.461,2.118-1.213,7.874.812,9.058a.58.58,0,0,0,.589.045c1.379-.655,2.61-5.465,3.063-8.343a.5.5,0,0,1,.988.154c-.129.816-1.319,8-3.622,9.093a1.587,1.587,0,0,1-.677.157" fill="#261d2a"/>
          <path id="Trazado_881579" data-name="Trazado 881579" d="M92.1,95.258a2.018,2.018,0,0,1-1.583-.786,2.8,2.8,0,0,1-.083-3.753,2.578,2.578,0,0,1,3.112-.842.5.5,0,0,1-.492.871,1.631,1.631,0,0,0-1.854.614,1.8,1.8,0,0,0,.087,2.473,1.024,1.024,0,0,0,1.059.4,2.88,2.88,0,0,0,1.845-2.075,3.42,3.42,0,0,0-1.106-3.537c-3.161-2.968-5.675-.76-5.78-.665a.5.5,0,0,1-.676-.737c.033-.029,3.291-2.943,7.141.674a4.453,4.453,0,0,1,1.384,4.534,3.859,3.859,0,0,1-2.6,2.784,2.226,2.226,0,0,1-.453.049" fill="#261d2a"/>
          <path id="Trazado_881580" data-name="Trazado 881580" d="M105.313,120.469a.5.5,0,0,1-.141-.021c-8.888-2.607-12.143-13.929-12.277-14.41a.5.5,0,1,1,.963-.269c.032.112,3.243,11.27,11.6,13.721a.5.5,0,0,1-.141.979" fill="#261d2a"/>
          <path id="Trazado_881581" data-name="Trazado 881581" d="M139.7,72.453c-4.16-3.818-.982,1.485-2.791-8.3-4.041-21.864-26.646-11.981-26.646-11.981s-11.042-5.52-21.309-5.852c.342-6.473-1.618-15.631-16.038-13.772-17.346,2.237-19.4,19.957-6.524,28.52q.607.4,1.2.732c-3.3,5.629-6.879,12.853-14.114,17.242-12.472,7.568-2.559,24.251,4.73,27.043s6.844,14.881,20,11.651,10.7-16.706,10.7-16.706c-3.7-5.37-3.664-11.29-2.29-16.834,16.235,5.42,20.723-11.559,21.778-17.476-.422,4.1-.331,13.38,8.682,15.49,2.7.632,3.9-14.836,3.9-14.836s-.535,5.385,5.775,9.468c9.213,5.96,17.11-.57,12.95-4.388" fill="#d37e3a"/>
          <path id="Trazado_881582" data-name="Trazado 881582" d="M146.28,143.814s-2.638-39.679-1.715-39.679,28.821-1.935,28.821-1.935v41.614Z" fill="#eeebd5"/>
          <path id="Trazado_881583" data-name="Trazado 881583" d="M203.369,210.839s8.93-60.781,4.026-61.571-64.618-4.372-69.052-.084-7.966,49.771-7.966,49.771-28.71-2.335-28.767-.87-2.265,12.759-2.265,12.759Z" fill="#403955"/>
          <path id="Trazado_881584" data-name="Trazado 881584" d="M143.363,119.324s32.806-2.308,33.552-.426,0,17.129,0,17.129-31.776,1.883-32.173,0-1.379-16.7-1.379-16.7" fill="#9f543d"/>
          <path id="Trazado_881585" data-name="Trazado 881585" d="M178.092,123.465s10.471-8.377-7.718-6.776c-17.476,1.538-2.207,6.438-1.184,6.759-.517-.157-4.62-1.284-6.91,1.711-1.746,2.284,2.834,3.321,5.6,3.728-2.544-.184-6.819-.06-7.859,2.672-1.506,3.953,7.371,2.064,12.049,8.847,2.35,3.408,8.656-1.317,5.645-6.776a4,4,0,0,0,5.27-1.789c1.882-3.4-4.894-8.376-4.894-8.376" fill="#dd988b"/>
          <path id="Trazado_881586" data-name="Trazado 881586" d="M146.845,107.2s23.529-2.482,23.529-1.3-4.728,9.3-15.247,7.033-8.282-5.736-8.282-5.736" fill="#403955"/>
          <path id="Trazado_881587" data-name="Trazado 881587" d="M122.178,80.411a9,9,0,0,0-8.042,4.98,8.993,8.993,0,0,0-17.931.18L85.644,83.305a.5.5,0,0,0-.21.978l10.761,2.309a8.986,8.986,0,0,0,17.021,3.613,9,9,0,1,0,8.962-9.794m-17,13.774a8,8,0,1,1,8-8,8.01,8.01,0,0,1-8,8m17,3.229a8,8,0,1,1,8-8,8.01,8.01,0,0,1-8,8" fill="#fcfdff"/>
          <path id="Trazado_881588" data-name="Trazado 881588" d="M60.633,168.259a.5.5,0,0,1-.495-.435c-1.7-12.963,6.955-26.252,7.043-26.385a.5.5,0,0,1,.835.55c-.086.13-8.536,13.116-6.887,25.705a.5.5,0,0,1-.431.561.484.484,0,0,1-.065,0" fill="#261d2a"/>
          <path id="Trazado_881589" data-name="Trazado 881589" d="M118.986,173.912c-13.553-6.965-27.618,5.988-27.618,5.988s-21.9,14.493-33.788,5.892c-4.46-3.226-1.279-17.148-1.279-17.148-2.954-2.636-26.35-3.014-26.35-3.014S22,189.2,37.215,201.7c27.479,22.58,51.244,4.22,59.43-2.833,5.546,1.835,9.7-5.628,11.423-5.941,2.071-.377,7.153,10.406,11.106,6.265,1.088-1.14,1.035-1.38.594-3.116,1.692,2.143,3.523,2.15,4.677,1.212a1.984,1.984,0,0,0,.644-1.518,7.088,7.088,0,0,0,1.991,1.614c4.894,2.447,5.459-16.5-8.094-23.469" fill="#dd988b"/>
          <path id="Trazado_881590" data-name="Trazado 881590" d="M98.367,199.689c-4,0-7.27-3.258-7.413-3.4a.5.5,0,0,1,.711-.7c.034.033,3.384,3.365,7.175,3.087a7.316,7.316,0,0,0,5.312-3.393.5.5,0,1,1,.808.59c-1.712,2.349-3.748,3.628-6.051,3.8-.182.014-.363.02-.542.02" fill="#261d2a"/>
          <path id="Trazado_881591" data-name="Trazado 881591" d="M120.161,197.881a.5.5,0,0,1-.481-.367c-2.539-9.237-8.621-12.4-8.683-12.426a.5.5,0,0,1,.449-.9c.265.133,6.534,3.365,9.2,13.055a.5.5,0,0,1-.349.615.507.507,0,0,1-.133.018" fill="#261d2a"/>
          <path id="Trazado_881592" data-name="Trazado 881592" d="M125.091,196.073a.5.5,0,0,1-.492-.412c-1.863-10.383-6.791-13.963-6.841-14a.5.5,0,0,1,.573-.819c.216.15,5.31,3.811,7.253,14.641a.5.5,0,0,1-.4.58.545.545,0,0,1-.089.008" fill="#261d2a"/>
          <path id="Trazado_881593" data-name="Trazado 881593" d="M81.9,51.541a.5.5,0,0,1-.369-.837c.047-.052,4.67-5.178,3.256-8.9-.817-2.15-3.523-3.482-8.042-3.958a.5.5,0,1,1,.1-.994c4.927.519,7.912,2.066,8.873,4.6,1.631,4.3-3.245,9.7-3.453,9.929a.5.5,0,0,1-.369.163" fill="#261d2a"/>
          <path id="Trazado_881594" data-name="Trazado 881594" d="M76.8,53.492a.5.5,0,0,1-.333-.127c-.454-.405-11.053-10.008-6.182-17.728a.5.5,0,0,1,.846.534c-4.421,7,5.9,16.354,6,16.448a.5.5,0,0,1-.333.873" fill="#261d2a"/>
          <path id="Trazado_881595" data-name="Trazado 881595" d="M72.869,56.623a.536.536,0,0,1-.079-.006,9.261,9.261,0,0,1-6.652-4.028c-3.174-4.866-1.316-12.1-1.235-12.405a.5.5,0,1,1,.966.255c-.018.071-1.824,7.115,1.108,11.607a8.31,8.31,0,0,0,5.97,3.584.5.5,0,0,1-.078.993" fill="#261d2a"/>
          <path id="Trazado_881596" data-name="Trazado 881596" d="M57.778,101.9a.5.5,0,0,1-.466-.32c-.108-.278-2.587-6.871.643-12.814,2.185-4.02,6.442-6.721,12.651-8.025,2.338-.491,2.809-3.588,3.4-7.508,1.3-8.52,3.25-21.371,27.342-20.737a.5.5,0,0,1-.028,1C78.124,52.841,76.317,64.719,75,73.379c-.629,4.133-1.172,7.7-4.189,8.336-5.9,1.241-9.933,3.77-11.973,7.517-3.012,5.531-.618,11.921-.593,11.984a.5.5,0,0,1-.287.647.516.516,0,0,1-.18.033" fill="#261d2a"/>
          <path id="Trazado_881597" data-name="Trazado 881597" d="M105.41,101.076s.942-4.517,5.908-1.443-.827,15.559-6.029,13.194.121-11.751.121-11.751" fill="#c45041"/>
          <path id="Trazado_881598" data-name="Trazado 881598" d="M108.257,107.7a2.107,2.107,0,0,1-.6-.086c-3.215-.951-2.894-9.907-2.847-10.926a.485.485,0,0,1,.523-.475.5.5,0,0,1,.476.522c-.163,3.543.271,9.37,2.131,9.92.82.246,2.81-.388,6.879-7.351a.5.5,0,1,1,.863.5c-3.127,5.352-5.511,7.893-7.428,7.893" fill="#261d2a"/>
          <path id="Trazado_881599" data-name="Trazado 881599" d="M130.468,174.789a.5.5,0,0,1-.412-.782,18.484,18.484,0,0,0,2.424-5.9,11.585,11.585,0,0,0-3.3-11.342c-8.036-7.844-5.87-14.907-5.773-15.2a.5.5,0,0,1,.951.307c-.021.067-2.046,6.795,5.52,14.182,8.113,7.919,1.077,18.418,1,18.522a.5.5,0,0,1-.413.218" fill="#261d2a"/>
          <path id="Trazado_881600" data-name="Trazado 881600" d="M176.492,133.188a.5.5,0,0,1-.376-.17c-.038-.045-3.964-4.41-9.727-3.691a.5.5,0,0,1-.122-.993,12.833,12.833,0,0,1,10.6,4.024.5.5,0,0,1-.376.83" fill="#261d2a"/>
          <path id="Trazado_881601" data-name="Trazado 881601" d="M178.657,125.847a.5.5,0,0,1-.394-.191c-2.866-3.646-10.694-1.635-10.773-1.614a.5.5,0,1,1-.255-.966c.347-.092,8.544-2.2,11.815,1.962a.5.5,0,0,1-.393.809" fill="#261d2a"/>
          <path id="Trazado_881602" data-name="Trazado 881602" d="M143.9,126.862s-11.638-16.761,6.62-12.056c11.216,2.89-4.611,4.8-4.611,4.8s3.612,7.256-2.009,7.256" fill="#dd988b"/>
          <path id="Trazado_881603" data-name="Trazado 881603" d="M113.143,130.59a.5.5,0,1,0-.988.152,25.831,25.831,0,0,1,.2,3.5l-8.188-3.051a.5.5,0,1,0-.35.936l8.369,3.119a.46.46,0,0,0,.148.009c-.131,3.306-.886,7.733-3.645,10.8a10.274,10.274,0,0,1-1.933,1.671L101.8,138.49a.489.489,0,0,0-.677-.205.5.5,0,0,0-.2.677l4.967,9.25c0,.006.008.009.011.014a14.37,14.37,0,0,1-7.621,1.48,23.745,23.745,0,0,1-9.018-2.162l5.078-11.451a.5.5,0,0,0-.914-.406L88.365,147.1a25.688,25.688,0,0,1-9.811-9.46l7.459-6.649a.5.5,0,0,0-.666-.747l-7.315,6.521a41.521,41.521,0,0,1-4.83-13.588.5.5,0,0,0-.991.128,42.558,42.558,0,0,0,5.169,14.325.484.484,0,0,0,.115.283.443.443,0,0,0,.087.064c3.809,6.25,10.171,12.234,20.648,12.731q.513.024,1.009.025c4.367.009,7.8-1.338,10.2-4.011,5.225-5.808,3.769-15.709,3.7-16.128" fill="#261d2a"/>
          <path id="Trazado_881604" data-name="Trazado 881604" d="M49.527,206.223a.5.5,0,0,1-.5-.467c-.234-3.512-1.306-5.935-3.185-7.205-2.6-1.758-5.916-.705-5.949-.694a.5.5,0,0,1-.311-.951,8.489,8.489,0,0,1,6.82.817c2.148,1.451,3.367,4.132,3.623,7.967a.5.5,0,0,1-.466.532h-.034" fill="#261d2a"/>
          <path id="Trazado_881605" data-name="Trazado 881605" d="M34.608,155.368a.5.5,0,0,1-.455-.291,3.553,3.553,0,0,1,1.267-4.195.5.5,0,1,1,.625.781,2.551,2.551,0,0,0-.983,3,.5.5,0,0,1-.246.663.5.5,0,0,1-.208.046" fill="#fcfdff"/>
          <path id="Trazado_881606" data-name="Trazado 881606" d="M38.764,153.782a.5.5,0,0,1-.453-.29,3.556,3.556,0,0,1,1.267-4.2.5.5,0,1,1,.625.781,2.546,2.546,0,0,0-.982,3,.5.5,0,0,1-.457.705" fill="#fcfdff"/>
          <path id="Trazado_881607" data-name="Trazado 881607" d="M36.694,148.873a.5.5,0,0,1-.453-.289,3.559,3.559,0,0,1,1.267-4.2.5.5,0,0,1,.625.782,2.548,2.548,0,0,0-.982,3,.5.5,0,0,1-.457.7" fill="#fcfdff"/>
          <path id="Trazado_881608" data-name="Trazado 881608" d="M40.9,146.545a.5.5,0,0,1-.453-.29,3.556,3.556,0,0,1,1.267-4.2.5.5,0,1,1,.625.781,2.546,2.546,0,0,0-.982,3,.5.5,0,0,1-.457.705" fill="#fcfdff"/>
          <path id="Trazado_881609" data-name="Trazado 881609" d="M42.854,151.411a.5.5,0,0,1-.453-.29,3.556,3.556,0,0,1,1.267-4.2.5.5,0,0,1,.625.781,2.546,2.546,0,0,0-.982,3,.5.5,0,0,1-.457.705" fill="#fcfdff"/>
          <path id="Trazado_881610" data-name="Trazado 881610" d="M39.37,141.623a.5.5,0,0,1-.453-.289,3.559,3.559,0,0,1,1.267-4.2.5.5,0,0,1,.625.782,2.548,2.548,0,0,0-.982,3,.5.5,0,0,1-.457.7" fill="#fcfdff"/>
          <path id="Trazado_881611" data-name="Trazado 881611" d="M42.894,140.371a.5.5,0,0,1-.493-.421,3.657,3.657,0,0,1,2.469-3.69.5.5,0,0,1,.405.914A2.636,2.636,0,0,0,43.39,139.8a.5.5,0,0,1-.422.565.471.471,0,0,1-.074.006" fill="#fcfdff"/>
          <path id="Trazado_881612" data-name="Trazado 881612" d="M167.536,167.714s14.223,2.522,11.823,12.061-14.258,8.927-15.811,6.01c-.4-.758,9.4-3.425,6.07-10.165-3.07-6.212-5.762-9.086-2.082-7.906" fill="#e8c01b"/>
          <path id="Trazado_881613" data-name="Trazado 881613" d="M184.785,201.612c-19.131,0-48.227-1.817-49.91-1.924a.5.5,0,0,1,.063-1c.568.036,56.895,3.557,65.04.971a.5.5,0,0,1,.3.953c-2.3.731-8.172,1-15.5,1" fill="#fcfdff"/>
          <path id="Trazado_881614" data-name="Trazado 881614" d="M140.932,166.719s18.257-16.941,20.092-15.247,7.2,8.329,7.2,8.329-20.471,17.506-22.165,16.659-5.127-9.741-5.127-9.741" fill="#76ada1"/>
          <path id="Trazado_881615" data-name="Trazado 881615" d="M180.509,185.893s19.587-.228,20.01,0-.706,9.458-.706,9.458-20.047,1.325-20.329,0,1.025-9.458,1.025-9.458" fill="#d37e3a"/>
          <path id="Trazado_881616" data-name="Trazado 881616" d="M181.212,163.894s15.529,11.47,15.529,10.4,3.106-17.876,1.412-18.158-16.941,7.763-16.941,7.763" fill="#be607a"/>
          <path id="Trazado_881617" data-name="Trazado 881617" d="M145.213,171.212a.389.389,0,0,1-.059,0,.5.5,0,0,1-.438-.555c.028-.235.71-5.727,3.776-5.538.477.036.965.115,1.448.195,1.175.193,2.286.376,3.007-.179a4.019,4.019,0,0,0,1.1-2.855c.245-2.383.649-3.447,1.445-3.794.943-.413,1.99.373,3.574,1.561l.662.494c.518.384.946.5,1.27.349.861-.4,1.292-2.542,1.361-3.795a.488.488,0,0,1,.527-.472.5.5,0,0,1,.471.527c-.021.392-.256,3.855-1.933,4.645a2.182,2.182,0,0,1-2.291-.449l-.668-.5c-1.113-.835-2.169-1.618-2.572-1.445-.261.114-.62.723-.851,2.979-.18,1.76-.667,2.92-1.488,3.549-1.065.814-2.444.59-3.777.37-.453-.074-.911-.15-1.36-.183-.032,0-.065,0-.1,0-2,0-2.607,4.614-2.612,4.661a.5.5,0,0,1-.5.441" fill="#261d2a"/>
          <path id="Trazado_881618" data-name="Trazado 881618" d="M183.316,189.383a.5.5,0,0,1-.052-1c.492-.053,12.066-1.309,13.5-1.2a.5.5,0,0,1,.474.524.488.488,0,0,1-.525.474c-1.091-.06-9.205.761-13.347,1.2a.471.471,0,0,1-.053,0" fill="#261d2a"/>
          <path id="Trazado_881619" data-name="Trazado 881619" d="M182.945,193.3a.5.5,0,0,1-.049-1l14.117-1.412a.5.5,0,1,1,.1.994L182.995,193.3a.419.419,0,0,1-.05,0" fill="#261d2a"/>
          <path id="Trazado_881620" data-name="Trazado 881620" d="M80.464,77.876a.576.576,0,0,1-.082-.006.5.5,0,0,1-.412-.574c1.486-9.051,7.376-16.877,14.656-19.478,4.408-1.573,8.579-.905,11.745,1.884a.5.5,0,0,1-.661.75c-2.88-2.537-6.7-3.138-10.747-1.692-5.783,2.065-12.355,8.647-14.006,18.7a.5.5,0,0,1-.493.418" fill="#261d2a"/>
          <path id="Trazado_881621" data-name="Trazado 881621" d="M85.558,81.105a.5.5,0,0,1-.1-.99c9.374-1.838,17-13.145,17.076-13.259a.5.5,0,0,1,.833.555c-.319.479-7.931,11.766-17.717,13.684a.454.454,0,0,1-.1.01" fill="#261d2a"/>
          <path id="Trazado_881622" data-name="Trazado 881622" d="M133.443,74.6c-2.3,0-3.913-.482-4.912-1.469-1.44-1.421-1.416-3.623-1.391-5.953s.05-4.719-1.261-6.717c-3.415-5.2-10.156-2.609-10.441-2.5a.5.5,0,1,1-.369-.929c.077-.031,7.782-3.009,11.645,2.878,1.479,2.253,1.451,4.922,1.426,7.277-.024,2.2-.044,4.107,1.094,5.23.855.844,2.365,1.227,4.593,1.176a.5.5,0,1,1,.024,1c-.138,0-.275.005-.408.005" fill="#261d2a"/>
          <path id="Trazado_881623" data-name="Trazado 881623" d="M114.762,78.122a.472.472,0,0,1-.1-.01.5.5,0,0,1-.393-.588c.026-.131,2.526-13.128-4.2-15.919a.5.5,0,0,1,.383-.923c7.48,3.1,4.91,16.47,4.8,17.038a.5.5,0,0,1-.49.4" fill="#261d2a"/>
          <path id="Trazado_881624" data-name="Trazado 881624" d="M68.342,109.259A.5.5,0,0,1,67.9,109a15.721,15.721,0,0,1-.893-11.805c1.654-4.872,5.884-8.834,12.574-11.775a.5.5,0,0,1,.4.916c-6.416,2.82-10.461,6.577-12.024,11.167a14.984,14.984,0,0,0,.817,11.017.5.5,0,0,1-.438.74" fill="#261d2a"/>
          <path id="Trazado_881625" data-name="Trazado 881625" d="M79.291,113.327a.5.5,0,0,1-.449-.279c-3.218-6.544-3.964-12.055-2.22-16.381a11.137,11.137,0,0,1,6-6.14.5.5,0,0,1,.341.94,10.313,10.313,0,0,0-5.418,5.591c-1.624,4.05-.884,9.281,2.2,15.548a.5.5,0,0,1-.448.721" fill="#261d2a"/>
          <path id="Trazado_881626" data-name="Trazado 881626" d="M14.722,51.127c2.992-2.394,21.893,3.71,30.444,19.3,0,0-1.648,1-4.042,2.431-3.376-4.316-13.348-15.959-26.6-21.566.065-.055.13-.117.194-.168" fill="#be607a"/>
          <path id="Trazado_881627" data-name="Trazado 881627" d="M14.528,51.295c13.247,5.607,23.219,17.251,26.6,21.567-1.788,1.07-3.992,2.381-6.243,3.7C31.268,71.139,21.768,58.022,12,54.052a18.41,18.41,0,0,1,2.531-2.757" fill="#a17296"/>
          <path id="Trazado_881628" data-name="Trazado 881628" d="M10.07,56.8c.553-.855,1.214-1.818,1.927-2.743,9.772,3.969,19.271,17.086,22.884,22.512-2.393,1.4-4.834,2.817-6.879,3.96C26.133,76.011,20.464,64.131,10.07,56.8" fill="#76ada1"/>
          <path id="Trazado_881629" data-name="Trazado 881629" d="M10.07,56.8C20.464,64.131,26.133,76.011,28,80.525a30.986,30.986,0,0,1-4.9,2.457c-1.741.226-4.331-13.542-14.638-23.529,0,0,.639-1.159,1.609-2.657" fill="#d37e3a"/>
          <path id="Trazado_881630" data-name="Trazado 881630" d="M41.124,73.362a.5.5,0,0,1-.413-.217A70.358,70.358,0,0,0,14.323,51.752a.5.5,0,1,1,.411-.912,71.443,71.443,0,0,1,26.8,21.739.5.5,0,0,1-.129.695.5.5,0,0,1-.283.088" fill="#261d2a"/>
          <path id="Trazado_881631" data-name="Trazado 881631" d="M34.882,77.064a.5.5,0,0,1-.418-.225c-.134-.2-13.539-20.393-23.349-22.261A.5.5,0,1,1,11.3,53.6c10.225,1.948,23.439,21.848,24,22.694a.5.5,0,0,1-.143.693.493.493,0,0,1-.274.082" fill="#261d2a"/>
          <path id="Trazado_881632" data-name="Trazado 881632" d="M28,81.024a.5.5,0,0,1-.466-.318c-.059-.152-6.041-15.215-17.755-23.5a.5.5,0,0,1,.578-.817c11.963,8.463,18.049,23.8,18.109,23.955a.5.5,0,0,1-.466.682" fill="#261d2a"/>
          <path id="Trazado_881633" data-name="Trazado 881633" d="M18.955,48.808s-1.868-10.567-4.925-8.772c-2.9,1.707-5.433,7.65-5.433,7.65S.379,46.63.5,48.346s4.126,6.09,4.126,6.09S1.087,63.862,1.849,65.588s10.476-4.631,10.476-4.631,6.814,6.33,7.943,5.864S19.6,56.738,19.6,56.738s8.309-4.013,6.9-5.629-7.541-2.3-7.541-2.3" fill="#e8c01b"/>
          <path id="Trazado_881634" data-name="Trazado 881634" d="M17.207,49.686a.5.5,0,0,1-.489-.4c-.479-2.289-1.48-6.193-2.125-6.925a.5.5,0,1,1,.75-.661c1.031,1.17,2.221,6.749,2.354,7.381a.5.5,0,0,1-.387.591.457.457,0,0,1-.1.011" fill="#fcfdff"/>
          <path id="Trazado_881635" data-name="Trazado 881635" d="M134.642,25.731a.5.5,0,0,1-.312-.892,13.435,13.435,0,0,0,1.416-1.306.5.5,0,0,1,.729.686,14.735,14.735,0,0,1-1.522,1.4.5.5,0,0,1-.311.109m2.729-2.905a.5.5,0,0,1-.409-.787,13.122,13.122,0,0,0,.985-1.653.5.5,0,0,1,.895.447,14.078,14.078,0,0,1-1.061,1.779.5.5,0,0,1-.41.214m-25.86-.14a.5.5,0,0,1-.265-.076,4.882,4.882,0,0,1-1.5-1.623.5.5,0,0,1,.852-.525,3.949,3.949,0,0,0,1.18,1.3.5.5,0,0,1-.265.925m1.831-.1a.5.5,0,0,1-.344-.863,3.288,3.288,0,0,0,.77-1.521.5.5,0,0,1,.966.26,4.176,4.176,0,0,1-1.049,1.987.5.5,0,0,1-.343.137M85.414,20.759a3.642,3.642,0,0,1-.992-.145,4.189,4.189,0,0,1-.723-.279.5.5,0,1,1,.445-.9,3.208,3.208,0,0,0,.551.213,2.389,2.389,0,0,0,1.075.075.5.5,0,0,1,.178.985,3.2,3.2,0,0,1-.534.047m2.052-1.136a.5.5,0,0,1-.411-.785,4.435,4.435,0,0,0,.655-1.659.5.5,0,1,1,.98.2,5.4,5.4,0,0,1-.813,2.032.5.5,0,0,1-.411.215m21.862-.209a.5.5,0,0,1-.472-.336,12.443,12.443,0,0,1-.51-2.018.5.5,0,1,1,.986-.165,11.406,11.406,0,0,0,.469,1.856.5.5,0,0,1-.309.636.517.517,0,0,1-.164.027m29.813-.156a.487.487,0,0,1-.149-.023.5.5,0,0,1-.329-.626,10.7,10.7,0,0,0,.408-1.864.5.5,0,0,1,.992.124,11.713,11.713,0,0,1-.445,2.038.5.5,0,0,1-.477.351m-56.712-.171a.5.5,0,0,1-.407-.209,6.38,6.38,0,0,1-.924-1.951.5.5,0,0,1,.96-.279,5.4,5.4,0,0,0,.777,1.648.5.5,0,0,1-.115.7.492.492,0,0,1-.291.094m32.11-.231h-.025a.5.5,0,0,1-.475-.524c.009-.182.014-.369.014-.559a13.545,13.545,0,0,0-.071-1.365.5.5,0,0,1,.995-.1,14.666,14.666,0,0,1,.076,1.466c0,.207-.005.41-.015.607a.5.5,0,0,1-.5.476M88.348,15.787a.5.5,0,0,1-.5-.483,11.312,11.312,0,0,0-.233-1.9.5.5,0,0,1,.979-.2,12.182,12.182,0,0,1,.253,2.069.5.5,0,0,1-.483.516h-.017m20.318-.339a.469.469,0,0,1-.5-.462V14.91a12.272,12.272,0,0,1,.162-2,.5.5,0,0,1,.986.164,11.274,11.274,0,0,0-.148,1.834.534.534,0,0,1-.5.538m-27.4-.131a.5.5,0,0,1-.5-.48q-.009-.208-.009-.42a10.94,10.94,0,0,1,.131-1.671.5.5,0,0,1,.988.154,9.951,9.951,0,0,0-.119,1.517c0,.127,0,.254.008.379a.5.5,0,0,1-.479.52h-.021m58.355-.005a.5.5,0,0,1-.5-.463,8.713,8.713,0,0,0-.342-1.855.5.5,0,1,1,.958-.288,9.734,9.734,0,0,1,.381,2.069.5.5,0,0,1-.461.536h-.038m-25.468-.429a.5.5,0,0,1-.487-.387,16,16,0,0,0-.547-1.861.5.5,0,0,1,.942-.339,17.382,17.382,0,0,1,.58,1.975.5.5,0,0,1-.375.6.488.488,0,0,1-.113.012M59.414,12.944h-.029a.5.5,0,0,1-.47-.527,11.408,11.408,0,0,1,.371-2.075.5.5,0,1,1,.967.256,10.673,10.673,0,0,0-.34,1.876.5.5,0,0,1-.5.471m28.139-1.061a.5.5,0,0,1-.469-.327A13.709,13.709,0,0,0,86.291,9.8a.5.5,0,1,1,.881-.474,14.81,14.81,0,0,1,.85,1.886.5.5,0,0,1-.469.673m21.778-.319a.482.482,0,0,1-.174-.032.5.5,0,0,1-.295-.643,9.938,9.938,0,0,1,.933-1.882.5.5,0,0,1,.843.537,8.964,8.964,0,0,0-.838,1.694.5.5,0,0,1-.469.326m29.145-.048a.5.5,0,0,1-.435-.254,8.971,8.971,0,0,0-1.1-1.534.5.5,0,0,1,.748-.664,10,10,0,0,1,1.224,1.706.5.5,0,0,1-.435.746m-56.613-.132a.483.483,0,0,1-.162-.027.5.5,0,0,1-.311-.635,12.559,12.559,0,0,1,.834-1.9.5.5,0,1,1,.88.474,11.612,11.612,0,0,0-.768,1.755.5.5,0,0,1-.473.338m30.939-.255a.5.5,0,0,1-.447-.275,15.609,15.609,0,0,0-.978-1.671.5.5,0,1,1,.829-.558,16.4,16.4,0,0,1,1.042,1.779.5.5,0,0,1-.221.671.493.493,0,0,1-.225.054M60.422,9.077a.5.5,0,0,1-.2-.041.5.5,0,0,1-.261-.658,13.012,13.012,0,0,1,.975-1.838.5.5,0,1,1,.842.54,11.83,11.83,0,0,0-.9,1.695.5.5,0,0,1-.459.3m75.432-.543a.5.5,0,0,1-.307-.106,12.6,12.6,0,0,0-1.6-1.057.5.5,0,0,1,.488-.873,13.6,13.6,0,0,1,1.73,1.142.5.5,0,0,1-.308.894M85.665,8.371a.5.5,0,0,1-.4-.2c-.235-.32-.484-.632-.747-.932q-.189.222-.366.451a.5.5,0,1,1-.791-.611c.167-.217.342-.43.525-.637a.5.5,0,0,1,.143-.451.491.491,0,0,1,.407-.138q.158-.158.321-.311a.5.5,0,0,1,.684.729c-.081.076-.16.153-.239.231.306.346.6.707.869,1.078a.5.5,0,0,1-.4.8m25.8-.151a.5.5,0,0,1-.489-.605.415.415,0,0,1-.075.082.5.5,0,0,1-.705-.044,14.533,14.533,0,0,0-1.371-1.359.5.5,0,1,1,.655-.756,15.477,15.477,0,0,1,1.466,1.454.5.5,0,0,1,.113.436.5.5,0,0,1,.053-.061,10.279,10.279,0,0,1,1.627-1.321.5.5,0,1,1,.549.836,9.245,9.245,0,0,0-1.469,1.192.5.5,0,0,1-.354.146m20.922-1.648a.5.5,0,0,1-.189-.037c-.579-.236-1.2-.452-1.84-.642a.5.5,0,0,1,.284-.959c.674.2,1.324.427,1.933.675a.5.5,0,0,1-.188.963m-17.612-.546a.5.5,0,0,1-.2-.96,14.458,14.458,0,0,1,1.957-.669.5.5,0,1,1,.258.966,13.465,13.465,0,0,0-1.821.622.494.494,0,0,1-.2.041M62.583,5.733a.5.5,0,0,1-.365-.842,11.079,11.079,0,0,1,1.566-1.385.5.5,0,0,1,.588.809,10.127,10.127,0,0,0-1.424,1.259.5.5,0,0,1-.365.159m20.3-.218a.5.5,0,0,1-.306-.105,13.99,13.99,0,0,0-1.6-1.073.5.5,0,0,1,.5-.868A15.208,15.208,0,0,1,83.191,4.62a.5.5,0,0,1-.307.895m45.678-.088a.511.511,0,0,1-.1-.01c-.616-.128-1.261-.241-1.937-.335a.5.5,0,1,1,.139-.991c.685.1,1.358.213,2,.347a.5.5,0,0,1-.1.989m-21-.216a.486.486,0,0,1-.274-.083,15.3,15.3,0,0,0-1.68-.955.5.5,0,0,1,.438-.9,16.091,16.091,0,0,1,1.792,1.02.5.5,0,0,1-.276.917M86.652,5.15a.5.5,0,0,1-.284-.913,14.794,14.794,0,0,1,1.785-1.046.5.5,0,0,1,.444.9,13.454,13.454,0,0,0-1.662.975.5.5,0,0,1-.283.088m31.969-.168a.5.5,0,0,1-.072-.995c.649-.094,1.333-.161,2.034-.2a.5.5,0,1,1,.053,1c-.671.035-1.325.1-1.942.189a.456.456,0,0,1-.073,0m5.985-.114-.041,0-.507-.038q-.753-.052-1.461-.068a.5.5,0,0,1,.012-1h.011c.487.012.989.034,1.507.07l.518.039a.5.5,0,0,1-.039,1M79.431,3.523a.511.511,0,0,1-.19-.038,16.069,16.069,0,0,0-1.833-.628.5.5,0,1,1,.268-.964,17.206,17.206,0,0,1,1.946.667.5.5,0,0,1-.191.963m24.548-.065a.5.5,0,0,1-.164-.028,17.889,17.889,0,0,0-1.867-.536.5.5,0,0,1,.224-.975,18.937,18.937,0,0,1,1.971.566.5.5,0,0,1-.164.973M65.795,3.395a.5.5,0,0,1-.215-.952,12.447,12.447,0,0,1,1.948-.726.5.5,0,0,1,.271.962,11.549,11.549,0,0,0-1.79.668.494.494,0,0,1-.214.048m24.423-.024a.5.5,0,0,1-.163-.973,18.206,18.206,0,0,1,1.978-.555.5.5,0,1,1,.216.977,16.946,16.946,0,0,0-1.869.523.489.489,0,0,1-.162.028m9.877-.817a.489.489,0,0,1-.066,0q-.828-.108-1.712-.158l-.238-.012a.5.5,0,0,1-.475-.524.491.491,0,0,1,.524-.475l.241.012c.614.034,1.215.09,1.79.166a.5.5,0,0,1-.064,1M94.111,2.5a.5.5,0,0,1-.057-1c.654-.076,1.339-.126,2.036-.146a.53.53,0,0,1,.514.485.5.5,0,0,1-.485.514c-.668.02-1.323.067-1.949.141l-.059,0m-18.52-.054a.552.552,0,0,1-.081-.006l-.369-.056q-.814-.116-1.574-.175a.5.5,0,0,1-.46-.537.493.493,0,0,1,.537-.46q.791.062,1.638.182l.39.059a.5.5,0,0,1-.081.993M69.617,2.3a.5.5,0,0,1-.066-1,17.875,17.875,0,0,1,2.047-.15.5.5,0,1,1,.018,1,16.552,16.552,0,0,0-1.932.142.512.512,0,0,1-.067,0" fill="#261d2a"/>
          <path id="Trazado_881636" data-name="Trazado 881636" d="M22.428,16.633s-.708-6.578,7.663-8.121c5.708-1.052.536,3.473,1.22,6.288s-8.883,1.833-8.883,1.833" fill="#c45041"/>
          <path id="Trazado_881637" data-name="Trazado 881637" d="M26.252,30.818s3.342,5.711,10.989,1.974c5.216-2.549-1.633-3.11-2.757-5.782s-8.232,3.808-8.232,3.808" fill="#c45041"/>
          <path id="Trazado_881638" data-name="Trazado 881638" d="M15.343,26.875c3.157,6.258,20.741,2.773,20.93.765a11.707,11.707,0,0,0-.441-2.8,12.036,12.036,0,0,0,2.388-.523c.513-.291-1.51-7.165-2.092-7.825-.373-.423-1.722-.174-2.644.06-.5-1.609-.864-2.731-.864-2.731-.8-.953-21.573,4.533-17.277,13.049" fill="#fcfdff"/>
          <path id="Trazado_881639" data-name="Trazado 881639" d="M14.9,27.1c2.283,4.514,11.132,4.168,16,3.248,1.721-.325,5.737-1.235,5.872-2.661a10.126,10.126,0,0,0-.336-2.422,7.789,7.789,0,0,0,2.032-.508.662.662,0,0,0,.317-.5c.2-1.191-1.643-7.37-2.281-8.093-.024-.026-.048-.051-.073-.074-.622-.581-1.853-.368-2.614-.159-.354-1.128-.626-1.971-.721-2.262A.5.5,0,0,0,33,13.5a.474.474,0,0,0-.038-.04C31.755,12.337,22.842,15.419,18.933,18,14.7,20.79,13.3,23.938,14.9,27.1M35.751,16.827a29.414,29.414,0,0,1,2.059,7.13,11.326,11.326,0,0,1-1.6.331c-.556-2.291-1.413-5.185-2.1-7.4.757-.2,1.475-.24,1.638-.063M32.22,14.215c.248.766.513,1.6.782,2.468v.01l2.348,8.288a.091.091,0,0,0,.007.014,11.258,11.258,0,0,1,.422,2.572c-.289.693-4.706,2.161-9.988,2.35-4.285.153-7.51-.623-9.158-2.16a3.95,3.95,0,0,1-.845-1.107c-.935-1.854-.646-3.629.883-5.427,3.818-4.488,13.942-7.131,15.548-7.008" fill="#261d2a"/>
          <path id="Trazado_881640" data-name="Trazado 881640" d="M23.2,30.932S20.193,18.293,19.5,17.67s-7.69,5.131-6.494,8.759c1.554,4.718,9.354,4.537,10.194,4.5" fill="#c45041"/>
          <path id="Trazado_881641" data-name="Trazado 881641" d="M28.507,26.586a4.159,4.159,0,1,0-5.253-2.648,4.159,4.159,0,0,0,5.253,2.648" fill="#fcfdff"/>
          <path id="Trazado_881642" data-name="Trazado 881642" d="M25.486,26.964a4.653,4.653,0,1,1,3.177.1,4.646,4.646,0,0,1-3.177-.1m3.068-7.727a3.657,3.657,0,1,0,2.125,2.254,3.647,3.647,0,0,0-2.125-2.254" fill="#261d2a"/>
          <path id="Trazado_881643" data-name="Trazado 881643" d="M39.107,21.475a4.108,4.108,0,0,0,4.264,2.973c4.161-.2,9.414-7.6,8.65-8.446s-6.008-5.682-10.216-3.687-4.178,3.931-2.7,9.16" fill="#c45041"/>
          <path id="Trazado_881644" data-name="Trazado 881644" d="M39.835,20.166s.051,1.485,2.193,1.53,4.843-3.912,4.45-4.345-3.091-2.923-5.255-1.9-2.149,2.022-1.388,4.712" fill="#e8c01b"/>
          <path id="Trazado_881645" data-name="Trazado 881645" d="M26.1,25.541a2.114,2.114,0,0,1-.54-.313,2.858,2.858,0,0,1-.953-1.906.5.5,0,0,1,1-.063,1.859,1.859,0,0,0,.58,1.189,1.572,1.572,0,0,0,1.278.221.5.5,0,1,1,.169.986,2.808,2.808,0,0,1-1.532-.114" fill="#261d2a"/>
          <path id="Trazado_881646" data-name="Trazado 881646" d="M17.247,28.59a7.539,7.539,0,0,1-2.682-1.865.5.5,0,0,1,.756-.655A5.909,5.909,0,0,0,19.617,28a.5.5,0,1,1,.063,1,5.591,5.591,0,0,1-2.433-.406" fill="#261d2a"/>
        </g>
      </g>
    </g>
    <g id="Grupo_1103603" data-name="Grupo 1103603" transform="translate(-43 -117.958)">
      <rect id="Rectángulo_404156" data-name="Rectángulo 404156" width="248" height="91.916" transform="translate(247 1615)" fill="#5b2ccf"/>
    </g>
  </g>
</svg>
