<svg xmlns="http://www.w3.org/2000/svg" width="70" height="70" viewBox="0 0 70 70">
  <g id="Grupo_1103123" data-name="Grupo 1103123" transform="translate(-195 -5038)">
    <rect id="Rectángulo_404067" data-name="Rectángulo 404067" width="70" height="70" transform="translate(195 5038)" fill="#5b2ccf"/>
    <g id="Grupo_1103122" data-name="Grupo 1103122" transform="translate(205 5014.5)">
      <g id="Grupo_1103097" data-name="Grupo 1103097" transform="translate(13.137 69.377)">
        <g id="Grupo_1103096" data-name="Grupo 1103096">
          <circle id="Elipse_11675" data-name="Elipse 11675" cx="0.759" cy="0.759" r="0.759" fill="#fff"/>
        </g>
      </g>
      <g id="Grupo_1103099" data-name="Grupo 1103099" transform="translate(2.371 39.919)">
        <g id="Grupo_1103098" data-name="Grupo 1103098">
          <path id="Trazado_880789" data-name="Trazado 880789" d="M26.677,62.5a2.177,2.177,0,1,0,2.177,2.177A2.18,2.18,0,0,0,26.677,62.5Zm0,2.9a.726.726,0,1,1,.726-.726A.726.726,0,0,1,26.677,65.4Z" transform="translate(-24.5 -62.5)" fill="#fff"/>
        </g>
      </g>
      <g id="Grupo_1103101" data-name="Grupo 1103101" transform="translate(7.402 39.919)">
        <g id="Grupo_1103100" data-name="Grupo 1103100">
          <path id="Trazado_880790" data-name="Trazado 880790" d="M78.677,62.5a2.177,2.177,0,1,0,2.177,2.177A2.18,2.18,0,0,0,78.677,62.5Zm0,2.9a.726.726,0,1,1,.726-.726A.726.726,0,0,1,78.677,65.4Z" transform="translate(-76.5 -62.5)" fill="#fff"/>
        </g>
      </g>
      <g id="Grupo_1103103" data-name="Grupo 1103103" transform="translate(12.337 39.919)">
        <g id="Grupo_1103102" data-name="Grupo 1103102">
          <path id="Trazado_880791" data-name="Trazado 880791" d="M129.677,62.5a2.177,2.177,0,1,0,2.177,2.177A2.18,2.18,0,0,0,129.677,62.5Zm0,2.9a.726.726,0,1,1,.726-.726A.726.726,0,0,1,129.677,65.4Z" transform="translate(-127.5 -62.5)" fill="#fff"/>
        </g>
      </g>
      <g id="Grupo_1103105" data-name="Grupo 1103105" transform="translate(5.951 50.95)">
        <g id="Grupo_1103104" data-name="Grupo 1103104">
          <path id="Trazado_880792" data-name="Trazado 880792" d="M71.863,191.067h-.04V189.7a4.817,4.817,0,0,0,2.481-4.216v-1.244a1.23,1.23,0,0,0,.4-.719c.179-1.031.438-3.616-1.033-5.365a5.193,5.193,0,0,0-4.193-1.659,5.192,5.192,0,0,0-4.193,1.659c-1.47,1.748-1.212,4.334-1.033,5.365a1.228,1.228,0,0,0,.4.718v1.244a4.825,4.825,0,0,0,2.481,4.215v1.365H67.1a5.609,5.609,0,0,0-5.6,5.6v2.812a.726.726,0,0,0,.726.726H76.74a.726.726,0,0,0,.726-.726v-2.812A5.609,5.609,0,0,0,71.863,191.067ZM65.623,181a3.79,3.79,0,0,1,.777-1.9,3.888,3.888,0,0,1,6.942,1.9,2.146,2.146,0,0,0-.974-.96,1.248,1.248,0,0,0-1.447.32,3.1,3.1,0,0,1-2.877,0,1.247,1.247,0,0,0-1.447-.32A2.145,2.145,0,0,0,65.623,181Zm1.477,6.872a3.348,3.348,0,0,1-.987-2.383v-1.16a1.062,1.062,0,0,0,.135-.119,1.1,1.1,0,0,0,.3-.811,2.823,2.823,0,0,1,.531-1.957,4.366,4.366,0,0,0,4.814,0,2.822,2.822,0,0,1,.531,1.957,1.1,1.1,0,0,0,.3.811,1.076,1.076,0,0,0,.135.119v1.16a3.368,3.368,0,0,1-2.037,3.1l0,0a3.38,3.38,0,0,1-2.657,0h0l0,0A3.36,3.36,0,0,1,67.1,187.869Zm3.272,2.356v.842H68.594v-.842a4.8,4.8,0,0,0,1.778,0Zm5.642,8.53H62.951v-2.086a4.156,4.156,0,0,1,4.151-4.151h4.761a4.156,4.156,0,0,1,4.151,4.151Z" transform="translate(-61.5 -176.5)" fill="#fff"/>
        </g>
      </g>
      <g id="Grupo_1103107" data-name="Grupo 1103107" transform="translate(26.1 54.66)">
        <g id="Grupo_1103106" data-name="Grupo 1103106">
          <path id="Trazado_880793" data-name="Trazado 880793" d="M288.322,229.536l-13.883-13.883a2.739,2.739,0,0,0-1.949-.807q-.069,0-.137,0a2.761,2.761,0,0,0-.516.075l-.018,0a2.738,2.738,0,0,0-1.245.694l-.028.026-.008.007a2.756,2.756,0,0,0,0,3.9l13.883,13.883a.726.726,0,0,0,1.026,0l2.874-2.874A.726.726,0,0,0,288.322,229.536Zm-16.757-11.01a1.3,1.3,0,0,1,0-1.841l.006-.006a1.306,1.306,0,0,1,1.846,0h0l2.981,2.981-1.847,1.847Zm13.37,13.37-9.363-9.363,1.847-1.847,9.363,9.363Z" transform="translate(-269.731 -214.845)" fill="#fff"/>
        </g>
      </g>
      <g id="Grupo_1103109" data-name="Grupo 1103109" transform="translate(22.86 51.42)">
        <g id="Grupo_1103108" data-name="Grupo 1103108">
          <path id="Trazado_880794" data-name="Trazado 880794" d="M239.153,183.239l-1.666-1.666a.726.726,0,0,0-1.026,1.026l1.666,1.666a.726.726,0,1,0,1.026-1.026Z" transform="translate(-236.248 -181.361)" fill="#fff"/>
        </g>
      </g>
      <g id="Grupo_1103111" data-name="Grupo 1103111" transform="translate(28.375 49.136)">
        <g id="Grupo_1103110" data-name="Grupo 1103110">
          <path id="Trazado_880795" data-name="Trazado 880795" d="M293.969,157.753a.726.726,0,0,0-.726.726v2.356a.726.726,0,1,0,1.451,0v-2.356A.726.726,0,0,0,293.969,157.753Z" transform="translate(-293.243 -157.753)" fill="#fff"/>
        </g>
      </g>
      <g id="Grupo_1103113" data-name="Grupo 1103113" transform="translate(32.224 51.42)">
        <g id="Grupo_1103112" data-name="Grupo 1103112">
          <path id="Trazado_880796" data-name="Trazado 880796" d="M335.929,181.574a.726.726,0,0,0-1.026,0l-1.666,1.666a.726.726,0,0,0,1.026,1.026l1.666-1.666A.726.726,0,0,0,335.929,181.574Z" transform="translate(-333.024 -181.361)" fill="#fff"/>
        </g>
      </g>
      <g id="Grupo_1103115" data-name="Grupo 1103115" transform="translate(22.86 60.784)">
        <g id="Grupo_1103114" data-name="Grupo 1103114">
          <path id="Trazado_880797" data-name="Trazado 880797" d="M239.152,278.349a.726.726,0,0,0-1.026,0l-1.666,1.666a.726.726,0,0,0,1.026,1.026l1.666-1.666A.726.726,0,0,0,239.152,278.349Z" transform="translate(-236.247 -278.137)" fill="#fff"/>
        </g>
      </g>
      <g id="Grupo_1103117" data-name="Grupo 1103117" transform="translate(20.576 56.935)">
        <g id="Grupo_1103116" data-name="Grupo 1103116">
          <path id="Trazado_880798" data-name="Trazado 880798" d="M215.722,238.355h-2.356a.726.726,0,1,0,0,1.451h2.356a.726.726,0,0,0,0-1.451Z" transform="translate(-212.641 -238.355)" fill="#fff"/>
        </g>
      </g>
      <g id="Grupo_1103119" data-name="Grupo 1103119" transform="translate(0 37.5)">
        <g id="Grupo_1103118" data-name="Grupo 1103118">
          <path id="Trazado_880799" data-name="Trazado 880799" d="M49.538,39.312A1.888,1.888,0,0,0,47.655,37.5H24.771a.726.726,0,0,0,0,1.451H47.655a.436.436,0,0,1,.435.435v5.854H18.965v-6.29h2.677a.726.726,0,1,0,0-1.451H1.887A1.888,1.888,0,0,0,0,39.312a.728.728,0,0,0,0,.074V70.98a.726.726,0,0,0,1.451,0V46.692H48.091v2.693a.726.726,0,0,0,1.451,0v-10A.729.729,0,0,0,49.538,39.312ZM17.514,45.241H1.451V39.387a.436.436,0,0,1,.435-.435H17.514Z" transform="translate(0 -37.5)" fill="#fff"/>
        </g>
      </g>
      <g id="Grupo_1103121" data-name="Grupo 1103121" transform="translate(0 51.692)">
        <g id="Grupo_1103120" data-name="Grupo 1103120">
          <path id="Trazado_880800" data-name="Trazado 880800" d="M48.816,184.167a.726.726,0,0,0-.726.726v25.481a.436.436,0,0,1-.435.435H1.887a.436.436,0,0,1-.435-.435v-3.75a.726.726,0,0,0-1.451,0v3.75a1.889,1.889,0,0,0,1.887,1.887H47.655a1.889,1.889,0,0,0,1.887-1.887V184.893A.726.726,0,0,0,48.816,184.167Z" transform="translate(0 -184.167)" fill="#fff"/>
        </g>
      </g>
    </g>
  </g>
</svg>
