<svg xmlns="http://www.w3.org/2000/svg" xmlns:xlink="http://www.w3.org/1999/xlink" width="295" height="420" viewBox="0 0 295 420">
  <defs>
    <clipPath id="clip-path">
      <rect id="Rectángulo_404158" data-name="Rectángulo 404158" width="233.766" height="221.72" fill="none"/>
    </clipPath>
  </defs>
  <g id="Grupo_1103658" data-name="Grupo 1103658" transform="translate(-181 -1202.535)">
    <g id="Grupo_1100318" data-name="Grupo 1100318" transform="translate(14378 10148.989)">
      <rect id="Rectángulo_401793" data-name="Rectángulo 401793" width="295" height="75.777" transform="translate(-14197 -8602.231)" fill="#14d6f0"/>
      <rect id="Rectángulo_402091" data-name="Rectángulo 402091" width="249" height="287.223" transform="translate(-14174 -8931.034)" fill="#a0eef9"/>
      <g id="Grupo_1099708" data-name="Grupo 1099708" transform="translate(-14041.765 -8946.454)">
        <path id="Trazado_874185" data-name="Trazado 874185" d="M59.931,65.431a1.944,1.944,0,1,1,1.945,1.945,1.945,1.945,0,0,1-1.945-1.945" transform="translate(61.91 72.609)" fill="#5b2ccf"/>
        <path id="Trazado_874186" data-name="Trazado 874186" d="M46.622,65.431a1.944,1.944,0,1,1,1.945,1.945,1.945,1.945,0,0,1-1.945-1.945" transform="translate(44.759 72.609)" fill="#5b2ccf"/>
        <path id="Trazado_874187" data-name="Trazado 874187" d="M33.313,65.431a1.944,1.944,0,1,1,1.943,1.945,1.945,1.945,0,0,1-1.943-1.945" transform="translate(27.609 72.609)" fill="#5b2ccf"/>
        <path id="Trazado_874188" data-name="Trazado 874188" d="M20,65.431a1.944,1.944,0,1,1,1.945,1.945A1.945,1.945,0,0,1,20,65.431" transform="translate(10.456 72.609)" fill="#5b2ccf"/>
        <path id="Trazado_874189" data-name="Trazado 874189" d="M6.694,65.431a1.944,1.944,0,1,1,1.945,1.945,1.945,1.945,0,0,1-1.945-1.945" transform="translate(-6.694 72.609)" fill="#5b2ccf"/>
        <path id="Trazado_874190" data-name="Trazado 874190" d="M59.931,53.538a1.944,1.944,0,1,1,1.945,1.945,1.945,1.945,0,0,1-1.945-1.945" transform="translate(61.91 57.283)" fill="#5b2ccf"/>
        <path id="Trazado_874191" data-name="Trazado 874191" d="M46.622,53.538a1.944,1.944,0,1,1,1.945,1.945,1.945,1.945,0,0,1-1.945-1.945" transform="translate(44.759 57.283)" fill="#5b2ccf"/>
        <path id="Trazado_874192" data-name="Trazado 874192" d="M33.313,53.538a1.944,1.944,0,1,1,1.943,1.945,1.945,1.945,0,0,1-1.943-1.945" transform="translate(27.609 57.283)" fill="#5b2ccf"/>
        <path id="Trazado_874193" data-name="Trazado 874193" d="M20,53.538a1.944,1.944,0,1,1,1.945,1.945A1.945,1.945,0,0,1,20,53.538" transform="translate(10.456 57.283)" fill="#5b2ccf"/>
        <path id="Trazado_874194" data-name="Trazado 874194" d="M6.694,53.538a1.944,1.944,0,1,1,1.945,1.945,1.945,1.945,0,0,1-1.945-1.945" transform="translate(-6.694 57.283)" fill="#5b2ccf"/>
        <path id="Trazado_874195" data-name="Trazado 874195" d="M59.931,41.644a1.944,1.944,0,1,1,1.945,1.945,1.943,1.943,0,0,1-1.945-1.945" transform="translate(61.91 41.958)" fill="#5b2ccf"/>
        <path id="Trazado_874196" data-name="Trazado 874196" d="M46.622,41.644a1.944,1.944,0,1,1,1.945,1.945,1.943,1.943,0,0,1-1.945-1.945" transform="translate(44.759 41.958)" fill="#5b2ccf"/>
        <path id="Trazado_874197" data-name="Trazado 874197" d="M33.313,41.644a1.944,1.944,0,1,1,1.943,1.945,1.943,1.943,0,0,1-1.943-1.945" transform="translate(27.609 41.958)" fill="#5b2ccf"/>
        <path id="Trazado_874198" data-name="Trazado 874198" d="M20,41.644a1.944,1.944,0,1,1,1.945,1.945A1.943,1.943,0,0,1,20,41.644" transform="translate(10.456 41.958)" fill="#5b2ccf"/>
        <path id="Trazado_874199" data-name="Trazado 874199" d="M6.694,41.644a1.944,1.944,0,1,1,1.945,1.945,1.943,1.943,0,0,1-1.945-1.945" transform="translate(-6.694 41.958)" fill="#5b2ccf"/>
        <path id="Trazado_874200" data-name="Trazado 874200" d="M59.931,29.751A1.944,1.944,0,1,1,61.876,31.7a1.945,1.945,0,0,1-1.945-1.945" transform="translate(61.91 26.629)" fill="#5b2ccf"/>
        <path id="Trazado_874201" data-name="Trazado 874201" d="M46.622,29.751A1.944,1.944,0,1,1,48.567,31.7a1.945,1.945,0,0,1-1.945-1.945" transform="translate(44.759 26.629)" fill="#5b2ccf"/>
        <path id="Trazado_874202" data-name="Trazado 874202" d="M33.313,29.751A1.944,1.944,0,1,1,35.256,31.7a1.945,1.945,0,0,1-1.943-1.945" transform="translate(27.609 26.629)" fill="#5b2ccf"/>
        <path id="Trazado_874203" data-name="Trazado 874203" d="M20,29.751A1.944,1.944,0,1,1,21.948,31.7,1.945,1.945,0,0,1,20,29.751" transform="translate(10.456 26.629)" fill="#5b2ccf"/>
        <path id="Trazado_874204" data-name="Trazado 874204" d="M6.694,29.751A1.944,1.944,0,1,1,8.639,31.7a1.945,1.945,0,0,1-1.945-1.945" transform="translate(-6.694 26.629)" fill="#5b2ccf"/>
        <path id="Trazado_874205" data-name="Trazado 874205" d="M59.931,17.858A1.944,1.944,0,1,1,61.876,19.8a1.945,1.945,0,0,1-1.945-1.945" transform="translate(61.91 11.303)" fill="#5b2ccf"/>
        <path id="Trazado_874206" data-name="Trazado 874206" d="M46.622,17.858A1.944,1.944,0,1,1,48.567,19.8a1.945,1.945,0,0,1-1.945-1.945" transform="translate(44.759 11.303)" fill="#5b2ccf"/>
        <path id="Trazado_874207" data-name="Trazado 874207" d="M33.313,17.858A1.944,1.944,0,1,1,35.256,19.8a1.945,1.945,0,0,1-1.943-1.945" transform="translate(27.609 11.303)" fill="#5b2ccf"/>
        <path id="Trazado_874208" data-name="Trazado 874208" d="M20,17.858A1.944,1.944,0,1,1,21.948,19.8,1.945,1.945,0,0,1,20,17.858" transform="translate(10.456 11.303)" fill="#5b2ccf"/>
        <path id="Trazado_874209" data-name="Trazado 874209" d="M6.694,17.858A1.944,1.944,0,1,1,8.639,19.8a1.945,1.945,0,0,1-1.945-1.945" transform="translate(-6.694 11.303)" fill="#5b2ccf"/>
        <path id="Trazado_874210" data-name="Trazado 874210" d="M59.931,5.964a1.944,1.944,0,1,1,1.945,1.945,1.943,1.943,0,0,1-1.945-1.945" transform="translate(61.91 -4.021)" fill="#5b2ccf"/>
        <path id="Trazado_874211" data-name="Trazado 874211" d="M46.622,5.964a1.944,1.944,0,1,1,1.945,1.945,1.943,1.943,0,0,1-1.945-1.945" transform="translate(44.759 -4.021)" fill="#5b2ccf"/>
        <path id="Trazado_874212" data-name="Trazado 874212" d="M33.313,5.964a1.944,1.944,0,1,1,1.943,1.945,1.943,1.943,0,0,1-1.943-1.945" transform="translate(27.609 -4.021)" fill="#5b2ccf"/>
        <path id="Trazado_874213" data-name="Trazado 874213" d="M20,5.964a1.944,1.944,0,1,1,1.945,1.945A1.943,1.943,0,0,1,20,5.964" transform="translate(10.456 -4.021)" fill="#5b2ccf"/>
        <path id="Trazado_874214" data-name="Trazado 874214" d="M6.694,5.964A1.944,1.944,0,1,1,8.639,7.909,1.943,1.943,0,0,1,6.694,5.964" transform="translate(-6.694 -4.021)" fill="#5b2ccf"/>
      </g>
      <g id="Grupo_1103652" data-name="Grupo 1103652" transform="translate(-14163.355 -8898.283)">
        <g id="Grupo_1103607" data-name="Grupo 1103607" clip-path="url(#clip-path)">
          <path id="Trazado_881647" data-name="Trazado 881647" d="M25.308,174.075l-.011-.009a3.247,3.247,0,1,1,.011.009m3.488-4.521a2.372,2.372,0,0,0-2.908,3.749l.008.006a2.378,2.378,0,0,0,3.321-.426,2.375,2.375,0,0,0-.421-3.329" fill="#261d2a"/>
          <path id="Trazado_881648" data-name="Trazado 881648" d="M146.293,5.982l-.011-.009a3.247,3.247,0,1,1,.011.009m3.488-4.521a2.372,2.372,0,0,0-2.908,3.749l.008.007A2.38,2.38,0,0,0,150.2,4.79a2.375,2.375,0,0,0-.421-3.329" fill="#261d2a"/>
          <path id="Trazado_881649" data-name="Trazado 881649" d="M221.309,185.488l-.011-.009a3.247,3.247,0,1,1,.011.009m3.488-4.521a2.372,2.372,0,0,0-2.908,3.749l.008.007a2.379,2.379,0,0,0,3.321-.427,2.375,2.375,0,0,0-.421-3.329" fill="#261d2a"/>
          <path id="Trazado_881650" data-name="Trazado 881650" d="M22.694,198.949s-.889-6.748,5.606-4.564,4.379,8.361,1.9,6.247,2.169-9.285,7.139-6.092,3.859,9.388.334,9.845,2.134-7.213,6.575-2.476-5.256,13.375-9.221,10.2-.862-8.3.089-5.177-1.614,6.187-8.647,6.066-3.831-10.942-1.373-7.792-1.623,6.7-6.584,2.994.7-11.381,4.179-9.25" fill="#fcfdff"/>
          <path id="Trazado_881651" data-name="Trazado 881651" d="M26.861,213.5l-.4,0a4.441,4.441,0,0,1-4.539-3.266,8,8,0,0,1-3.709-1.631c-2.884-2.157-2.546-5.526-.931-7.908,1.163-1.716,3.1-2.984,4.868-2.515a5.137,5.137,0,0,1,1.479-3.955c1.106-.912,2.732-1.016,4.829-.311a8.932,8.932,0,0,1,2.334,1.152,5.193,5.193,0,0,1,6.819-.943,7.3,7.3,0,0,1,3.575,5.748,4.988,4.988,0,0,1,3.427,1.7c2.034,2.169,1.591,5.47-1.128,8.409-2.459,2.658-6.367,4.444-8.769,2.522a6.424,6.424,0,0,1-.814-.775c-1.56,1.157-3.991,1.776-7.043,1.776m-3.875-3.235a3.409,3.409,0,0,0,3.5,2.232c3.027.037,5.4-.5,6.834-1.577a4.805,4.805,0,0,1-.5-4.089,1.839,1.839,0,0,1,1.5-1.372c.333.01.943.2,1.288,1.328a4.268,4.268,0,0,1-.643,3.908,4.756,4.756,0,0,1-.305.365,5.42,5.42,0,0,0,.693.658c1.835,1.47,5.274-.112,7.41-2.42,1.858-2.008,3.131-4.915,1.133-7.047a3.923,3.923,0,0,0-2.719-1.393,5.756,5.756,0,0,1-.107.658,4.054,4.054,0,0,1-3.32,3.366c-1.166.144-1.506-.462-1.6-.731-.343-.978.666-2.555,2.249-3.515a5.284,5.284,0,0,1,1.8-.7,6.319,6.319,0,0,0-3.12-4.974,4.176,4.176,0,0,0-5.506.742,4.87,4.87,0,0,1,1.54,3.086,2.612,2.612,0,0,1-1.171,2.6,1.828,1.828,0,0,1-2.057-.382c-1.41-1.2-.934-3.494.272-5.178a8,8,0,0,0-2.009-.975c-1.746-.586-3.049-.543-3.872.133-1.414,1.161-1.083,3.866-1.079,3.893a.5.5,0,0,1-.757.491c-1.415-.868-3.245.289-4.322,1.877-1.348,1.989-1.653,4.784.7,6.546a7.361,7.361,0,0,0,2.914,1.392c-.207-2.082.591-4.351,1.816-4.921a1.53,1.53,0,0,1,1.949.628,3.134,3.134,0,0,1-.006,4.3,3.83,3.83,0,0,1-2.5,1.069m11.295-3.806c-.069,0-.329.174-.528.715a3.836,3.836,0,0,0,.307,3.042l.1-.123a3.25,3.25,0,0,0,.484-3.015c-.157-.516-.338-.633-.36-.619M24.143,205.13a.4.4,0,0,0-.177.045c-.711.331-1.478,2.241-1.221,4.108a2.905,2.905,0,0,0,2.028-.787,2.161,2.161,0,0,0-.068-2.984c-.241-.309-.43-.382-.562-.382m16-4.166a4.524,4.524,0,0,0-1.238.527c-1.33.805-1.946,1.982-1.824,2.329.023.064.211.109.527.069a3.083,3.083,0,0,0,2.473-2.593c.024-.107.045-.218.062-.332m-9.223-4.491c-1.037,1.477-1.212,3.08-.4,3.778a.888.888,0,0,0,.957.249,1.673,1.673,0,0,0,.625-1.639,3.837,3.837,0,0,0-1.186-2.388" fill="#261d2a"/>
          <path id="Trazado_881652" data-name="Trazado 881652" d="M205.24,58.505s-.889-6.748,5.606-4.564,4.379,8.361,1.9,6.247,2.169-9.284,7.139-6.092,3.859,9.388.334,9.846,2.134-7.214,6.575-2.477-5.256,13.375-9.221,10.2-.862-8.3.089-5.177-1.614,6.187-8.647,6.066-3.831-10.942-1.373-7.792-1.623,6.7-6.584,2.994.7-11.381,4.179-9.25" fill="#fcfdff"/>
          <path id="Trazado_881653" data-name="Trazado 881653" d="M209.407,73.055l-.4,0a4.441,4.441,0,0,1-4.54-3.265,7.994,7.994,0,0,1-3.708-1.631c-2.885-2.158-2.547-5.527-.932-7.909,1.163-1.715,3.1-2.979,4.868-2.514a5.143,5.143,0,0,1,1.479-3.956c1.107-.911,2.732-1.016,4.829-.31a8.932,8.932,0,0,1,2.334,1.152,5.2,5.2,0,0,1,6.819-.943,7.3,7.3,0,0,1,3.575,5.747,5,5,0,0,1,3.428,1.7c2.033,2.169,1.59,5.469-1.129,8.408-2.458,2.658-6.366,4.446-8.769,2.523a6.356,6.356,0,0,1-.814-.775c-1.56,1.156-3.99,1.775-7.043,1.775m-3.874-3.234a3.407,3.407,0,0,0,3.495,2.231c3.029.042,5.4-.5,6.833-1.576a4.807,4.807,0,0,1-.5-4.09c.317-.863.93-1.389,1.5-1.371.333.009.943.195,1.288,1.327a4.271,4.271,0,0,1-.643,3.909q-.143.188-.305.365a5.42,5.42,0,0,0,.693.658c1.835,1.471,5.275-.113,7.411-2.421,1.857-2.009,3.13-4.914,1.132-7.046a3.929,3.929,0,0,0-2.719-1.394,5.793,5.793,0,0,1-.107.66,4.054,4.054,0,0,1-3.32,3.365c-1.167.145-1.506-.461-1.6-.731-.343-.979.667-2.555,2.25-3.516a5.292,5.292,0,0,1,1.8-.7,6.32,6.32,0,0,0-3.12-4.974,4.179,4.179,0,0,0-5.506.742,4.874,4.874,0,0,1,1.54,3.087,2.612,2.612,0,0,1-1.171,2.6,1.829,1.829,0,0,1-2.057-.382c-1.41-1.2-.934-3.494.273-5.178a8.029,8.029,0,0,0-2.01-.975c-1.748-.587-3.052-.542-3.874.135-1.418,1.167-1.08,3.863-1.077,3.89a.5.5,0,0,1-.757.492c-1.414-.869-3.244.288-4.321,1.876-1.349,1.989-1.654,4.785.7,6.547a7.358,7.358,0,0,0,2.913,1.392c-.207-2.082.591-4.351,1.816-4.921a1.53,1.53,0,0,1,1.949.628,3.134,3.134,0,0,1-.006,4.3,3.83,3.83,0,0,1-2.5,1.069m11.294-3.807c-.069,0-.329.174-.528.716a3.833,3.833,0,0,0,.307,3.041c.033-.04.066-.081.1-.123a3.247,3.247,0,0,0,.484-3.015c-.157-.515-.343-.621-.36-.619m-10.138-1.327a.4.4,0,0,0-.177.045c-.711.331-1.478,2.241-1.22,4.108a2.9,2.9,0,0,0,2.027-.788,2.159,2.159,0,0,0-.068-2.983c-.241-.309-.43-.382-.562-.382m16-4.167a4.524,4.524,0,0,0-1.238.527c-1.329.806-1.946,1.983-1.824,2.329.023.066.212.11.527.07a3.083,3.083,0,0,0,2.473-2.593c.024-.107.045-.218.062-.333m-9.223-4.49c-1.037,1.477-1.212,3.08-.4,3.778a.89.89,0,0,0,.957.249,1.673,1.673,0,0,0,.625-1.639,3.837,3.837,0,0,0-1.186-2.388" fill="#261d2a"/>
          <path id="Trazado_881654" data-name="Trazado 881654" d="M231.454,133.252h0l-1.934-.007,2.049-1.389a.5.5,0,1,0-.562-.828L228.24,132.9l.061-3.229a.5.5,0,0,0-.49-.51h0a.5.5,0,0,0-.507.491l-.054,2.85-1.69-1.834a.5.5,0,0,0-.736.678l1.74,1.887-3.2-.011a.5.5,0,0,0-.008,1h.005l2.922.01-2.283,1.548a.5.5,0,0,0,.561.828l2.649-1.8-.061,3.254a.5.5,0,0,0,.49.51h0a.5.5,0,0,0,.507-.491l.058-3.073,1.8,1.955a.5.5,0,0,0,.736-.678l-1.888-2.047,2.6.009a.5.5,0,0,0,.006-1" fill="#261d2a"/>
          <path id="Trazado_881655" data-name="Trazado 881655" d="M37.8,14.43h0l-1.934-.007,2.049-1.389a.5.5,0,0,0-.561-.828L34.586,14.08l.061-3.229a.5.5,0,0,0-.49-.51h0a.5.5,0,0,0-.507.491l-.054,2.85L31.9,11.848a.5.5,0,0,0-.736.678l1.74,1.887L29.7,14.4a.5.5,0,0,0-.008,1H29.7l2.922.011L30.339,16.96a.5.5,0,1,0,.561.827l2.649-1.8-.061,3.254a.5.5,0,0,0,.49.51h0a.5.5,0,0,0,.507-.491l.058-3.073,1.8,1.955a.5.5,0,0,0,.736-.678L35.2,15.421l2.6.009a.5.5,0,0,0,.006-1" fill="#261d2a"/>
          <path id="Trazado_881656" data-name="Trazado 881656" d="M207.217,204.355s-2.9-7.759-1.448-7.139,6.13,2.986,6.13,2.986,5.043-3.492,5.353-3.021-.413,6.864-.413,6.864,6.207,3.31,5.069,4.035-6.828,1.345-6.828,1.345-2.159,7.966-3.181,7.164c-1.557-1.224-2.923-6.13-2.923-6.13s-6.527-.1-6.32-1.138,4.561-4.966,4.561-4.966" fill="#e8c01b"/>
          <path id="Trazado_881657" data-name="Trazado 881657" d="M60.819,7.843S57.922.084,59.371.7,65.5,3.689,65.5,3.689,70.544.2,70.854.669s-.413,6.864-.413,6.864,6.207,3.31,5.069,4.034-6.828,1.345-6.828,1.345-2.159,7.967-3.181,7.164c-1.557-1.223-2.923-6.129-2.923-6.129s-6.527-.1-6.32-1.138,4.561-4.966,4.561-4.966" fill="#e8c01b"/>
          <path id="Trazado_881658" data-name="Trazado 881658" d="M19.329,116.031a.51.51,0,0,1-.186-.037c-.055-.023-5.413-3.047-5.363-3.9.029-.52.045-.781,6.858-1.005a.512.512,0,0,1,.516.483.5.5,0,0,1-.483.517c-1.991.065-4.166.185-5.329.308,1.234.886,3.8,2.494,4.189,2.676a.507.507,0,0,1,.253.657.5.5,0,0,1-.455.3" fill="#261d2a"/>
          <path id="Trazado_881659" data-name="Trazado 881659" d="M26.968,114.284s-2.346-7.447-5.951-5.093c-4.994,3.26-4.013,17.976,7.066,18.475s12.693-8.911,12.693-8.911l-5.859.1s3.078-4.571,1.974-7.415-3.562.514-3.562.514,1.941-7.671-1.118-7.124-5.243,9.45-5.243,9.45" fill="#be607a"/>
          <path id="Trazado_881660" data-name="Trazado 881660" d="M21.871,114.582a.777.777,0,0,1-.551-.229c-.6-.589-.413-2.406-.249-3.436a.5.5,0,0,1,.987.157,8.074,8.074,0,0,0-.081,2.446,4.627,4.627,0,0,0,1.034-1.885.5.5,0,0,1,.954.3c-.179.568-.847,2.439-1.946,2.632a.824.824,0,0,1-.148.014" fill="#261d2a"/>
          <path id="Trazado_881661" data-name="Trazado 881661" d="M33.037,119.283a.484.484,0,0,1-.295-.1.5.5,0,0,1-.107-.7c.764-1.041,1.849-3.05,1.5-4.006a.312.312,0,0,0-.059-.113h0c-.268,0-1.2.907-1.89,1.888a.5.5,0,0,1-.56.188.5.5,0,0,1-.349-.476,10.215,10.215,0,0,0-.411-3.29,21.808,21.808,0,0,0-2.2,4.945.5.5,0,0,1-.947-.322c1.969-5.8,2.912-5.726,3.227-5.711.73.051,1.163,1.058,1.292,3,.6-.661,1.362-1.28,2.008-1.2a1.034,1.034,0,0,1,.834.751c.638,1.768-1.4,4.619-1.639,4.938a.5.5,0,0,1-.4.2" fill="#261d2a"/>
          <path id="Trazado_881662" data-name="Trazado 881662" d="M27.361,125.687a8.093,8.093,0,0,1-2.656-.432c-2.308-.8-4.091-2.67-5.3-5.567a.5.5,0,1,1,.923-.385c1.093,2.62,2.672,4.3,4.695,5,3.361,1.164,6.886-.766,6.922-.785a.5.5,0,0,1,.488.873,11.406,11.406,0,0,1-5.073,1.291" fill="#261d2a"/>
          <path id="Trazado_881663" data-name="Trazado 881663" d="M222.474,157.645a.5.5,0,0,1-.191-.962c.383-.18,2.948-1.788,4.181-2.674-1.163-.123-3.339-.243-5.329-.307a.5.5,0,0,1-.484-.517.533.533,0,0,1,.516-.483c6.813.223,6.828.484,6.859,1,.049.854-5.308,3.878-5.362,3.9a.5.5,0,0,1-.19.038m4.789-3.506h0Z" fill="#261d2a"/>
          <path id="Trazado_881664" data-name="Trazado 881664" d="M214.837,155.9s2.346-7.447,5.951-5.093c4.994,3.26,4.013,17.976-7.066,18.475s-12.693-8.911-12.693-8.911l5.859.1s-3.078-4.571-1.974-7.415,3.562.514,3.562.514-1.941-7.671,1.118-7.124,5.243,9.45,5.243,9.45" fill="#be607a"/>
          <path id="Trazado_881665" data-name="Trazado 881665" d="M219.934,156.2a.824.824,0,0,1-.148-.014c-1.1-.193-1.766-2.064-1.945-2.634a.5.5,0,0,1,.954-.3,4.608,4.608,0,0,0,1.033,1.885,8.066,8.066,0,0,0-.08-2.446.5.5,0,0,1,.987-.157c.164,1.03.35,2.847-.25,3.435a.772.772,0,0,1-.551.23" fill="#261d2a"/>
          <path id="Trazado_881666" data-name="Trazado 881666" d="M208.769,160.9a.5.5,0,0,1-.4-.2c-.235-.319-2.278-3.171-1.64-4.938a1.03,1.03,0,0,1,.835-.751c.652-.092,1.4.538,2.007,1.2.13-1.941.563-2.949,1.294-3,.315-.019,1.257-.085,3.226,5.71a.5.5,0,0,1-.947.322,20.666,20.666,0,0,0-2.24-4.985,11.9,11.9,0,0,0-.374,3.33.5.5,0,0,1-.909.288c-.681-.967-1.6-1.865-1.911-1.873,0,.009-.019.04-.041.1-.344.956.741,2.964,1.505,4.006a.5.5,0,0,1-.107.7.488.488,0,0,1-.295.1" fill="#261d2a"/>
          <path id="Trazado_881667" data-name="Trazado 881667" d="M214.444,167.3a11.406,11.406,0,0,1-5.072-1.29.5.5,0,0,1,.488-.873c.035.018,3.563,1.949,6.921.785,2.023-.7,3.6-2.386,4.695-5a.5.5,0,1,1,.923.385c-1.208,2.9-2.991,4.77-5.3,5.567a8.1,8.1,0,0,1-2.656.431" fill="#261d2a"/>
          <path id="Trazado_881668" data-name="Trazado 881668" d="M89.153,217.43a.667.667,0,0,1-.376-.117,18.628,18.628,0,0,1-2.416-3.885c-2.634.294-4.836.4-5.143-.035a.583.583,0,0,1,.06-.743c.5-.555,1.676-1.845,3.1-3.323-1.028-2.331-1.748-4.432-1.478-5.1a.676.676,0,0,1,.774-.425,26.5,26.5,0,0,1,4.3,1.955c1.866-1.735,3.591-3.1,4.4-3.122a.782.782,0,0,1,.606.232.5.5,0,0,1,.137.432c-.233,1.41-.525,3.1-.853,4.8,4.377,2.5,4.428,2.946,4.458,3.2a.618.618,0,0,1-.336.579c-.049.022-2.337.447-5.124.878-.608,2.466-1.253,4.363-1.837,4.614a.688.688,0,0,1-.272.057m-1.768-4.123a22.584,22.584,0,0,0,1.75,2.971,17.172,17.172,0,0,0,1.055-3.356c-.925.137-1.88.27-2.805.385m-2.566-3c-.764.8-1.531,1.617-2.277,2.433.728,0,1.935-.1,3.334-.255-.358-.708-.718-1.447-1.057-2.178m.738-.763c.427.942.893,1.914,1.35,2.823,1.142-.135,2.36-.295,3.522-.46.232-1,.47-2.122.705-3.3-.976-.552-2.007-1.117-2.988-1.638-.815.779-1.693,1.652-2.589,2.572m6.5-.4c-.179.891-.367,1.775-.56,2.614,1.575-.233,2.956-.46,3.772-.623-.65-.47-1.835-1.195-3.212-1.991m-8.235-4.256a17.9,17.9,0,0,0,1.293,3.672c.674-.69,1.384-1.4,2.089-2.075a33.908,33.908,0,0,0-3.382-1.6m5.086,1.369c.644.343,1.252.673,1.76.954q.347.192.665.37c.241-1.25.476-2.546.692-3.826a18,18,0,0,0-3.117,2.5M92.4,203.64h0Z" fill="#261d2a"/>
          <path id="Trazado_881669" data-name="Trazado 881669" d="M51.246,61.057c1.132-.523,4.262-2.17,4.482-4.449.268-2.785-4.889-1.823-4.889-1.823s5.82-1.063,3.681-4.67c-2.743-4.626-9.3-3.061-9.3-3.061,5.327-9.4-8.581-15.608-8.268-11.408s-1.124,10.8-1.124,10.8-12.106,1.731-13.546,4.845c-2.6,5.612-.776,20.578,6.537,19.146s26.348-.461,26.035-5.873c-.249-4.308-2.638-3.868-3.605-3.509" fill="#eeebd5"/>
          <path id="Trazado_881670" data-name="Trazado 881670" d="M14.332,47.823s12.585-3.008,13.11-2.706,4.33,29.405,3.053,29.4-11.912,1.553-11.912,1.553Z" fill="#403955"/>
          <path id="Trazado_881671" data-name="Trazado 881671" d="M25.813,88.636a26.822,26.822,0,0,1-13.728-3.693C5.009,80.814.748,73.117.086,63.271-.676,51.941,3.715,39.855,10.53,34.509c.94-1.02,20.853-21.891,48.111.1,8.7,7.02,12.873,14.274,12.4,21.56-.669,10.234-10.2,17.081-12.35,18.5,1.071,1.857,4.044,7.282,3.295,9a1.084,1.084,0,0,1-.778.644c-2.1.468-10.962-2.777-12.861-3.486-1.58,1.162-11.126,7.806-22.53,7.807m7.722-63.1a29.177,29.177,0,0,0-9.14,1.469,32.912,32.912,0,0,0-13.15,8.2.551.551,0,0,1-.066.062C4.587,40.415.341,52.162,1.084,63.2c.639,9.505,4.725,16.919,11.5,20.877,17.008,9.927,35.183-4.066,35.364-4.209a.5.5,0,0,1,.486-.074c4.24,1.6,11.079,3.864,12.55,3.542.039-.009.054-.016.076-.067.452-1.041-1.764-5.605-3.482-8.514a.5.5,0,0,1,.17-.681c.115-.07,11.586-7.206,12.287-17.981.451-6.941-3.6-13.909-12.027-20.711-8.089-6.526-16.407-9.848-24.478-9.848m-22.664,9.34h0Z" fill="#261d2a"/>
          <path id="Trazado_881672" data-name="Trazado 881672" d="M47.364,56.071a10.077,10.077,0,0,1-1.178-.061.5.5,0,0,1,.124-.992c.051.007,5.114.592,7.2-2.57a.5.5,0,1,1,.834.551c-1.777,2.688-5.183,3.072-6.985,3.072" fill="#261d2a"/>
          <path id="Trazado_881673" data-name="Trazado 881673" d="M48.659,62.121a12.625,12.625,0,0,1-1.567-.088.5.5,0,1,1,.132-.991c.047.009,4.738.6,6.937-1.665a.5.5,0,1,1,.717.7c-1.695,1.742-4.478,2.047-6.219,2.047" fill="#261d2a"/>
          <path id="Trazado_881674" data-name="Trazado 881674" d="M183.77,12.971s3.5-5.3,3.945-4.89,4.232,5.369,4.232,5.369,3.734-4.428,4.144-4.02a59.72,59.72,0,0,1,2.491,5.611s3.8-3.468,4.118-2.82,1.354,3.71,1.354,3.71,5.051-4.37,5.593-3.515.676,5.471.676,5.471,5.342-2.7,5.469-1.917.162,3.855.162,3.855,5.689-.862,5.341-.153-1.787,4.319-1.787,4.319,4.811.769,4.842,1.625-3.942,4.354-3.942,4.354,5.31,2.933,4.926,3.721-4.8,2.112-4.8,2.112,2.149,3.754,1.449,4.916-6.722,1.034-6.722,1.034-.88,4.368-2.22,4.235-5.249-3.833-5.249-3.833-5.076,5.046-6.17,4.443-4.111-6.116-4.111-6.116-4.753,5.1-6.062,4.8-6.36-5.8-6.36-5.8-4.885,3.8-5.741,3.833-3.662-4.875-3.662-4.875-5.1,2.256-5.849,2.135-.8-6.087-.8-6.087-8.709,1.221-7.9-.6,4.07-4.614,4.07-4.614-6.7-3.315-5.664-3.913,4.666-3.558,4.666-3.558-3.4-7.359-1.444-7.126,5.757,1.023,5.757,1.023.545-5.968,1.347-5.667,5.205,3,5.205,3,2.174-5.455,3.641-4.535a51.417,51.417,0,0,1,5.058,4.482" fill="#be607a"/>
          <path id="Trazado_881675" data-name="Trazado 881675" d="M194.057,26.258c-.783-5.815-4.957-5.975-4.957-5.975-6.121-1.249-9.429,9.32-4.252,12.061a6.206,6.206,0,0,0,9.209-6.086M186.9,28.6c-1.762-.933-.636-4.53,1.447-4.1,0,0,1.421.054,1.687,2.033A2.112,2.112,0,0,1,186.9,28.6" fill="#fcfdff"/>
          <path id="Trazado_881676" data-name="Trazado 881676" d="M206.173,28.23c-.783-5.816-4.957-5.976-4.957-5.976-6.121-1.249-9.429,9.32-4.251,12.061a6.206,6.206,0,0,0,9.208-6.085m-7.161,2.338c-1.762-.933-.636-4.531,1.447-4.105,0,0,1.421.054,1.687,2.034a2.112,2.112,0,0,1-3.134,2.071" fill="#fcfdff"/>
          <path id="Trazado_881677" data-name="Trazado 881677" d="M208.784,23.189s4.128.2,4.262.671-1.674,8.184-.825,8.308c1.271.185,3.672.493,3.672.493a26.7,26.7,0,0,1-.571,3.9s-7.074-.77-7.881-1.443c-.664-.554,1.343-11.925,1.343-11.925" fill="#fcfdff"/>
          <path id="Trazado_881678" data-name="Trazado 881678" d="M181.42,19.19s-8.6-2.874-10.55,3.837c-1.758,6.041,4.241,8.489,9.419,7.953,0,0,.72-3.161.377-3.538s-6,.417-6.03-2.4c-.025-2.074.65-2.877,6.248-2.126,0,0,.97-2.959.536-3.726" fill="#fcfdff"/>
          <path id="Trazado_881679" data-name="Trazado 881679" d="M180.48,58.879,126.5,125.12l21.561-112.8L83.112,3.138,57.131,158.8s18.443,4.406,35.523,7.841l-11.52,14.136s35.248,33.916,46.3,40.941L233.766,100.6Z" fill="#eeebd5"/>
          <path id="Trazado_881680" data-name="Trazado 881680" d="M182.91,69.46s39.33,33.078,38.666,32.659-27.187,29.906-27.187,29.906l-36.477-30.809Z" fill="#c45041"/>
          <path id="Trazado_881681" data-name="Trazado 881681" d="M150.544,109.135s39.33,33.078,38.667,32.659S162.024,171.7,162.024,171.7l-36.477-30.81Z" fill="#d37e3a"/>
          <path id="Trazado_881682" data-name="Trazado 881682" d="M121.855,148.822s36.2,31.063,35.537,30.645S130.2,209.373,130.2,209.373L93.727,178.564,101.9,168.18l15.961,2.437Z" fill="#e8c01b"/>
          <path id="Trazado_881683" data-name="Trazado 881683" d="M171.141,99.529a.5.5,0,0,1-.015-1L208.6,97.351a.513.513,0,0,1,.515.485.5.5,0,0,1-.484.515l-37.475,1.178Z" fill="#fcfdff"/>
          <path id="Trazado_881684" data-name="Trazado 881684" d="M180.657,106.6a.5.5,0,0,1-.024-1l16.756-.832a.485.485,0,0,1,.524.475.5.5,0,0,1-.474.523l-16.757.832h-.025" fill="#fcfdff"/>
          <path id="Trazado_881685" data-name="Trazado 881685" d="M137.43,139.291a.5.5,0,0,1-.083-.993l36.9-6.239a.5.5,0,0,1,.167.987l-36.9,6.238a.484.484,0,0,1-.084.007" fill="#fcfdff"/>
          <path id="Trazado_881686" data-name="Trazado 881686" d="M105.074,177.568a.5.5,0,0,1-.083-.993l36.9-6.239a.5.5,0,0,1,.167.987l-36.9,6.238a.485.485,0,0,1-.084.007" fill="#fcfdff"/>
          <path id="Trazado_881687" data-name="Trazado 881687" d="M148.967,143.443a.5.5,0,0,1-.073-.994l21.762-3.243a.5.5,0,1,1,.148.988l-21.763,3.243a.471.471,0,0,1-.074.006" fill="#fcfdff"/>
          <path id="Trazado_881688" data-name="Trazado 881688" d="M115.71,182.318a.5.5,0,0,1-.073-.994l21.763-3.243a.5.5,0,1,1,.147.988l-21.763,3.243a.471.471,0,0,1-.074.006" fill="#fcfdff"/>
          <path id="Trazado_881689" data-name="Trazado 881689" d="M89.5,10.555s50.67,8.576,49.887,8.551-8.276,39.561-8.276,39.561L84.046,50.6Z" fill="#a17296"/>
          <path id="Trazado_881690" data-name="Trazado 881690" d="M81.708,61.161s50.67,8.576,49.887,8.551-8.276,39.561-8.276,39.561l-47.061-8.067Z" fill="#be607a"/>
          <path id="Trazado_881691" data-name="Trazado 881691" d="M73.377,109.764s50.67,8.576,49.886,8.551-8.276,39.561-8.276,39.561l-47.06-8.067Z" fill="#76ada1"/>
          <path id="Trazado_881692" data-name="Trazado 881692" d="M89.344,44.614a.5.5,0,0,1-.23-.944l39.122-20.135a.5.5,0,0,1,.458.889L89.573,44.558a.5.5,0,0,1-.229.056" fill="#fcfdff"/>
          <path id="Trazado_881693" data-name="Trazado 881693" d="M106.156,45.539a.5.5,0,0,1-.23-.944l14.218-7.348a.5.5,0,1,1,.459.888l-14.218,7.348a.5.5,0,0,1-.229.056" fill="#fcfdff"/>
          <path id="Trazado_881694" data-name="Trazado 881694" d="M86.424,97.673a.5.5,0,0,1-.253-.933l39.27-22.825a.5.5,0,0,1,.5.865L86.674,97.606a.5.5,0,0,1-.25.067" fill="#fcfdff"/>
          <path id="Trazado_881695" data-name="Trazado 881695" d="M103.56,92.7a.5.5,0,0,1-.21-.954l11.079-5.125a.5.5,0,1,1,.42.908L103.77,92.658a.507.507,0,0,1-.21.046" fill="#fcfdff"/>
          <path id="Trazado_881696" data-name="Trazado 881696" d="M79.015,142.52a.5.5,0,0,1-.276-.917L111,120.313a.5.5,0,1,1,.55.834L79.29,142.437a.489.489,0,0,1-.275.083" fill="#fcfdff"/>
          <path id="Trazado_881697" data-name="Trazado 881697" d="M91.886,144.756a.5.5,0,0,1-.3-.9l16.384-12.16a.5.5,0,1,1,.6.8L92.183,144.657a.491.491,0,0,1-.3.1" fill="#fcfdff"/>
          <path id="Trazado_881698" data-name="Trazado 881698" d="M117.8,171.12h-.03c-4.823-.274-33.532-5.735-34.751-5.968a.5.5,0,1,1,.187-.982c.29.055,28.3,5.384,34.185,5.919l10.177-53.245a.5.5,0,1,1,.982.187l-10.26,53.684a.5.5,0,0,1-.49.406" fill="#261d2a"/>
          <path id="Trazado_881699" data-name="Trazado 881699" d="M128.534,96.088s-12.335-60.78-8.349-59.97c5.829,1.184,45.939,30.8,49.893,33.576-4.786,2.346-14.421,10.315-14.421,10.315l15.848,16.429c-4.685,6.128-16.575,11.851-16.575,11.851L144.409,85.45Z" fill="#403955"/>
          <path id="Trazado_881700" data-name="Trazado 881700" d="M155.4,64.536a.5.5,0,0,1-.324-.118C152.586,62.3,131.9,48.5,131.691,48.362a.5.5,0,0,1,.555-.832c.854.569,20.944,13.971,23.476,16.126a.5.5,0,0,1-.324.88" fill="#fcfdff"/>
          <path id="Trazado_881701" data-name="Trazado 881701" d="M61.082,197.624a.5.5,0,0,1-.023-1,13.536,13.536,0,0,0,1.912-.233.5.5,0,0,1,.19.983,14.642,14.642,0,0,1-2.054.248h-.025m-2-.06-.055,0a13.2,13.2,0,0,1-2.04-.388.5.5,0,0,1,.265-.965,12.131,12.131,0,0,0,1.884.359.5.5,0,0,1-.054,1M65,196.876a.5.5,0,0,1-.157-.975,17.864,17.864,0,0,0,1.81-.715.5.5,0,0,1,.416.909,18.524,18.524,0,0,1-1.912.755.479.479,0,0,1-.157.026m-9.755-.362a.487.487,0,0,1-.2-.043,14.874,14.874,0,0,1-1.824-.97.5.5,0,1,1,.528-.85,13.8,13.8,0,0,0,1.7.906.5.5,0,0,1-.2.957m13.39-1.3a.5.5,0,0,1-.251-.932c.555-.324,1.109-.679,1.648-1.058a.5.5,0,1,1,.575.818c-.561.395-1.14.767-1.721,1.1a.5.5,0,0,1-.251.067m-16.784-.8a.494.494,0,0,1-.311-.109,20.165,20.165,0,0,1-1.533-1.359.5.5,0,0,1,.7-.715,19.421,19.421,0,0,0,1.457,1.293.5.5,0,0,1-.312.89m20.059-1.5a.5.5,0,0,1-.319-.885c.661-.55,1.154-1.018,1.451-1.315a.5.5,0,0,1,.706.709c-.311.311-.828.8-1.519,1.375a.5.5,0,0,1-.319.116m-22.917-1.289a.5.5,0,0,1-.383-.177,17.869,17.869,0,0,1-1.234-1.646.5.5,0,0,1,.834-.551,16.662,16.662,0,0,0,1.165,1.552.5.5,0,0,1-.382.822M46.8,188.3a.5.5,0,0,1-.449-.28,15.037,15.037,0,0,1-.782-1.913.5.5,0,0,1,.95-.313,14.109,14.109,0,0,0,.729,1.787.5.5,0,0,1-.228.669.508.508,0,0,1-.22.05m-1.249-3.786a.5.5,0,0,1-.492-.412,15.026,15.026,0,0,1-.221-2.057.5.5,0,1,1,1-.037,13.957,13.957,0,0,0,.207,1.918.5.5,0,0,1-.4.58.525.525,0,0,1-.088.008m-.153-3.984-.048,0a.5.5,0,0,1-.45-.546,16.408,16.408,0,0,1,.328-2.035.5.5,0,0,1,.976.22,15.379,15.379,0,0,0-.309,1.911.5.5,0,0,1-.5.452m.874-3.892a.513.513,0,0,1-.167-.028.5.5,0,0,1-.3-.639c.2-.57.436-1.139.7-1.7a.5.5,0,0,1,.588-.747,13.985,13.985,0,0,0,1.851.54.5.5,0,1,1-.212.976c-.443-.1-.884-.212-1.319-.35-.249.528-.472,1.069-.664,1.611a.5.5,0,0,1-.471.333m5.5-1.264c-.33,0-.662-.012-1-.036a.5.5,0,1,1,.069-1,13.606,13.606,0,0,0,1.927-.005.5.5,0,0,1,.074,1c-.352.026-.71.04-1.073.04m3.01-.341a.5.5,0,0,1-.112-.988,11.428,11.428,0,0,0,1.824-.582.5.5,0,1,1,.384.924,12.5,12.5,0,0,1-1.982.633.492.492,0,0,1-.114.013m-9.693-1.353a.5.5,0,0,1-.233-.057,16.472,16.472,0,0,1-1.756-1.079.5.5,0,1,1,.574-.818,15.507,15.507,0,0,0,1.649,1.012.5.5,0,0,1-.234.942m13.365-.185a.5.5,0,0,1-.277-.917,6.992,6.992,0,0,0,1.412-1.211.5.5,0,0,1,.754.656,8.014,8.014,0,0,1-1.613,1.389.509.509,0,0,1-.276.083m-10.443-.448a.494.494,0,0,1-.265-.077.5.5,0,0,1-.158-.689,19.18,19.18,0,0,1,1.183-1.679.5.5,0,0,1,.785.619,18.048,18.048,0,0,0-1.121,1.591.5.5,0,0,1-.424.235M41.818,171.4a.493.493,0,0,1-.331-.126,19.753,19.753,0,0,1-1.461-1.438.5.5,0,0,1,.737-.676,18.953,18.953,0,0,0,1.387,1.366.5.5,0,0,1-.332.874m19.113-.929a.543.543,0,0,1-.126-.015.5.5,0,0,1-.359-.61,2.423,2.423,0,0,0,.08-.6,2.129,2.129,0,0,0-.244-.987.5.5,0,0,1,.888-.459,3.121,3.121,0,0,1,.356,1.447,3.456,3.456,0,0,1-.111.85.5.5,0,0,1-.484.375m-10.445-.552a.5.5,0,0,1-.354-.853,16.149,16.149,0,0,1,1.543-1.37.5.5,0,0,1,.613.791,15.028,15.028,0,0,0-1.447,1.284.5.5,0,0,1-.355.148m-11.373-1.455a.5.5,0,0,1-.4-.2c-.123-.159-.243-.322-.364-.487-.288-.4-.557-.792-.808-1.187a.5.5,0,0,1,.844-.537q.36.565.774,1.136.173.238.346.466a.5.5,0,0,1-.4.8m14.538-.971a.5.5,0,0,1-.24-.94,9.4,9.4,0,0,1,1.948-.806.5.5,0,0,1,.27.963,8.334,8.334,0,0,0-1.739.722.5.5,0,0,1-.239.061m5.7-.39a.492.492,0,0,1-.264-.076,3.58,3.58,0,0,0-1.658-.526.5.5,0,0,1-.462-.535.491.491,0,0,1,.535-.463,4.581,4.581,0,0,1,2.115.676.5.5,0,0,1-.266.924m-22.382-2.011a.5.5,0,0,1-.445-.273,19.089,19.089,0,0,1-.836-1.874.5.5,0,1,1,.934-.357,18.387,18.387,0,0,0,.792,1.778.5.5,0,0,1-.445.726m-1.416-3.73a.5.5,0,0,1-.485-.379,16.017,16.017,0,0,1-.371-2.03.5.5,0,0,1,.439-.555.506.506,0,0,1,.555.44,14.935,14.935,0,0,0,.348,1.9.5.5,0,0,1-.486.621m-.456-3.963h-.01a.5.5,0,0,1-.49-.51,15.437,15.437,0,0,1,.181-2.057.5.5,0,0,1,.988.154A14.441,14.441,0,0,0,35.6,156.9a.5.5,0,0,1-.5.49m.615-3.938a.5.5,0,0,1-.48-.642,16.458,16.458,0,0,1,.709-1.937.5.5,0,0,1,.916.4,15.274,15.274,0,0,0-.666,1.817.5.5,0,0,1-.479.359m7.821-3.544a10.906,10.906,0,0,1-1.247-.074.5.5,0,0,1,.114-.994,9.39,9.39,0,0,0,1.894.034.506.506,0,0,1,.543.454.5.5,0,0,1-.453.543c-.273.024-.557.037-.851.037m-6.222-.114a.5.5,0,0,1-.254-.069.5.5,0,0,1-.176-.686,18.458,18.458,0,0,1,1.144-1.706.5.5,0,0,1,.81.586,16.654,16.654,0,0,0,1.678.553.5.5,0,0,1-.261.965,18.238,18.238,0,0,1-1.948-.651.472.472,0,0,1-.064-.031c-.173.261-.34.527-.5.794a.5.5,0,0,1-.43.245m8.972-.36a.5.5,0,0,1-.18-.967,4.983,4.983,0,0,0,1.549-.93.5.5,0,1,1,.668.744,5.991,5.991,0,0,1-1.857,1.12.52.52,0,0,1-.18.033m-9.62-1.432a.5.5,0,0,1-.224-.052c-.583-.293-1.184-.622-1.785-.978a.5.5,0,0,1,.51-.861c.581.345,1.161.662,1.724.944a.5.5,0,0,1-.225.947m12.485-1.2a.5.5,0,0,1-.462-.692,3.157,3.157,0,0,0,.254-1.216,2.741,2.741,0,0,0-.04-.464.5.5,0,0,1,.4-.579.493.493,0,0,1,.579.4,3.639,3.639,0,0,1,.056.638,4.151,4.151,0,0,1-.331,1.6.5.5,0,0,1-.461.307m-9.431-.193a.5.5,0,0,1-.363-.844,17.692,17.692,0,0,1,1.5-1.409.5.5,0,1,1,.64.768,16.623,16.623,0,0,0-1.414,1.329.5.5,0,0,1-.363.156m-6.491-.646a.5.5,0,0,1-.285-.089c-.587-.409-1.133-.829-1.624-1.249a.5.5,0,1,1,.65-.759c.466.4.985.8,1.545,1.187a.5.5,0,0,1-.286.91m9.563-1.9a.5.5,0,0,1-.267-.923,11.781,11.781,0,0,1,1.852-.963.5.5,0,0,1,.376.926,11.039,11.039,0,0,0-1.7.883.488.488,0,0,1-.266.077m-12.575-.708a.5.5,0,0,1-.375-.169,10.727,10.727,0,0,1-1.234-1.692.5.5,0,1,1,.865-.5,9.67,9.67,0,0,0,1.119,1.532.5.5,0,0,1-.375.831m18.163-.174a.5.5,0,0,1-.3-.1,2.35,2.35,0,0,0-.562-.306,2.431,2.431,0,0,0-.994-.12.5.5,0,0,1-.06-1,3.384,3.384,0,0,1,1.412.184,3.342,3.342,0,0,1,.8.437.5.5,0,0,1-.3.9M28.273,139.9a.5.5,0,0,1-.484-.375,6.752,6.752,0,0,1-.217-1.689c0-.153.006-.3.016-.452a.5.5,0,1,1,1,.067c-.009.127-.014.256-.014.385a5.744,5.744,0,0,0,.185,1.439.5.5,0,0,1-.359.609.493.493,0,0,1-.125.016m.247-3.925a.53.53,0,0,1-.177-.032.5.5,0,0,1-.291-.645,9.389,9.389,0,0,1,.975-1.872.5.5,0,0,1,.832.555,8.328,8.328,0,0,0-.871,1.671.5.5,0,0,1-.468.323m2.176-3.329a.5.5,0,0,1-.362-.845,11.7,11.7,0,0,1,1.568-1.4.5.5,0,0,1,.577.816,11.031,11.031,0,0,0-1.421,1.272.5.5,0,0,1-.362.155" fill="#261d2a"/>
          <path id="Trazado_881702" data-name="Trazado 881702" d="M163.258,219.4a.5.5,0,0,1,0-1,9.982,9.982,0,0,0,1.891-.193.5.5,0,0,1,.587.393.5.5,0,0,1-.4.587,10.835,10.835,0,0,1-2.081.213Zm-1.978-.228a.486.486,0,0,1-.119-.015,7.918,7.918,0,0,1-1.979-.775.5.5,0,1,1,.487-.873,6.94,6.94,0,0,0,1.729.677.5.5,0,0,1-.118.986m5.89-.506a.5.5,0,0,1-.165-.972q.6-.21,1.242-.492.282-.125.552-.255a.5.5,0,0,1,.433.9q-.285.135-.582.267-.675.3-1.316.521a.491.491,0,0,1-.164.028m-9.349-1.4a.5.5,0,0,1-.343-.136,10.252,10.252,0,0,1-1.366-1.594.5.5,0,0,1,.821-.572,9.24,9.24,0,0,0,1.23,1.437.5.5,0,0,1-.342.865m12.941-.337a.5.5,0,0,1-.27-.921,14.4,14.4,0,0,0,1.554-1.146.5.5,0,1,1,.647.762,15.336,15.336,0,0,1-1.662,1.226.5.5,0,0,1-.269.079m3.032-2.584a.5.5,0,0,1-.376-.829,12.376,12.376,0,0,0,1.149-1.538.5.5,0,1,1,.846.534,13.436,13.436,0,0,1-1.243,1.662.5.5,0,0,1-.376.171m-18.274-.325a.5.5,0,0,1-.452-.284,15.593,15.593,0,0,1-.765-1.921.5.5,0,0,1,.951-.308,14.607,14.607,0,0,0,.716,1.8.5.5,0,0,1-.45.717m20.4-3.043a.477.477,0,0,1-.2-.041.5.5,0,0,1-.261-.657,12.459,12.459,0,0,0,.621-1.816.5.5,0,1,1,.969.25,13.682,13.682,0,0,1-.672,1.963.5.5,0,0,1-.46.3m-21.646-.751a.5.5,0,0,1-.49-.4,14.9,14.9,0,0,1-.263-2.052.5.5,0,0,1,.472-.527.492.492,0,0,1,.526.472,14.027,14.027,0,0,0,.246,1.916.5.5,0,0,1-.4.586.447.447,0,0,1-.1.01m22.647-3.106-.052,0a.67.67,0,0,1-.4-1.1c.015-.257.023-.515.023-.771,0-.2,0-.4-.013-.6a.5.5,0,0,1,.475-.522.491.491,0,0,1,.523.476c.011.212.016.428.015.644s-.006.454-.017.683a11.655,11.655,0,0,0,1.3-.014.5.5,0,1,1,.066,1,12.328,12.328,0,0,1-1.523.009.5.5,0,0,1-.4.2m3.868-.485a.5.5,0,0,1-.1-.99,17.669,17.669,0,0,0,1.877-.5.5.5,0,1,1,.31.951,18.882,18.882,0,0,1-1.983.532.455.455,0,0,1-.1.011m-5.925-.185a.5.5,0,0,1-.161-.027,7.937,7.937,0,0,1-1.906-.944.5.5,0,1,1,.562-.826,6.965,6.965,0,0,0,1.667.824.5.5,0,0,1-.162.973m9.7-1.092a.5.5,0,0,1-.231-.943,10,10,0,0,0,1.592-1.034.5.5,0,1,1,.623.781,10.865,10.865,0,0,1-1.754,1.14.491.491,0,0,1-.23.056M171.623,204.2a.5.5,0,0,1-.4-.193,5.844,5.844,0,0,1-1-1.931.5.5,0,1,1,.959-.281,4.841,4.841,0,0,0,.833,1.6.5.5,0,0,1-.089.7.5.5,0,0,1-.306.1m5.107-1.069a.5.5,0,0,1-.489-.4,10.243,10.243,0,0,0-.553-1.82.5.5,0,1,1,.922-.385,11.035,11.035,0,0,1,.61,2,.5.5,0,0,1-.388.591.442.442,0,0,1-.1.011m10.946-.255a.5.5,0,0,1-.379-.826,11.518,11.518,0,0,0,1.121-1.551.5.5,0,0,1,.856.517,12.488,12.488,0,0,1-1.219,1.686.5.5,0,0,1-.379.174m-17.064-2.416a.482.482,0,0,1-.112-.013.5.5,0,0,1-.376-.6,3.256,3.256,0,0,1,1.247-1.939.5.5,0,0,1,.592.807,2.263,2.263,0,0,0-.864,1.353.5.5,0,0,1-.487.39m4.537-.965a.5.5,0,0,1-.388-.185,2.669,2.669,0,0,0-1.337-.965.5.5,0,0,1,.243-.97,3.639,3.639,0,0,1,1.87,1.3.5.5,0,0,1-.388.816m14.6-.018a.48.48,0,0,1-.195-.04.5.5,0,0,1-.265-.655,16.108,16.108,0,0,0,.642-1.829.5.5,0,0,1,.961.275,16.86,16.86,0,0,1-.683,1.945.5.5,0,0,1-.46.3m1.107-3.837a.507.507,0,0,1-.086-.007.5.5,0,0,1-.407-.579c.109-.627.191-1.28.242-1.937a.479.479,0,0,1,.537-.459.5.5,0,0,1,.46.537c-.053.689-.139,1.371-.253,2.031a.5.5,0,0,1-.493.414m.312-3.982a.5.5,0,0,1-.5-.494c-.006-.62-.04-1.245-.1-1.857a10.3,10.3,0,0,1-1.037-.486.5.5,0,1,1,.472-.881,9.616,9.616,0,0,0,1.753.727.5.5,0,0,1,.334.623.455.455,0,0,1-.49.355c.039.5.061,1.005.067,1.507a.5.5,0,0,1-.494.506Zm3.342-1.587c-.335,0-.664-.016-.986-.046a.5.5,0,0,1,.1-1,9.412,9.412,0,0,0,1.9-.01.493.493,0,0,1,.549.446.5.5,0,0,1-.446.548,10.781,10.781,0,0,1-1.11.058m3.018-.44a.5.5,0,0,1-.14-.981,12.237,12.237,0,0,0,1.793-.684.5.5,0,1,1,.427.9,13.208,13.208,0,0,1-1.94.741.526.526,0,0,1-.14.02m3.614-1.684a.5.5,0,0,1-.273-.92,10.742,10.742,0,0,0,1.508-1.167.5.5,0,1,1,.684.729,11.787,11.787,0,0,1-1.647,1.278.5.5,0,0,1-.272.08m-13.032-.18a.5.5,0,0,1-.319-.115,9.1,9.1,0,0,1-1.464-1.522.5.5,0,1,1,.8-.6,8.054,8.054,0,0,0,1.3,1.355.5.5,0,0,1-.32.884m2.649-.083a.5.5,0,0,1-.49-.4,15.4,15.4,0,0,0-.5-1.872.5.5,0,1,1,.947-.32,16.2,16.2,0,0,1,.53,1.993.5.5,0,0,1-.39.59.581.581,0,0,1-.1.009M204,185.2a.5.5,0,0,1-.421-.769,6.029,6.029,0,0,0,.748-1.681.5.5,0,0,1,.966.261,7.053,7.053,0,0,1-.871,1.958.5.5,0,0,1-.422.231m-18.187-.638a.5.5,0,0,1-.483-.371,3.216,3.216,0,0,1-.115-.823,1.943,1.943,0,0,1,.663-1.536.5.5,0,0,1,.647.763.959.959,0,0,0-.31.773,2.205,2.205,0,0,0,.081.565.5.5,0,0,1-.354.613.569.569,0,0,1-.129.016m3.618-.634a.5.5,0,0,1-.431-.245,3.189,3.189,0,0,0-1.154-1.245.5.5,0,1,1,.458-.888,4.1,4.1,0,0,1,1.557,1.624.5.5,0,0,1-.43.754m15.6-2.527a.5.5,0,0,1-.5-.481,7.8,7.8,0,0,0-.3-1.851.5.5,0,1,1,.961-.275,8.767,8.767,0,0,1,.343,2.089.5.5,0,0,1-.482.518Zm-1.059-3.827a.5.5,0,0,1-.447-.274,10.135,10.135,0,0,0-1-1.613.5.5,0,0,1,.779-.628,11.1,11.1,0,0,1,1.113,1.789.5.5,0,0,1-.446.726" fill="#261d2a"/>
        </g>
      </g>
    </g>
    <g id="Grupo_1103603" data-name="Grupo 1103603" transform="translate(-43 -117.958)">
      <rect id="Rectángulo_404156" data-name="Rectángulo 404156" width="248" height="91.916" transform="translate(247 1615)" fill="#5b2ccf"/>
    </g>
  </g>
</svg>
