<svg xmlns="http://www.w3.org/2000/svg" xmlns:xlink="http://www.w3.org/1999/xlink" width="295" height="420" viewBox="0 0 295 420">
  <defs>
    <clipPath id="clip-path">
      <rect id="Rectángulo_404165" data-name="Rectángulo 404165" width="234.405" height="237.096" fill="none"/>
    </clipPath>
  </defs>
  <g id="Grupo_1103664" data-name="Grupo 1103664" transform="translate(-181 -1202.535)">
    <g id="Grupo_1100318" data-name="Grupo 1100318" transform="translate(14378 10148.989)">
      <rect id="Rectángulo_401793" data-name="Rectángulo 401793" width="295" height="75.777" transform="translate(-14197 -8602.231)" fill="#14d6f0"/>
      <rect id="Rectángulo_402091" data-name="Rectángulo 402091" width="249" height="287.223" transform="translate(-14174 -8931.034)" fill="#a0eef9"/>
      <g id="Grupo_1099708" data-name="Grupo 1099708" transform="translate(-14041.765 -8946.454)">
        <path id="Trazado_874185" data-name="Trazado 874185" d="M59.931,65.431a1.944,1.944,0,1,1,1.945,1.945,1.945,1.945,0,0,1-1.945-1.945" transform="translate(61.91 72.609)" fill="#5b2ccf"/>
        <path id="Trazado_874186" data-name="Trazado 874186" d="M46.622,65.431a1.944,1.944,0,1,1,1.945,1.945,1.945,1.945,0,0,1-1.945-1.945" transform="translate(44.759 72.609)" fill="#5b2ccf"/>
        <path id="Trazado_874187" data-name="Trazado 874187" d="M33.313,65.431a1.944,1.944,0,1,1,1.943,1.945,1.945,1.945,0,0,1-1.943-1.945" transform="translate(27.609 72.609)" fill="#5b2ccf"/>
        <path id="Trazado_874188" data-name="Trazado 874188" d="M20,65.431a1.944,1.944,0,1,1,1.945,1.945A1.945,1.945,0,0,1,20,65.431" transform="translate(10.456 72.609)" fill="#5b2ccf"/>
        <path id="Trazado_874189" data-name="Trazado 874189" d="M6.694,65.431a1.944,1.944,0,1,1,1.945,1.945,1.945,1.945,0,0,1-1.945-1.945" transform="translate(-6.694 72.609)" fill="#5b2ccf"/>
        <path id="Trazado_874190" data-name="Trazado 874190" d="M59.931,53.538a1.944,1.944,0,1,1,1.945,1.945,1.945,1.945,0,0,1-1.945-1.945" transform="translate(61.91 57.283)" fill="#5b2ccf"/>
        <path id="Trazado_874191" data-name="Trazado 874191" d="M46.622,53.538a1.944,1.944,0,1,1,1.945,1.945,1.945,1.945,0,0,1-1.945-1.945" transform="translate(44.759 57.283)" fill="#5b2ccf"/>
        <path id="Trazado_874192" data-name="Trazado 874192" d="M33.313,53.538a1.944,1.944,0,1,1,1.943,1.945,1.945,1.945,0,0,1-1.943-1.945" transform="translate(27.609 57.283)" fill="#5b2ccf"/>
        <path id="Trazado_874193" data-name="Trazado 874193" d="M20,53.538a1.944,1.944,0,1,1,1.945,1.945A1.945,1.945,0,0,1,20,53.538" transform="translate(10.456 57.283)" fill="#5b2ccf"/>
        <path id="Trazado_874194" data-name="Trazado 874194" d="M6.694,53.538a1.944,1.944,0,1,1,1.945,1.945,1.945,1.945,0,0,1-1.945-1.945" transform="translate(-6.694 57.283)" fill="#5b2ccf"/>
        <path id="Trazado_874195" data-name="Trazado 874195" d="M59.931,41.644a1.944,1.944,0,1,1,1.945,1.945,1.943,1.943,0,0,1-1.945-1.945" transform="translate(61.91 41.958)" fill="#5b2ccf"/>
        <path id="Trazado_874196" data-name="Trazado 874196" d="M46.622,41.644a1.944,1.944,0,1,1,1.945,1.945,1.943,1.943,0,0,1-1.945-1.945" transform="translate(44.759 41.958)" fill="#5b2ccf"/>
        <path id="Trazado_874197" data-name="Trazado 874197" d="M33.313,41.644a1.944,1.944,0,1,1,1.943,1.945,1.943,1.943,0,0,1-1.943-1.945" transform="translate(27.609 41.958)" fill="#5b2ccf"/>
        <path id="Trazado_874198" data-name="Trazado 874198" d="M20,41.644a1.944,1.944,0,1,1,1.945,1.945A1.943,1.943,0,0,1,20,41.644" transform="translate(10.456 41.958)" fill="#5b2ccf"/>
        <path id="Trazado_874199" data-name="Trazado 874199" d="M6.694,41.644a1.944,1.944,0,1,1,1.945,1.945,1.943,1.943,0,0,1-1.945-1.945" transform="translate(-6.694 41.958)" fill="#5b2ccf"/>
        <path id="Trazado_874200" data-name="Trazado 874200" d="M59.931,29.751A1.944,1.944,0,1,1,61.876,31.7a1.945,1.945,0,0,1-1.945-1.945" transform="translate(61.91 26.629)" fill="#5b2ccf"/>
        <path id="Trazado_874201" data-name="Trazado 874201" d="M46.622,29.751A1.944,1.944,0,1,1,48.567,31.7a1.945,1.945,0,0,1-1.945-1.945" transform="translate(44.759 26.629)" fill="#5b2ccf"/>
        <path id="Trazado_874202" data-name="Trazado 874202" d="M33.313,29.751A1.944,1.944,0,1,1,35.256,31.7a1.945,1.945,0,0,1-1.943-1.945" transform="translate(27.609 26.629)" fill="#5b2ccf"/>
        <path id="Trazado_874203" data-name="Trazado 874203" d="M20,29.751A1.944,1.944,0,1,1,21.948,31.7,1.945,1.945,0,0,1,20,29.751" transform="translate(10.456 26.629)" fill="#5b2ccf"/>
        <path id="Trazado_874204" data-name="Trazado 874204" d="M6.694,29.751A1.944,1.944,0,1,1,8.639,31.7a1.945,1.945,0,0,1-1.945-1.945" transform="translate(-6.694 26.629)" fill="#5b2ccf"/>
        <path id="Trazado_874205" data-name="Trazado 874205" d="M59.931,17.858A1.944,1.944,0,1,1,61.876,19.8a1.945,1.945,0,0,1-1.945-1.945" transform="translate(61.91 11.303)" fill="#5b2ccf"/>
        <path id="Trazado_874206" data-name="Trazado 874206" d="M46.622,17.858A1.944,1.944,0,1,1,48.567,19.8a1.945,1.945,0,0,1-1.945-1.945" transform="translate(44.759 11.303)" fill="#5b2ccf"/>
        <path id="Trazado_874207" data-name="Trazado 874207" d="M33.313,17.858A1.944,1.944,0,1,1,35.256,19.8a1.945,1.945,0,0,1-1.943-1.945" transform="translate(27.609 11.303)" fill="#5b2ccf"/>
        <path id="Trazado_874208" data-name="Trazado 874208" d="M20,17.858A1.944,1.944,0,1,1,21.948,19.8,1.945,1.945,0,0,1,20,17.858" transform="translate(10.456 11.303)" fill="#5b2ccf"/>
        <path id="Trazado_874209" data-name="Trazado 874209" d="M6.694,17.858A1.944,1.944,0,1,1,8.639,19.8a1.945,1.945,0,0,1-1.945-1.945" transform="translate(-6.694 11.303)" fill="#5b2ccf"/>
        <path id="Trazado_874210" data-name="Trazado 874210" d="M59.931,5.964a1.944,1.944,0,1,1,1.945,1.945,1.943,1.943,0,0,1-1.945-1.945" transform="translate(61.91 -4.021)" fill="#5b2ccf"/>
        <path id="Trazado_874211" data-name="Trazado 874211" d="M46.622,5.964a1.944,1.944,0,1,1,1.945,1.945,1.943,1.943,0,0,1-1.945-1.945" transform="translate(44.759 -4.021)" fill="#5b2ccf"/>
        <path id="Trazado_874212" data-name="Trazado 874212" d="M33.313,5.964a1.944,1.944,0,1,1,1.943,1.945,1.943,1.943,0,0,1-1.943-1.945" transform="translate(27.609 -4.021)" fill="#5b2ccf"/>
        <path id="Trazado_874213" data-name="Trazado 874213" d="M20,5.964a1.944,1.944,0,1,1,1.945,1.945A1.943,1.943,0,0,1,20,5.964" transform="translate(10.456 -4.021)" fill="#5b2ccf"/>
        <path id="Trazado_874214" data-name="Trazado 874214" d="M6.694,5.964A1.944,1.944,0,1,1,8.639,7.909,1.943,1.943,0,0,1,6.694,5.964" transform="translate(-6.694 -4.021)" fill="#5b2ccf"/>
      </g>
      <g id="Grupo_1103616" data-name="Grupo 1103616" transform="translate(-14166.702 -8897.015)">
        <g id="Grupo_1103615" data-name="Grupo 1103615" clip-path="url(#clip-path)">
          <path id="Trazado_881938" data-name="Trazado 881938" d="M180.878,87.644h0l-1.934.018,2.031-1.415a.5.5,0,0,0-.573-.821l-2.739,1.91.019-3.23a.5.5,0,0,0-.5-.5h0a.5.5,0,0,0-.5.5l-.017,2.851-1.715-1.812a.5.5,0,0,0-.726.688l1.764,1.864-3.2.03a.5.5,0,0,0,0,1h.005l2.922-.028-2.263,1.578a.5.5,0,0,0,.573.82l2.625-1.83-.019,3.254a.5.5,0,0,0,.5.5h0a.5.5,0,0,0,.5-.5l.018-3.074,1.828,1.931a.5.5,0,1,0,.726-.687l-1.913-2.022,2.6-.025a.5.5,0,0,0-.007-1" fill="#261d2a"/>
          <path id="Trazado_881939" data-name="Trazado 881939" d="M14.121,195.456h0l-1.934.018,2.031-1.416a.5.5,0,1,0-.573-.82l-2.739,1.91.019-3.23a.5.5,0,0,0-.5-.5h0a.5.5,0,0,0-.5.5L9.9,194.763,8.19,192.951a.5.5,0,0,0-.726.688L9.228,195.5l-3.2.03a.5.5,0,0,0,0,1h.005l2.922-.028-2.263,1.578a.5.5,0,0,0,.573.82l2.625-1.83-.019,3.254a.5.5,0,0,0,.5.5h0a.5.5,0,0,0,.5-.5l.018-3.074,1.828,1.931a.5.5,0,1,0,.726-.687l-1.913-2.022,2.6-.025a.5.5,0,0,0-.007-1" fill="#261d2a"/>
          <path id="Trazado_881940" data-name="Trazado 881940" d="M12.833,139.5s-1.075-7.472,5.911-5.173,4.836,9.2,2.149,6.9,2.15-10.346,7.523-6.9,4.3,10.346.538,10.921,2.149-8.047,6.985-2.874-5.373,14.944-9.672,11.5-1.075-9.2,0-5.748-1.612,6.9-9.135,6.9-4.3-12.07-1.612-8.622-1.612,7.473-6.986,3.449.537-12.645,4.3-10.346" fill="#fff"/>
          <path id="Trazado_881941" data-name="Trazado 881941" d="M17.132,155.521A4.731,4.731,0,0,1,12.244,152a8.392,8.392,0,0,1-4.01-1.75c-3.2-2.394-2.747-6.3-.976-8.909,1.405-2.073,3.356-3.055,5.017-2.615-.029-1.183.138-3.308,1.556-4.5,1.159-.972,2.865-1.1,5.069-.371a9.369,9.369,0,0,1,2.527,1.24c1.621-1.813,4.329-3.067,7.26-1.186a8.058,8.058,0,0,1,3.91,6.3,5.079,5.079,0,0,1,3.708,1.822c2.8,2.992,1.008,7.054-1.373,9.623-2.591,2.795-6.506,4.587-8.978,2.6a6.93,6.93,0,0,1-.9-.858c-1.713,1.375-4.459,2.118-7.926,2.118m-3.831-3.5a3.678,3.678,0,0,0,3.831,2.5c3.267,0,5.812-.674,7.331-1.919a5.376,5.376,0,0,1-.6-4.624c.33-.9.925-1.444,1.522-1.418.421.01,1,.264,1.357,1.414a4.81,4.81,0,0,1-.675,4.384q-.135.185-.288.357a5.978,5.978,0,0,0,.8.766c1.973,1.583,5.4-.108,7.619-2.5,2.089-2.255,3.7-5.771,1.375-8.261a4.149,4.149,0,0,0-2.983-1.5,6.538,6.538,0,0,1-.121.85,4.373,4.373,0,0,1-3.441,3.679c-1.208.188-1.583-.456-1.688-.74-.391-1.067.76-2.923,2.465-3.972a5.638,5.638,0,0,1,1.8-.721,7.074,7.074,0,0,0-3.456-5.561,4.376,4.376,0,0,0-5.947.98,5.422,5.422,0,0,1,1.735,3.447,2.835,2.835,0,0,1-1.231,2.834,1.9,1.9,0,0,1-2.135-.4c-1.521-1.3-1.021-3.853.243-5.721a8.387,8.387,0,0,0-2.223-1.081c-1.853-.611-3.235-.547-4.112.186-1.571,1.314-1.152,4.41-1.148,4.441a.5.5,0,0,1-.756.5c-1.531-.935-3.4.367-4.486,1.972-1.513,2.233-1.924,5.546.748,7.547a7.749,7.749,0,0,0,3.2,1.511c-.294-2.342.528-4.907,1.857-5.535a1.589,1.589,0,0,1,2.026.669,3.521,3.521,0,0,1-.011,4.775,4.054,4.054,0,0,1-2.6,1.152m12.062-4.459c-.1,0-.363.228-.557.761a4.4,4.4,0,0,0,.38,3.547c.027-.033.053-.068.078-.1a3.777,3.777,0,0,0,.525-3.493c-.183-.589-.4-.72-.426-.712M14.5,146.279a.428.428,0,0,0-.189.048c-.788.372-1.606,2.567-1.263,4.708a3.108,3.108,0,0,0,2.137-.868,2.532,2.532,0,0,0-.064-3.461c-.27-.346-.477-.427-.621-.427m17.071-4.938a4.667,4.667,0,0,0-1.245.542c-1.471.906-2.209,2.342-2.05,2.776.062.169.509.11.6.1a3.4,3.4,0,0,0,2.614-2.9c.035-.166.063-.338.083-.516m-9.992-4.813c-1.113,1.681-1.286,3.529-.364,4.318a.969.969,0,0,0,1.032.273,1.9,1.9,0,0,0,.685-1.867,4.38,4.38,0,0,0-1.353-2.724" fill="#261d2a"/>
          <path id="Trazado_881942" data-name="Trazado 881942" d="M200.042,218.5s-1.075-7.472,5.911-5.173,4.836,9.2,2.149,6.9,2.15-10.346,7.523-6.9,4.3,10.346.538,10.921,2.149-8.047,6.985-2.874-5.373,14.944-9.672,11.5-1.075-9.2,0-5.748-1.612,6.9-9.135,6.9-4.3-12.07-1.612-8.622-1.612,7.473-6.986,3.449.537-12.645,4.3-10.346" fill="#fff"/>
          <path id="Trazado_881943" data-name="Trazado 881943" d="M204.341,234.521A4.73,4.73,0,0,1,199.453,231a8.412,8.412,0,0,1-4.01-1.75c-3.2-2.394-2.747-6.3-.976-8.91,1.406-2.073,3.359-3.057,5.017-2.615-.029-1.183.138-3.308,1.557-4.5,1.159-.971,2.864-1.1,5.068-.372a9.369,9.369,0,0,1,2.527,1.24c1.621-1.813,4.328-3.066,7.26-1.186a8.057,8.057,0,0,1,3.91,6.3,5.075,5.075,0,0,1,3.708,1.822c2.8,2.992,1.008,7.054-1.373,9.623-2.591,2.794-6.506,4.585-8.978,2.6a7,7,0,0,1-.9-.858c-1.713,1.375-4.459,2.117-7.926,2.117m-3.831-3.5a3.679,3.679,0,0,0,3.831,2.5c3.267,0,5.812-.674,7.331-1.918a5.376,5.376,0,0,1-.6-4.624c.33-.9.925-1.441,1.522-1.418.421.009,1,.263,1.357,1.414a4.811,4.811,0,0,1-.675,4.384q-.135.183-.288.357a6.042,6.042,0,0,0,.8.766c1.973,1.582,5.4-.109,7.619-2.5,2.089-2.254,3.7-5.77,1.375-8.261a4.151,4.151,0,0,0-2.983-1.5,6.551,6.551,0,0,1-.121.849,4.373,4.373,0,0,1-3.441,3.679c-1.215.187-1.584-.456-1.688-.74-.391-1.067.76-2.923,2.464-3.972a5.7,5.7,0,0,1,1.8-.721,7.071,7.071,0,0,0-3.456-5.561,4.376,4.376,0,0,0-5.947.98,5.425,5.425,0,0,1,1.735,3.447,2.837,2.837,0,0,1-1.231,2.834,1.9,1.9,0,0,1-2.135-.4c-1.521-1.3-1.021-3.853.243-5.721A8.387,8.387,0,0,0,205.8,213.8c-1.852-.609-3.235-.547-4.112.186-1.571,1.315-1.152,4.41-1.148,4.441a.5.5,0,0,1-.756.5c-1.531-.937-3.4.366-4.486,1.971-1.513,2.233-1.924,5.547.748,7.548a7.775,7.775,0,0,0,3.2,1.511c-.294-2.342.528-4.908,1.857-5.536a1.59,1.59,0,0,1,2.026.669,3.522,3.522,0,0,1-.011,4.775,4.055,4.055,0,0,1-2.6,1.153m12.062-4.46c-.1,0-.363.228-.557.761a4.4,4.4,0,0,0,.38,3.548c.027-.034.053-.069.078-.1a3.778,3.778,0,0,0,.525-3.493c-.183-.589-.391-.72-.426-.713m-10.859-1.281a.413.413,0,0,0-.189.049c-.788.372-1.606,2.567-1.263,4.708a3.109,3.109,0,0,0,2.137-.869,2.532,2.532,0,0,0-.064-3.46c-.27-.346-.478-.428-.621-.428m17.071-4.938a4.689,4.689,0,0,0-1.246.543c-1.47.9-2.208,2.342-2.049,2.775.062.17.509.11.6.1a3.4,3.4,0,0,0,2.614-2.9c.035-.165.063-.337.083-.516m-9.992-4.813c-1.113,1.681-1.286,3.529-.364,4.318a.972.972,0,0,0,1.032.274,1.906,1.906,0,0,0,.685-1.867,4.376,4.376,0,0,0-1.353-2.725" fill="#261d2a"/>
          <path id="Trazado_881944" data-name="Trazado 881944" d="M147.589,17.246s-2.966.966-3.546.3-2.578-7.543-2.065-7.831,4.21-1.25,4.21-1.25Z" fill="#fff"/>
          <path id="Trazado_881945" data-name="Trazado 881945" d="M144.925,18.283a1.64,1.64,0,0,1-1.257-.4c-.636-.725-2.457-6.911-2.253-8.1a.659.659,0,0,1,.318-.5,42.542,42.542,0,0,1,4.329-1.3.507.507,0,0,1,.4.065.5.5,0,0,1,.22.34l1.4,8.778a.5.5,0,0,1-.339.554,10.144,10.144,0,0,1-2.819.561m-2.537-8.2a29.353,29.353,0,0,0,2.034,7.14,5.485,5.485,0,0,0,2.6-.328l-1.245-7.8c-1.426.378-2.876.794-3.394.99" fill="#261d2a"/>
          <path id="Trazado_881946" data-name="Trazado 881946" d="M157.744,17.462s.686,6.581-7.691,8.094c-5.712,1.032-.524-3.474-1.2-6.292s8.89-1.8,8.89-1.8" fill="#c35041"/>
          <path id="Trazado_881947" data-name="Trazado 881947" d="M153.969,3.263s-3.322-5.722-10.982-2.011c-5.225,2.53,1.622,3.116,2.736,5.79s8.246-3.779,8.246-3.779" fill="#c35041"/>
          <path id="Trazado_881948" data-name="Trazado 881948" d="M147.542,20.234s-3.8-11.819-3.605-13.827,17.792-5.431,20.927.838c4.267,8.53-16.525,13.944-17.322,12.989" fill="#fff"/>
          <path id="Trazado_881949" data-name="Trazado 881949" d="M148.192,20.839a1.375,1.375,0,0,1-1.034-.284.5.5,0,0,1-.092-.168c-.392-1.219-3.827-11.976-3.626-14.028.139-1.426,4.159-2.321,5.881-2.64,4.875-.9,13.727-1.224,15.991,3.3,1.584,3.168.179,6.31-4.063,9.088-3.342,2.187-10.324,4.73-13.057,4.73m-.249-.993c1.609.116,11.74-2.479,15.573-6.954,1.535-1.792,1.83-3.566.9-5.423-1.133-2.267-4.771-3.465-9.989-3.3-5.284.171-9.707,1.623-10,2.315-.129,1.349,2,8.642,3.514,13.364" fill="#261d2a"/>
          <path id="Trazado_881950" data-name="Trazado 881950" d="M157.021,3.16s2.964,12.649,3.654,13.276,7.708-5.105,6.525-8.737c-1.539-4.722-9.339-4.569-10.179-4.539" fill="#c35041"/>
          <path id="Trazado_881951" data-name="Trazado 881951" d="M151.7,7.488a4.159,4.159,0,1,0,5.242,2.666A4.158,4.158,0,0,0,151.7,7.488" fill="#fff"/>
          <path id="Trazado_881952" data-name="Trazado 881952" d="M152.992,16.1a4.659,4.659,0,1,1,1.44-.229,4.668,4.668,0,0,1-1.44.229m0-8.32a3.683,3.683,0,0,0-1.137.182,3.636,3.636,0,1,0,1.137-.182" fill="#261d2a"/>
          <path id="Trazado_881953" data-name="Trazado 881953" d="M141.082,12.562s-.09-2.887-4.254-2.988-9.441,7.57-8.679,8.416,5.989,5.7,10.2,3.723,4.192-3.917,2.73-9.151" fill="#c35041"/>
          <path id="Trazado_881954" data-name="Trazado 881954" d="M140.35,13.868s-.046-1.485-2.188-1.537-4.856,3.894-4.465,4.329,3.081,2.934,5.249,1.915,2.156-2.015,1.4-4.707" fill="#e2ba1c"/>
          <path id="Trazado_881955" data-name="Trazado 881955" d="M155.086,10.8a1.978,1.978,0,0,0-2.435-1.88" fill="#fff"/>
          <path id="Trazado_881956" data-name="Trazado 881956" d="M155.086,11.3a.5.5,0,0,1-.5-.469,1.852,1.852,0,0,0-.576-1.192,1.573,1.573,0,0,0-1.277-.226.5.5,0,1,1-.165-.986,2.522,2.522,0,0,1,2.07.434,2.852,2.852,0,0,1,.946,1.91.5.5,0,0,1-.47.528h-.029" fill="#261d2a"/>
          <path id="Trazado_881957" data-name="Trazado 881957" d="M165.263,8.222a.5.5,0,0,1-.379-.173,5.87,5.87,0,0,0-4.29-1.942.5.5,0,0,1-.059-1A6.809,6.809,0,0,1,165.642,7.4a.5.5,0,0,1-.379.825" fill="#261d2a"/>
          <path id="Trazado_881958" data-name="Trazado 881958" d="M37.22,214.577s3.067.568,3.261,1.426-1.338,7.859-1.927,7.867-4.3-.912-4.3-.912Z" fill="#fff"/>
          <path id="Trazado_881959" data-name="Trazado 881959" d="M38.55,224.371a43.19,43.19,0,0,1-4.412-.928.5.5,0,0,1-.351-.652l2.961-8.38a.5.5,0,0,1,.563-.325c1.265.234,3.425.781,3.657,1.807.213.941-1.142,7.245-1.89,8.193a.664.664,0,0,1-.516.285ZM34.914,222.6c1.433.349,2.9.675,3.454.751a29.461,29.461,0,0,0,1.625-7.245,5.542,5.542,0,0,0-2.446-.956Z" fill="#261d2a"/>
          <path id="Trazado_881960" data-name="Trazado 881960" d="M28.4,209.537s2.541-6.109,10.623-3.438c5.511,1.822-1.2,3.3-1.952,6.1s-8.671-2.663-8.671-2.663" fill="#c35041"/>
          <path id="Trazado_881961" data-name="Trazado 881961" d="M24.936,223.814s.186,6.614,8.688,7.013c5.8.272.063-3.513.361-6.395s-9.049-.618-9.049-.618" fill="#c35041"/>
          <path id="Trazado_881962" data-name="Trazado 881962" d="M38.688,211.974s-2.305,12.2-3.437,13.869-18.225-3.726-17.986-10.731c.326-9.533,21.179-4.358,21.423-3.138" fill="#fff"/>
          <path id="Trazado_881963" data-name="Trazado 881963" d="M34.1,226.646a18.589,18.589,0,0,1-4.863-1.01c-4.715-1.535-12.647-5.483-12.474-10.541.12-3.539,2.856-5.629,7.911-6.043,4.723-.393,14.183,1.236,14.5,2.823a.473.473,0,0,1,0,.191c-.237,1.26-2.357,12.351-3.514,14.058a1.841,1.841,0,0,1-1.562.522m-7.562-16.661a15.5,15.5,0,0,0-5.394.81c-2.2.841-3.311,2.259-3.382,4.334-.087,2.533,2.538,5.329,7.2,7.673,4.722,2.373,9.3,3.207,9.889,2.741.758-1.124,2.37-8.549,3.3-13.42-.974-.635-6.525-2.138-11.61-2.138" fill="#261d2a"/>
          <path id="Trazado_881964" data-name="Trazado 881964" d="M22.206,222.447s3.438-12.529,3.131-13.408-9.211.8-9.906,4.559c-.9,4.884,6.022,8.475,6.775,8.849" fill="#c35041"/>
          <path id="Trazado_881965" data-name="Trazado 881965" d="M28.947,221.187a4.159,4.159,0,1,0-3.332-4.846,4.159,4.159,0,0,0,3.332,4.846" fill="#fff"/>
          <path id="Trazado_881966" data-name="Trazado 881966" d="M29.715,221.757a4.725,4.725,0,0,1-.859-.079,4.64,4.64,0,1,1,.859.079m-.019-8.32a3.659,3.659,0,0,0-.658,7.257h0a3.659,3.659,0,0,0,1.331-7.2,3.756,3.756,0,0,0-.674-.062" fill="#261d2a"/>
          <path id="Trazado_881967" data-name="Trazado 881967" d="M40.7,221.8s-1.3,2.579,2.31,4.657,11.91-2.142,11.645-3.248-2.537-7.872-7.186-8.145S41.914,216.5,40.7,221.8" fill="#c35041"/>
          <path id="Trazado_881968" data-name="Trazado 881968" d="M41.967,221s-.669,1.327,1.188,2.4,6.127-1.1,5.99-1.671-1.305-4.049-3.7-4.19-2.857.74-3.482,3.465" fill="#e2ba1c"/>
          <path id="Trazado_881969" data-name="Trazado 881969" d="M27.552,216.664a1.978,1.978,0,0,0,1.241,2.814" fill="#fff"/>
          <path id="Trazado_881970" data-name="Trazado 881970" d="M28.793,219.979a.516.516,0,0,1-.163-.027,2.523,2.523,0,0,1-1.612-1.371,2.864,2.864,0,0,1,.082-2.13.5.5,0,0,1,.9.424,1.861,1.861,0,0,0-.063,1.323,1.578,1.578,0,0,0,1.014.808.5.5,0,0,1-.163.973" fill="#261d2a"/>
          <path id="Trazado_881971" data-name="Trazado 881971" d="M20.261,219.1a.494.494,0,0,1-.211-.047,6.831,6.831,0,0,1-3.395-4.449.5.5,0,0,1,.978-.212,5.912,5.912,0,0,0,2.84,3.755.5.5,0,0,1-.212.953" fill="#261d2a"/>
          <path id="Trazado_881972" data-name="Trazado 881972" d="M32.607,6.573c-1.076-.155-1.393-.081-1.6.11a.63.63,0,0,0-.2.479c0,.618,1.186,1.906,2.425,3.084-6.027.824-9.831,4.741-12.192,8.823a.484.484,0,0,0-.111-.026A7.343,7.343,0,0,0,15.3,22.016c-1.1,1.643-3.271,8.878-2.572,10.754a.987.987,0,0,0,.661.664c1.329.362,3.232-1.626,4.3-2.919.521,1.652,1.329,3.681,2.195,3.864a.729.729,0,0,0,.612-.163,1.649,1.649,0,0,0,.322-.367c1.2-1.746,2.885-7.859,2.937-9.173.053-1.342-1.32-3.7-2.027-4.82,2.262-4.03,5.962-7.936,11.9-8.648-1.6,4.479-1.148,4.806-.87,5,.88.6,5.653-3.038,6.761-4.085a7.378,7.378,0,0,0,1-1.116,1.37,1.37,0,0,0,.262-1.491c-.813-1.339-6.245-2.663-8.173-2.94M13.7,32.5c-.713-.806,1.247-8.162,2.429-9.923a6.232,6.232,0,0,1,4.342-2.484,32.084,32.084,0,0,0-3.052,9.155c-1.312,1.718-3.112,3.4-3.719,3.252m9.057-7.859c-.062,1.557-1.91,7.622-2.757,8.67a14.162,14.162,0,0,1-1.595-3.893,31.066,31.066,0,0,1,2.78-8.529c.724,1.21,1.606,2.9,1.572,3.752M39.911,9.995c.059.938-4.755,4.388-6.415,5.163a32.958,32.958,0,0,1,1.341-4.36.481.481,0,0,0,.007-.126c0-.029.025-.052.023-.083s-.012-.035-.015-.054a.463.463,0,0,0-.017-.061.49.49,0,0,0-.125-.208s0-.009-.007-.013A25.52,25.52,0,0,1,32.025,7.5c1.808.169,7.355,1.633,7.886,2.495" fill="#261d2a"/>
          <path id="Trazado_881973" data-name="Trazado 881973" d="M217,83.846s2.458-7.834,3.128-6.878a63.681,63.681,0,0,1,2.681,6.208s7.073,2.234,6.888,2.681-6.347,2.793-6.347,2.793-1.993,6.814-3.11,6.144-3.053-6.107-3.053-6.107-6.331-.573-5.549-1.925S217,83.846,217,83.846" fill="#e2ba1c"/>
          <path id="Trazado_881974" data-name="Trazado 881974" d="M16.269,174.492s2.458-7.834,3.128-6.878a63.681,63.681,0,0,1,2.681,6.208s7.073,2.234,6.888,2.681-6.347,2.793-6.347,2.793-1.993,6.815-3.11,6.144-3.053-6.107-3.053-6.107-6.331-.572-5.549-1.925,5.362-2.916,5.362-2.916" fill="#e2ba1c"/>
          <path id="Trazado_881975" data-name="Trazado 881975" d="M87.623,52.78c-.368,0-.724-.218-1.6-3.9-3.28-.676-3.562-1.067-3.657-1.2a.653.653,0,0,1-.084-.5c.062-.21.206-.7,3.983-2.161,1.353-3.393,1.821-3.453,2.074-3.485a.666.666,0,0,1,.549.241,9.667,9.667,0,0,1,.759,2.524c.1.424.217.935.286,1.16.2.091.63.253.989.386,1.922.718,2.417.96,2.5,1.423a.661.661,0,0,1-.193.54,17.4,17.4,0,0,1-3.256,1.351c-1.637,3.6-1.977,3.612-2.278,3.624l-.074,0m-3.979-5.514c.655.2,1.849.486,2.892.694a.5.5,0,0,1,.389.377c.253,1.086.586,2.324.829,3.031.372-.65.939-1.8,1.4-2.823a.5.5,0,0,1,.3-.268c.9-.3,1.91-.675,2.541-.942-.437-.191-1.032-.413-1.418-.558-1.1-.41-1.305-.5-1.444-.69a5.451,5.451,0,0,1-.456-1.567c-.1-.42-.247-1.066-.381-1.549a27.453,27.453,0,0,0-1.177,2.614.5.5,0,0,1-.286.284,31.942,31.942,0,0,0-3.185,1.4M86.65,45.4h0Z" fill="#261d2a"/>
          <path id="Trazado_881976" data-name="Trazado 881976" d="M174.842,229.638c-.369,0-.725-.215-1.6-3.9-3.279-.676-3.562-1.066-3.657-1.2a.657.657,0,0,1-.084-.5c.062-.21.206-.7,3.983-2.162,1.353-3.393,1.821-3.452,2.075-3.485a.678.678,0,0,1,.548.242,9.608,9.608,0,0,1,.759,2.526c.1.423.217.933.286,1.158.2.091.629.252.988.386,1.923.717,2.418.959,2.5,1.422a.666.666,0,0,1-.193.54,17.438,17.438,0,0,1-3.257,1.352c-1.638,3.6-1.978,3.612-2.279,3.623l-.072,0m-3.979-5.514c.654.2,1.848.486,2.891.7a.5.5,0,0,1,.389.377c.252,1.085.586,2.324.828,3.031.373-.651.94-1.8,1.4-2.824a.5.5,0,0,1,.3-.268c.9-.3,1.91-.675,2.542-.942-.438-.191-1.033-.413-1.42-.557-1.1-.41-1.3-.5-1.444-.691a5.438,5.438,0,0,1-.454-1.564c-.1-.421-.248-1.068-.382-1.552a27.455,27.455,0,0,0-1.177,2.614.5.5,0,0,1-.286.284,32.145,32.145,0,0,0-3.184,1.4m3-1.864h0Z" fill="#261d2a"/>
          <path id="Trazado_881977" data-name="Trazado 881977" d="M225.017,73.064l-.012-.009a3.506,3.506,0,1,1,.012.009m3.613-4.683a2.458,2.458,0,0,0-3.012,3.884l.008.006a2.464,2.464,0,0,0,3.44-.442,2.458,2.458,0,0,0-.436-3.448" fill="#261d2a"/>
          <path id="Trazado_881978" data-name="Trazado 881978" d="M5.714,126.086l-.012-.009a3.509,3.509,0,1,1,.012.009M9.327,121.4a2.458,2.458,0,0,0-3.012,3.884l.008.006a2.464,2.464,0,0,0,3.44-.442,2.458,2.458,0,0,0-.436-3.448" fill="#261d2a"/>
          <path id="Trazado_881979" data-name="Trazado 881979" d="M106.4,237.1h-.013c-.671-.017-1.358-.066-2.04-.147a.5.5,0,1,1,.117-.993c.652.077,1.308.124,1.948.14a.5.5,0,0,1-.012,1m2-.047a.5.5,0,0,1-.037-1,18.333,18.333,0,0,0,1.93-.248.5.5,0,0,1,.181.983,19.04,19.04,0,0,1-2.036.262l-.038,0m-5.966-.418a.5.5,0,0,1-.1-.01c-.659-.136-1.325-.3-1.98-.494a.5.5,0,0,1,.281-.96c.629.184,1.269.344,1.9.474a.5.5,0,0,1-.1.99m9.892-.307a.5.5,0,0,1-.141-.979c.634-.187,1.253-.4,1.841-.64a.5.5,0,1,1,.375.927c-.618.25-1.269.476-1.934.672a.5.5,0,0,1-.141.02m21.5-.4a.5.5,0,0,1-.041-1,6.424,6.424,0,0,0,1.794-.4.5.5,0,0,1,.364.932,7.429,7.429,0,0,1-2.074.461.317.317,0,0,1-.043,0m-1.992-.03-.049,0c-.446-.044-.915-.113-1.412-.207-.21-.04-.415-.081-.617-.124a.5.5,0,0,1,.21-.978q.291.063.593.12.7.132,1.323.193a.5.5,0,0,1-.048,1m-33.233-.378a.5.5,0,0,1-.177-.032c-.634-.239-1.265-.5-1.879-.79a.5.5,0,0,1,.422-.907c.591.275,1.2.531,1.81.761a.5.5,0,0,1-.176.968m29.326-.448a.507.507,0,0,1-.148-.023,19.159,19.159,0,0,1-1.925-.711.5.5,0,0,1,.4-.917,18.211,18.211,0,0,0,1.824.673.5.5,0,0,1-.149.978m-11.9-.246a.5.5,0,0,1-.238-.94,15.779,15.779,0,0,0,1.643-1.024.5.5,0,0,1,.581.814,16.867,16.867,0,0,1-1.748,1.09.512.512,0,0,1-.238.06m21.416-.366a.5.5,0,0,1-.337-.87,5.948,5.948,0,0,0,1.137-1.439.5.5,0,1,1,.864.5,6.938,6.938,0,0,1-1.327,1.677.5.5,0,0,1-.337.13m-42.467-.626a.5.5,0,0,1-.244-.063c-.594-.332-1.179-.69-1.74-1.062a.5.5,0,0,1,.554-.833c.539.358,1.1.7,1.675,1.022a.5.5,0,0,1-.245.936m-16.742-.1c-.182,0-.365,0-.549-.011a.5.5,0,0,1-.479-.52.514.514,0,0,1,.52-.479,12.5,12.5,0,0,0,1.92-.069.5.5,0,0,1,.111.994,13.574,13.574,0,0,1-1.523.085M75.7,233.57l-.053,0c-.7-.075-1.381-.176-2.019-.3a.5.5,0,0,1,.192-.982c.609.12,1.26.217,1.933.289a.5.5,0,0,1-.053,1m48.562-.106a.493.493,0,0,1-.255-.07,14.156,14.156,0,0,1-1.7-1.184.5.5,0,0,1,.633-.775,13.018,13.018,0,0,0,1.577,1.1.5.5,0,0,1-.256.93m-42.611-.188a.5.5,0,0,1-.128-.983,13.811,13.811,0,0,0,1.823-.624.5.5,0,1,1,.389.922,15,15,0,0,1-1.956.669.516.516,0,0,1-.128.016m-9.863-.493a.507.507,0,0,1-.153-.023,12.732,12.732,0,0,1-1.922-.791.5.5,0,0,1,.461-.888,11.45,11.45,0,0,0,1.768.726.5.5,0,0,1-.154.976m47.466-.289a.5.5,0,0,1-.364-.157.5.5,0,0,1,.021-.707,13.508,13.508,0,0,0,1.307-1.415.454.454,0,0,1,.079-.079,11.644,11.644,0,0,1-.714-1.056.5.5,0,1,1,.859-.513,10.555,10.555,0,0,0,1.122,1.541.5.5,0,0,1-.6.776,14.5,14.5,0,0,1-1.366,1.475.5.5,0,0,1-.343.135m36.55-.533a.5.5,0,0,1-.4-.8,11.914,11.914,0,0,0,1.023-1.623.5.5,0,1,1,.888.461,13.039,13.039,0,0,1-1.11,1.762.5.5,0,0,1-.4.2m-70.476-.225a.5.5,0,0,1-.252-.932,16.717,16.717,0,0,0,1.617-1.074.5.5,0,0,1,.6.8,17.741,17.741,0,0,1-1.715,1.138.5.5,0,0,1-.251.068m6.309-.127a.491.491,0,0,1-.31-.109c-.547-.433-1.067-.886-1.544-1.346a.5.5,0,0,1,.694-.72c.454.437.949.869,1.471,1.283a.5.5,0,0,1-.311.892m47.853-.533a.506.506,0,0,1-.17-.029.5.5,0,0,1-.3-.641c.192-.527.376-1.122.581-1.873a.5.5,0,1,1,.965.263c-.212.778-.4,1.4-.6,1.951a.5.5,0,0,1-.471.329m-71.2-.164a.5.5,0,0,1-.329-.124,6.658,6.658,0,0,1-1.377-1.652.5.5,0,1,1,.864-.5,5.653,5.653,0,0,0,1.172,1.4.5.5,0,0,1-.33.876m53.447-1.532a.5.5,0,0,1-.431-.752,12.782,12.782,0,0,0,.841-1.73.5.5,0,0,1,.93.369,13.881,13.881,0,0,1-.907,1.864.5.5,0,0,1-.433.249m-33.213-.037a.5.5,0,0,1-.342-.865l.039-.036a12.555,12.555,0,0,1-1.029-1.5.5.5,0,0,1,.865-.5,11.764,11.764,0,0,0,.877,1.293q.308-.322.6-.658a.5.5,0,1,1,.756.654,20.075,20.075,0,0,1-1.422,1.48.5.5,0,0,1-.342.135m69.082-.932a.464.464,0,0,1-.128-.017.5.5,0,0,1-.356-.611,5.727,5.727,0,0,0,.2-1.45c0-.12,0-.241-.014-.363a.5.5,0,0,1,1-.079c.012.148.017.295.017.442a6.728,6.728,0,0,1-.232,1.705.5.5,0,0,1-.483.373m-38.452-.89a.5.5,0,0,1-.47-.328,11,11,0,0,1-.528-2.024.5.5,0,1,1,.987-.159,10.027,10.027,0,0,0,.48,1.84.5.5,0,0,1-.3.641.514.514,0,0,1-.171.03m-52.817-.006a.5.5,0,0,1-.492-.415,6.125,6.125,0,0,1-.089-1.047,5,5,0,0,1,.12-1.153.5.5,0,0,1,.968.25,4.131,4.131,0,0,0-.088.9,5.264,5.264,0,0,0,.074.878.5.5,0,0,1-.408.577.487.487,0,0,1-.085.007m74.253-.29a.508.508,0,0,1-.127-.016.5.5,0,0,1-.357-.61c.173-.666.354-1.323.559-1.954a.5.5,0,1,1,.951.31c-.2.612-.374,1.251-.543,1.9a.5.5,0,0,1-.483.373m-49.452-.9a.493.493,0,0,1-.284-.09.5.5,0,0,1-.126-.7,16.238,16.238,0,0,0,1.013-1.655.5.5,0,0,1,.884.468,17.311,17.311,0,0,1-1.075,1.758.5.5,0,0,1-.412.215m32.068-.647a.488.488,0,0,1-.112-.013.5.5,0,0,1-.376-.6,11.542,11.542,0,0,0,.273-1.9.5.5,0,0,1,1,.057,12.469,12.469,0,0,1-.3,2.061.5.5,0,0,1-.487.389m-36.385-.31a.5.5,0,0,1-.48-.359,5.937,5.937,0,0,1-.251-1.662,4.7,4.7,0,0,1,.025-.5.492.492,0,0,1,.55-.445.5.5,0,0,1,.445.55,3.483,3.483,0,0,0-.02.4,4.942,4.942,0,0,0,.211,1.382.5.5,0,0,1-.339.621.5.5,0,0,1-.141.02m70.411-.833a.5.5,0,0,1-.436-.256,5.069,5.069,0,0,0-1.171-1.377.5.5,0,1,1,.644-.765,6.046,6.046,0,0,1,1.4,1.653.5.5,0,0,1-.436.745m-38.7-.937h-.019a.5.5,0,0,1-.481-.519,9.15,9.15,0,0,1,.314-2.087.5.5,0,1,1,.963.265,8.242,8.242,0,0,0-.278,1.861.5.5,0,0,1-.5.48m23.356-.15a.493.493,0,0,1-.225-.054.5.5,0,0,1-.221-.671,7.23,7.23,0,0,1,1.208-1.761.5.5,0,0,1,.724.69,6.235,6.235,0,0,0-1.039,1.521.5.5,0,0,1-.447.275m-48.9-.663a.519.519,0,0,1-.159-.026.5.5,0,0,1-.315-.633,5.837,5.837,0,0,0,.342-1.783.506.506,0,0,1,.5-.508.493.493,0,0,1,.5.492,6.757,6.757,0,0,1-.394,2.116.5.5,0,0,1-.474.342m61.292-.849a.491.491,0,0,1-.226-.054,13.6,13.6,0,0,0-1.779-.736.5.5,0,1,1,.32-.947,14.4,14.4,0,0,1,1.911.792.5.5,0,0,1-.226.945m-30.862-.231a.5.5,0,0,1-.494-.426,5.174,5.174,0,0,0-.54-1.727.5.5,0,1,1,.872-.489,6.189,6.189,0,0,1,.657,2.068.5.5,0,0,1-.42.569.646.646,0,0,1-.075,0M87.3,221.536a.5.5,0,0,1-.412-.783,5.631,5.631,0,0,1,1.582-1.5.5.5,0,1,1,.547.837,4.66,4.66,0,0,0-1.305,1.23.5.5,0,0,1-.412.216m57.325-.867a.5.5,0,0,1-.2-.958,6.531,6.531,0,0,1,2.082-.5.488.488,0,0,1,.539.456.5.5,0,0,1-.456.54,5.581,5.581,0,0,0-1.766.423.5.5,0,0,1-.2.041m5.884-.042a.507.507,0,0,1-.115-.013c-.268-.062-.547-.123-.835-.181q-.564-.111-1.077-.174a.5.5,0,1,1,.121-.993c.366.044.749.106,1.152.187.3.059.588.122.867.187a.5.5,0,0,1-.113.987m-30.863-.818a.5.5,0,0,1-.406-.79,2.831,2.831,0,0,1,1.823-1.264,1.478,1.478,0,0,1,.163-.018.5.5,0,1,1,.063,1l-.07.007a1.887,1.887,0,0,0-1.166.858.5.5,0,0,1-.407.209m-29.114-.523a.5.5,0,0,1-.166-.972,3.247,3.247,0,0,1,2.312-.118.5.5,0,1,1-.388.921,2.384,2.384,0,0,0-1.592.141.508.508,0,0,1-.166.028" fill="#261d2a"/>
          <path id="Trazado_881980" data-name="Trazado 881980" d="M71.03,32.982a.5.5,0,0,1-.066-1l.116-.018a1.922,1.922,0,0,0,1.247-.748.5.5,0,0,1,.793.609,2.92,2.92,0,0,1-1.872,1.125l-.15.023a.532.532,0,0,1-.068,0m-1.888-.477a.5.5,0,0,1-.293-.1,4.685,4.685,0,0,1-1.39-1.726.5.5,0,1,1,.894-.45A3.706,3.706,0,0,0,69.436,31.6a.5.5,0,0,1-.294.905m-21.276-.943a.5.5,0,0,1-.492-.418,18.819,18.819,0,0,1-.228-2.041.5.5,0,0,1,1-.056,17.857,17.857,0,0,0,.216,1.933.5.5,0,0,1-.411.575.465.465,0,0,1-.083.007M73.439,30.18a.509.509,0,0,1-.077-.006.5.5,0,0,1-.418-.57,6.819,6.819,0,0,0,.074-1.028q0-.41-.041-.846a.5.5,0,0,1,1-.092c.03.322.045.636.045.938a7.79,7.79,0,0,1-.085,1.18.5.5,0,0,1-.494.424m22.091-.63a.5.5,0,0,1-.053-1,2.2,2.2,0,0,0,1.451-.663.5.5,0,1,1,.743.67,3.168,3.168,0,0,1-2.087.988l-.054,0m-1.978-.176a.492.492,0,0,1-.137-.019,5.069,5.069,0,0,1-1.937-1.036.5.5,0,0,1,.651-.759,4.071,4.071,0,0,0,1.559.833.5.5,0,0,1-.136.981m-26.3-.3a.5.5,0,0,1-.487-.388,13.7,13.7,0,0,1-.3-2.053.5.5,0,0,1,1-.073,12.636,12.636,0,0,0,.278,1.9.5.5,0,0,1-.375.6.482.482,0,0,1-.112.013m-19.6-1.5h-.032a.5.5,0,0,1-.467-.53A15.335,15.335,0,0,1,47.42,25a.5.5,0,0,1,.981.2,14.136,14.136,0,0,0-.251,1.914.5.5,0,0,1-.5.468M98.016,26.9a.4.4,0,0,1-.048,0,.5.5,0,0,1-.45-.545q.021-.222.021-.459a7.413,7.413,0,0,0-.145-1.388.5.5,0,0,1,.982-.189,8.4,8.4,0,0,1,.163,1.575c0,.191-.009.377-.026.556a.5.5,0,0,1-.5.453m-7.436-.022a.5.5,0,0,1-.444-.268,7.967,7.967,0,0,1-.712-2.005.5.5,0,0,1,.978-.213,6.911,6.911,0,0,0,.62,1.754.5.5,0,0,1-.211.675.493.493,0,0,1-.231.057m-17.453-.659a.5.5,0,0,1-.484-.377,16.106,16.106,0,0,0-.594-1.846.5.5,0,1,1,.932-.362,16.956,16.956,0,0,1,.631,1.962.5.5,0,0,1-.362.608.518.518,0,0,1-.123.015M66.935,25.1h-.022a.5.5,0,0,1-.478-.521,19.741,19.741,0,0,1,.2-2.043.505.505,0,0,1,.568-.421.5.5,0,0,1,.421.569,18.584,18.584,0,0,0-.189,1.939.5.5,0,0,1-.5.478M48.453,23.671a.5.5,0,0,1-.47-.672,12.837,12.837,0,0,1,.872-1.887.5.5,0,0,1,.87.492,11.891,11.891,0,0,0-.8,1.739.5.5,0,0,1-.469.328m41.233-.66a.5.5,0,0,1-.5-.486l0-.3a14.127,14.127,0,0,1,.115-1.778.51.51,0,0,1,.559-.433.5.5,0,0,1,.433.559,13.254,13.254,0,0,0-.107,1.652l0,.268a.5.5,0,0,1-.487.513Zm7.655-.029a.5.5,0,0,1-.47-.33,17.9,17.9,0,0,0-.766-1.789.5.5,0,1,1,.9-.441,19.122,19.122,0,0,1,.81,1.889.5.5,0,0,1-.3.641.509.509,0,0,1-.171.03M71.688,22.49a.5.5,0,0,1-.444-.269,17.727,17.727,0,0,0-.993-1.669.5.5,0,0,1,.83-.559,18.542,18.542,0,0,1,1.05,1.766.5.5,0,0,1-.212.674.493.493,0,0,1-.231.057m-4.165-1.344a.517.517,0,0,1-.123-.015.5.5,0,0,1-.362-.608,20.434,20.434,0,0,1,.6-1.959.5.5,0,1,1,.94.339c-.219.608-.411,1.234-.571,1.865a.5.5,0,0,1-.484.378m-17.109-.939A.494.494,0,0,1,50.1,20.1a.5.5,0,0,1-.075-.7,13.378,13.378,0,0,1,1.427-1.506.5.5,0,0,1,.671.742,12.334,12.334,0,0,0-1.32,1.392.5.5,0,0,1-.389.186m45.178-.819a.5.5,0,0,1-.428-.24c-.334-.552-.7-1.1-1.082-1.637a.5.5,0,1,1,.812-.584c.4.557.778,1.129,1.125,1.7a.5.5,0,0,1-.427.759m-26.138-.207a.5.5,0,0,1-.379-.173,14.623,14.623,0,0,0-1.355-1.379.5.5,0,0,1,.663-.748l0,0a.5.5,0,0,1,.05-.211,18.111,18.111,0,0,1,1-1.8.5.5,0,1,1,.843.537,17.149,17.149,0,0,0-.947,1.7.5.5,0,0,1-.407.279c.31.305.613.628.9.965a.5.5,0,0,1-.379.827m20.718-.129a.491.491,0,0,1-.125-.015.5.5,0,0,1-.36-.61,18.438,18.438,0,0,1,.626-1.957.5.5,0,1,1,.935.356,17.055,17.055,0,0,0-.592,1.851.5.5,0,0,1-.484.375M53.361,17.528a.5.5,0,0,1-.281-.914,17.362,17.362,0,0,1,1.769-1.049.5.5,0,0,1,.459.889,16.237,16.237,0,0,0-1.667.988.5.5,0,0,1-.28.086m13.1-.981a.5.5,0,0,1-.27-.079,10.548,10.548,0,0,0-1.688-.881.5.5,0,1,1,.379-.926,11.533,11.533,0,0,1,1.849.965.5.5,0,0,1-.27.921m26.8-.408a.5.5,0,0,1-.384-.178c-.267-.319-.543-.632-.826-.936l-.011.023a.5.5,0,0,1-.891-.454c.088-.173.179-.344.272-.515a.5.5,0,0,1,.143-.277l.025-.024q.281-.489.586-.961a.5.5,0,0,1,.839.545q-.237.364-.457.741c.372.39.736.8,1.086,1.214a.5.5,0,0,1-.382.822M56.9,15.683a.5.5,0,0,1-.182-.965,12.686,12.686,0,0,1,1.991-.6.5.5,0,0,1,.207.979,11.558,11.558,0,0,0-1.833.553.49.49,0,0,1-.183.034m5.884-.632a.5.5,0,0,1-.094-.009,9.169,9.169,0,0,0-1.727-.164h-.007l-.15,0a.486.486,0,0,1-.509-.491.5.5,0,0,1,.491-.509l.168,0a10.552,10.552,0,0,1,1.922.182.5.5,0,0,1-.094.991m8.256-1.022a.5.5,0,0,1-.384-.819,15,15,0,0,1,1.425-1.5.5.5,0,1,1,.674.738,14.115,14.115,0,0,0-1.33,1.4.5.5,0,0,1-.385.181m49.255-.269-.049,0a.5.5,0,0,1-.45-.544c0-.013.015-.163.015-.416a8.744,8.744,0,0,0-.126-1.448.5.5,0,1,1,.985-.168,9.758,9.758,0,0,1,.141,1.616c0,.324-.019.512-.019.512a.5.5,0,0,1-.5.45m-29.837-.472a.5.5,0,0,1-.327-.121c-.5-.434-1.02-.84-1.536-1.208a.5.5,0,1,1,.58-.814c.542.385,1.083.811,1.61,1.265a.5.5,0,0,1-.327.878m3.312-1.316a.5.5,0,0,1-.388-.814,19.879,19.879,0,0,1,1.372-1.525.5.5,0,0,1,.708.707,18.277,18.277,0,0,0-1.3,1.447.5.5,0,0,1-.389.185m-19.783-.629a.5.5,0,0,1-.281-.914A13.886,13.886,0,0,1,75.5,9.4a.5.5,0,0,1,.43.9,12.658,12.658,0,0,0-1.668.954.5.5,0,0,1-.28.085M87.2,10.978a.5.5,0,0,1-.245-.065,15.621,15.621,0,0,0-1.742-.845.5.5,0,1,1,.378-.926,16.416,16.416,0,0,1,1.854.9.5.5,0,0,1-.245.936m32.428-1.132a.5.5,0,0,1-.462-.308,7.2,7.2,0,0,0-.93-1.616.5.5,0,1,1,.794-.609,8.254,8.254,0,0,1,1.059,1.84.5.5,0,0,1-.269.654.485.485,0,0,1-.192.039M77.579,9.631a.5.5,0,0,1-.146-.978l.372-.109a11.134,11.134,0,0,1,1.669-.326.5.5,0,0,1,.115.994,10.113,10.113,0,0,0-1.517.3l-.348.1a.524.524,0,0,1-.145.021m5.92-.146a.493.493,0,0,1-.12-.015,11.457,11.457,0,0,0-1.887-.3.5.5,0,0,1-.463-.534.493.493,0,0,1,.534-.463,12.3,12.3,0,0,1,2.055.326.5.5,0,0,1-.119.986M96.593,9.15a.5.5,0,0,1-.315-.889,19,19,0,0,1,1.665-1.2.5.5,0,1,1,.54.842,17.913,17.913,0,0,0-1.577,1.136.493.493,0,0,1-.313.111m3.358-2.156a.5.5,0,0,1-.223-.947,19.508,19.508,0,0,1,1.88-.817.5.5,0,0,1,.35.936,18.734,18.734,0,0,0-1.784.776.5.5,0,0,1-.223.052m17.262-.278a.493.493,0,0,1-.3-.1,7.932,7.932,0,0,0-1.622-.935.5.5,0,1,1,.4-.918,8.9,8.9,0,0,1,1.828,1.056.5.5,0,0,1-.3.9M103.688,5.6a.5.5,0,0,1-.126-.984c.453-.118.915-.222,1.389-.312l.607-.11a.5.5,0,1,1,.17.985l-.591.107q-.677.129-1.323.3a.5.5,0,0,1-.126.016m9.9-.484a.522.522,0,0,1-.11-.012,13.771,13.771,0,0,0-1.9-.282.5.5,0,1,1,.08-1,14.849,14.849,0,0,1,2.043.3.5.5,0,0,1-.109.988M107.623,4.9a.5.5,0,0,1-.053-1c.7-.075,1.385-.121,2.036-.138a.52.52,0,0,1,.513.487.5.5,0,0,1-.488.513c-.623.015-1.281.06-1.954.132l-.054,0" fill="#261d2a"/>
          <path id="Trazado_881981" data-name="Trazado 881981" d="M15.127,54.95s29.082-25.976,53.054-3.184c29.817,28.35-6.33,47.618-6.33,47.618l.429,11.754-16.071-2.823s-20.879,12.79-33.3.144-22.345-29.8,2.22-53.509" fill="#e2ba1c"/>
          <path id="Trazado_881982" data-name="Trazado 881982" d="M60.344,77.735A22.453,22.453,0,1,1,37.891,55.282,22.454,22.454,0,0,1,60.344,77.735" fill="#c35041"/>
          <path id="Trazado_881983" data-name="Trazado 881983" d="M56.3,77.735A18.406,18.406,0,1,1,37.891,59.328,18.407,18.407,0,0,1,56.3,77.735" fill="#eeebd5"/>
          <path id="Trazado_881984" data-name="Trazado 881984" d="M51.4,77.735A13.507,13.507,0,1,1,37.891,64.228,13.507,13.507,0,0,1,51.4,77.735" fill="#c35041"/>
          <path id="Trazado_881985" data-name="Trazado 881985" d="M45.991,77.735a8.1,8.1,0,1,1-8.1-8.1,8.1,8.1,0,0,1,8.1,8.1" fill="#eeebd5"/>
          <path id="Trazado_881986" data-name="Trazado 881986" d="M41.941,77.735a4.05,4.05,0,1,1-4.05-4.05,4.05,4.05,0,0,1,4.05,4.05" fill="#c35041"/>
          <path id="Trazado_881987" data-name="Trazado 881987" d="M46.719,71.92s1.557-7.386,2.4-8.169,11.169-8.222,12.011-7.258-.784,6.576-.784,6.576,6.581.794,6.862,1.937-12.393,8.318-13.235,8.6Z" fill="#a17296"/>
          <path id="Trazado_881988" data-name="Trazado 881988" d="M37.891,78.154a.5.5,0,0,1-.273-.919L60.071,62.65a.5.5,0,1,1,.545.839L38.163,78.073a.5.5,0,0,1-.272.081" fill="#261d2a"/>
          <path id="Trazado_881989" data-name="Trazado 881989" d="M229.7,46.688c-15.576,31.106-48.329,12.1-48.329,12.1L169.7,60.1l3.53-9.787s-20.894-28.331,9.976-44.8C208.173-7.807,248.125,9.9,229.7,46.688" fill="#eeebd5"/>
          <path id="Trazado_881990" data-name="Trazado 881990" d="M217.57,52.194s.9-24.445.118-24.553-8.876-.011-8.876-.011-.219,24.389.722,24.376,8.036.188,8.036.188" fill="#a17296"/>
          <path id="Trazado_881991" data-name="Trazado 881991" d="M206.539,52.006s.089-16.928-.7-17-8.876-.008-8.876-.008-.22,17.02.721,17.011,8.85,0,8.85,0" fill="#c15f7a"/>
          <path id="Trazado_881992" data-name="Trazado 881992" d="M193.962,51.63s.2-10.732-.586-10.782-8.876-.005-8.876-.005-.219,11.17.722,11.163,8.74-.376,8.74-.376" fill="#d37e3a"/>
          <path id="Trazado_881993" data-name="Trazado 881993" d="M176.77,25.089s17.128-13.08,19.251-12.038,3.706,8.431,4.706,8.459c0,0,9.278-5.7,8.552-6.679s-4.494-4.948-4.494-4.948c1.195.085,14.906-1.524,15.175-.606.546,1.858-3.25,15.108-4.041,14.045s-2.967-3.34-2.967-3.34-9.8,10.635-12.4,10.635c-2.353,0-6.11-7.179-6.11-7.179s-11,9.151-12.464,9.054-5.209-7.4-5.209-7.4" fill="#e2ba1c"/>
          <path id="Trazado_881994" data-name="Trazado 881994" d="M181.872,24.152a.5.5,0,0,1-.274-.919l8.33-5.435a.5.5,0,0,1,.547.838l-8.33,5.435a.5.5,0,0,1-.273.081" fill="#fff"/>
          <path id="Trazado_881995" data-name="Trazado 881995" d="M192.883,16.952a.5.5,0,0,1-.249-.933l1.977-1.13a.5.5,0,0,1,.5.869l-1.977,1.129a.491.491,0,0,1-.247.065" fill="#fff"/>
          <path id="Trazado_881996" data-name="Trazado 881996" d="M209.894,11.447a.5.5,0,0,1-.044-1l7.13-.636a.5.5,0,1,1,.088,1l-7.129.636a.339.339,0,0,1-.045,0" fill="#fff"/>
          <path id="Trazado_881997" data-name="Trazado 881997" d="M154.64,53.912c-10.37-25.787-33.033-8.922-33.033-8.922-17.36,5.325-4.8,28.532-4.8,28.532s-1.173,17.75-2.938,20.676-12.214,1.018-15.787,3.657c-6.14,4.534,14.576,26.884,19.279,28.343,12.158,3.772,32.065-9.472,29.9-16.831-2.135-7.26-15.482-6.913-16.06-11.958-.125-1.088.6-3.158,1.582-5.374,6.372,3.992,12.741,4.069,16.225-1.025,3.107-4.542,2.132-9.527,3.906-13.233s4.36,1.7,7.281-1.417,1.176-5.712-5.554-22.448" fill="#9f543d"/>
          <path id="Trazado_881998" data-name="Trazado 881998" d="M149.616,68.937a1.591,1.591,0,0,1-.706-.174c-2.875-1.414-1.963-8.368-1.85-9.157a.5.5,0,0,1,.991.143c-.279,1.942-.589,7.188,1.3,8.117a.482.482,0,0,0,.5,0c1.192-.674,1.99-5.1,2.213-7.733a.5.5,0,1,1,1,.084c-.063.75-.678,7.366-2.717,8.519a1.454,1.454,0,0,1-.723.2" fill="#261d2a"/>
          <path id="Trazado_881999" data-name="Trazado 881999" d="M139.24,68.422a1.591,1.591,0,0,1-.706-.174c-2.875-1.414-1.963-8.368-1.85-9.157a.5.5,0,0,1,.991.143c-.279,1.942-.589,7.187,1.3,8.117a.479.479,0,0,0,.5,0c1.193-.675,1.991-5.1,2.213-7.734a.505.505,0,0,1,.54-.456.5.5,0,0,1,.456.54c-.063.751-.678,7.367-2.717,8.52a1.454,1.454,0,0,1-.723.2" fill="#261d2a"/>
          <path id="Trazado_882000" data-name="Trazado 882000" d="M121.925,72.415a1.9,1.9,0,0,1-1.389-.629,2.588,2.588,0,0,1-.322-3.458,2.391,2.391,0,0,1,2.825-.979.5.5,0,1,1-.43.9,1.437,1.437,0,0,0-1.585.662,1.6,1.6,0,0,0,.236,2.182.871.871,0,0,0,.94.277,2.572,2.572,0,0,0,1.508-1.968,3.067,3.067,0,0,0-1.218-3.092c-3.049-2.479-5.137-.325-5.225-.233a.5.5,0,0,1-.727-.685c.027-.03,2.821-2.918,6.583.143a4.091,4.091,0,0,1,1.566,4.066,3.551,3.551,0,0,1-2.21,2.73,1.983,1.983,0,0,1-.552.081" fill="#261d2a"/>
          <path id="Trazado_882001" data-name="Trazado 882001" d="M109.654,98.447s3.333,13.134,16.958,14.367c10.406.942,9.349-11.74,9.349-11.74,3.941,3.724,20.862,3.21,22.085,9.323s5.676,83.132,4.06,84.762-61.2,4.469-90.045,0c-14.774-2.289,11.087-59.852,2.08-72.715s7.225-19.413,35.513-24" fill="#c15f7a"/>
          <path id="Trazado_882002" data-name="Trazado 882002" d="M185.48,108.779S188.462,85.1,197.02,82.06s-1.224,20.559,0,20.576,17.324-4.615,18.893,5.316-5.408,13.991-4.11,24.6c0,0-30.423,6.528-26.323-23.772" fill="#9f543d"/>
          <path id="Trazado_882003" data-name="Trazado 882003" d="M153.869,52.194s10.952-8.782,2.242-15.812c-3.371-2.72-6.636-2.53-9.115-1.386.585-4.188-1.8-9.227-10.025-7.935-5.052.793-7.91,3-9.283,5.269-2.512-2.411-6.566-4.1-10.546-1.755-4.614,2.715-4.031,7.84-2.408,11.221C110,39.651,102.206,38.714,101.4,47.424c-.481,5.209,1.236,8.365,3.4,10.118-3.256,1.323-6.061,4.481-4.278,10.072,1.661,5.21,5.438,6.112,8.264,5.621a6.158,6.158,0,0,0,7.609,5.388c7.448-1.653-4.3-9.844,1.507-16.262,2.888-3.192,5.757-3.305,7.573-1.61a2.77,2.77,0,0,0,.176.369c4.8,8.329-9.889,23.678,5.087,32.11s16.963,6.877,21.815-6.387-2.1-15.924-11.729-15.619-6.877,18.185-11.614,13.359,4-13.345,4-13.345c7.593-7.7-9.429-11.515-10.286-19.268-.9-8.1,22.688-11.81,30.94.224" fill="#403955"/>
          <path id="Trazado_882004" data-name="Trazado 882004" d="M106.892,93.892c-15.685-14.587-34.138,8.632-33.708,15.266-4.075,2.689-50.983,61.855-39.021,80.775,10.175,16.093,63.958,8.828,62.788,7.059-3.271-4.947,4.7-44.715,5-65.352,2.311-.209,4.989-2.777,7.394-8.749,3.8-9.43,6.724-22.212-2.457-29" fill="#98bdc6"/>
          <path id="Trazado_882005" data-name="Trazado 882005" d="M216.775,126.86c-.156-5.032-28.268-3.831-32.241-3.969s4.555,23.644-5.226,18.844-16.853-25.045-16.853-25.045c5.2-2.751-13.077-23.929-26.494-15.617-.455,1.366,3.047,15.456,6.142,23.555a8.664,8.664,0,0,0,.079.894c1.659,11.357,8.121,66.885,46.706,60.467s28.043-54.1,27.887-59.129" fill="#98bdc6"/>
          <path id="Trazado_882006" data-name="Trazado 882006" d="M128.118,119.885q-.33,0-.671-.024c-8.375-.6-12.762-7.5-12.945-7.794a.5.5,0,0,1,.849-.529c.042.068,4.312,6.765,12.167,7.326,3.19.217,5.57-1.327,7.093-4.615a16.926,16.926,0,0,0,1.373-5.214.5.5,0,0,1,1,.069c-.017.242-.451,5.963-3.929,8.985a7.3,7.3,0,0,1-4.935,1.8" fill="#261d2a"/>
          <path id="Trazado_882007" data-name="Trazado 882007" d="M101.965,127.36a.5.5,0,0,1-.432-.752c2.747-4.71,3.429-9.351,2.026-13.793C100.462,103,88.175,97.256,88.051,97.2a.5.5,0,0,1,.417-.908c.522.239,12.81,5.984,16.043,16.218,1.494,4.724.782,9.638-2.113,14.6a.5.5,0,0,1-.433.248" fill="#261d2a"/>
          <path id="Trazado_882008" data-name="Trazado 882008" d="M97.883,129.507a.494.494,0,0,1-.219-.051c-21.079-10.287-24.035-18.308-24.151-18.644a.5.5,0,0,1,.946-.327c.033.093,3.05,8.023,23.644,18.073a.5.5,0,0,1-.22.949" fill="#261d2a"/>
          <path id="Trazado_882009" data-name="Trazado 882009" d="M142.087,123.391a.473.473,0,0,1-.065,0,.5.5,0,0,1-.431-.561c2.512-19.121,7.856-22.9,8.082-23.05a.5.5,0,0,1,.56.829c-.087.062-5.223,3.874-7.651,22.351a.5.5,0,0,1-.495.435" fill="#261d2a"/>
          <path id="Trazado_882010" data-name="Trazado 882010" d="M146.018,127.448a.5.5,0,0,1-.126-.983c14.1-3.706,15.541-10.45,15.554-10.518a.5.5,0,0,1,.984.18c-.055.3-1.5,7.418-16.285,11.3a.462.462,0,0,1-.127.017" fill="#261d2a"/>
          <path id="Trazado_882011" data-name="Trazado 882011" d="M142.667,85.081a2.114,2.114,0,0,1-1.315-.446c-2.416-1.867-1.748-9.209-1.664-10.04a.5.5,0,1,1,.995.1c-.213,2.106-.4,7.853,1.28,9.149a1.283,1.283,0,0,0,1.359.1c4.078-1.517,3.961-8.165,3.959-8.232a.5.5,0,0,1,.487-.512.474.474,0,0,1,.513.486c.008.3.138,7.428-4.61,9.195a2.875,2.875,0,0,1-1,.195" fill="#fff"/>
          <path id="Trazado_882012" data-name="Trazado 882012" d="M95.582,167.408a.5.5,0,0,1-.218-.05c-12.989-6.323-23.973-6.119-30.9-4.832a35.523,35.523,0,0,0-11.992,4.32.5.5,0,1,1-.551-.835,35.913,35.913,0,0,1,12.36-4.468c7.076-1.314,18.289-1.527,31.521,4.915a.5.5,0,0,1-.219.95" fill="#261d2a"/>
          <path id="Trazado_882013" data-name="Trazado 882013" d="M73.253,161.8a.5.5,0,0,1-.151-.977c15.548-4.921,16.682-26.295,16.692-26.51a.5.5,0,0,1,1,.044c-.01.222-1.171,22.287-17.389,27.42a.494.494,0,0,1-.151.023" fill="#261d2a"/>
          <path id="Trazado_882014" data-name="Trazado 882014" d="M212.827,103.275a.5.5,0,0,0-.5.5c0,5.525-1.02,14.509-3.753,15.1a.545.545,0,0,1-.532-.145c-1.028-.932-1.256-4.837-1.132-8.83a51.582,51.582,0,0,0,.436-6.118.5.5,0,0,0-1-.062c-.067.585-.34,3.115-.442,6-.357,2.553-.939,4.726-1.75,5.326a9.284,9.284,0,0,0-4.883-2.8c2.836-.48,5.679-1.3,5.956-2.668.235-1.168-1.193-2.031-2.286-2.578a11.445,11.445,0,0,0-1.964-.757,27.325,27.325,0,0,0-.053-4.172.491.491,0,0,0-.526-.471.5.5,0,0,0-.472.526c.082,1.508.125,3.262.077,3.878-7.082-1.394-14.459,3.679-14.812,3.924a.5.5,0,0,0,.573.82c.093-.065,9.449-6.492,16.729-2.853,1.775.887,1.771,1.393,1.752,1.486-.216,1.074-5.112,2.067-9.726,2.419-.35.017-.556.04-.57.041a.5.5,0,0,0,.091,1c.222-.015.492-.034.8-.058,2.365-.094,9.3.173,10.134,6.652a.5.5,0,0,0,.5.436c.021,0,.043,0,.066,0a.5.5,0,0,0,.43-.561,8.263,8.263,0,0,0-1.21-3.46,4.307,4.307,0,0,0,1.171-1.789c.135,2.456.538,4.6,1.444,5.421a1.542,1.542,0,0,0,1.056.421,1.729,1.729,0,0,0,.359-.039c4.414-.951,4.542-14.531,4.542-16.076a.5.5,0,0,0-.5-.5" fill="#261d2a"/>
          <path id="Trazado_882015" data-name="Trazado 882015" d="M126.186,178.177c-5.375-14.026-30.167-3.977-30.167-3.977s-3.713,5.232-3.713,15.013c0,3.364,1.567,3.943,10.425,4.339s10.232,3.586,15.955,3.586c4.411,0-1.044-7.312-3.777-10.663,2.722,3.1,8.67,9.138,10.535,5.154.826-1.764.322-3.621-.705-5.309,3.12,2.379,5.505,2.446,1.447-8.143" fill="#9f543d"/>
          <path id="Trazado_882016" data-name="Trazado 882016" d="M119.712,194.052a.5.5,0,0,1-.48-.364,11.227,11.227,0,0,0-11.449-8.663.5.5,0,0,1-.074-1,12.4,12.4,0,0,1,12.484,9.388.5.5,0,0,1-.481.636" fill="#261d2a"/>
          <path id="Trazado_882017" data-name="Trazado 882017" d="M125.8,189.534a.5.5,0,0,1-.491-.407c-1.275-6.7-11.583-9.112-11.687-9.135a.5.5,0,1,1,.221-.976c.45.1,11.051,2.581,12.449,9.925a.5.5,0,0,1-.4.584.506.506,0,0,1-.094.009" fill="#261d2a"/>
          <path id="Trazado_882018" data-name="Trazado 882018" d="M90.294,195.251a.5.5,0,0,1-.411-.214c-7.35-10.554,2.368-25.019,2.786-25.63a.5.5,0,0,1,.826.564c-.1.144-9.746,14.509-2.791,24.494a.5.5,0,0,1-.125.7.493.493,0,0,1-.285.09" fill="#261d2a"/>
          <path id="Trazado_882019" data-name="Trazado 882019" d="M203.049,131.561c-7.754,0-14.754-3.95-15.155-4.18a.5.5,0,0,1,.5-.867c.131.074,13.166,7.423,22.993,2.054a.5.5,0,0,1,.48.878,18.191,18.191,0,0,1-8.816,2.115" fill="#261d2a"/>
          <path id="Trazado_882020" data-name="Trazado 882020" d="M92.306,206.976s105.106,3.667,108.366,2.445,15.126-66.608,11.458-68.238-75.706-4.592-78.116,0c-1.58,3.012-14,55.4-14,55.4.744.179-27.226-2.413-26.9-1.143.426,1.645-.814,11.534-.814,11.534" fill="#eeebd5"/>
          <path id="Trazado_882021" data-name="Trazado 882021" d="M201.735,198.2h-.014l-75.488-2.016a.5.5,0,0,1-.487-.513.532.532,0,0,1,.513-.487l75.489,2.016a.5.5,0,0,1-.013,1" fill="#261d2a"/>
          <path id="Trazado_882022" data-name="Trazado 882022" d="M55.427,153.124a.5.5,0,0,1-.373-.168,3.247,3.247,0,0,1,.313-4.455.5.5,0,0,1,.735.678,2.237,2.237,0,0,0-.3,3.116.5.5,0,0,1-.378.829" fill="#fff"/>
          <path id="Trazado_882023" data-name="Trazado 882023" d="M59.715,150.706a.5.5,0,0,1-.374-.169,3.246,3.246,0,0,1,.313-4.454.5.5,0,0,1,.735.678,2.244,2.244,0,0,0-.3,3.114.5.5,0,0,1-.374.831" fill="#fff"/>
          <path id="Trazado_882024" data-name="Trazado 882024" d="M56.045,146.281a.5.5,0,0,1-.374-.169,3.246,3.246,0,0,1,.312-4.454.5.5,0,0,1,.736.678,2.241,2.241,0,0,0-.3,3.113.5.5,0,0,1-.374.832" fill="#fff"/>
          <path id="Trazado_882025" data-name="Trazado 882025" d="M60.185,143.119a.5.5,0,0,1-.374-.169,3.246,3.246,0,0,1,.313-4.454.5.5,0,0,1,.735.678,2.244,2.244,0,0,0-.3,3.114.5.5,0,0,1-.374.831" fill="#fff"/>
          <path id="Trazado_882026" data-name="Trazado 882026" d="M63.712,147.524a.5.5,0,0,1-.373-.169,3.247,3.247,0,0,1,.313-4.454.5.5,0,0,1,.736.678,2.236,2.236,0,0,0-.3,3.116.5.5,0,0,1-.378.829" fill="#fff"/>
          <path id="Trazado_882027" data-name="Trazado 882027" d="M66.045,138.511a.5.5,0,0,1-.373-.168,3.246,3.246,0,0,1,.313-4.454.5.5,0,1,1,.736.678,2.235,2.235,0,0,0-.3,3.115.5.5,0,0,1-.378.829" fill="#fff"/>
          <path id="Trazado_882028" data-name="Trazado 882028" d="M57.124,138.57a.5.5,0,0,1-.373-.168,3.249,3.249,0,0,1,.313-4.455.5.5,0,0,1,.736.678,2.239,2.239,0,0,0-.3,3.117.5.5,0,0,1-.378.828" fill="#fff"/>
          <path id="Trazado_882029" data-name="Trazado 882029" d="M60.781,136.608a.5.5,0,0,1-.45-.286c-.382-.815-.5-2.742,1.8-4.2a.5.5,0,1,1,.535.845c-2.108,1.336-1.458,2.87-1.429,2.935a.5.5,0,0,1-.25.66.509.509,0,0,1-.208.045" fill="#fff"/>
          <path id="Trazado_882030" data-name="Trazado 882030" d="M116.686,58.269a6.361,6.361,0,0,1-3.03-.77c-2.647-1.439-3.588-4.357-2.516-7.8A5.635,5.635,0,0,1,117.4,45.54a8.327,8.327,0,0,1,.889.121,11.023,11.023,0,0,1,4.45-9.367,5.265,5.265,0,0,1,5.888-.591A6.334,6.334,0,0,1,130,36.725a9.7,9.7,0,0,1,5.385-4.67c2.466-.894,5-.047,7.131,2.385a14.865,14.865,0,0,1,2.545,4.274,5.955,5.955,0,0,1,5.162.178c1.812.8,2.827,1.863,3.017,3.174.339,2.351-2.178,4.5-2.285,4.595a.5.5,0,0,1-.645-.765c.022-.018,2.2-1.888,1.939-3.689-.137-.945-.954-1.753-2.428-2.4a4.956,4.956,0,0,0-4.43-.14,4.905,4.905,0,0,1,.15,3.315,1.136,1.136,0,0,1-1.176.634,1.682,1.682,0,0,1-1.508-1.142,3.088,3.088,0,0,1,1.129-3.041c.062-.056.134-.118.217-.184a13.393,13.393,0,0,0-2.438-4.151c-1.3-1.486-3.408-3.057-6.04-2.1a8.709,8.709,0,0,0-5.007,4.533,6.493,6.493,0,0,1,1.479,3.9,1.852,1.852,0,0,1-1.025,1.746,1.332,1.332,0,0,1-1.406-.126c-.705-.542-.978-1.822-.73-3.425a9.222,9.222,0,0,1,.522-1.92,5.579,5.579,0,0,0-1.413-1.118,4.364,4.364,0,0,0-4.831.528,9.959,9.959,0,0,0-3.987,8.816c1.729.546,3.135,1.551,3.266,2.491.038.268.023.931-.922,1.285a2.124,2.124,0,0,1-2.7-1.252,5.912,5.912,0,0,1-.57-1.746,7.912,7.912,0,0,0-1.087-.166,4.674,4.674,0,0,0-5.222,3.455c-.919,2.957-.157,5.435,2.038,6.628a4.98,4.98,0,0,0,6.065-.882.5.5,0,0,1,.768.64,5.531,5.531,0,0,1-4.28,1.891m2.824-11.231a4.2,4.2,0,0,0,.347.941c.393.739.887,1,1.466.785.05-.019.3-.116.283-.209-.053-.38-.875-1.048-2.1-1.517m25.025-6.743a2.063,2.063,0,0,0-.724,1.87.69.69,0,0,0,.664.458c.1.012.13,0,.182-.1a3.813,3.813,0,0,0-.122-2.227M130.29,38.641a8.088,8.088,0,0,0-.263,1.131,3.017,3.017,0,0,0,.351,2.479c.047.037.148.112.394,0a.944.944,0,0,0,.429-.872,5.1,5.1,0,0,0-.911-2.742" fill="#fff"/>
          <path id="Trazado_882031" data-name="Trazado 882031" d="M134.845,94.762a.5.5,0,0,1-.129-.982c3.68-.987,3.125-4.778,3.1-4.94a.5.5,0,0,1,.988-.159c.007.048.732,4.84-3.828,6.064a.447.447,0,0,1-.13.017" fill="#fff"/>
          <path id="Trazado_882032" data-name="Trazado 882032" d="M138.716,97.208a.5.5,0,0,1-.059-1,4.741,4.741,0,0,0,3.765-1.984c1.136-1.9.119-4.543.108-4.57a.5.5,0,0,1,.93-.368c.05.126,1.21,3.117-.177,5.445-.821,1.38-2.338,2.21-4.507,2.47l-.06,0" fill="#fff"/>
          <path id="Trazado_882033" data-name="Trazado 882033" d="M168.159,164.558s4.686-8.558,5.5-8.15,2.649,8.761,2.649,8.761,9.373,1.63,9.373,3.057-7.539,4.686-7.539,4.686,2.853,9.984,1.019,9.78-7.539-5.909-7.539-5.909-9.984,4.279-10.188,3.057,3.871-8.151,3.871-8.151-6.316-5.5-5.3-6.52,8.15-.611,8.15-.611" fill="#a17296"/>
          <path id="Trazado_882034" data-name="Trazado 882034" d="M136.577,154.981s17.523-8.15,18.338-7.131,3.464,7.742,3.464,7.742-17.727,7.947-18.338,7.335-3.464-7.946-3.464-7.946" fill="#e2ba1c"/>
          <path id="Trazado_882035" data-name="Trazado 882035" d="M132.094,163.539s18.949-.408,19.153.408.407,9.78-.815,10.6-18.949,0-19.357-.815,1.019-10.188,1.019-10.188" fill="#76ada2"/>
          <path id="Trazado_882036" data-name="Trazado 882036" d="M198.518,146.831s-11,9.373-9.373,10.188,16.708,3.26,16.912,1.833-6.113-13.447-7.539-12.021" fill="#c15f7a"/>
          <path id="Trazado_882037" data-name="Trazado 882037" d="M185.267,182.743s11.525-13.737,12.758-12.99,7.979,6.014,6.945,7.275-11.008,13.107-11.925,12.618-7.778-6.9-7.778-6.9" fill="#d37e3a"/>
        </g>
      </g>
    </g>
    <g id="Grupo_1103603" data-name="Grupo 1103603" transform="translate(-43 -117.958)">
      <rect id="Rectángulo_404156" data-name="Rectángulo 404156" width="248" height="81.916" transform="translate(247 1625)" fill="#5b2ccf"/>
    </g>
  </g>
</svg>
