<svg xmlns="http://www.w3.org/2000/svg" xmlns:xlink="http://www.w3.org/1999/xlink" width="295" height="420" viewBox="0 0 295 420">
  <defs>
    <clipPath id="clip-path">
      <rect id="Rectángulo_404162" data-name="Rectángulo 404162" width="235.309" height="227.94" fill="none"/>
    </clipPath>
  </defs>
  <g id="Grupo_1103678" data-name="Grupo 1103678" transform="translate(-181 -1202.535)">
    <g id="Grupo_1100318" data-name="Grupo 1100318" transform="translate(14378 10148.989)">
      <rect id="Rectángulo_401793" data-name="Rectángulo 401793" width="295" height="75.777" transform="translate(-14197 -8602.231)" fill="#14d6f0"/>
      <rect id="Rectángulo_402091" data-name="Rectángulo 402091" width="249" height="287.223" transform="translate(-14174 -8931.034)" fill="#a0eef9"/>
      <g id="Grupo_1099708" data-name="Grupo 1099708" transform="translate(-14041.765 -8946.454)">
        <path id="Trazado_874185" data-name="Trazado 874185" d="M59.931,65.431a1.944,1.944,0,1,1,1.945,1.945,1.945,1.945,0,0,1-1.945-1.945" transform="translate(61.91 72.609)" fill="#5b2ccf"/>
        <path id="Trazado_874186" data-name="Trazado 874186" d="M46.622,65.431a1.944,1.944,0,1,1,1.945,1.945,1.945,1.945,0,0,1-1.945-1.945" transform="translate(44.759 72.609)" fill="#5b2ccf"/>
        <path id="Trazado_874187" data-name="Trazado 874187" d="M33.313,65.431a1.944,1.944,0,1,1,1.943,1.945,1.945,1.945,0,0,1-1.943-1.945" transform="translate(27.609 72.609)" fill="#5b2ccf"/>
        <path id="Trazado_874188" data-name="Trazado 874188" d="M20,65.431a1.944,1.944,0,1,1,1.945,1.945A1.945,1.945,0,0,1,20,65.431" transform="translate(10.456 72.609)" fill="#5b2ccf"/>
        <path id="Trazado_874189" data-name="Trazado 874189" d="M6.694,65.431a1.944,1.944,0,1,1,1.945,1.945,1.945,1.945,0,0,1-1.945-1.945" transform="translate(-6.694 72.609)" fill="#5b2ccf"/>
        <path id="Trazado_874190" data-name="Trazado 874190" d="M59.931,53.538a1.944,1.944,0,1,1,1.945,1.945,1.945,1.945,0,0,1-1.945-1.945" transform="translate(61.91 57.283)" fill="#5b2ccf"/>
        <path id="Trazado_874191" data-name="Trazado 874191" d="M46.622,53.538a1.944,1.944,0,1,1,1.945,1.945,1.945,1.945,0,0,1-1.945-1.945" transform="translate(44.759 57.283)" fill="#5b2ccf"/>
        <path id="Trazado_874192" data-name="Trazado 874192" d="M33.313,53.538a1.944,1.944,0,1,1,1.943,1.945,1.945,1.945,0,0,1-1.943-1.945" transform="translate(27.609 57.283)" fill="#5b2ccf"/>
        <path id="Trazado_874193" data-name="Trazado 874193" d="M20,53.538a1.944,1.944,0,1,1,1.945,1.945A1.945,1.945,0,0,1,20,53.538" transform="translate(10.456 57.283)" fill="#5b2ccf"/>
        <path id="Trazado_874194" data-name="Trazado 874194" d="M6.694,53.538a1.944,1.944,0,1,1,1.945,1.945,1.945,1.945,0,0,1-1.945-1.945" transform="translate(-6.694 57.283)" fill="#5b2ccf"/>
        <path id="Trazado_874195" data-name="Trazado 874195" d="M59.931,41.644a1.944,1.944,0,1,1,1.945,1.945,1.943,1.943,0,0,1-1.945-1.945" transform="translate(61.91 41.958)" fill="#5b2ccf"/>
        <path id="Trazado_874196" data-name="Trazado 874196" d="M46.622,41.644a1.944,1.944,0,1,1,1.945,1.945,1.943,1.943,0,0,1-1.945-1.945" transform="translate(44.759 41.958)" fill="#5b2ccf"/>
        <path id="Trazado_874197" data-name="Trazado 874197" d="M33.313,41.644a1.944,1.944,0,1,1,1.943,1.945,1.943,1.943,0,0,1-1.943-1.945" transform="translate(27.609 41.958)" fill="#5b2ccf"/>
        <path id="Trazado_874198" data-name="Trazado 874198" d="M20,41.644a1.944,1.944,0,1,1,1.945,1.945A1.943,1.943,0,0,1,20,41.644" transform="translate(10.456 41.958)" fill="#5b2ccf"/>
        <path id="Trazado_874199" data-name="Trazado 874199" d="M6.694,41.644a1.944,1.944,0,1,1,1.945,1.945,1.943,1.943,0,0,1-1.945-1.945" transform="translate(-6.694 41.958)" fill="#5b2ccf"/>
        <path id="Trazado_874200" data-name="Trazado 874200" d="M59.931,29.751A1.944,1.944,0,1,1,61.876,31.7a1.945,1.945,0,0,1-1.945-1.945" transform="translate(61.91 26.629)" fill="#5b2ccf"/>
        <path id="Trazado_874201" data-name="Trazado 874201" d="M46.622,29.751A1.944,1.944,0,1,1,48.567,31.7a1.945,1.945,0,0,1-1.945-1.945" transform="translate(44.759 26.629)" fill="#5b2ccf"/>
        <path id="Trazado_874202" data-name="Trazado 874202" d="M33.313,29.751A1.944,1.944,0,1,1,35.256,31.7a1.945,1.945,0,0,1-1.943-1.945" transform="translate(27.609 26.629)" fill="#5b2ccf"/>
        <path id="Trazado_874203" data-name="Trazado 874203" d="M20,29.751A1.944,1.944,0,1,1,21.948,31.7,1.945,1.945,0,0,1,20,29.751" transform="translate(10.456 26.629)" fill="#5b2ccf"/>
        <path id="Trazado_874204" data-name="Trazado 874204" d="M6.694,29.751A1.944,1.944,0,1,1,8.639,31.7a1.945,1.945,0,0,1-1.945-1.945" transform="translate(-6.694 26.629)" fill="#5b2ccf"/>
        <path id="Trazado_874205" data-name="Trazado 874205" d="M59.931,17.858A1.944,1.944,0,1,1,61.876,19.8a1.945,1.945,0,0,1-1.945-1.945" transform="translate(61.91 11.303)" fill="#5b2ccf"/>
        <path id="Trazado_874206" data-name="Trazado 874206" d="M46.622,17.858A1.944,1.944,0,1,1,48.567,19.8a1.945,1.945,0,0,1-1.945-1.945" transform="translate(44.759 11.303)" fill="#5b2ccf"/>
        <path id="Trazado_874207" data-name="Trazado 874207" d="M33.313,17.858A1.944,1.944,0,1,1,35.256,19.8a1.945,1.945,0,0,1-1.943-1.945" transform="translate(27.609 11.303)" fill="#5b2ccf"/>
        <path id="Trazado_874208" data-name="Trazado 874208" d="M20,17.858A1.944,1.944,0,1,1,21.948,19.8,1.945,1.945,0,0,1,20,17.858" transform="translate(10.456 11.303)" fill="#5b2ccf"/>
        <path id="Trazado_874209" data-name="Trazado 874209" d="M6.694,17.858A1.944,1.944,0,1,1,8.639,19.8a1.945,1.945,0,0,1-1.945-1.945" transform="translate(-6.694 11.303)" fill="#5b2ccf"/>
        <path id="Trazado_874210" data-name="Trazado 874210" d="M59.931,5.964a1.944,1.944,0,1,1,1.945,1.945,1.943,1.943,0,0,1-1.945-1.945" transform="translate(61.91 -4.021)" fill="#5b2ccf"/>
        <path id="Trazado_874211" data-name="Trazado 874211" d="M46.622,5.964a1.944,1.944,0,1,1,1.945,1.945,1.943,1.943,0,0,1-1.945-1.945" transform="translate(44.759 -4.021)" fill="#5b2ccf"/>
        <path id="Trazado_874212" data-name="Trazado 874212" d="M33.313,5.964a1.944,1.944,0,1,1,1.943,1.945,1.943,1.943,0,0,1-1.943-1.945" transform="translate(27.609 -4.021)" fill="#5b2ccf"/>
        <path id="Trazado_874213" data-name="Trazado 874213" d="M20,5.964a1.944,1.944,0,1,1,1.945,1.945A1.943,1.943,0,0,1,20,5.964" transform="translate(10.456 -4.021)" fill="#5b2ccf"/>
        <path id="Trazado_874214" data-name="Trazado 874214" d="M6.694,5.964A1.944,1.944,0,1,1,8.639,7.909,1.943,1.943,0,0,1,6.694,5.964" transform="translate(-6.694 -4.021)" fill="#5b2ccf"/>
      </g>
      <g id="Grupo_1103610" data-name="Grupo 1103610" transform="translate(-14167.154 -8901.393)">
        <g id="Grupo_1103609" data-name="Grupo 1103609" clip-path="url(#clip-path)">
          <path id="Trazado_881703" data-name="Trazado 881703" d="M169.339,63.582l-.011-.009a3.123,3.123,0,1,1,.011.009m3.359-4.353a2.284,2.284,0,0,0-2.8,3.61l.008.007a2.291,2.291,0,0,0,3.2-.411,2.288,2.288,0,0,0-.4-3.205" transform="translate(-6.246 -2.149)" fill="#261d2a"/>
          <path id="Trazado_881704" data-name="Trazado 881704" d="M8.706,223.573l-.011-.009a3.126,3.126,0,1,1,.011.009m3.358-4.353a2.284,2.284,0,0,0-2.8,3.61l.008.007a2.291,2.291,0,0,0,3.2-.411,2.287,2.287,0,0,0-.405-3.205" transform="translate(-0.277 -8.094)" fill="#261d2a"/>
          <path id="Trazado_881705" data-name="Trazado 881705" d="M127.533,214.514s-.856-6.5,5.4-4.394,4.216,8.05,1.832,6.015,2.088-8.94,6.874-5.866,3.716,9.039.321,9.48,2.056-6.946,6.332-2.385-5.061,12.878-8.878,9.82-.83-7.993.086-4.985-1.554,5.957-8.326,5.841-3.689-10.535-1.322-7.5-1.563,6.455-6.339,2.883.672-10.958,4.024-8.906" transform="translate(-4.52 -7.785)" fill="#fcfdff"/>
          <path id="Trazado_881706" data-name="Trazado 881706" d="M131.523,228.505l-.379,0a4.276,4.276,0,0,1-4.372-3.145,7.7,7.7,0,0,1-3.57-1.57c-2.778-2.078-2.452-5.322-.9-7.615,1.12-1.651,2.989-2.869,4.688-2.421a4.95,4.95,0,0,1,1.423-3.809c1.065-.877,2.63-.978,4.65-.3a8.6,8.6,0,0,1,2.247,1.109,5.005,5.005,0,0,1,6.566-.909,7.027,7.027,0,0,1,3.442,5.534,4.806,4.806,0,0,1,3.3,1.638c1.957,2.088,1.531,5.266-1.087,8.1-2.367,2.559-6.13,4.28-8.443,2.429a6.123,6.123,0,0,1-.784-.746c-1.5,1.114-3.844,1.71-6.783,1.71m-3.729-3.115a3.284,3.284,0,0,0,3.366,2.149c2.915.048,5.2-.483,6.579-1.518a4.628,4.628,0,0,1-.482-3.938c.305-.831.875-1.353,1.44-1.32.321.009.908.188,1.24,1.277a4.113,4.113,0,0,1-.618,3.765q-.137.181-.295.351a5.217,5.217,0,0,0,.667.634c1.767,1.416,5.079-.109,7.136-2.331,1.788-1.934,3.014-4.731,1.09-6.784a3.781,3.781,0,0,0-2.618-1.342,5.571,5.571,0,0,1-.1.635,3.9,3.9,0,0,1-3.2,3.24c-1.118.142-1.45-.444-1.541-.7-.33-.943.641-2.46,2.166-3.384a5.079,5.079,0,0,1,1.735-.675,6.085,6.085,0,0,0-3-4.789,4.022,4.022,0,0,0-5.3.714,4.693,4.693,0,0,1,1.483,2.972,2.515,2.515,0,0,1-1.127,2.507,1.761,1.761,0,0,1-1.981-.368c-1.358-1.159-.9-3.364.263-4.986a7.714,7.714,0,0,0-1.935-.939c-1.684-.565-2.938-.523-3.73.13-1.365,1.123-1.04,3.719-1.037,3.745a.481.481,0,0,1-.215.467.486.486,0,0,1-.514.007c-1.361-.837-3.124.276-4.16,1.806-1.3,1.915-1.593,4.607.677,6.3a7.085,7.085,0,0,0,2.8,1.34c-.2-2,.569-4.189,1.749-4.738a1.473,1.473,0,0,1,1.877.6,3.017,3.017,0,0,1-.006,4.138,3.692,3.692,0,0,1-2.408,1.029m10.875-3.666c-.066,0-.317.168-.508.689a3.693,3.693,0,0,0,.3,2.929c.032-.039.064-.079.093-.119a3.128,3.128,0,0,0,.466-2.9c-.151-.495-.315-.615-.347-.6m-9.761-1.278a.374.374,0,0,0-.17.043c-.685.319-1.423,2.158-1.175,3.954a2.788,2.788,0,0,0,1.952-.758,2.079,2.079,0,0,0-.065-2.872c-.232-.3-.414-.368-.541-.368m15.408-4.012a4.357,4.357,0,0,0-1.192.507c-1.281.776-1.873,1.909-1.756,2.242.022.064.2.108.507.067a2.968,2.968,0,0,0,2.381-2.5c.023-.1.043-.211.06-.321m-8.88-4.323c-1,1.422-1.167,2.966-.381,3.638a.856.856,0,0,0,.921.24,1.611,1.611,0,0,0,.6-1.578,3.694,3.694,0,0,0-1.142-2.3" transform="translate(-4.501 -7.767)" fill="#261d2a"/>
          <path id="Trazado_881707" data-name="Trazado 881707" d="M101.447,35.687s-.856-6.5,5.4-4.394,4.216,8.05,1.832,6.015,2.088-8.94,6.874-5.866,3.716,9.039.322,9.479,2.055-6.945,6.331-2.384-5.061,12.877-8.878,9.82-.83-7.993.086-4.985-1.554,5.956-8.326,5.841-3.689-10.535-1.322-7.5-1.563,6.455-6.339,2.883.672-10.958,4.024-8.906" transform="translate(-3.551 -1.14)" fill="#fcfdff"/>
          <path id="Trazado_881708" data-name="Trazado 881708" d="M105.439,49.678l-.383,0a4.276,4.276,0,0,1-4.37-3.145,7.7,7.7,0,0,1-3.57-1.57c-2.778-2.077-2.452-5.32-.9-7.613,1.12-1.652,2.987-2.874,4.688-2.422a4.95,4.95,0,0,1,1.424-3.808c1.066-.878,2.63-.978,4.65-.3a8.585,8.585,0,0,1,2.247,1.109,5,5,0,0,1,6.566-.908,7.022,7.022,0,0,1,3.442,5.534,4.807,4.807,0,0,1,3.3,1.638c1.957,2.088,1.531,5.266-1.087,8.1-2.368,2.56-6.131,4.278-8.443,2.428a6.185,6.185,0,0,1-.784-.746c-1.5,1.114-3.843,1.71-6.781,1.71m-3.731-3.115a3.282,3.282,0,0,0,3.365,2.149c2.9.04,5.2-.483,6.58-1.517a4.63,4.63,0,0,1-.482-3.939c.3-.816.84-1.32,1.413-1.32h.027c.321.01.908.188,1.24,1.279a4.113,4.113,0,0,1-.618,3.763c-.091.121-.19.238-.295.351a5.22,5.22,0,0,0,.667.634c1.767,1.416,5.079-.108,7.135-2.33,1.789-1.934,3.015-4.731,1.091-6.784a3.783,3.783,0,0,0-2.618-1.342,5.507,5.507,0,0,1-.1.634,3.9,3.9,0,0,1-3.2,3.241c-1.121.144-1.45-.444-1.541-.7-.33-.943.641-2.46,2.165-3.384a5.094,5.094,0,0,1,1.735-.675,6.079,6.079,0,0,0-3-4.789,4.024,4.024,0,0,0-5.3.713,4.693,4.693,0,0,1,1.483,2.971,2.518,2.518,0,0,1-1.127,2.509,1.762,1.762,0,0,1-1.981-.368c-1.358-1.159-.9-3.365.263-4.987a7.73,7.73,0,0,0-1.935-.939c-1.683-.565-2.939-.522-3.73.13-1.365,1.124-1.04,3.719-1.037,3.745a.481.481,0,0,1-.729.474c-1.363-.839-3.124.278-4.161,1.808-1.3,1.915-1.592,4.605.678,6.3a7.071,7.071,0,0,0,2.8,1.34c-.2-2,.569-4.189,1.749-4.738a1.473,1.473,0,0,1,1.877.6,3.018,3.018,0,0,1-.006,4.139,3.692,3.692,0,0,1-2.408,1.028M112.584,42.9c-.066,0-.317.168-.508.689a3.691,3.691,0,0,0,.3,2.928c.032-.039.064-.079.093-.118a3.128,3.128,0,0,0,.466-2.9c-.151-.5-.358-.609-.347-.6m-9.761-1.279a.387.387,0,0,0-.17.043c-.685.319-1.423,2.158-1.175,3.955a2.79,2.79,0,0,0,1.952-.759,2.079,2.079,0,0,0-.065-2.872c-.232-.3-.414-.368-.541-.368m15.408-4.011a4.376,4.376,0,0,0-1.193.507c-1.28.776-1.873,1.908-1.755,2.242.022.063.2.106.507.066a2.968,2.968,0,0,0,2.381-2.5c.023-.1.043-.21.06-.32m-8.88-4.324c-1,1.422-1.167,2.967-.381,3.639a.86.86,0,0,0,.921.24,1.615,1.615,0,0,0,.6-1.579,3.694,3.694,0,0,0-1.142-2.3" transform="translate(-3.532 -1.121)" fill="#261d2a"/>
          <path id="Trazado_881709" data-name="Trazado 881709" d="M183.479,17.819c-.355,0-.693,0-1.632-3.735-3.165-.61-3.442-.982-3.535-1.107a.627.627,0,0,1-.088-.484c.057-.2.19-.672,3.807-2.131,1.3-3.387,1.739-3.387,2.033-3.387a.658.658,0,0,1,.453.231,9.3,9.3,0,0,1,.762,2.421c.1.406.221.9.291,1.113.19.085.609.235.957.36,1.859.666,2.339.894,2.425,1.337a.635.635,0,0,1-.177.523,16.83,16.83,0,0,1-3.12,1.342c-1.531,3.485-1.858,3.5-2.148,3.517h-.028m-3.943-5.256c.633.182,1.786.444,2.792.632a.482.482,0,0,1,.379.358c.258,1.043.594,2.231.836,2.909.35-.632.882-1.749,1.313-2.736a.483.483,0,0,1,.281-.262c.861-.3,1.831-.674,2.437-.939-.425-.178-1-.385-1.374-.519-1.063-.381-1.263-.463-1.4-.647a5.23,5.23,0,0,1-.458-1.5c-.1-.4-.251-1.023-.387-1.487a26.656,26.656,0,0,0-1.1,2.531.48.48,0,0,1-.272.276,31.055,31.055,0,0,0-3.049,1.386" transform="translate(-6.623 -0.259)" fill="#261d2a"/>
          <path id="Trazado_881710" data-name="Trazado 881710" d="M169.22,233.971c-.355,0-.693,0-1.632-3.735-3.165-.61-3.442-.982-3.535-1.107a.626.626,0,0,1-.088-.484c.057-.2.19-.672,3.807-2.131,1.3-3.387,1.739-3.387,2.033-3.387a.662.662,0,0,1,.453.231,9.32,9.32,0,0,1,.762,2.421c.1.406.22.9.291,1.113.19.085.609.235.957.36,1.859.666,2.339.894,2.425,1.337a.638.638,0,0,1-.177.523,16.829,16.829,0,0,1-3.12,1.342c-1.531,3.485-1.858,3.5-2.148,3.517h-.028m-3.943-5.256c.633.182,1.786.444,2.792.632a.482.482,0,0,1,.379.358c.257,1.043.594,2.231.836,2.909.35-.631.882-1.749,1.313-2.736a.483.483,0,0,1,.281-.262c.861-.3,1.831-.674,2.437-.939-.425-.178-1-.385-1.374-.519-1.063-.381-1.263-.463-1.4-.647a5.23,5.23,0,0,1-.458-1.5c-.1-.4-.252-1.023-.387-1.487a26.651,26.651,0,0,0-1.1,2.531.482.482,0,0,1-.272.276,30.959,30.959,0,0,0-3.049,1.386" transform="translate(-6.093 -8.292)" fill="#261d2a"/>
          <path id="Trazado_881711" data-name="Trazado 881711" d="M212.6,147.189h0l-1.862-.007,1.974-1.337a.482.482,0,0,0-.542-.8l-2.661,1.8.059-3.109a.48.48,0,0,0-.472-.491h0a.482.482,0,0,0-.487.473l-.052,2.744L206.92,144.7a.482.482,0,0,0-.71.653l1.675,1.817-3.084-.012a.481.481,0,0,0-.009.963h0l2.813.011-2.2,1.49a.481.481,0,1,0,.54.8l2.551-1.729-.059,3.133a.481.481,0,0,0,.472.491h0a.483.483,0,0,0,.487-.473l.056-2.959,1.735,1.882a.482.482,0,0,0,.71-.653l-1.818-1.971,2.5.009a.481.481,0,0,0,.007-.963" transform="translate(-7.593 -5.324)" fill="#261d2a"/>
          <path id="Trazado_881712" data-name="Trazado 881712" d="M8.279,70.384h0l-1.862-.007L8.387,69.04a.481.481,0,0,0-.54-.8l-2.662,1.8.059-3.109a.481.481,0,0,0-.472-.491h0a.482.482,0,0,0-.488.473l-.052,2.744L2.6,67.9a.482.482,0,0,0-.709.653l1.675,1.817L.483,70.357a.481.481,0,0,0-.008.963h0l2.813.01L1.1,72.82a.481.481,0,0,0,.54.8l2.552-1.73-.06,3.133a.481.481,0,0,0,.472.491h0a.482.482,0,0,0,.488-.473l.056-2.959,1.735,1.882a.482.482,0,1,0,.709-.653L5.772,71.338l2.5.009a.481.481,0,0,0,.006-.963" transform="translate(0 -2.469)" fill="#261d2a"/>
          <path id="Trazado_881713" data-name="Trazado 881713" d="M5.487,104.51s-2.789-7.471-1.4-6.874,5.9,2.875,5.9,2.875,4.856-3.362,5.154-2.909-.4,6.609-.4,6.609,5.976,3.187,4.881,3.885-6.574,1.294-6.574,1.294-2.08,7.671-3.063,6.9c-1.5-1.179-2.814-5.9-2.814-5.9s-6.284-.1-6.085-1.1,4.392-4.781,4.392-4.781" transform="translate(-0.041 -3.626)" fill="#e8c01b"/>
          <path id="Trazado_881714" data-name="Trazado 881714" d="M177.62,153.537s-2.789-7.471-1.4-6.874,5.9,2.875,5.9,2.875,4.856-3.362,5.154-2.909-.4,6.609-.4,6.609,5.976,3.187,4.881,3.884-6.574,1.3-6.574,1.3-2.079,7.671-3.063,6.9c-1.5-1.178-2.814-5.9-2.814-5.9s-6.284-.1-6.084-1.1,4.392-4.781,4.392-4.781" transform="translate(-6.437 -5.448)" fill="#e8c01b"/>
          <path id="Trazado_881715" data-name="Trazado 881715" d="M31.631,114.2s1.629-5.543,2.074-4.866a46.517,46.517,0,0,1,1.777,4.392s4.689,1.581,4.567,1.9-4.208,1.976-4.208,1.976-1.322,4.822-2.062,4.347-2.024-4.32-2.024-4.32-4.2-.405-3.68-1.362,3.556-2.063,3.556-2.063" transform="translate(-1.042 -4.061)" fill="#e8c01b"/>
          <path id="Trazado_881716" data-name="Trazado 881716" d="M192.821,220.2s1.628-5.543,2.073-4.866a46.308,46.308,0,0,1,1.778,4.392s4.689,1.58,4.566,1.9-4.208,1.976-4.208,1.976-1.321,4.822-2.062,4.347-2.023-4.32-2.023-4.32-4.2-.405-3.681-1.362,3.557-2.063,3.557-2.063" transform="translate(-7.032 -8)" fill="#e8c01b"/>
          <path id="Trazado_881717" data-name="Trazado 881717" d="M218.182,71.923s15.008-3.823,15.054-1.076S228.708,83,228.708,83s13.528,4.17,13.134,6.28c-.469,2.507-10.6,6-10.6,6s5.831,8.234,4.8,9.563-10.2,2.679-10.2,2.679,3.535,9.99,2.584,11.574-11.971-4.648-11.971-4.648-2.166,12.266-3.828,12.094c-1.34-.138-9.659-7.682-9.659-7.682S190,124.93,188.5,123.625c-2-1.733,1.592-16.206,1.592-16.206s-15.394-2.027-13.956-5.181,11.808-8.1,11.808-8.1-11.113-9.166-9.306-11.211S191,81.132,191,81.132s-3.351-13.073-.7-14.287,11.4,3.963,11.4,3.963,7.616-12.093,10.64-9.153,5.842,10.268,5.842,10.268" transform="translate(-6.542 -2.274)" fill="#be607a"/>
          <path id="Trazado_881718" data-name="Trazado 881718" d="M212.624,74.916s10.17,4.31,10.1,4.654-13.213,23.781-13.213,23.781l-8.4-3.989Z" transform="translate(-7.474 -2.784)" fill="#e8c01b"/>
          <path id="Trazado_881719" data-name="Trazado 881719" d="M206.009,113.178a5.22,5.22,0,1,0-7.368.453,5.221,5.221,0,0,0,7.368-.453" transform="translate(-7.316 -3.883)" fill="#e8c01b"/>
          <path id="Trazado_881720" data-name="Trazado 881720" d="M69.2,7.038c23.064,12.9,9.526,37.1,9.89,38.747s5.3,11.735,3.764,12.33-13.974-1.164-13.974-1.164S42.587,74.634,21.658,58.023,19.573-20.71,69.2,7.038" transform="translate(-0.492 0)" fill="#e8c01b"/>
          <path id="Trazado_881721" data-name="Trazado 881721" d="M71.478,21.085a.483.483,0,0,1-.458-.333C65.028,2.263,47.14,4.421,46.38,4.519a.481.481,0,1,1-.127-.953c.192-.03,19.442-2.373,25.684,16.889a.482.482,0,0,1-.31.607.5.5,0,0,1-.148.023" transform="translate(-1.703 -0.129)" fill="#fcfdff"/>
          <path id="Trazado_881722" data-name="Trazado 881722" d="M78.089,33.957a.481.481,0,0,1-.438-.679c1.516-3.361-1.838-8.079-1.872-8.127a.481.481,0,0,1,.781-.562c.152.212,3.711,5.221,1.968,9.084a.479.479,0,0,1-.439.284" transform="translate(-2.813 -0.906)" fill="#fcfdff"/>
          <path id="Trazado_881723" data-name="Trazado 881723" d="M45.527,44.1s-23.965-19.628-20.159-29.2C27.843,8.666,49.843,25.87,54.131,30.508c3.532,3.819-8.6,13.588-8.6,13.588" transform="translate(-0.928 -0.504)" fill="#be607a"/>
          <path id="Trazado_881724" data-name="Trazado 881724" d="M50.622,32.149s6.464-6.853,12.038.468,3.871,16.258,7.361,17.812S57.336,60.394,46.9,52.366s3.721-20.218,3.721-20.218" transform="translate(-1.6 -1.087)" fill="#403955"/>
          <path id="Trazado_881725" data-name="Trazado 881725" d="M62.077,41.7a.481.481,0,0,1-.457-.331c-1.07-3.253-2.649-5.3-4.694-6.1a6.554,6.554,0,0,0-5.083.393.481.481,0,0,1-.476-.837,7.414,7.414,0,0,1,5.894-.457c2.332.9,4.106,3.15,5.272,6.7a.481.481,0,0,1-.457.632" transform="translate(-1.9 -1.261)" fill="#fcfdff"/>
          <path id="Trazado_881726" data-name="Trazado 881726" d="M61.772,50.549a5.3,5.3,0,0,1-2.291-.477,5.087,5.087,0,0,1-2.662-3.765c-1.308-5.858-5.513-5.557-5.693-5.54a.492.492,0,0,1-.523-.435.481.481,0,0,1,.433-.524c.055,0,5.224-.423,6.722,6.289a4.189,4.189,0,0,0,2.135,3.1c2.272,1.084,5.471-.478,5.5-.492a.481.481,0,0,1,.429.861,10.174,10.174,0,0,1-4.054.978" transform="translate(-1.88 -1.479)" fill="#fcfdff"/>
          <path id="Trazado_881727" data-name="Trazado 881727" d="M54.193,52.392a3.975,3.975,0,0,1-2.151-.639c-3.285-2.071-4.356-8.544-4.4-8.819a.481.481,0,0,1,.95-.153c.011.064,1.047,6.32,3.965,8.158a3.071,3.071,0,0,0,2.637.337.481.481,0,0,1,.272.923,4.5,4.5,0,0,1-1.274.193" transform="translate(-1.77 -1.575)" fill="#fcfdff"/>
          <path id="Trazado_881728" data-name="Trazado 881728" d="M44.345,29.5a.483.483,0,0,1-.352-.153,55.309,55.309,0,0,0-9.834-8.3.481.481,0,1,1,.509-.816A56.3,56.3,0,0,1,44.7,28.687a.481.481,0,0,1-.352.81" transform="translate(-1.261 -0.749)" fill="#fcfdff"/>
          <path id="Trazado_881729" data-name="Trazado 881729" d="M199.009,205.739a.58.58,0,0,1-.4-.173c-.427-.477-14.355-14.523-21.66-21.882a.481.481,0,0,1,0-.682c5.99-5.931,20.08-19.706,21.748-19.706h.01a.708.708,0,0,1,.421.191c.191.216,1.8,1.682,3.837,3.54,18.353,16.74,18.029,17.1,17.494,17.71-.185.21-20,21-21.453,21Zm-21.033-22.393c2.661,2.681,18.925,19.072,21.121,21.332,2.384-1.639,18.442-18.206,20.478-20.394-1.114-1.826-12.362-12.086-17.253-16.546-2.094-1.91-3.279-2.993-3.73-3.431-1.906.9-13.383,11.89-20.615,19.039" transform="translate(-6.571 -6.068)" fill="#261d2a"/>
          <path id="Trazado_881730" data-name="Trazado 881730" d="M198.819,169.52c-.425-.272-.87-.515-1.232-.274-.889.591-12.846,11.522-14.207,12.766a.481.481,0,0,0-.012.7l16.537,16.182a.481.481,0,0,0,.662.011c5.158-4.753,13.835-12.876,13.995-13.89.231-1.464-13.486-14.05-15.743-15.495m1.433,28.366-15.846-15.507c1.077-.986,2.258-2.062,3.459-3.155,5.405-1.262,11.354-2.405,12.729-2.311-.249,1.225-1.705,5.6-3.086,9.484a.48.48,0,0,0,.081.466.491.491,0,0,0,.441.172,34.851,34.851,0,0,1,6.434-.495c-.011.965-.362,4.7-.725,8.1-1.221,1.145-2.415,2.257-3.485,3.245m4.56-4.256c.249-2.4.691-6.863.594-7.443-.07-.415-.185-1.1-6.728-.215.854-2.422,2.937-8.435,2.914-9.352a.591.591,0,0,0-.237-.458c-.828-.644-7.262.657-12.035,1.738,3.978-3.614,7.833-7.086,8.671-7.756,1.9.818,14.576,12.819,15.582,14.758-.583.9-4.671,4.87-8.761,8.727" transform="translate(-6.809 -6.286)" fill="#261d2a"/>
          <path id="Trazado_881731" data-name="Trazado 881731" d="M205.073,184.659a2.734,2.734,0,0,1-1.827-.684,3.052,3.052,0,1,1,4.159-.388,3.13,3.13,0,0,1-2.036,1.058c-.1.009-.2.013-.3.013m.375-4.968a2.164,2.164,0,0,0-1.607.745,2,2,0,0,0,.042,2.817,1.8,1.8,0,0,0,1.391.433,2.169,2.169,0,0,0,1.41-.737,2,2,0,0,0-.042-2.817,1.779,1.779,0,0,0-1.194-.442" transform="translate(-7.519 -6.642)" fill="#261d2a"/>
          <path id="Trazado_881732" data-name="Trazado 881732" d="M35.5,92.305a.646.646,0,0,1-.363-.114,17.888,17.888,0,0,1-2.325-3.74c-2.536.282-4.656.377-4.952-.035a.561.561,0,0,1,.058-.715c.481-.533,1.614-1.776,2.98-3.2-.989-2.245-1.683-4.269-1.423-4.908a.651.651,0,0,1,.746-.408,25.548,25.548,0,0,1,4.141,1.883c1.8-1.671,3.459-2.991,4.238-3.008a.745.745,0,0,1,.584.223.482.482,0,0,1,.132.416c-.224,1.358-.505,2.981-.822,4.624,4.214,2.406,4.264,2.837,4.292,3.078a.594.594,0,0,1-.323.557c-.048.021-2.251.429-4.934.845-.586,2.374-1.207,4.2-1.77,4.442a.659.659,0,0,1-.261.056m-1.7-3.97a21.673,21.673,0,0,0,1.685,2.86,16.56,16.56,0,0,0,1.015-3.23c-.891.132-1.809.26-2.7.371m-2.471-2.884c-.736.766-1.475,1.557-2.192,2.342.7,0,1.862-.1,3.21-.245-.346-.682-.691-1.393-1.018-2.1m.711-.735c.411.907.86,1.843,1.3,2.718,1.1-.13,2.272-.284,3.391-.443.222-.967.452-2.043.678-3.174-.939-.531-1.931-1.075-2.876-1.576-.784.749-1.63,1.59-2.493,2.475m6.26-.39c-.172.858-.352,1.708-.538,2.517,1.516-.224,2.845-.443,3.632-.6-.627-.453-1.767-1.151-3.094-1.917m-7.928-4.1a17.231,17.231,0,0,0,1.245,3.536c.65-.664,1.333-1.347,2.011-2a32.87,32.87,0,0,0-3.256-1.538m4.9,1.318c.62.33,1.2.648,1.695.919l.64.356c.232-1.2.457-2.452.666-3.685a17.528,17.528,0,0,0-3,2.41m3.355-2.521h0Z" transform="translate(-1.031 -2.901)" fill="#261d2a"/>
          <path id="Trazado_881733" data-name="Trazado 881733" d="M67.358,235.056a.482.482,0,0,1-.045-.961,8.164,8.164,0,0,0,1.772-.372.481.481,0,0,1,.3.915,9.169,9.169,0,0,1-1.981.416l-.046,0m-1.919-.018-.052,0a11.77,11.77,0,0,1-1.967-.4.482.482,0,1,1,.268-.925,10.648,10.648,0,0,0,1.8.363.482.482,0,0,1-.052.961M61.747,234a.473.473,0,0,1-.194-.041,16.194,16.194,0,0,1-1.763-.909.482.482,0,0,1,.494-.827,15.284,15.284,0,0,0,1.657.856.481.481,0,0,1-.194.921m9.235-.125a.482.482,0,0,1-.244-.9,10.349,10.349,0,0,0,1.492-1.068.481.481,0,1,1,.626.732,11.362,11.362,0,0,1-1.632,1.167.485.485,0,0,1-.243.066M58.45,232.026a.477.477,0,0,1-.3-.1,16.17,16.17,0,0,1-1.485-1.316.481.481,0,0,1,.683-.679,15,15,0,0,0,1.394,1.235.482.482,0,0,1-.3.862m15.46-.632a.481.481,0,0,1-.362-.8,16.212,16.212,0,0,0,1.149-1.477.482.482,0,1,1,.791.549,17.775,17.775,0,0,1-1.216,1.565.484.484,0,0,1-.362.163m-18.171-2.088a.483.483,0,0,1-.38-.186,17.022,17.022,0,0,1-1.124-1.63.482.482,0,1,1,.823-.5,16.218,16.218,0,0,0,1.059,1.539.481.481,0,0,1-.378.778m20.377-1.064a.467.467,0,0,1-.237-.063.482.482,0,0,1-.182-.657c.3-.532.6-1.1.869-1.679a.481.481,0,1,1,.87.41c-.285.6-.588,1.191-.9,1.745a.481.481,0,0,1-.419.244m-30.721-.879a.481.481,0,0,1-.011-.963,13.654,13.654,0,0,0,1.85-.168.482.482,0,1,1,.152.951,14.632,14.632,0,0,1-1.981.179Zm-1.923-.078-.05,0a17.334,17.334,0,0,1-1.954-.318.482.482,0,0,1,.209-.941,16.266,16.266,0,0,0,1.844.3.481.481,0,0,1-.049.96m5.711-.53a.481.481,0,0,1-.141-.942,12.95,12.95,0,0,0,1.729-.669.481.481,0,1,1,.411.87,13.942,13.942,0,0,1-1.858.719.476.476,0,0,1-.142.021m-9.466-.295a.454.454,0,0,1-.15-.024c-.607-.2-1.225-.438-1.839-.706a.481.481,0,1,1,.385-.882c.587.255,1.178.483,1.755.674a.481.481,0,0,1-.151.938m14.027-.44a.481.481,0,0,1-.438-.28c-.112-.244-.22-.491-.322-.741l-.065.042a.481.481,0,0,1-.529-.8c.082-.054.163-.108.244-.164l-.058-.17a.481.481,0,0,1,.854-.424c.148-.119.294-.243.436-.368a.481.481,0,1,1,.636.722c-.23.2-.469.4-.713.588q.182.467.39.917a.481.481,0,0,1-.235.638.47.47,0,0,1-.2.044M36.2,224.915a.484.484,0,0,1-.246-.067,10.55,10.55,0,0,1-1.624-1.191.481.481,0,1,1,.64-.718,9.63,9.63,0,0,0,1.476,1.081.482.482,0,0,1-.246.9m41.569-.158a.481.481,0,0,1-.448-.659c.257-.653.471-1.258.643-1.789a.482.482,0,0,1,.916.3c-.178.546-.4,1.171-.663,1.844a.481.481,0,0,1-.448.305m-22.231-2.176a.481.481,0,0,1-.367-.793,12,12,0,0,0,1.088-1.5.481.481,0,1,1,.821.5,12.994,12.994,0,0,1-1.176,1.617.48.48,0,0,1-.367.169m-3.011-.205a.48.48,0,0,1-.47-.38,16.292,16.292,0,0,1-.3-1.961.482.482,0,0,1,.436-.523.489.489,0,0,1,.523.436A15.741,15.741,0,0,0,53,221.795a.481.481,0,0,1-.37.571.515.515,0,0,1-.1.011m-19.188,0a.482.482,0,0,1-.38-.185,12.431,12.431,0,0,1-1.1-1.672.482.482,0,1,1,.844-.463,11.654,11.654,0,0,0,1.01,1.543.48.48,0,0,1-.378.777m24.188-3.07a.491.491,0,0,1-.172-.032.481.481,0,0,1-.277-.622,7.017,7.017,0,0,0,.437-1.742.481.481,0,1,1,.957.1,7.915,7.915,0,0,1-.5,1.983.48.48,0,0,1-.449.31m-26.044-.286a.481.481,0,0,1-.45-.31,16.759,16.759,0,0,1-.591-1.891.482.482,0,0,1,.35-.585.487.487,0,0,1,.583.35,16.1,16.1,0,0,0,.557,1.783.48.48,0,0,1-.278.621.49.49,0,0,1-.171.032m20.711-.468h-.025a.482.482,0,0,1-.456-.505,10.265,10.265,0,0,1,.289-2,.481.481,0,0,1,.933.237,9.308,9.308,0,0,0-.26,1.809.481.481,0,0,1-.48.457m5.616-3.009a.482.482,0,0,1-.453-.318,2.123,2.123,0,0,0-.993-1.18.482.482,0,0,1,.463-.844,3.106,3.106,0,0,1,1.436,1.7.481.481,0,0,1-.289.615.473.473,0,0,1-.165.03m-27.274-.249a.481.481,0,0,1-.476-.412c-.092-.636-.159-1.3-.2-1.957a.481.481,0,1,1,.961-.055c.036.635.1,1.265.187,1.873a.482.482,0,0,1-.406.547.576.576,0,0,1-.07,0m22.684-.407a.481.481,0,0,1-.4-.754,2.992,2.992,0,0,1,1.812-1.3.481.481,0,1,1,.2.941,2.034,2.034,0,0,0-1.223.906.48.48,0,0,1-.4.209m-22.9-3.433H30.3a.483.483,0,0,1-.469-.494c.016-.651.061-1.311.131-1.96a.474.474,0,0,1,.53-.428.482.482,0,0,1,.428.53c-.067.626-.11,1.259-.125,1.883a.483.483,0,0,1-.481.47m.411-3.826a.485.485,0,0,1-.317-.118l-.177.011a.481.481,0,1,1-.053-.961l.178-.012c.1-.484.224-.956.356-1.41a.482.482,0,0,1,.924.271q-.146.5-.27,1.03c.22-.034.437-.071.651-.115a.482.482,0,0,1,.191.945c-.361.072-.731.132-1.105.176a.482.482,0,0,1-.378.183m-2.445-.127h-.038a16.491,16.491,0,0,1-1.963-.271.482.482,0,1,1,.188-.945,15.357,15.357,0,0,0,1.849.254.482.482,0,0,1-.036.962m-3.77-.746a.467.467,0,0,1-.147-.024c-.162-.051-.324-.107-.488-.166a9.472,9.472,0,0,1-1.37-.6.481.481,0,0,1,.458-.846,8.628,8.628,0,0,0,1.233.541c.155.056.309.107.462.157a.482.482,0,0,1-.148.94m9.449-.013a.481.481,0,0,1-.175-.93,7.634,7.634,0,0,0,1.6-.839.481.481,0,0,1,.551.79,8.7,8.7,0,0,1-1.8.946.49.49,0,0,1-.175.033m-12.771-1.855a.479.479,0,0,1-.341-.142,5.775,5.775,0,0,1-1.184-1.719.482.482,0,0,1,.879-.394,4.821,4.821,0,0,0,.988,1.434.481.481,0,0,1-.342.82M37,204.474a.481.481,0,0,1-.416-.725,1.84,1.84,0,0,0,.279-.929,1.452,1.452,0,0,0-.091-.505.482.482,0,0,1,.9-.332,2.425,2.425,0,0,1,.15.838,2.792,2.792,0,0,1-.41,1.416.48.48,0,0,1-.416.238m-5.171-.536a.487.487,0,0,1-.193-.04.481.481,0,0,1-.248-.634,9.841,9.841,0,0,1,.976-1.772.482.482,0,0,1,.785.558,8.859,8.859,0,0,0-.878,1.6.483.483,0,0,1-.442.289m-12.2-2.488a.481.481,0,0,1-.479-.434q-.038-.386-.038-.772a9.614,9.614,0,0,1,.087-1.261.481.481,0,1,1,.954.128,8.646,8.646,0,0,0-.078,1.132c0,.227.011.454.033.679a.483.483,0,0,1-.432.527l-.047,0m16.348-.246a.471.471,0,0,1-.265-.08l-.155-.1a1.206,1.206,0,0,0-1.2-.09.482.482,0,0,1-.394-.879,2.179,2.179,0,0,1,2.1.149l.182.117a.481.481,0,0,1-.266.883m-15.889-3.556a.483.483,0,0,1-.462-.619,17.926,17.926,0,0,1,.675-1.863.482.482,0,0,1,.887.376,16.637,16.637,0,0,0-.638,1.761.481.481,0,0,1-.461.345m1.49-3.55a.464.464,0,0,1-.226-.057.48.48,0,0,1-.2-.652,19.127,19.127,0,0,1,1.018-1.705.482.482,0,0,1,.791.549A18.2,18.2,0,0,0,22,193.845a.481.481,0,0,1-.425.254" transform="translate(-0.71 -7.116)" fill="#261d2a"/>
          <path id="Trazado_881734" data-name="Trazado 881734" d="M179.283,46.489a.481.481,0,0,1-.351-.811,11.608,11.608,0,0,0,1.149-1.447.481.481,0,1,1,.8.536,12.494,12.494,0,0,1-1.245,1.569.485.485,0,0,1-.351.152m2.128-3.193a.481.481,0,0,1-.44-.675,9.149,9.149,0,0,0,.57-1.736.481.481,0,0,1,.941.205,10.108,10.108,0,0,1-.63,1.918.48.48,0,0,1-.441.288m.807-3.737a.48.48,0,0,1-.481-.48,8.65,8.65,0,0,0-.2-1.809.482.482,0,0,1,.942-.2,9.662,9.662,0,0,1,.22,2.011.482.482,0,0,1-.48.482ZM160.1,38.931a1.732,1.732,0,0,1-.357-.038.481.481,0,1,1,.2-.942,1.455,1.455,0,0,0,1.237-.594.482.482,0,0,1,.7.662,2.484,2.484,0,0,1-1.775.911m2.493-2.356a.471.471,0,0,1-.216-.052.481.481,0,0,1-.214-.646,12.423,12.423,0,0,0,.693-1.716.481.481,0,1,1,.916.3,13.224,13.224,0,0,1-.749,1.851.481.481,0,0,1-.43.266m18.834-.756a.482.482,0,0,1-.444-.295,12.2,12.2,0,0,0-.853-1.642.482.482,0,0,1,.82-.506,13.189,13.189,0,0,1,.92,1.774.482.482,0,0,1-.255.632.5.5,0,0,1-.188.038m-23.011-1.892a.481.481,0,0,1-.443-.669,7.927,7.927,0,0,1,1.049-1.755.482.482,0,0,1,.761.591,7.05,7.05,0,0,0-.924,1.54.479.479,0,0,1-.442.294m5.388-1a.48.48,0,0,1-.472-.579c.124-.606.221-1.231.29-1.858a.474.474,0,0,1,.531-.427.481.481,0,0,1,.427.531c-.071.657-.173,1.312-.3,1.948a.48.48,0,0,1-.471.385m15.626-.389a.478.478,0,0,1-.376-.181c-.348-.435-.734-.876-1.149-1.309l-.09-.1a.481.481,0,1,1,.685-.675l.107.11c.43.451.836.913,1.2,1.371a.481.481,0,0,1-.077.676.475.475,0,0,1-.3.1m-18.705-1.655a.481.481,0,0,1-.319-.842,13.307,13.307,0,0,1,1.594-1.2.481.481,0,1,1,.523.808,12.359,12.359,0,0,0-1.479,1.117.483.483,0,0,1-.32.12m15.991-1.063a.482.482,0,0,1-.289-.1,11.37,11.37,0,0,0-1.557-.992.482.482,0,1,1,.449-.852A12.431,12.431,0,0,1,177,28.956a.481.481,0,0,1-.291.866m-12.5-.717h-.007a.482.482,0,0,1-.456-.349.482.482,0,0,1-.021-.874c-.008-.384-.027-.767-.058-1.145a.482.482,0,0,1,.96-.077c.021.27.039.543.049.818.3-.117.606-.222.913-.319a.482.482,0,0,1,.287.92c-.4.124-.8.269-1.184.428v.121a.482.482,0,0,1-.481.475m-31.581-.9a2.421,2.421,0,0,1-1.113-.283.482.482,0,1,1,.442-.856,1.346,1.346,0,0,0,1.374-.025.481.481,0,1,1,.481.833,2.353,2.353,0,0,1-1.184.331M157.3,36.3a2.416,2.416,0,0,1,.123-1.143.482.482,0,0,1,.91.316,1.344,1.344,0,0,0,.22,1.357.481.481,0,1,1-.757.6,2.354,2.354,0,0,1-.5-1.125m16.015-8.26a.468.468,0,0,1-.148-.024,10.9,10.9,0,0,0-1.794-.417.482.482,0,0,1,.139-.953,11.918,11.918,0,0,1,1.953.454.482.482,0,0,1-.149.94m-5.708-.386a.481.481,0,0,1-.077-.956,13.588,13.588,0,0,1,1.986-.18.481.481,0,1,1,.014.963,12.742,12.742,0,0,0-1.845.167.444.444,0,0,1-.079.007m-37.23-1.014a.482.482,0,0,1-.414-.235,4.537,4.537,0,0,1-.615-2.039.482.482,0,1,1,.961-.065,3.587,3.587,0,0,0,.481,1.613.48.48,0,0,1-.413.727m4.5-.1a.487.487,0,0,1-.248-.069.48.48,0,0,1-.164-.661,8.177,8.177,0,0,0,.738-1.657.482.482,0,0,1,.915.3,9.14,9.14,0,0,1-.829,1.853.479.479,0,0,1-.412.233M163.9,25.272a.481.481,0,0,1-.473-.4,17.267,17.267,0,0,0-.437-1.821.481.481,0,0,1,.922-.276,17.876,17.876,0,0,1,.461,1.925.482.482,0,0,1-.386.56.549.549,0,0,1-.088.008m-27.778-2.349a.411.411,0,0,1-.084-.008.481.481,0,0,1-.392-.557,15.691,15.691,0,0,0,.21-1.857.468.468,0,0,1,.507-.453.481.481,0,0,1,.453.506,16.814,16.814,0,0,1-.221,1.97.482.482,0,0,1-.474.4m-6.092-.013a.489.489,0,0,1-.122-.015.482.482,0,0,1-.344-.588,9.235,9.235,0,0,1,.737-1.887.481.481,0,1,1,.855.44,8.339,8.339,0,0,0-.66,1.692.482.482,0,0,1-.466.359m32.759-1.319a.482.482,0,0,1-.442-.288,13.92,13.92,0,0,0-.857-1.651.481.481,0,0,1,.822-.5,14.9,14.9,0,0,1,.917,1.765.482.482,0,0,1-.247.635.471.471,0,0,1-.193.04m-31.038-2.1a.482.482,0,0,1-.386-.768,14.71,14.71,0,0,1,1.294-1.512.482.482,0,0,1,.688.674,13.672,13.672,0,0,0-1.21,1.412.481.481,0,0,1-.386.194m4.584-.406a.481.481,0,0,1-.48-.455,17.185,17.185,0,0,0-.2-1.861.481.481,0,1,1,.949-.159,17.96,17.96,0,0,1,.216,1.967.481.481,0,0,1-.453.507h-.027m24.455-.772a.479.479,0,0,1-.373-.176,12.654,12.654,0,0,0-1.276-1.343.482.482,0,1,1,.648-.712,13.809,13.809,0,0,1,1.372,1.445.481.481,0,0,1-.372.787m-26.36-1.575a.481.481,0,0,1-.3-.856c.366-.295.751-.579,1.148-.849a.509.509,0,0,1-.036-.09,15.1,15.1,0,0,0-.621-1.758.482.482,0,0,1,.886-.378,15.977,15.977,0,0,1,.661,1.872l0,.008a.488.488,0,0,1,.233.192.481.481,0,0,1-.148.664,17.078,17.078,0,0,0-1.521,1.09.482.482,0,0,1-.3.106m-29.2-.174a.463.463,0,0,1-.147-.024.48.48,0,0,1-.311-.6,15.663,15.663,0,0,1,.771-1.848.482.482,0,0,1,.868.42,15.259,15.259,0,0,0-.722,1.723.482.482,0,0,1-.458.334m52.722-.834a.482.482,0,0,1-.27-.083,13.9,13.9,0,0,0-1.6-.939.482.482,0,0,1,.43-.862,15.026,15.026,0,0,1,1.715,1,.481.481,0,0,1-.272.879M137.673,14.67a.481.481,0,0,1-.215-.912,19.562,19.562,0,0,1,1.809-.79.481.481,0,1,1,.339.9,18.627,18.627,0,0,0-1.72.749.472.472,0,0,1-.214.051M154.528,14a.482.482,0,0,1-.163-.028q-.319-.116-.651-.219-.581-.183-1.149-.334a.482.482,0,0,1,.246-.931c.394.1.79.22,1.191.347.233.073.463.15.688.231a.481.481,0,0,1-.164.934m-13.259-.689a.482.482,0,0,1-.124-.947c.629-.168,1.277-.308,1.926-.418a.481.481,0,1,1,.16.949c-.619.1-1.237.239-1.836.4a.508.508,0,0,1-.125.016m-34.37-.23a.481.481,0,0,1-.413-.729c.342-.568.71-1.12,1.094-1.643a.482.482,0,0,1,.775.572c-.366.5-.717,1.024-1.043,1.567a.481.481,0,0,1-.413.233m43.913-.07a.468.468,0,0,1-.089-.009c-.623-.116-1.251-.206-1.866-.27a.481.481,0,0,1-.43-.528.486.486,0,0,1,.528-.429c.642.065,1.3.16,1.945.281a.481.481,0,0,1-.088.954m-5.751-.337a.482.482,0,0,1-.035-.962c.52-.039,1.05-.058,1.591-.058l.376,0a.481.481,0,0,1-.008.963h-.007l-.361,0q-.774,0-1.52.056h-.036M134.2,11.758a.479.479,0,0,1-.414-.235A13.312,13.312,0,0,0,132.724,10a.481.481,0,1,1,.749-.6,14.079,14.079,0,0,1,1.135,1.636.48.48,0,0,1-.413.727M109.185,9.986a.481.481,0,0,1-.357-.8,18.077,18.077,0,0,1,1.406-1.392.482.482,0,1,1,.639.72,17.026,17.026,0,0,0-1.332,1.319.481.481,0,0,1-.356.158m22.6-1.209a.484.484,0,0,1-.326-.127A12.492,12.492,0,0,0,130.006,7.5a.482.482,0,0,1,.539-.8,13.532,13.532,0,0,1,1.565,1.237.481.481,0,0,1-.325.836M112.07,7.445a.482.482,0,0,1-.273-.878A15.51,15.51,0,0,1,113.5,5.548a.482.482,0,0,1,.44.858,14.36,14.36,0,0,0-1.6.954.476.476,0,0,1-.272.085m16.54-.823a.481.481,0,0,1-.21-.048,14.468,14.468,0,0,0-1.723-.7.481.481,0,0,1,.308-.912,15.6,15.6,0,0,1,1.837.751.481.481,0,0,1-.212.914M115.488,5.7a.481.481,0,0,1-.16-.935,14.85,14.85,0,0,1,1.914-.532.476.476,0,0,1,.569.374.482.482,0,0,1-.374.569,13.984,13.984,0,0,0-1.79.5.457.457,0,0,1-.16.027m9.489-.32a.518.518,0,0,1-.107-.012c-.627-.143-1.251-.256-1.853-.339a.481.481,0,0,1,.131-.953c.629.086,1.281.205,1.935.353a.481.481,0,0,1-.107.95m-5.736-.468a.481.481,0,0,1-.039-.961,17.122,17.122,0,0,1,1.979-.044.481.481,0,0,1,.464.5.476.476,0,0,1-.5.465,16.129,16.129,0,0,0-1.869.04l-.038,0" transform="translate(-3.893 -0.145)" fill="#261d2a"/>
          <path id="Trazado_881735" data-name="Trazado 881735" d="M129.05,75.743l-3.671-1.222-21.32,60c.074.032.15.056.223.09a8.9,8.9,0,1,1-2.064-.661l21.334-60.04-3.573-1.188C109.529,91.573,59.943,130.1,59.943,130.1c8.469,31.826,6.833,45.26,6.833,45.26L85.43,194.3l24.687-3.141c9.251-21.635,32.7-32.648,32.7-32.648-13.3-32.506-13.769-82.77-13.769-82.77" transform="translate(-2.228 -2.703)" fill="#a17296"/>
          <path id="Trazado_881736" data-name="Trazado 881736" d="M66.7,179.319l43.341,15.8c1.195-1.242-9.706,25.983-9.706,25.983L57.861,205.422Z" transform="translate(-2.15 -6.664)" fill="#403955"/>
          <path id="Trazado_881737" data-name="Trazado 881737" d="M79.534,122.523a.482.482,0,0,1-.272-.879c.166-.113,16.63-11.426,27.036-23.743a.481.481,0,1,1,.736.62c-10.491,12.42-27.062,23.8-27.228,23.918a.482.482,0,0,1-.272.084" transform="translate(-2.938 -3.632)" fill="#fcfdff"/>
          <path id="Trazado_881738" data-name="Trazado 881738" d="M105.422,199.232a.486.486,0,0,1-.151-.024L69.677,187.462a.481.481,0,0,1,.3-.914l35.594,11.746a.482.482,0,0,1-.151.939" transform="translate(-2.577 -6.932)" fill="#fcfdff"/>
          <path id="Trazado_881739" data-name="Trazado 881739" d="M99.783,208.169a.483.483,0,0,1-.117-.014l-34.713-8.611a.482.482,0,0,1,.232-.935L99.9,207.221a.481.481,0,0,1-.116.948" transform="translate(-2.4 -7.38)" fill="#fcfdff"/>
          <path id="Trazado_881740" data-name="Trazado 881740" d="M67.544,132.737a.482.482,0,0,1-.3-.862c2.245-1.747,7.7-5.135,7.93-5.277a.482.482,0,0,1,.508.818c-.057.035-5.642,3.5-7.846,5.219a.477.477,0,0,1-.3.1" transform="translate(-2.492 -4.702)" fill="#fcfdff"/>
          <path id="Trazado_881741" data-name="Trazado 881741" d="M166.076,203.413a.513.513,0,0,1-.1-.011c-.115-.024-11.5-2.52-17.408-11.848-3.638-5.742-4.491-12.828-2.534-21.059,1.282-5.392,4.146-11.9,7.179-18.8,7.35-16.711,16.5-37.509,9.156-55.841-4.843-12.09-16.018-21.639-34.161-29.19-44.2-18.4-61.449,14.537-76.668,43.6C39.507,133.23,29.118,153.068,8.073,144.42a.482.482,0,0,1,.366-.892c20.233,8.315,30.434-11.161,42.245-33.714C66.1,80.391,83.565,47.041,128.576,65.775c18.4,7.657,29.741,17.379,34.685,29.722,7.493,18.707-1.745,39.709-9.168,56.586-3.015,6.854-5.863,13.329-7.123,18.634-1.894,7.967-1.084,14.8,2.406,20.315,5.687,8.984,16.688,11.4,16.8,11.429a.481.481,0,0,1-.1.952" transform="translate(-0.289 -2.242)" fill="#261d2a"/>
          <rect id="Rectángulo_404159" data-name="Rectángulo 404159" width="10.56" height="10.56" transform="translate(2.828 143.287) rotate(-65.012)" fill="#be607a"/>
          <rect id="Rectángulo_404160" data-name="Rectángulo 404160" width="10.56" height="10.56" transform="translate(156.539 203.128) rotate(-65.012)" fill="#be607a"/>
          <rect id="Rectángulo_404161" data-name="Rectángulo 404161" width="10.56" height="10.56" transform="translate(118.816 67.424) rotate(-65.012)" fill="#be607a"/>
          <path id="Trazado_881742" data-name="Trazado 881742" d="M19.038,187a1.982,1.982,0,0,1-.584.8.877.877,0,0,1-.766.125c-1.671-.517-1.547-6.012-1.416-8.351a.481.481,0,0,1,.961.054c-.205,3.677.147,7.193.739,7.376.492-.289,1.19-3.822,1.456-7.718a.482.482,0,0,1,.961.065c-.1,1.465-.461,5.755-1.35,7.65" transform="translate(-0.602 -6.646)" fill="#261d2a"/>
          <path id="Trazado_881743" data-name="Trazado 881743" d="M37.185,180.442a.88.88,0,0,1-.777.505c-1.6.063-5.455-4.284-6.6-5.618a.481.481,0,1,1,.731-.626c2.543,2.966,5.215,5.384,5.836,5.282.282-.461-1.508-3.492-3.871-6.321a.481.481,0,1,1,.738-.617c1.454,1.739,4.666,5.849,3.941,7.395" transform="translate(-1.103 -6.424)" fill="#261d2a"/>
          <path id="Trazado_881744" data-name="Trazado 881744" d="M30.391,171.97a.476.476,0,0,1-.269.247l-15.331,5.657a.476.476,0,0,1-.39-.025.48.48,0,0,1-.243-.307c-.129-.505-3.126-12.433.121-17.193a4.294,4.294,0,0,1,3.127-1.934c7.636-.942,12.784,12.606,13,13.184a.457.457,0,0,1-.015.373m-15.424,4.812,14.359-5.3c-.956-2.329-5.642-12.875-11.8-12.115a3.325,3.325,0,0,0-2.449,1.52c-2.641,3.87-.647,13.541-.108,15.893" transform="translate(-0.475 -5.885)" fill="#261d2a"/>
          <path id="Trazado_881745" data-name="Trazado 881745" d="M12.716,172.757l7.113-4.372,8.275-1.112,9.983,1.279S25.661,188.157,5.992,179Z" transform="translate(-0.223 -6.216)" fill="#be607a"/>
          <path id="Trazado_881746" data-name="Trazado 881746" d="M22.852,163.783a.481.481,0,0,1-.893-.053c-.84-2.532-3.777-1.956-3.9-1.93a.482.482,0,0,1-.2-.943c1.345-.284,4.124-.115,5.013,2.569a.478.478,0,0,1-.021.356" transform="translate(-0.65 -5.974)" fill="#261d2a"/>
          <path id="Trazado_881747" data-name="Trazado 881747" d="M12.624,169.32l14.412-4.969,1.315,2.813-15.388,5.484Z" transform="translate(-0.469 -6.108)" fill="#e8c01b"/>
          <path id="Trazado_881748" data-name="Trazado 881748" d="M16.884,177.844l-.029.058a2.274,2.274,0,1,1,.029-.058m-3.372-1.579a1.38,1.38,0,1,0,.815-.725,1.374,1.374,0,0,0-.815.725" transform="translate(-0.461 -6.485)" fill="#261d2a"/>
          <path id="Trazado_881749" data-name="Trazado 881749" d="M25.358,176.635a2.343,2.343,0,0,1-4.345-.256,2.389,2.389,0,0,1,.13-1.79,2.344,2.344,0,0,1,4.319.314h0a2.34,2.34,0,0,1-.1,1.731m-3.371-1.58a1.381,1.381,0,1,0,.816-.725,1.379,1.379,0,0,0-.816.725m3.018,0,0-.009Z" transform="translate(-0.777 -6.44)" fill="#261d2a"/>
          <path id="Trazado_881750" data-name="Trazado 881750" d="M32.761,173.065a2.342,2.342,0,0,1-4.345-.256,2.4,2.4,0,0,1,.13-1.789,2.344,2.344,0,0,1,4.319.313h0a2.335,2.335,0,0,1-.1,1.731m-3.371-1.579a1.38,1.38,0,0,0,1.685,1.9,1.381,1.381,0,0,0-.869-2.621,1.366,1.366,0,0,0-.8.69c-.006.012-.012.023-.016.035m3.018,0,0-.009Z" transform="translate(-1.052 -6.307)" fill="#261d2a"/>
          <path id="Trazado_881751" data-name="Trazado 881751" d="M193.3,34.952a1.978,1.978,0,0,1-.983-.109.879.879,0,0,1-.49-.6c-.384-1.706,4.442-4.337,6.535-5.388a.482.482,0,0,1,.432.861c-3.291,1.654-6.164,3.711-6.028,4.315.5.283,3.907-.871,7.419-2.582a.482.482,0,0,1,.422.867c-1.321.643-5.221,2.466-7.306,2.639" transform="translate(-7.128 -1.07)" fill="#261d2a"/>
          <path id="Trazado_881752" data-name="Trazado 881752" d="M208.153,47.446a.926.926,0,0,1-.171,0,.877.877,0,0,1-.654-.42c-.852-1.358,1-6.865,1.586-8.52a.481.481,0,1,1,.906.322c-1.3,3.682-2.072,7.2-1.673,7.691.54.015,2.277-3.046,3.553-6.5a.481.481,0,1,1,.9.333c-.784,2.126-2.749,6.959-4.449,7.1" transform="translate(-7.697 -1.419)" fill="#261d2a"/>
          <path id="Trazado_881753" data-name="Trazado 881753" d="M211.645,37.384a.482.482,0,0,1-.349-.11L198.755,26.8a.481.481,0,0,1-.027-.714c.375-.364,9.224-8.9,14.97-8.459a4.292,4.292,0,0,1,3.234,1.749c4.621,6.153-4.564,17.364-4.957,17.838a.459.459,0,0,1-.331.172M199.789,26.406l11.746,9.812c1.543-1.989,8.355-11.306,4.627-16.267a3.323,3.323,0,0,0-2.538-1.367c-4.671-.363-12.065,6.183-13.835,7.822" transform="translate(-7.38 -0.654)" fill="#261d2a"/>
          <path id="Trazado_881754" data-name="Trazado 881754" d="M202.386,22.588l7.335,3.991,5.085,6.62,3.864,9.293s-23.19-1.01-25.047-22.626Z" transform="translate(-7.195 -0.738)" fill="#be607a"/>
          <path id="Trazado_881755" data-name="Trazado 881755" d="M215.579,26.69a.481.481,0,0,1-.4-.8c1.777-1.99-.186-4.249-.271-4.344a.481.481,0,0,1,.718-.641c.918,1.024,2.154,3.518.271,5.627a.482.482,0,0,1-.32.159" transform="translate(-7.982 -0.771)" fill="#261d2a"/>
          <path id="Trazado_881756" data-name="Trazado 881756" d="M205.442,20.666l11.488,10.021-1.785,2.543L202.724,22.617Z" transform="translate(-7.534 -0.768)" fill="#e8c01b"/>
          <path id="Trazado_881757" data-name="Trazado 881757" d="M200.318,28.541l-.065,0a2.373,2.373,0,1,1,.065,0m-.31-3.71a1.381,1.381,0,1,0,1.034.346,1.376,1.376,0,0,0-1.034-.346" transform="translate(-7.35 -0.887)" fill="#261d2a"/>
          <path id="Trazado_881758" data-name="Trazado 881758" d="M205.588,35.289a2.343,2.343,0,0,1-1.942-3.9,2.384,2.384,0,0,1,1.616-.779,2.343,2.343,0,0,1,.326,4.675m-.309-3.71a1.38,1.38,0,1,0,1.034.346,1.372,1.372,0,0,0-1.034-.346m1.5,2.616h0Z" transform="translate(-7.546 -1.138)" fill="#261d2a"/>
          <path id="Trazado_881759" data-name="Trazado 881759" d="M212.371,39.93a2.342,2.342,0,0,1-1.942-3.9,2.391,2.391,0,0,1,1.616-.779,2.343,2.343,0,0,1,.326,4.675m-.31-3.711a1.442,1.442,0,1,0,.038,0l-.038,0m1.5,2.617h0Z" transform="translate(-7.798 -1.31)" fill="#261d2a"/>
        </g>
      </g>
    </g>
    <g id="Grupo_1103603" data-name="Grupo 1103603" transform="translate(-43 -117.958)">
      <rect id="Rectángulo_404156" data-name="Rectángulo 404156" width="248" height="81.916" transform="translate(247 1625)" fill="#5b2ccf"/>
    </g>
  </g>
</svg>
