<svg id="Grupo_1099729" data-name="Grupo 1099729" xmlns="http://www.w3.org/2000/svg" width="80" height="80" viewBox="0 0 80 80">
  <rect id="Rectángulo_401800" data-name="Rectángulo 401800" width="80" height="80" rx="5" fill="#5b2ccf"/>
  <g id="Grupo_1102677" data-name="Grupo 1102677" transform="translate(13.383 13.383)">
    <path id="Trazado_879904" data-name="Trazado 879904" d="M30.159,3.962,21.471,12.65a13.436,13.436,0,0,0-3.329,5.488,13.524,13.524,0,0,0-5.492,3.333L3.962,30.159A13.514,13.514,0,0,0,23.074,49.271l8.688-8.688A13.426,13.426,0,0,0,35.09,35.1a13.516,13.516,0,0,0,5.492-3.333l8.688-8.688A13.514,13.514,0,0,0,30.159,3.962ZM18.531,27.351a13.512,13.512,0,0,0,7.35,7.352l-8.687,8.688A5.2,5.2,0,0,1,9.843,36.04l8.688-8.688h0Zm11.76,11.762L21.6,47.8A11.435,11.435,0,0,1,5.432,31.629l8.688-8.688a11.463,11.463,0,0,1,3.5-2.39,13.583,13.583,0,0,0,.232,4.646,7.286,7.286,0,0,0-.792.685L8.372,34.569A7.277,7.277,0,0,0,18.664,44.86l8.688-8.688a7.28,7.28,0,0,0,0-10.291,5.2,5.2,0,0,1-1.163-5.575,11.437,11.437,0,0,1,4.1,18.806ZM47.8,21.6l-8.688,8.688a11.463,11.463,0,0,1-3.5,2.39,13.593,13.593,0,0,0-.232-4.646,7.281,7.281,0,0,0,.792-.685l8.688-8.688A7.277,7.277,0,0,0,35.484,7.6a1.04,1.04,0,0,0,1.209,1.691,5.2,5.2,0,0,1,6.7,7.906L34.7,25.881h0a13.514,13.514,0,0,0-7.35-7.352l3.542-3.542a1.04,1.04,0,0,0-1.47-1.47L25.881,17.06a7.28,7.28,0,0,0,0,10.291,5.2,5.2,0,0,1,1.163,5.575,11.438,11.438,0,0,1-4.1-18.806l8.688-8.688A11.435,11.435,0,0,1,47.8,21.6Zm0,0" transform="translate(0 0)" fill="#fff"/>
    <path id="Trazado_879905" data-name="Trazado 879905" d="M310.435,99.845a1.039,1.039,0,1,1-1.039-1.04A1.039,1.039,0,0,1,310.435,99.845Zm0,0" transform="translate(-276.296 -88.532)" fill="#fff"/>
    <path id="Trazado_879906" data-name="Trazado 879906" d="M82.5,82.5a1.039,1.039,0,0,0,0-1.47l-4.41-4.41a1.04,1.04,0,0,0-1.47,1.471l4.41,4.41A1.04,1.04,0,0,0,82.5,82.5Zm0,0" transform="translate(-68.381 -68.381)" fill="#fff"/>
    <path id="Trazado_879907" data-name="Trazado 879907" d="M29.067,168.012a1.039,1.039,0,0,0,0,2.079H35.3a1.039,1.039,0,0,0,0-2.079Zm0,0" transform="translate(-25.113 -150.543)" fill="#fff"/>
    <path id="Trazado_879908" data-name="Trazado 879908" d="M168.012,26.067V32.3a1.039,1.039,0,1,0,2.079,0V26.067a1.039,1.039,0,1,0-2.079,0Zm0,0" transform="translate(-150.544 -22.424)" fill="#fff"/>
    <path id="Trazado_879909" data-name="Trazado 879909" d="M373.57,373.573a1.039,1.039,0,0,0,0,1.47l4.411,4.41a1.04,1.04,0,1,0,1.47-1.47l-4.41-4.41A1.04,1.04,0,0,0,373.57,373.573Zm0,0" transform="translate(-334.457 -334.46)" fill="#fff"/>
    <path id="Trazado_879910" data-name="Trazado 879910" d="M325.071,414.262v-6.238a1.04,1.04,0,0,0-2.079,0v6.238a1.04,1.04,0,0,0,2.079,0Zm0,0" transform="translate(-289.411 -364.671)" fill="#fff"/>
    <path id="Trazado_879911" data-name="Trazado 879911" d="M414.262,325.071a1.04,1.04,0,0,0,0-2.079h-6.238a1.04,1.04,0,0,0,0,2.079Zm0,0" transform="translate(-364.671 -289.411)" fill="#fff"/>
  </g>
</svg>
