<svg xmlns="http://www.w3.org/2000/svg" xmlns:xlink="http://www.w3.org/1999/xlink" width="1240" height="1049.61" viewBox="0 0 1240 1049.61">
  <defs>
    <clipPath id="clip-path">
      <rect id="Rectángulo_404104" data-name="Rectángulo 404104" width="190" height="236" transform="translate(180 10194)" fill="#fff" stroke="#707070" stroke-width="1"/>
    </clipPath>
    <clipPath id="clip-path-2">
      <rect id="Rectángulo_402156" data-name="Rectángulo 402156" width="295" height="51.611" fill="none"/>
    </clipPath>
  </defs>
  <g id="Grupo_1103687" data-name="Grupo 1103687" transform="translate(-180 -10393)">
    <g id="Enmascarar_grupo_1099801" data-name="Enmascarar grupo 1099801" transform="translate(0 199)" opacity="0.2" clip-path="url(#clip-path)">
      <g id="Grupo_1103191" data-name="Grupo 1103191" transform="translate(136 10221.937)">
        <path id="Trazado_875036" data-name="Trazado 875036" d="M176.393,94.072A82.322,82.322,0,1,1,94.072,11.75a82.322,82.322,0,0,1,82.322,82.322" transform="translate(-11.75 -11.75)" fill="#31a8ff"/>
        <circle id="Elipse_11548" data-name="Elipse 11548" cx="82.322" cy="82.322" r="82.322" transform="translate(23.993 4.332)" fill="none" stroke="#5b2ccf" stroke-linecap="round" stroke-linejoin="round" stroke-width="2"/>
        <circle id="Elipse_11549" data-name="Elipse 11549" cx="39.717" cy="39.717" r="39.717" transform="translate(66.598 46.937)" fill="none" stroke="#5b2ccf" stroke-linecap="round" stroke-linejoin="round" stroke-width="2"/>
      </g>
    </g>
    <g id="Grupo_1103192" data-name="Grupo 1103192" transform="translate(1125 11391)" opacity="0.3">
      <g id="Grupo_1100384" data-name="Grupo 1100384" clip-path="url(#clip-path-2)">
        <path id="Trazado_874960" data-name="Trazado 874960" d="M171.243,19.056l36.548,25.775L244.356,19.08" transform="translate(49.348 5.491)" fill="none" stroke="#31a8ff" stroke-linecap="round" stroke-linejoin="round" stroke-width="2"/>
        <path id="Trazado_874961" data-name="Trazado 874961" d="M57.744,19.019,94.286,44.794l36.56-25.751L167.39,44.818" transform="translate(16.64 5.481)" fill="none" stroke="#31a8ff" stroke-linecap="round" stroke-linejoin="round" stroke-width="2"/>
        <line id="Línea_633" data-name="Línea 633" x2="36.542" y2="25.775" transform="translate(1.288 24.475)" fill="none" stroke="#31a8ff" stroke-linecap="round" stroke-linejoin="round" stroke-width="2"/>
        <path id="Trazado_874962" data-name="Trazado 874962" d="M142.867,26.807l36.56-25.752,36.548,25.776L252.541,1.08" transform="translate(41.171 0.304)" fill="none" stroke="#5b2ccf" stroke-linecap="round" stroke-linejoin="round" stroke-width="2"/>
        <path id="Trazado_874963" data-name="Trazado 874963" d="M1.006,1,37.548,26.775,74.1,1.024,110.644,26.8,147.2,1.048" transform="translate(0.29 0.288)" fill="none" stroke="#5b2ccf" stroke-linecap="round" stroke-linejoin="round" stroke-width="2"/>
      </g>
    </g>
  </g>
</svg>
