<svg xmlns="http://www.w3.org/2000/svg" width="85" height="85" viewBox="0 0 85 85">
  <g id="Grupo_1103234" data-name="Grupo 1103234" transform="translate(-200 -12009)">
    <rect id="Rectángulo_404131" data-name="Rectángulo 404131" width="85" height="85" transform="translate(200 12009)" fill="#fbd8d1"/>
    <g id="Grupo_1103233" data-name="Grupo 1103233" transform="translate(183.5 12020.752)">
      <g id="Grupo_1103232" data-name="Grupo 1103232" transform="translate(32.109 0)">
        <g id="Grupo_1103219" data-name="Grupo 1103219" transform="translate(9.286 0.901)">
          <path id="Trazado_881178" data-name="Trazado 881178" d="M143.418,7.5h-31.8a2.2,2.2,0,0,0-2.193,2.189V65a2.2,2.2,0,0,0,2.193,2.193H150.83A2.2,2.2,0,0,0,153.019,65V17.1l-6.595-3.221Z" transform="translate(-109.423 -7.5)" fill="#f9f3f1" fill-rule="evenodd"/>
        </g>
        <g id="Grupo_1103220" data-name="Grupo 1103220" transform="translate(43.281 0.901)">
          <path id="Trazado_881179" data-name="Trazado 881179" d="M392.456,14.759A2.351,2.351,0,0,0,394.8,17.1h7.259l-9.6-9.6Z" transform="translate(-392.456 -7.5)" fill="#375e7d" fill-rule="evenodd"/>
        </g>
        <g id="Grupo_1103221" data-name="Grupo 1103221" transform="translate(47.064 10.502)">
          <path id="Trazado_881180" data-name="Trazado 881180" d="M426.137,87.437v47.9a2.2,2.2,0,0,1-2.189,2.193h3.629a2.2,2.2,0,0,0,2.189-2.193v-47.9Z" transform="translate(-423.948 -87.437)" fill="#dddaec" fill-rule="evenodd"/>
        </g>
        <g id="Grupo_1103222" data-name="Grupo 1103222" transform="translate(14.911 21.744)">
          <path id="Trazado_881181" data-name="Trazado 881181" d="M157.547,213.631h30a1.3,1.3,0,0,0,1.3-1.3v-30a1.3,1.3,0,0,0-1.3-1.3h-30a1.3,1.3,0,0,0-1.3,1.3v30A1.3,1.3,0,0,0,157.547,213.631Z" transform="translate(-156.25 -181.038)" fill="#75cef8" fill-rule="evenodd"/>
        </g>
        <g id="Grupo_1103223" data-name="Grupo 1103223" transform="translate(42.634 21.744)">
          <path id="Trazado_881182" data-name="Trazado 881182" d="M388.367,182.335v30a1.3,1.3,0,0,1-1.3,1.3h3.571a1.3,1.3,0,0,0,1.3-1.3v-30a1.3,1.3,0,0,0-1.3-1.3H387.07A1.3,1.3,0,0,1,388.367,182.335Z" transform="translate(-387.07 -181.038)" fill="#60b7ff" fill-rule="evenodd"/>
        </g>
        <g id="Grupo_1103224" data-name="Grupo 1103224" transform="translate(20.456 38.361)">
          <path id="Trazado_881183" data-name="Trazado 881183" d="M211.459,319.674l-8.5,4.661c-.637.344-.715.868-.184,1.161l3.125,1.713,5.744,3.146a2.482,2.482,0,0,0,2.121-.1l5.563-3.047,2.945-1.614c.633-.347.712-.868.18-1.161l-8.869-4.859A2.494,2.494,0,0,0,211.459,319.674Z" transform="translate(-202.418 -319.384)" fill="#eb5468" fill-rule="evenodd"/>
        </g>
        <g id="Grupo_1103225" data-name="Grupo 1103225" transform="translate(20.456 33.857)">
          <path id="Trazado_881184" data-name="Trazado 881184" d="M211.459,282.177l-8.5,4.661c-.637.344-.715.868-.184,1.161l3.125,1.713,5.744,3.146a2.482,2.482,0,0,0,2.121-.1l5.563-3.047,2.945-1.614c.633-.344.712-.868.18-1.161l-8.869-4.855A2.481,2.481,0,0,0,211.459,282.177Z" transform="translate(-202.418 -281.886)" fill="#fec165" fill-rule="evenodd"/>
        </g>
        <g id="Grupo_1103226" data-name="Grupo 1103226" transform="translate(20.456 29.051)">
          <path id="Trazado_881185" data-name="Trazado 881185" d="M211.459,242.165l-8.5,4.661c-.637.344-.715.868-.184,1.161L205.9,249.7l5.744,3.146a2.482,2.482,0,0,0,2.121-.1l5.563-3.047,2.945-1.614c.633-.347.712-.868.18-1.161l-8.869-4.859A2.482,2.482,0,0,0,211.459,242.165Z" transform="translate(-202.418 -241.873)" fill="#f9f3f1" fill-rule="evenodd"/>
        </g>
        <g id="Grupo_1103227" data-name="Grupo 1103227" transform="translate(22.309 37.038)">
          <path id="Trazado_881186" data-name="Trazado 881186" d="M224.918,313.277a3.524,3.524,0,0,0,3.337-.208l6.268-3.653-1.913-1.045-4.113,2.25-1.161.637a2.482,2.482,0,0,1-2.121.1l-1.341-.735-4.113-2.25-1.913,1.045Z" transform="translate(-217.847 -308.371)" fill="#fdb441" fill-rule="evenodd"/>
        </g>
        <g id="Grupo_1103228" data-name="Grupo 1103228" transform="translate(21.839 41.692)">
          <path id="Trazado_881187" data-name="Trazado 881187" d="M213.934,348.274l7.476,4.1a3.423,3.423,0,0,0,2.908-.136l7.231-3.96-2.107-1.154-5.55,3.037a2.482,2.482,0,0,1-2.121.1l-5.727-3.136Z" transform="translate(-213.934 -347.12)" fill="#e5384f" fill-rule="evenodd"/>
        </g>
        <g id="Grupo_1103229" data-name="Grupo 1103229" transform="translate(0.901 8.555)">
          <path id="Trazado_881188" data-name="Trazado 881188" d="M41.132,71.223H74.079a1.533,1.533,0,0,1,1.529,1.529V86.2a1.533,1.533,0,0,1-1.529,1.529H41.132A1.53,1.53,0,0,1,39.607,86.2V72.752A1.53,1.53,0,0,1,41.132,71.223Z" transform="translate(-39.607 -71.223)" fill="#fec165" fill-rule="evenodd"/>
        </g>
        <g id="Grupo_1103230" data-name="Grupo 1103230" transform="translate(30.769 8.555)">
          <path id="Trazado_881189" data-name="Trazado 881189" d="M289.81,72.752V86.207a1.532,1.532,0,0,1-1.525,1.525h4.6a1.534,1.534,0,0,0,1.529-1.525V72.752a1.533,1.533,0,0,0-1.529-1.529h-4.6A1.532,1.532,0,0,1,289.81,72.752Z" transform="translate(-288.285 -71.223)" fill="#fdb441" fill-rule="evenodd"/>
        </g>
        <g id="Grupo_1103231" data-name="Grupo 1103231" transform="translate(0)">
          <path id="Trazado_881190" data-name="Trazado 881190" d="M85.627,9.864l-9.6-9.6a.9.9,0,0,0-.3-.2l-.007,0c-.025-.01-.05-.019-.075-.027l-.017,0c-.022-.006-.045-.012-.068-.017L75.53.012,75.481,0a.9.9,0,0,0-.09,0h-31.8a3.1,3.1,0,0,0-3.094,3.09V7.653H34.535a2.431,2.431,0,0,0-2.426,2.43V23.536a2.431,2.431,0,0,0,2.426,2.43h5.959V58.4A3.1,3.1,0,0,0,43.588,61.5h6.8a.9.9,0,1,0,0-1.8h-6.8A1.293,1.293,0,0,1,42.3,58.4V25.965h3.823V53.04a2.2,2.2,0,0,0,2.2,2.2h30a2.2,2.2,0,0,0,2.2-2.2v-19a.9.9,0,1,0-1.8,0v19a.4.4,0,0,1-.4.4h-30a.4.4,0,0,1-.4-.4V25.965H67.481a2.433,2.433,0,0,0,2.43-2.43v-.89h8.4a.4.4,0,0,1,.4.4v6.82a.9.9,0,1,0,1.8,0v-6.82a2.2,2.2,0,0,0-2.2-2.2h-8.4V10.083a2.433,2.433,0,0,0-2.43-2.43H42.3V3.09A1.292,1.292,0,0,1,43.588,1.8h30.9V8.16A3.247,3.247,0,0,0,77.733,11.4H84.09v47A1.291,1.291,0,0,1,82.8,59.695H54.565a.9.9,0,0,0,0,1.8H82.8A3.1,3.1,0,0,0,85.892,58.4v-47.9s0,0,0,0a.9.9,0,0,0-.265-.638ZM67.481,9.455a.629.629,0,0,1,.628.628V23.536a.629.629,0,0,1-.628.628H34.535a.627.627,0,0,1-.625-.628V10.083a.627.627,0,0,1,.625-.628ZM77.733,9.6A1.443,1.443,0,0,1,76.291,8.16V3.076L82.817,9.6Z" transform="translate(-32.109 0)"/>
          <path id="Trazado_881191" data-name="Trazado 881191" d="M217.1,240.832a1.461,1.461,0,0,0-.82-1.282l-8.869-4.858a3.375,3.375,0,0,0-2.987.1l-8.5,4.658a1.708,1.708,0,0,0-1.008,1.457,1.458,1.458,0,0,0,.817,1.286h0l1.975,1.082-1.786.979a1.708,1.708,0,0,0-1.008,1.457,1.458,1.458,0,0,0,.817,1.286h0l1.7.932-1.513.829a1.708,1.708,0,0,0-1.008,1.457,1.458,1.458,0,0,0,.817,1.286h0l8.867,4.857a2.807,2.807,0,0,0,1.336.3,3.508,3.508,0,0,0,1.653-.4L216.1,251.6a1.711,1.711,0,0,0,1-1.459,1.461,1.461,0,0,0-.82-1.282l-1.7-.932,1.516-.83a1.707,1.707,0,0,0,1-1.457,1.46,1.46,0,0,0-.819-1.286l-1.972-1.082,1.792-.982a1.71,1.71,0,0,0,1-1.459Zm-2.158,9.348-8.216,4.5a1.627,1.627,0,0,1-1.255.1l-8.395-4.6,2.235-1.224,5.292,2.9a3.3,3.3,0,0,0,3.021-.115l5.083-2.785Zm0-4.5-8.216,4.5a1.694,1.694,0,0,1-1.21.12.408.408,0,0,1-.045-.021l-8.395-4.6,2.508-1.374,5.019,2.748a3.04,3.04,0,0,0,1.9.259,4.294,4.294,0,0,0,1.42-.54l4.507-2.469Zm-8.216-.3a1.629,1.629,0,0,1-1.255.1l-8.395-4.6,8.214-4.5a1.635,1.635,0,0,1,1.255-.1l8.4,4.6Z" transform="translate(-175.362 -206.237)"/>
          <path id="Trazado_881192" data-name="Trazado 881192" d="M153.424,105.633a3.494,3.494,0,0,0,3.526-2.664c.206-1.154-.328-2.665-2.445-3.447-1.124-.414-2.165-.865-2.45-.989a.819.819,0,0,1-.316-.788,1.09,1.09,0,0,1,.851-.879,3.158,3.158,0,0,1,2.63.6.9.9,0,0,0,1.156-1.382,4.944,4.944,0,0,0-4.305-.946,2.913,2.913,0,0,0-2.115,2.347,2.614,2.614,0,0,0,1.164,2.589.9.9,0,0,0,.126.069c.051.023,1.265.563,2.636,1.068.926.342,1.4.866,1.3,1.44a1.7,1.7,0,0,1-1.753,1.179,3.315,3.315,0,0,1-2.426-1.02.9.9,0,0,0-1.331,1.214A5.074,5.074,0,0,0,153.424,105.633Z" transform="translate(-135.34 -83.556)"/>
          <path id="Trazado_881193" data-name="Trazado 881193" d="M81.391,95.85v8.869a.9.9,0,1,0,1.8,0v-2.958c.544,0,1.208-.006,1.571-.006a3.4,3.4,0,1,0,0-6.806H82.292a.868.868,0,0,0-.636.225A.877.877,0,0,0,81.391,95.85Zm3.373.9a1.6,1.6,0,1,1,0,3.2c-.36,0-1.014,0-1.557.006,0-.56-.007-1.242-.007-1.607,0-.31,0-1.017,0-1.6Z" transform="translate(-75.47 -83.543)"/>
        </g>
      </g>
      <path id="Trazado_881194" data-name="Trazado 881194" d="M231.338,106.626a.9.9,0,0,0,.9.9h0c.074,0,1.81-.007,2.5-.017,2.485-.045,4.289-2.226,4.289-5.187,0-3.113-1.759-5.2-4.377-5.2h-2.438a.9.9,0,0,0-.9.9s.007,3.311.007,4.295C231.328,103.508,231.338,106.626,231.338,106.626Zm3.321-7.709c1.9,0,2.575,1.758,2.575,3.4,0,1.609-.789,3.355-2.517,3.386-.36.005-1.028.01-1.581.013,0-1.014-.007-2.622-.007-3.405,0-.655,0-2.34-.005-3.4h1.535Z" transform="translate(-175.285 -85.451)"/>
    </g>
  </g>
</svg>
