<svg xmlns="http://www.w3.org/2000/svg" width="85" height="65.5" viewBox="0 0 85 65.5">
  <g id="Grupo_1102554" data-name="Grupo 1102554" transform="translate(-180 -2916)">
    <rect id="Rectángulo_403702" data-name="Rectángulo 403702" width="85" height="65.5" transform="translate(180 2916)" fill="#fdefec"/>
    <g id="Grupo_1102553" data-name="Grupo 1102553" transform="translate(196.424 2922.01)">
      <g id="Grupo_1102551" data-name="Grupo 1102551" transform="translate(0.775 1.458)">
        <path id="Trazado_879764" data-name="Trazado 879764" d="M121.5,28.18v-20h27.057v20" transform="translate(-109.725 -8.183)" fill="#efefef"/>
        <path id="Trazado_879765" data-name="Trazado 879765" d="M121.5,156.084v-5.267h27.057v5.267" transform="translate(-109.725 -136.087)" fill="#e0e0e0"/>
        <path id="Trazado_879766" data-name="Trazado 879766" d="M46.482,202.624H53.83a4.272,4.272,0,0,0,4.272-4.271V181.088a4.272,4.272,0,0,0-4.272-4.271H11.771A4.272,4.272,0,0,0,7.5,181.088v17.265a4.272,4.272,0,0,0,4.271,4.271h7.348" transform="translate(-7.5 -159.402)" fill="#494f56"/>
        <path id="Trazado_879767" data-name="Trazado 879767" d="M11.424,198.353V181.088a4.272,4.272,0,0,1,4.271-4.271H11.771A4.272,4.272,0,0,0,7.5,181.088v17.265a4.272,4.272,0,0,0,4.271,4.271H15.7A4.272,4.272,0,0,1,11.424,198.353Z" transform="translate(-7.5 -159.402)" fill="#36393d"/>
        <path id="Trazado_879768" data-name="Trazado 879768" d="M118.522,301.079h3.851v-8.262H88.5v8.262h3.851" transform="translate(-80.135 -263.423)" fill="#36393d"/>
        <path id="Trazado_879769" data-name="Trazado 879769" d="M141.41,345.6H112.494l1.868-17.415h25.181Z" transform="translate(-101.651 -295.137)" fill="#efefef"/>
        <circle id="Elipse_11629" data-name="Elipse 11629" cx="2.685" cy="2.685" r="2.685" transform="translate(3.201 20.616)" fill="#40d39b"/>
        <circle id="Elipse_11630" data-name="Elipse 11630" cx="2.685" cy="2.685" r="2.685" transform="translate(11.256 20.616)" fill="#fc6947"/>
      </g>
      <g id="Grupo_1102552" data-name="Grupo 1102552" transform="translate(0 0.683)">
        <path id="Trazado_879770" data-name="Trazado 879770" d="M114.772,17.225a.774.774,0,0,0,.775-.775V2.232h25.508V16.45a.775.775,0,0,0,1.549,0V1.458a.774.774,0,0,0-.775-.775H114.772a.774.774,0,0,0-.775.775V16.45A.774.774,0,0,0,114.772,17.225Z" transform="translate(-102.225 -0.683)"/>
        <path id="Trazado_879771" data-name="Trazado 879771" d="M133.268,322.232h1.053a.775.775,0,1,0,0-1.549H105.31a.775.775,0,1,0,0,1.549h1.053l-1.3,12.135a.775.775,0,1,0,1.54.165l1.319-12.3H131.71l1.7,15.866H106.219l.105-.981a.775.775,0,1,0-1.54-.165l-.2,1.838a.774.774,0,0,0,.77.857h28.916a.774.774,0,0,0,.77-.857Z" transform="translate(-93.74 -287.637)"/>
        <path id="Trazado_879772" data-name="Trazado 879772" d="M9.811,195.124H5.046a3.5,3.5,0,0,1-3.5-3.5V174.363a3.5,3.5,0,0,1,3.5-3.5H42.909a.775.775,0,1,0,0-1.549H5.046A5.051,5.051,0,0,0,0,174.363v17.265a5.051,5.051,0,0,0,5.046,5.046H9.811a.775.775,0,0,0,0-1.549Z" transform="translate(0 -151.902)"/>
        <path id="Trazado_879773" data-name="Trazado 879773" d="M408.022,169.317h-1.614a.775.775,0,1,0,0,1.549h1.614a3.5,3.5,0,0,1,3.5,3.5v17.265a3.5,3.5,0,0,1-3.5,3.5h-4.766a.775.775,0,0,0,0,1.549h4.766a5.052,5.052,0,0,0,5.047-5.046V174.363A5.052,5.052,0,0,0,408.022,169.317Z" transform="translate(-360.918 -151.902)"/>
        <path id="Trazado_879774" data-name="Trazado 879774" d="M114.378,293.579a.775.775,0,0,0,0,1.549h1.269a.774.774,0,0,0,.775-.775v-8.262a.774.774,0,0,0-.775-.775H81.775a.774.774,0,0,0-.775.775v8.262a.774.774,0,0,0,.775.775h1.269a.775.775,0,0,0,0-1.549h-.494v-6.713h32.324v6.713Z" transform="translate(-72.635 -255.923)"/>
        <path id="Trazado_879775" data-name="Trazado 879775" d="M37.919,203.778a3.46,3.46,0,1,0-3.46,3.46A3.463,3.463,0,0,0,37.919,203.778Zm-3.46,1.91a1.91,1.91,0,1,1,1.91-1.91A1.913,1.913,0,0,1,34.46,205.688Z" transform="translate(-27.799 -179.702)"/>
        <path id="Trazado_879776" data-name="Trazado 879776" d="M115.919,203.778a3.46,3.46,0,1,0-3.46,3.46A3.463,3.463,0,0,0,115.919,203.778Zm-5.37,0a1.91,1.91,0,1,1,1.91,1.91A1.913,1.913,0,0,1,110.549,203.778Z" transform="translate(-97.744 -179.702)"/>
        <path id="Trazado_879777" data-name="Trazado 879777" d="M147.5,446.091a.774.774,0,0,0,.775.775h20.138a.775.775,0,0,0,0-1.549H148.272A.774.774,0,0,0,147.5,446.091Z" transform="translate(-132.265 -399.4)"/>
        <path id="Trazado_879778" data-name="Trazado 879778" d="M152.245,412.091a.774.774,0,0,0,.775.775h19.157a.775.775,0,1,0,0-1.549H153.02A.774.774,0,0,0,152.245,412.091Z" transform="translate(-136.523 -368.911)"/>
        <path id="Trazado_879779" data-name="Trazado 879779" d="M175.35,378.866a.775.775,0,1,0,0-1.549H157.02a.775.775,0,0,0,0,1.549Z" transform="translate(-140.11 -338.422)"/>
      </g>
    </g>
  </g>
</svg>
